<?xml version="1.0" encoding="utf-8"?>
<!-- Generator: Adobe Illustrator 23.0.4, SVG Export Plug-In . SVG Version: 6.00 Build 0)  -->
<svg version="1.1" id="Layer_1" xmlns:sketch="http://www.bohemiancoding.com/sketch/ns"
	 xmlns="http://www.w3.org/2000/svg" xmlns:xlink="http://www.w3.org/1999/xlink" x="0px" y="0px" viewBox="0 0 193 193"
	 style="enable-background:new 0 0 193 193;" xml:space="preserve">
<style type="text/css">
	.st0{fill-rule:evenodd;clip-rule:evenodd;fill:none;}
	.st1{filter:url(#Adobe_OpacityMaskFilter);}
	.st2{mask:url(#mask-2_1_);
	fill-rule:evenodd;
	clip-rule:evenodd;
	fill:#5579D2;}
	.st3{filter:url(#Adobe_OpacityMaskFilter_1_);}
	.st4{mask:url(#mask-4_1_);fill-rule:evenodd;clip-rule:evenodd;fill:none;}
	.st5{filter:url(#Adobe_OpacityMaskFilter_2_);}
	.st6{mask:url(#mask-8_1_);fill-rule:evenodd;clip-rule:evenodd;fill:none;fill-opacity:0.44;}
	.st7{filter:url(#Adobe_OpacityMaskFilter_3_);}
	.st8{mask:url(#mask-10_1_);fill-rule:evenodd;clip-rule:evenodd;fill:#5579D2;}
	.st9{fill:none;stroke:#1485E0;stroke-width:2;}
	.st10{filter:url(#Adobe_OpacityMaskFilter_4_);}
	.st11{mask:url(#mask-12_1_);fill-rule:evenodd;clip-rule:evenodd;fill:none;}
	.st12{filter:url(#Adobe_OpacityMaskFilter_5_);}
	.st13{mask:url(#mask-14_1_);fill-rule:evenodd;clip-rule:evenodd;fill:none;}
	.st14{filter:url(#Adobe_OpacityMaskFilter_6_);}
	.st15{mask:url(#mask-16_1_);fill-rule:evenodd;clip-rule:evenodd;fill:none;}
	.st16{fill:none;stroke:#1485E0;stroke-width:4;}
	.st17{fill-rule:evenodd;clip-rule:evenodd;fill:#1485E0;}
</style>
<title>cli</title>
<desc>Created with Sketch Beta.</desc>
<g id="CLI" sketch:type="MSPage">
	<g id="WINNER" transform="translate(-986.000000, -3780.000000)" sketch:type="MSArtboardGroup">
		<g transform="translate(194.000000, 3302.000000)" sketch:type="MSLayerGroup">
			<g id="super-icons" transform="translate(65.000000, 158.000000)">
				<g id="https_window" transform="translate(727.000000, 320.000000)">
					<rect id="Rectangle-21" sketch:type="MSShapeGroup" class="st0" width="193" height="193">
					</rect>
					<g id="Group-3" transform="translate(4.000000, 29.000000)">
						<g id="Clip-2">
						</g>
						<defs>
							<filter id="Adobe_OpacityMaskFilter" filterUnits="userSpaceOnUse" x="-3.5" y="-3.5" width="192.1" height="146.1">
								<feColorMatrix  type="matrix" values="1 0 0 0 0  0 1 0 0 0  0 0 1 0 0  0 0 0 1 0"/>
							</filter>
						</defs>
						<mask maskUnits="userSpaceOnUse" x="-3.5" y="-3.5" width="192.1" height="146.1" id="mask-2_1_">
							<g class="st1">
								<path id="path-1_1_" class="st0" d="M0,0h185v139H0V0L0,0z"/>
							</g>
						</mask>
						<path id="Fill-1" sketch:type="MSShapeGroup" class="st2" d="M-3.5-3.5h192.1v146.1H-3.5V-3.5z"/>
					</g>
					<g id="Group-6" transform="translate(4.708812, 29.709184)">
						<g id="Clip-5">
						</g>
						<defs>
							<filter id="Adobe_OpacityMaskFilter_1_" filterUnits="userSpaceOnUse" x="-3" y="-3.2" width="189.3" height="21.3">
								<feColorMatrix  type="matrix" values="1 0 0 0 0  0 1 0 0 0  0 0 1 0 0  0 0 0 1 0"/>
							</filter>
						</defs>
						<mask maskUnits="userSpaceOnUse" x="-3" y="-3.2" width="189.3" height="21.3" id="mask-4_1_">
							<g class="st3">
								<path id="path-3_1_" class="st0" d="M180.6,0.4H2.7c-1.2,0-2.1,0.9-2.1,2.1v12.1h182.2V2.5C182.7,1.3,181.8,0.4,180.6,0.4
									L180.6,0.4z"/>
							</g>
						</mask>
						<path id="Fill-4" sketch:type="MSShapeGroup" class="st4" d="M-3-3.2h189.3v21.3H-3V-3.2z"/>
					</g>
					<g id="Group-12" transform="translate(4.000000, 43.892857)">
						<g id="Clip-11">
						</g>
						<defs>
							<filter id="Adobe_OpacityMaskFilter_2_" filterUnits="userSpaceOnUse" x="-3.7" y="-3.2" width="140" height="130.5">
								<feColorMatrix  type="matrix" values="1 0 0 0 0  0 1 0 0 0  0 0 1 0 0  0 0 0 1 0"/>
							</filter>
						</defs>
						<mask maskUnits="userSpaceOnUse" x="-3.7" y="-3.2" width="140" height="130.5" id="mask-8_1_">
							<g class="st5">
								<path id="path-7_1_" class="st0" d="M0.1,123.8V0.4h132.6L86.3,123.8H0.1L0.1,123.8L0.1,123.8z"/>
							</g>
						</mask>
						<path id="Fill-10" sketch:type="MSShapeGroup" class="st6" d="M-3.7-3.2h140v130.5h-140V-3.2z"/>
					</g>
					<g id="Group-18" transform="translate(5.417625, 43.892857)">
						<g id="Group-15">
							<g id="Clip-14">
							</g>
							<defs>
								<filter id="Adobe_OpacityMaskFilter_3_" filterUnits="userSpaceOnUse" x="-3.5" y="-3.5" width="189.3" height="7.1">
									<feColorMatrix  type="matrix" values="1 0 0 0 0  0 1 0 0 0  0 0 1 0 0  0 0 0 1 0"/>
								</filter>
							</defs>
							<mask maskUnits="userSpaceOnUse" x="-3.5" y="-3.5" width="189.3" height="7.1" id="mask-10_1_">
								<g class="st7">
									<path id="path-9_1_" class="st0" d="M0,0h182.2H0L0,0z"/>
								</g>
							</mask>
							<path id="Fill-13" sketch:type="MSShapeGroup" class="st8" d="M-3.5-3.5h189.3v7.1H-3.5V-3.5z"/>
						</g>
						<path id="Stroke-16" sketch:type="MSShapeGroup" class="st9" d="M0,0h182.2"/>
					</g>
					<g id="Group-34" transform="translate(11.796935, 33.964286)">
						<g id="Group-21">
							<g id="Clip-20">
							</g>
							<defs>
								<filter id="Adobe_OpacityMaskFilter_4_" filterUnits="userSpaceOnUse" x="-3.5" y="-3.2" width="11.3" height="11.3">
									<feColorMatrix  type="matrix" values="1 0 0 0 0  0 1 0 0 0  0 0 1 0 0  0 0 0 1 0"/>
								</filter>
							</defs>
							<mask maskUnits="userSpaceOnUse" x="-3.5" y="-3.2" width="11.3" height="11.3" id="mask-12_1_">
								<g class="st10">
									<path id="path-11_1_" class="st0" d="M2.2,4.6c1.2,0,2.1-1,2.1-2.1s-1-2.1-2.1-2.1s-2.1,1-2.1,2.1S1,4.6,2.2,4.6L2.2,4.6z"
										/>
								</g>
							</mask>
							<path id="Fill-19" sketch:type="MSShapeGroup" class="st11" d="M-3.5-3.2H7.9V8.2H-3.5V-3.2z"/>
						</g>
						<path id="Stroke-22" sketch:type="MSShapeGroup" class="st9" d="M2.2,4.6c1.2,0,2.1-1,2.1-2.1s-1-2.1-2.1-2.1s-2.1,1-2.1,2.1
							S1,4.6,2.2,4.6L2.2,4.6z"/>
						<g id="Group-26" transform="translate(7.796935, 0.000000)">
							<g id="Clip-25">
							</g>
							<defs>
								<filter id="Adobe_OpacityMaskFilter_5_" filterUnits="userSpaceOnUse" x="-3.5" y="-3.2" width="11.3" height="11.3">
									<feColorMatrix  type="matrix" values="1 0 0 0 0  0 1 0 0 0  0 0 1 0 0  0 0 0 1 0"/>
								</filter>
							</defs>
							<mask maskUnits="userSpaceOnUse" x="-3.5" y="-3.2" width="11.3" height="11.3" id="mask-14_1_">
								<g class="st12">
									<path id="path-13_1_" class="st0" d="M2.2,4.6c1.2,0,2.1-1,2.1-2.1s-1-2.1-2.1-2.1s-2.1,1-2.1,2.1S1,4.6,2.2,4.6L2.2,4.6z"
										/>
								</g>
							</mask>
							<path id="Fill-24" sketch:type="MSShapeGroup" class="st13" d="M-3.5-3.2H7.9V8.2H-3.5V-3.2z"/>
						</g>
						<path id="Stroke-27" sketch:type="MSShapeGroup" class="st9" d="M10,4.6c1.2,0,2.1-1,2.1-2.1s-1-2.1-2.1-2.1s-2.1,1-2.1,2.1
							S8.8,4.6,10,4.6L10,4.6z"/>
						<g id="Group-31" transform="translate(15.593870, 0.000000)">
							<g id="Clip-30">
							</g>
							<defs>
								<filter id="Adobe_OpacityMaskFilter_6_" filterUnits="userSpaceOnUse" x="-3.5" y="-3.2" width="11.3" height="11.3">
									<feColorMatrix  type="matrix" values="1 0 0 0 0  0 1 0 0 0  0 0 1 0 0  0 0 0 1 0"/>
								</filter>
							</defs>
							<mask maskUnits="userSpaceOnUse" x="-3.5" y="-3.2" width="11.3" height="11.3" id="mask-16_1_">
								<g class="st14">
									<path id="path-15_1_" class="st0" d="M2.2,4.6c1.2,0,2.1-1,2.1-2.1s-1-2.1-2.1-2.1s-2.1,1-2.1,2.1S1,4.6,2.2,4.6L2.2,4.6z"
										/>
								</g>
							</mask>
							<path id="Fill-29" sketch:type="MSShapeGroup" class="st15" d="M-3.5-3.2H7.9V8.2H-3.5V-3.2z"/>
						</g>
						<path id="Stroke-32" sketch:type="MSShapeGroup" class="st9" d="M17.8,4.6c1.2,0,2.1-1,2.1-2.1s-1-2.1-2.1-2.1s-2.1,1-2.1,2.1
							S16.6,4.6,17.8,4.6L17.8,4.6z"/>
					</g>
					<path id="Stroke-35" sketch:type="MSShapeGroup" class="st16" d="M4,29h185v139H4V29L4,29z"/>
				</g>
				<g>
					<path class="st17" d="M762.2,418c-0.4-1.1-1.3-1.7-3-1.7v5.8c0.1,0,0.4,0.1,0.6,0.2c1.3,0.3,2.3,0.6,2.8,0.9
						c0.5,0.3,1,0.7,1.4,1.3c0.5,0.7,0.8,1.5,0.8,2.5c0,0.9-0.3,1.8-0.8,2.5c-0.5,0.8-1.2,1.4-2,1.7c-0.8,0.4-1.7,0.7-3,0.9v2.2
						c0,0.4-0.2,0.7-0.7,0.7s-0.7-0.2-0.7-0.7v-2.2c-1.3-0.1-2.4-0.3-3.2-0.7c-0.9-0.4-1.6-0.9-2.1-1.6c-0.5-0.7-0.8-1.4-0.8-2.3
						c0-0.7,0.2-1.3,0.5-1.7c0.3-0.4,0.8-0.6,1.4-0.6c0.4,0,0.7,0.1,1,0.4c0.3,0.3,0.4,0.6,0.4,0.9c0,0.7-0.4,1.1-1.3,1.2
						c0.1,0.8,0.5,1.5,1.3,1.9c0.8,0.5,1.7,0.7,2.9,0.8v-6.5l-0.4-0.1c-1.4-0.4-2.3-0.7-2.8-0.9c-0.6-0.3-1.1-0.7-1.4-1.2
						c-0.4-0.6-0.6-1.3-0.6-2.2c0-0.9,0.3-1.7,0.8-2.5c0.5-0.8,1.1-1.3,1.9-1.7c0.7-0.3,1.5-0.5,2.6-0.7v-2.1c0-0.5,0.2-0.8,0.7-0.8
						s0.7,0.3,0.7,0.8v2.1c1.6,0.2,2.8,0.6,3.7,1.3c0.9,0.7,1.4,1.5,1.4,2.5c0,0.4-0.1,0.8-0.4,1.1c-0.3,0.3-0.6,0.5-1,0.5
						c-0.3,0-0.6-0.1-0.9-0.3c-0.2-0.2-0.4-0.5-0.4-0.8C761.7,418.5,761.9,418.2,762.2,418z M757.8,421.8v-5.5c-1,0-1.8,0.3-2.4,0.8
						c-0.6,0.5-0.9,1.2-0.9,2c0,0.7,0.2,1.2,0.6,1.6c0.4,0.4,1.1,0.7,2.2,1C757.5,421.7,757.6,421.7,757.8,421.8z M759.3,424.2v6.2
						c1.1,0,1.9-0.3,2.6-0.9c0.7-0.6,1-1.4,1-2.3c0-0.8-0.3-1.5-0.8-1.9c-0.5-0.4-1.3-0.8-2.5-1
						C759.7,424.2,759.5,424.2,759.3,424.2z"/>
					<path class="st17" d="M781.6,423.4c0-0.7,0.4-1.1,1.3-1.2c-0.1-0.6-0.4-1.1-0.9-1.4s-1.1-0.5-1.9-0.5c-1.2,0-2.1,0.5-2.9,1.4
						s-1.1,2.2-1.1,3.8c0,1.6,0.3,2.9,1,3.8c0.7,0.9,1.6,1.4,2.8,1.4c0.8,0,1.4-0.2,2-0.6c0.6-0.4,0.9-1,1.2-1.8
						c0.2-0.6,0.3-0.9,0.3-1c0.2-0.3,0.5-0.5,0.8-0.5c0.3,0,0.5,0.1,0.7,0.3c0.2,0.2,0.3,0.4,0.3,0.7c0,0.4-0.1,0.9-0.4,1.6
						c-0.3,0.6-0.6,1.1-1,1.5c-1,1.1-2.3,1.6-4,1.6c-1.8,0-3.2-0.6-4.3-1.9c-1.1-1.2-1.6-2.9-1.6-4.9c0-2.1,0.6-3.9,1.7-5.1
						c1.1-1.3,2.6-1.9,4.4-1.9c1.4,0,2.5,0.4,3.4,1.1c0.9,0.8,1.4,1.7,1.4,2.9c0,0.6-0.2,1.2-0.5,1.6c-0.4,0.4-0.8,0.6-1.4,0.6
						c-0.4,0-0.8-0.1-1.1-0.4C781.8,424.1,781.6,423.8,781.6,423.4z"/>
					<path class="st17" d="M793.3,432.4c-1.8,0-3.3-0.6-4.3-1.9c-1.1-1.3-1.6-2.9-1.6-5c0-2.1,0.5-3.8,1.6-5
						c1.1-1.3,2.6-1.9,4.4-1.9c1.9,0,3.4,0.6,4.5,1.8c1.1,1.2,1.6,2.9,1.6,5c0,2.1-0.6,3.8-1.7,5.1
						C796.6,431.8,795.1,432.4,793.3,432.4z M793.4,420.3c-1.2,0-2.2,0.4-2.8,1.3c-0.7,0.8-1.1,2-1.1,3.6v0.3c0,1.6,0.3,2.9,1,3.8
						c0.7,0.9,1.6,1.4,2.9,1.4c1.3,0,2.2-0.5,3-1.4c0.7-0.9,1.1-2.2,1.1-3.8C797.3,422,796,420.3,793.4,420.3z"/>
					<path class="st17" d="M805.3,419.8v0.8c0.6-0.7,1.2-1.3,1.8-1.5c0.6-0.3,1.2-0.4,2.1-0.4c1.7,0,2.9,0.7,3.7,2
						c0.6-0.7,1.2-1.2,1.8-1.5c0.6-0.3,1.4-0.4,2.3-0.4c1,0,1.9,0.2,2.6,0.6c0.9,0.5,1.5,1.1,1.8,2c0.2,0.6,0.3,1.5,0.3,2.7v2.5v1.9
						c0,0.7,0,1.1,0,1.3c0.1,0.6,0.3,0.9,0.7,0.9c0.1,0,0.3,0,0.5-0.1s0.4-0.1,0.5-0.1c0.6,0,0.9,0.3,0.9,0.8c0,0.6-0.3,0.9-1,0.9
						c-0.3,0-0.7,0-1.2-0.1c-0.5-0.1-0.9-0.1-1.2-0.1c-0.3,0-0.7,0-1.3,0.1c-0.6,0.1-1,0.1-1.3,0.1c-0.7,0-1.1-0.3-1.1-0.9
						c0-0.5,0.3-0.8,0.8-0.8c0.1,0,0.2,0,0.5,0.1c0.1,0,0.2,0.1,0.4,0.1c0.3,0,0.5-0.1,0.6-0.4c0.1-0.3,0.1-1,0.1-2.2v-1.6v-1.7
						c0-1.2-0.1-2.1-0.3-2.6c-0.2-0.5-0.5-1-1-1.3c-0.5-0.3-1.1-0.5-1.7-0.5c-1.2,0-2.1,0.4-2.6,1.3c-0.4,0.7-0.6,1.8-0.6,3.5v1.8
						c0,1.6,0,2.6,0.1,3c0.1,0.4,0.3,0.6,0.6,0.6c0.1,0,0.3,0,0.5-0.1s0.3-0.1,0.5-0.1c0.2,0,0.4,0.1,0.6,0.2
						c0.2,0.2,0.2,0.4,0.2,0.6c0,0.6-0.4,0.8-1.2,0.8c-0.3,0-0.6,0-1.2-0.1c-0.5-0.1-0.9-0.1-1.2-0.1c-0.4,0-0.8,0-1.2,0.1
						c-0.4,0.1-0.8,0.1-1.1,0.1c-0.7,0-1.1-0.3-1.1-0.9c0-0.5,0.3-0.8,0.8-0.8c0.2,0,0.3,0,0.4,0.1c0.2,0.1,0.4,0.1,0.5,0.1
						c0.4,0,0.6-0.4,0.6-1.3l0.1-1.2c0-0.4,0-0.8,0-1.1c0-0.3,0-0.5,0-0.5v-2.2c0-1.5-0.2-2.6-0.6-3.1c-0.4-0.6-1.1-0.9-2.2-0.9
						c-1.1,0-2,0.4-2.6,1.2c-0.5,0.7-0.8,1.9-0.8,3.5v3.5c0,0.7,0,1.1,0,1.2c0.1,0.6,0.3,0.9,0.6,0.9c0.1,0,0.3,0,0.5-0.1
						c0,0,0.1,0,0.2,0c0.1,0,0.1,0,0.2,0c0.7,0,1,0.3,1,0.9c0,0.6-0.4,0.8-1.2,0.8c-0.3,0-0.7,0-1.1-0.1c-0.6-0.1-1.1-0.1-1.5-0.1
						c-0.2,0-0.6,0-1.1,0.1c-0.7,0.1-1.2,0.1-1.3,0.1c-0.7,0-1-0.3-1-0.9c0-0.5,0.3-0.8,1-0.8c0,0,0.1,0,0.2,0c0.1,0,0.1,0,0.2,0
						l0.7,0.1c0,0,0.1,0,0.1,0c0.5,0,0.7-0.4,0.8-1.3v-1.5v-4c0-1.5,0-2.4-0.1-2.7s-0.3-0.5-0.6-0.5c-0.1,0-0.3,0-0.7,0.1
						c-0.2,0-0.3,0.1-0.4,0.1c-0.6,0-1-0.3-1-0.8c0-0.6,0.4-0.9,1.1-0.9c0.2,0,0.4,0,0.8,0.1c0.3,0,0.6,0.1,0.9,0.1
						c0.1,0,0.2,0,0.3,0c0.1,0,0.2,0,0.2,0l0.6-0.1h0.1C805.1,419.1,805.3,419.3,805.3,419.8z"/>
					<path class="st17" d="M829.3,419.8v0.8c0.6-0.7,1.2-1.3,1.8-1.5c0.6-0.3,1.2-0.4,2.1-0.4c1.7,0,2.9,0.7,3.7,2
						c0.6-0.7,1.2-1.2,1.8-1.5c0.6-0.3,1.4-0.4,2.3-0.4c1,0,1.9,0.2,2.6,0.6c0.9,0.5,1.5,1.1,1.8,2c0.2,0.6,0.3,1.5,0.3,2.7v2.5v1.9
						c0,0.7,0,1.1,0,1.3c0.1,0.6,0.3,0.9,0.7,0.9c0.1,0,0.3,0,0.5-0.1c0.2-0.1,0.4-0.1,0.5-0.1c0.6,0,0.9,0.3,0.9,0.8
						c0,0.6-0.3,0.9-1,0.9c-0.3,0-0.7,0-1.2-0.1c-0.5-0.1-0.9-0.1-1.2-0.1c-0.3,0-0.7,0-1.3,0.1c-0.6,0.1-1,0.1-1.3,0.1
						c-0.7,0-1.1-0.3-1.1-0.9c0-0.5,0.3-0.8,0.8-0.8c0.1,0,0.2,0,0.5,0.1c0.1,0,0.2,0.1,0.4,0.1c0.3,0,0.5-0.1,0.6-0.4
						c0.1-0.3,0.1-1,0.1-2.2v-1.6v-1.7c0-1.2-0.1-2.1-0.3-2.6c-0.2-0.5-0.5-1-1-1.3c-0.5-0.3-1.1-0.5-1.7-0.5
						c-1.2,0-2.1,0.4-2.6,1.3c-0.4,0.7-0.6,1.8-0.6,3.5v1.8c0,1.6,0,2.6,0.1,3c0.1,0.4,0.3,0.6,0.6,0.6c0.1,0,0.3,0,0.5-0.1
						c0.2,0,0.3-0.1,0.5-0.1c0.2,0,0.4,0.1,0.6,0.2c0.2,0.2,0.2,0.4,0.2,0.6c0,0.6-0.4,0.8-1.2,0.8c-0.3,0-0.6,0-1.2-0.1
						c-0.5-0.1-0.9-0.1-1.2-0.1c-0.4,0-0.8,0-1.2,0.1c-0.4,0.1-0.8,0.1-1.1,0.1c-0.7,0-1.1-0.3-1.1-0.9c0-0.5,0.3-0.8,0.8-0.8
						c0.2,0,0.3,0,0.4,0.1c0.2,0.1,0.4,0.1,0.5,0.1c0.4,0,0.6-0.4,0.6-1.3l0.1-1.2c0-0.4,0-0.8,0-1.1c0-0.3,0-0.5,0-0.5v-2.2
						c0-1.5-0.2-2.6-0.6-3.1c-0.4-0.6-1.1-0.9-2.2-0.9c-1.1,0-2,0.4-2.6,1.2c-0.5,0.7-0.8,1.9-0.8,3.5v3.5c0,0.7,0,1.1,0,1.2
						c0.1,0.6,0.3,0.9,0.6,0.9c0.1,0,0.3,0,0.5-0.1c0,0,0.1,0,0.2,0c0.1,0,0.1,0,0.2,0c0.7,0,1,0.3,1,0.9c0,0.6-0.4,0.8-1.2,0.8
						c-0.3,0-0.7,0-1.1-0.1c-0.6-0.1-1.1-0.1-1.5-0.1c-0.2,0-0.6,0-1.1,0.1c-0.7,0.1-1.2,0.1-1.3,0.1c-0.7,0-1-0.3-1-0.9
						c0-0.5,0.3-0.8,1-0.8c0,0,0.1,0,0.2,0c0.1,0,0.1,0,0.2,0l0.7,0.1c0,0,0.1,0,0.1,0c0.5,0,0.7-0.4,0.8-1.3v-1.5v-4
						c0-1.5,0-2.4-0.1-2.7c-0.1-0.4-0.3-0.5-0.6-0.5c-0.1,0-0.3,0-0.7,0.1c-0.2,0-0.3,0.1-0.4,0.1c-0.6,0-1-0.3-1-0.8
						c0-0.6,0.4-0.9,1.1-0.9c0.2,0,0.4,0,0.8,0.1c0.3,0,0.6,0.1,0.9,0.1c0.1,0,0.2,0,0.3,0c0.1,0,0.2,0,0.2,0l0.6-0.1h0.1
						C829.1,419.1,829.3,419.3,829.3,419.8z"/>
					<path class="st17" d="M860.6,432.3c-1.4,0-2.3-0.6-2.6-1.8c-0.9,1.3-2.3,1.9-4.1,1.9c-1.4,0-2.5-0.3-3.4-1
						c-0.8-0.7-1.3-1.6-1.3-2.8c0-1.4,0.6-2.5,1.8-3.2c0.5-0.3,0.9-0.4,1.2-0.5c0.3-0.1,1-0.2,2-0.3c1.4-0.2,2.4-0.4,2.8-0.6
						c0.4-0.3,0.7-0.8,0.7-1.5c0-0.7-0.2-1.3-0.7-1.7c-0.5-0.4-1.2-0.6-2.1-0.6c-0.8,0-1.5,0.2-2.2,0.6c-0.3,0.2-0.4,0.4-0.4,0.5
						c0,0.1,0.1,0.2,0.2,0.3c0.2,0.2,0.4,0.5,0.4,0.9c0,0.3-0.1,0.6-0.4,0.9c-0.3,0.2-0.6,0.3-0.9,0.3c-0.4,0-0.8-0.2-1.1-0.5
						c-0.3-0.3-0.5-0.7-0.5-1.1c0-1,0.5-1.8,1.4-2.5c1-0.7,2.1-1,3.5-1c3.1,0,4.7,1.5,4.7,4.5v5.2c0,0.8,0,1.3,0.1,1.5
						c0.1,0.6,0.4,0.9,0.9,0.9c0.6,0,0.9-0.5,0.9-1.6v-1.3c0-0.5,0.3-0.8,0.8-0.8c0.6,0,0.8,0.4,0.8,1.2v0.1v1.5
						C863.2,431.5,862.3,432.3,860.6,432.3z M857.7,427.2v-1.8c-0.4,0.3-0.8,0.6-1.2,0.7c-0.4,0.1-1.2,0.3-2.3,0.4
						c-2,0.2-2.9,0.9-2.9,2.2c0,0.7,0.2,1.2,0.7,1.6c0.5,0.4,1.1,0.6,1.9,0.6c1.2,0,2.1-0.3,2.7-0.9
						C857.4,429.1,857.7,428.3,857.7,427.2z"/>
					<path class="st17" d="M868,419.8v0.7c1-1.3,2.4-2,4.1-2c0.9,0,1.8,0.2,2.6,0.7c0.8,0.5,1.4,1.1,1.7,1.8
						c0.2,0.6,0.4,1.4,0.4,2.3v4.9c0,0.7,0,1.2,0,1.3c0.1,0.6,0.3,0.9,0.7,0.9c0.2,0,0.4,0,0.6-0.1c0.3,0,0.4-0.1,0.5-0.1
						c0.2,0,0.4,0.1,0.6,0.2c0.2,0.2,0.2,0.3,0.2,0.6c0,0.3-0.1,0.5-0.3,0.6c-0.2,0.2-0.5,0.3-0.8,0.3c-0.2,0-0.6,0-1.2-0.1
						c-0.6-0.1-1.1-0.1-1.6-0.1c-0.4,0-0.8,0-1.1,0.1c-0.9,0.1-1.3,0.2-1.4,0.2c-0.7,0-1-0.3-1-0.9c0-0.5,0.3-0.8,0.9-0.8
						c0.1,0,0.3,0,0.5,0.1c0.3,0.1,0.5,0.1,0.6,0.1c0.4,0,0.7-0.5,0.7-1.4v-1.3v-1.6v-2c0-0.9,0-1.5-0.1-1.9c-0.2-0.7-0.5-1.2-1-1.5
						c-0.6-0.4-1.2-0.6-1.9-0.6c-1.4,0-2.4,0.5-3,1.5c-0.4,0.7-0.6,1.8-0.6,3.4v3.4c0,0.8,0.1,1.3,0.2,1.6c0.1,0.3,0.3,0.4,0.6,0.4
						c0.1,0,0.3,0,0.6-0.1c0.2-0.1,0.4-0.1,0.6-0.1c0.5,0,0.8,0.3,0.8,0.9c0,0.6-0.3,0.8-1,0.8c-0.1,0-0.6-0.1-1.3-0.2
						c-0.4-0.1-0.8-0.1-1.3-0.1c-0.4,0-0.8,0-1.4,0.1c-0.8,0.1-1.2,0.1-1.3,0.1c-0.7,0-1.1-0.3-1.1-0.9c0-0.6,0.3-0.8,0.8-0.8
						c0.1,0,0.3,0,0.5,0.1c0.2,0.1,0.5,0.1,0.7,0.1c0.5,0,0.8-0.5,0.8-1.5v-2.9V423v-0.9c0-0.6-0.1-1-0.2-1.2
						c-0.1-0.2-0.3-0.3-0.6-0.3c-0.1,0-0.3,0-0.5,0.1c-0.2,0-0.4,0.1-0.5,0.1c-0.6,0-0.9-0.3-0.9-0.8c0-0.6,0.4-0.9,1.2-0.9
						c0.1,0,0.2,0,0.3,0l1,0.1c0.3,0,0.5,0,0.7-0.1c0.4,0,0.7-0.1,0.7-0.1C867.8,419,868,419.3,868,419.8z"/>
					<path class="st17" d="M886.4,418.6c1.7,0,3,0.7,3.8,2V418c0-0.7,0-1.1-0.1-1.3c-0.1-0.5-0.3-0.8-0.7-0.8c-0.1,0-0.3,0-0.6,0.1
						c-0.3,0.1-0.4,0.1-0.6,0.1c-0.6,0-1-0.3-1-0.8c0-0.6,0.4-0.9,1.3-0.9c0.1,0,0.4,0,0.8,0.1c0.6,0.1,0.8,0.1,0.9,0.1
						c0.2,0,0.4,0,0.7-0.1s0.5-0.1,0.7-0.1c0.5,0,0.7,0.3,0.7,1v0.3c0,0.1,0,0.5-0.1,1.4c0,0.1,0,0.8-0.1,2c0,0.9-0.1,1.5-0.1,2v2.5
						v4.3c0,1.1,0.1,1.8,0.2,2.1c0.1,0.3,0.3,0.4,0.6,0.4c0.2,0,0.4,0,0.5-0.1c0.3,0,0.5-0.1,0.6-0.1c0.6,0,1,0.3,1,0.9
						c0,0.6-0.4,0.9-1.2,0.9c-0.2,0-0.4,0-0.8-0.1c-0.4,0-0.6-0.1-0.8-0.1c-0.1,0-0.3,0-0.6,0.1c-0.2,0.1-0.4,0.1-0.5,0.1
						c-0.5,0-0.7-0.3-0.7-0.9V431v-0.4c-0.9,1.2-2.2,1.8-4,1.8c-1.8,0-3.2-0.6-4.2-1.9c-1.1-1.3-1.6-3-1.6-5c0-2.1,0.5-3.8,1.6-5
						C883.2,419.2,884.6,418.6,886.4,418.6z M890.1,427.7c0.1-0.6,0.1-1.3,0.1-2.2c0-1.2,0-1.9-0.1-2.4c-0.2-0.9-0.5-1.5-1.1-2
						c-0.7-0.6-1.5-0.9-2.4-0.9c-1.2,0-2.2,0.5-2.9,1.4c-0.7,0.9-1,2.2-1,3.8c0,1.6,0.4,2.9,1.1,3.9c0.7,0.9,1.7,1.4,2.9,1.4
						c0.9,0,1.7-0.3,2.3-0.8C889.6,429.3,890,428.6,890.1,427.7z"/>
				</g>
			</g>
		</g>
	</g>
</g>
</svg>
