<svg id="Layer_1" data-name="Layer 1" xmlns="http://www.w3.org/2000/svg" viewBox="0 0 432 432">
  <defs>
    <style>
      .cls-1 {
        fill: #386288;
      }

      .cls-2 {
        fill: #12313f;
      }

      .cls-3 {
        fill: #215d72;
      }

      .cls-4 {
        fill: #fff;
      }
    </style>
  </defs>
  <title>ci-icon-stamp-navy</title>
  <g>
    <g>
      <g>
        <path class="cls-1" d="M251.47,229.34a11.48,11.48,0,0,1-3.29,6c-3.72,3.32-10.19,2.26-13-2.11a16.59,16.59,0,0,1-2.33-6.74,52.64,52.64,0,0,1,0-15.4,20.76,20.76,0,0,1,2.79-8.21c3.53-5.6,11-4.46,13.84-.35a12.5,12.5,0,0,1,2,4.54c.22,1,.36,2,.54,3h16.66a5.08,5.08,0,0,0,0-.58,39.3,39.3,0,0,0-3-12.21,23.3,23.3,0,0,0-10.39-11.59,27.57,27.57,0,0,0-11.21-3A23.8,23.8,0,0,0,225,189.38a32.61,32.61,0,0,0-8.81,15.89A52.86,52.86,0,0,0,214.75,222a45,45,0,0,0,3.41,15.26c2.59,5.95,6.51,10.72,12.39,13.66a28,28,0,0,0,16.06,2.62,22.64,22.64,0,0,0,15.55-8.63A31,31,0,0,0,268.1,232c.45-2,.72-4.05,1.08-6.12h-17C251.92,227.09,251.75,228.23,251.47,229.34Z"/>
        <path class="cls-1" d="M193.15,226.34a20.18,20.18,0,0,1-1.53,5.77A8.7,8.7,0,0,1,176.81,234a13.43,13.43,0,0,1-2.58-6,49.89,49.89,0,0,1-.09-18,18.61,18.61,0,0,1,2.75-7.34c3.24-4.84,9-4.11,11.94-1.9a10.26,10.26,0,0,1,3.62,5.82c.3,1.15.46,2.33.69,3.51h16.65a3.39,3.39,0,0,0,0-.47,39.38,39.38,0,0,0-3-12.28,23.24,23.24,0,0,0-10.75-11.81,28.74,28.74,0,0,0-13.79-2.91,22.85,22.85,0,0,0-10.5,2.63c-5.81,3.06-9.68,7.88-12.33,13.77a43.88,43.88,0,0,0-3.62,16.28,50.47,50.47,0,0,0,2.89,20.52,27.91,27.91,0,0,0,9.12,12.66c5.31,4,11.41,5.47,18,5.18a23,23,0,0,0,14.27-5.48,26,26,0,0,0,6.69-9,39.8,39.8,0,0,0,3.43-13.34h-17C193.19,226.07,193.17,226.21,193.15,226.34Z"/>
        <path class="cls-1" d="M294,134.72a113.75,113.75,0,1,0,0,160.87A113.76,113.76,0,0,0,294,134.72ZM281.5,226.48c-.12,4.18-.43,8.36-.82,12.52a35.61,35.61,0,0,1-3.23,12.41c-2.38,4.87-6.41,7.54-11.54,8.58a115.3,115.3,0,0,1-11.55,1.73c-13.08,1.3-26.2,1.58-39.33,1.58-8.78,0-17.55-.24-26.32-.49-4.63-.14-9.26-.45-13.87-.82a91.82,91.82,0,0,1-16.16-2.36,19.23,19.23,0,0,1-7.07-3.83,13.8,13.8,0,0,1-3.65-5.55,33.74,33.74,0,0,1-2.39-9.32,205.86,205.86,0,0,1-1.23-26.62c0-5.41.25-10.82.54-16.22a53.68,53.68,0,0,1,2.38-14.56,30.14,30.14,0,0,1,1.53-3.55,13.61,13.61,0,0,1,4.88-5.34,22,22,0,0,1,9.58-3.26c4.95-.66,9.93-1.21,14.92-1.59,11.74-.88,23.5-1,35.27-1.09,7.38.13,14.77.2,22.16.42,5.21.16,10.43.46,15.63.84A104.37,104.37,0,0,1,266.37,172a18.5,18.5,0,0,1,7.94,4.09,15.1,15.1,0,0,1,3.7,5.61,34.64,34.64,0,0,1,2.55,10.21C281.87,203.42,281.82,215,281.5,226.48Z"/>
      </g>
      <g>
        <path class="cls-2" d="M251.47,229.34a11.48,11.48,0,0,1-3.29,6c-3.72,3.32-10.19,2.26-13-2.11a16.59,16.59,0,0,1-2.33-6.74,52.64,52.64,0,0,1,0-15.4,20.76,20.76,0,0,1,2.79-8.21c3.53-5.6,11-4.46,13.84-.35a12.5,12.5,0,0,1,2,4.54c.22,1,.36,2,.54,3h16.66a5.08,5.08,0,0,0,0-.58,39.3,39.3,0,0,0-3-12.21,23.3,23.3,0,0,0-10.39-11.59,27.57,27.57,0,0,0-11.21-3A23.8,23.8,0,0,0,225,189.38a32.61,32.61,0,0,0-8.81,15.89A52.86,52.86,0,0,0,214.75,222a45,45,0,0,0,3.41,15.26c2.59,5.95,6.51,10.72,12.39,13.66a28,28,0,0,0,16.06,2.62,22.64,22.64,0,0,0,15.55-8.63A31,31,0,0,0,268.1,232c.45-2,.72-4.05,1.08-6.12h-17C251.92,227.09,251.75,228.23,251.47,229.34Z"/>
        <path class="cls-2" d="M193.15,226.34a20.18,20.18,0,0,1-1.53,5.77A8.7,8.7,0,0,1,176.81,234a13.43,13.43,0,0,1-2.58-6,49.89,49.89,0,0,1-.09-18,18.61,18.61,0,0,1,2.75-7.34c3.24-4.84,9-4.11,11.94-1.9a10.26,10.26,0,0,1,3.62,5.82c.3,1.15.46,2.33.69,3.51h16.65a3.39,3.39,0,0,0,0-.47,39.38,39.38,0,0,0-3-12.28,23.24,23.24,0,0,0-10.75-11.81,28.74,28.74,0,0,0-13.79-2.91,22.85,22.85,0,0,0-10.5,2.63c-5.81,3.06-9.68,7.88-12.33,13.77a43.88,43.88,0,0,0-3.62,16.28,50.47,50.47,0,0,0,2.89,20.52,27.91,27.91,0,0,0,9.12,12.66c5.31,4,11.41,5.47,18,5.18a23,23,0,0,0,14.27-5.48,26,26,0,0,0,6.69-9,39.8,39.8,0,0,0,3.43-13.34h-17C193.19,226.07,193.17,226.21,193.15,226.34Z"/>
        <path class="cls-2" d="M294,134.72a113.75,113.75,0,1,0,0,160.87A113.76,113.76,0,0,0,294,134.72ZM281.5,226.48c-.12,4.18-.43,8.36-.82,12.52a35.61,35.61,0,0,1-3.23,12.41c-2.38,4.87-6.41,7.54-11.54,8.58a115.3,115.3,0,0,1-11.55,1.73c-13.08,1.3-26.2,1.58-39.33,1.58-8.78,0-17.55-.24-26.32-.49-4.63-.14-9.26-.45-13.87-.82a91.82,91.82,0,0,1-16.16-2.36,19.23,19.23,0,0,1-7.07-3.83,13.8,13.8,0,0,1-3.65-5.55,33.74,33.74,0,0,1-2.39-9.32,205.86,205.86,0,0,1-1.23-26.62c0-5.41.25-10.82.54-16.22a53.68,53.68,0,0,1,2.38-14.56,30.14,30.14,0,0,1,1.53-3.55,13.61,13.61,0,0,1,4.88-5.34,22,22,0,0,1,9.58-3.26c4.95-.66,9.93-1.21,14.92-1.59,11.74-.88,23.5-1,35.27-1.09,7.38.13,14.77.2,22.16.42,5.21.16,10.43.46,15.63.84A104.37,104.37,0,0,1,266.37,172a18.5,18.5,0,0,1,7.94,4.09,15.1,15.1,0,0,1,3.7,5.61,34.64,34.64,0,0,1,2.55,10.21C281.87,203.42,281.82,215,281.5,226.48Z"/>
      </g>
    </g>
    <g>
      <path class="cls-3" d="M216,10.34C102.41,10.34,10.34,102.41,10.34,216S102.41,421.66,216,421.66A204.77,204.77,0,0,0,345,376.2L314.77,346c0-.26,0-.52,0-.79a16.06,16.06,0,0,0-16.06-16.06c-.27,0-.53,0-.79,0L294.74,326a137.33,137.33,0,1,1,29.68-29.68l2.8,2.81a16,16,0,0,0,18.19,18.19l29.4,29.4A204.84,204.84,0,0,0,421.66,216C421.66,102.41,329.59,10.34,216,10.34Z"/>
      <g>
        <g>
          <path class="cls-4" d="M268.2,51.85A9.4,9.4,0,1,0,256.35,62a9,9,0,0,0,9.89-3.12l2.49.69c-2.64,4.18-7.61,6.08-13,4.59-6.69-1.85-10.1-7.87-8.32-14.29s7.8-9.83,14.49-8c5.37,1.48,8.65,5.68,8.77,10.61Z"/>
          <path class="cls-4" d="M298.47,82.46l3.7-6.5-12.5-7.11-3.7,6.5-2.06-1.17,6.5-11.44c2.89-5.08,7.66-6.59,13-3.53s6.55,7.95,3.66,13L300.6,83.67ZM305,71c2.22-3.9,1.47-7.54-2.67-9.89s-7.61-1.12-9.83,2.78l-1.7,3L303.28,74Z"/>
          <path class="cls-4" d="M316.43,95.52l15.14-16.29,7,6.55c3.94,3.66,3.65,7.47.87,10.46s-6.61,3.56-10.52-.07l-5.25-4.89-5.49,5.91Zm14.09-1c2.81,2.61,5.27,2,7.14,0s2.27-4.49-.55-7.1l-5.28-4.91-6.59,7.1Z"/>
          <path class="cls-4" d="M344.73,126.83l16.51-11.27L357,109.33l1.86-1.27,9.89,14.49-1.85,1.27-4.26-6.24-16.51,11.28Z"/>
          <path class="cls-4" d="M359.12,152.28l20.34-9,1,2.24-20.35,9Z"/>
          <path class="cls-4" d="M369.21,184.28c-1.48-6.78,2.26-12.61,8.77-14s12.34,2.31,13.82,9.09-2.25,12.6-8.77,14S370.69,191.05,369.21,184.28Zm13.3,6.69a9.38,9.38,0,1,0-11.11-7.17A9,9,0,0,0,382.51,191Z"/>
          <path class="cls-4" d="M373,230.51l13.5.44c4.28.14,7-2.15,7.15-6.63s-2.42-7-6.7-7.13l-13.49-.45.08-2.44,13.49.44c5.61.19,9.07,3.63,8.87,9.65s-3.88,9.19-9.49,9L373,233Z"/>
        </g>
        <g>
          <path class="cls-4" d="M30.64,184.16l22,3.16-.34,2.42-22-3.15Z"/>
          <path class="cls-4" d="M29,226.46l13.49-.56c4.28-.17,6.83-2.66,6.65-7.15s-2.94-6.78-7.22-6.61l-13.49.56-.1-2.44,13.49-.56c5.61-.23,9.31,3,9.56,9s-3.18,9.46-8.79,9.69l-13.49.56Z"/>
          <path class="cls-4" d="M51.79,260.47c2.43-.78,3.52-3.07,2.7-6.16s-3-4.67-5.52-4c-6,1.59,2.41,13.15-6.07,15.39-4,1.05-7.36-1.37-8.61-6.1s.43-8.42,4.41-9.57l.62,2.33c-2.71.82-3.76,3.24-2.86,6.66s3.14,5.09,5.77,4.39c6.15-1.62-2.41-13.15,6.07-15.38,3.82-1,7.19,1.27,8.36,5.71s-.56,7.88-4.27,9Z"/>
          <path class="cls-4" d="M45.16,289.31l19.86-10,4.33,8.59c2.41,4.8.81,8.27-2.83,10.11s-7.44,1-9.84-3.73l-3.22-6.41-7.2,3.62Zm13.54,4c1.73,3.43,4.24,3.73,6.7,2.49s3.69-3.42,2-6.85l-3.24-6.44-8.66,4.36Z"/>
          <path class="cls-4" d="M65.65,324.09l17.25-14,10.3,12.67-1.74,1.41-8.75-10.76-5.88,4.78,7.5,9.24-1.74,1.41-7.51-9.23-6.14,5,8.75,10.76L76,336.76Z"/>
          <path class="cls-4" d="M117.51,353.94a9.31,9.31,0,1,0-4.48,5.81l2,1.58c-4,2.87-9.34,2.76-13.75-.65-5.5-4.24-6.38-11.1-2.31-16.38s10.94-6.16,16.43-1.92c4.41,3.4,5.87,8.52,4.12,13.14Z"/>
          <path class="cls-4" d="M135.07,380.93l8.52-18.09-6.83-3.22,1-2,15.87,7.47-1,2-6.82-3.22L137.29,382Z"/>
          <path class="cls-4" d="M174.85,395.22c-6.76-1.53-10.46-7.38-9-13.89s7.32-10.19,14.09-8.66,10.46,7.38,9,13.88S181.62,396.74,174.85,395.22Zm11.7-9.21a9.38,9.38,0,1,0-11.2,7A9,9,0,0,0,186.55,386Z"/>
          <path class="cls-4" d="M225.42,399.25l-6.13-8.34-6.76.09.11,8.43-2.44,0-.32-22.23,9.83-.14c5.23-.07,7.59,2.82,7.64,6.76.05,3.43-1.65,6.11-5.48,6.84v.07l6.51,8.44Zm-5.52-10.59c3.71-.06,5-2.11,5-4.77s-1.39-4.6-5.1-4.55l-7.41.11.13,9.31Z"/>
        </g>
      </g>
    </g>
  </g>
</svg>
