<svg xmlns="http://www.w3.org/2000/svg" viewBox="0 0 1093.15 519.81">
  <defs>
    <style>
      .cls-1 {
        isolation: isolate;
      }

      .cls-2 {
        fill: #313138;
      }

      .cls-3 {
        opacity: 0.49;
      }

      .cls-4 {
        fill: #7a7a7f;
      }

      .cls-5 {
        fill: #545456;
      }

      .cls-6 {
        fill: #dbdbdb;
      }

      .cls-7 {
        font-size: 89.12px;
        font-family: AmericanTypewriter, American Typewriter;
        letter-spacing: 0.19em;
      }

      .cls-12, .cls-7 {
        fill: #484848;
      }

      .cls-8 {
        letter-spacing: 0.2em;
      }

      .cls-9 {
        mix-blend-mode: multiply;
      }

      .cls-10 {
        fill: #303035;
      }

      .cls-11 {
        fill: #717182;
      }

      .cls-13 {
        fill: #fff;
      }

      .cls-14 {
        fill: #5a5a68;
      }
    </style>
  </defs>
  <title>ci-logo-mono</title>
  <g class="cls-1">
    <g id="Layer_1" data-name="Layer 1">
      <path class="cls-2" d="M1068.55,218.23H1068l0,.05a17.7,17.7,0,0,1-27-.05H550.16l0,.05a17.69,17.69,0,0,1-26.94-.05h-6.13C497.39,95.7,391.2,2.09,263.13,2.09c-142,0-257.2,115.16-257.2,257.2s115.16,257.2,257.2,257.2c127,0,232.41-92,253.39-212.93h6.69a17.71,17.71,0,0,1,26.91,0h491a17.71,17.71,0,0,1,26.91,0h.55a21.05,21.05,0,0,0,21-21.05V239.28A21.06,21.06,0,0,0,1068.55,218.23ZM263.13,489.33c-127,0-230-103-230-230s103-230,230-230,230,103,230,230S390.18,489.33,263.13,489.33Z"/>
      <g class="cls-3">
        <g>
          <path class="cls-4" d="M557.8,328.92a4.8,4.8,0,0,1,3.86,1.81v-.48a.79.79,0,0,1,0-.15c0-.32,0-.47,0-.44,0-.49.22-.74.66-.74s.7.3.7.9c0,.11,0,.45,0,1s-.13,1.2-.13,1.47a9.33,9.33,0,0,0,.08,1.17l.09.81v.22c0,.63-.25.95-.76.95s-.83-.3-.81-.91v-.76a3.16,3.16,0,0,0-1-2.47,3.66,3.66,0,0,0-2.61-.95,3.87,3.87,0,0,0-3.3,1.62,9,9,0,0,0,0,9,4,4,0,0,0,3.42,1.63,4.08,4.08,0,0,0,2.14-.57,3.12,3.12,0,0,0,1.33-1.51,4.5,4.5,0,0,0,.26-1.67c0-.65.27-1,.81-1s.87.33.87,1a4.82,4.82,0,0,1-1.58,3.73,6.32,6.32,0,0,1-8.66-.57,8.08,8.08,0,0,1-1.71-5.39,8.54,8.54,0,0,1,1.75-5.61A5.73,5.73,0,0,1,557.8,328.92Z"/>
          <path class="cls-4" d="M577.68,340.48c0,.83.08,1.33.25,1.48a.87.87,0,0,0,.51.24,13.23,13.23,0,0,0,1.39,0h1.88a3.4,3.4,0,0,0,2-.39,2,2,0,0,0,.49-1.56c0-.21,0-.46,0-.74,0-.55,0-.88,0-1,0-.61.25-.92.75-.92s.89.28.89.85a2.19,2.19,0,0,1,0,.4l-.15,1.09a7.7,7.7,0,0,0-.06,1c0,.2,0,.5,0,.89s.06.68.06.88c0,.64-.37,1-1.09,1-.14,0-.47,0-1-.08-.34,0-.87-.05-1.58-.07h-5c-.34,0-.9,0-1.7.09l-.59,0-.65,0c-.59,0-.89-.26-.89-.77a.59.59,0,0,1,.66-.68,3.31,3.31,0,0,1,.51.06,2.58,2.58,0,0,0,.51.07c.73,0,1.09-.53,1.09-1.6v-8.55c0-1.05-.36-1.57-1.09-1.57a1.72,1.72,0,0,0-.45,0,3.38,3.38,0,0,1-.57.07.61.61,0,0,1-.47-.21.68.68,0,0,1-.19-.5c0-.5.3-.74.92-.74a1.84,1.84,0,0,1,.31,0l1.13.13a13.59,13.59,0,0,0,1.39.1,10.72,10.72,0,0,0,1.36-.1l1-.13a1.58,1.58,0,0,1,.28,0c.64,0,1,.24,1,.74a.72.72,0,0,1-.19.5.62.62,0,0,1-.47.21,4,4,0,0,1-.58-.07,1.68,1.68,0,0,0-.44,0c-.73,0-1.09.52-1.09,1.57Z"/>
          <path class="cls-4" d="M601.74,344.07a5.47,5.47,0,0,1-4.49-2,8.59,8.59,0,0,1-1.65-5.54,8.45,8.45,0,0,1,1.66-5.55,6.12,6.12,0,0,1,9-.06,8,8,0,0,1,1.65,5.31,9,9,0,0,1-1.68,5.75A5.44,5.44,0,0,1,601.74,344.07Zm0-13.61A3.7,3.7,0,0,0,598.6,332a7.56,7.56,0,0,0-1.13,4.43A7.68,7.68,0,0,0,598.6,341a3.87,3.87,0,0,0,6.3-.06,7.72,7.72,0,0,0,1.16-4.49A7.47,7.47,0,0,0,605,332,3.66,3.66,0,0,0,601.78,330.46Z"/>
          <path class="cls-4" d="M623.81,328.92a4.6,4.6,0,0,1,3.41,1.34V330q0-.84.66-.84c.48,0,.73.31.73.92v.13s0,.24-.07.64-.06.87-.06,1.43c0,.07,0,.3,0,.68l.06.85a1.15,1.15,0,0,1,0,.3c0,.68-.27,1-.79,1a.74.74,0,0,1-.83-.85v-.11l0-.57c0-.2,0-.36,0-.47a2.48,2.48,0,0,0-.86-2,3.56,3.56,0,0,0-2.38-.73,3.34,3.34,0,0,0-2.2.68,2.27,2.27,0,0,0-.82,1.84,2.1,2.1,0,0,0,1.21,2,9.68,9.68,0,0,0,2.39.62,8.42,8.42,0,0,1,3.47,1.1,3.48,3.48,0,0,1,1.41,3,4.14,4.14,0,0,1-1.44,3.27,5.46,5.46,0,0,1-3.71,1.25,5.6,5.6,0,0,1-4-1.53v.31a2.23,2.23,0,0,1,.09.45.69.69,0,0,1-.79.77c-.57,0-.85-.3-.85-.89a.24.24,0,0,1,.06-.17l.1-1.11c0-.56.07-.91.07-1.07a11.9,11.9,0,0,0-.11-1.28,9.9,9.9,0,0,1-.12-1.27q0-1,.81-1c.55,0,.83.32.83,1v.88a3.27,3.27,0,0,0,1,2.54,3.9,3.9,0,0,0,2.76.94,4,4,0,0,0,2.57-.76,2.53,2.53,0,0,0,1-2.09c0-1.35-.86-2.17-2.56-2.47l-1.21-.22a13.64,13.64,0,0,1-2.82-.74,3.26,3.26,0,0,1-1.46-1.27,3.57,3.57,0,0,1-.54-1.95,3.84,3.84,0,0,1,1.36-3.05A5.25,5.25,0,0,1,623.81,328.92Z"/>
          <path class="cls-4" d="M642.18,332.22c0-1.05-.36-1.57-1.09-1.57a1.72,1.72,0,0,0-.45,0,3.5,3.5,0,0,1-.57.07.61.61,0,0,1-.47-.21.68.68,0,0,1-.19-.5c0-.5.3-.74.89-.74l.32,0,3,.21h.21l5.12-.15,1.11-.06c.22,0,.43,0,.61,0,.74,0,1.11.32,1.11,1,0,.11,0,.47-.07,1.08,0,.46,0,.88,0,1.26s0,.84,0,1a8.94,8.94,0,0,1,.08.92c0,.54-.26.81-.76.81s-.76-.38-.76-1.13v-1.11c0-1.19-.25-1.89-.74-2.11a10.31,10.31,0,0,0-2.86-.23,14,14,0,0,0-1.79.06,1.17,1.17,0,0,0-.91,1.28v2.13c0,.57.12.9.37,1a2.06,2.06,0,0,0,.51,0h.86c.88,0,1.32-.3,1.32-.91a4.46,4.46,0,0,0,0-.66,6.72,6.72,0,0,1-.05-.73c0-.56.25-.85.75-.85s.76.31.76.92c0,.11,0,.55-.14,1.32a14.37,14.37,0,0,0-.12,1.72c0,.29,0,.79.09,1.52,0,.11,0,.36.11.74a6.29,6.29,0,0,1,.06.75.68.68,0,0,1-.77.77c-.49,0-.74-.3-.74-.9,0-.16,0-.38.05-.68a5.22,5.22,0,0,0,0-.68c0-.61-.4-.92-1.21-.92h-1c-.41,0-.66.07-.76.21a2,2,0,0,0-.13.92v1.32c0,.23,0,.53,0,.92s0,.78,0,.94c0,.56.13.92.34,1.06a2.53,2.53,0,0,0,1.11.15h2.9a2.88,2.88,0,0,0,1.72-.37,1.73,1.73,0,0,0,.47-1.4c0-.21,0-.53,0-1s0-.73,0-.94q0-1,.75-1c.54,0,.8.32.8,1q0,.38,0,1.17t0,1.17c0,.2,0,.49,0,.88s0,.69,0,.89a.88.88,0,0,1-1,1c-.15,0-.4,0-.74,0-.17,0-.49,0-.94,0l-1.66,0c-1.21,0-2.26,0-3.14,0-1.33,0-2.64,0-3.92.13l-.19,0h-.13c-.59,0-.89-.26-.89-.77a.59.59,0,0,1,.66-.68l.57,0a1.5,1.5,0,0,0,.45.07c.73,0,1.09-.53,1.09-1.6Z"/>
          <path class="cls-4" d="M665,332.22q0-1.59-1.08-1.59a2.57,2.57,0,0,0-.45,0,4.17,4.17,0,0,1-.58.06c-.44,0-.66-.22-.66-.68s.32-.74,1-.74a1.58,1.58,0,0,1,.28,0l1.13.15a11.58,11.58,0,0,0,1.36.08,11.71,11.71,0,0,0,1.19-.06l1.39-.15a10.17,10.17,0,0,1,1.06,0,8.24,8.24,0,0,1,3.24.55,5.5,5.5,0,0,1,2.7,2.51,8.47,8.47,0,0,1,1,4.16,8.67,8.67,0,0,1-.79,3.76,5.29,5.29,0,0,1-2.15,2.46,7.72,7.72,0,0,1-4,1c-.32,0-.64,0-1,0l-1.47-.13q-.75-.06-1.56-.06a9,9,0,0,0-1.15.06l-1,.15-.15,0h-.17c-.61,0-.92-.25-.92-.75a.76.76,0,0,1,.19-.5.65.65,0,0,1,.47-.2,2.74,2.74,0,0,1,.58.07,2.31,2.31,0,0,0,.45,0c.72,0,1.08-.53,1.08-1.6Zm1.79-.21v9a1.11,1.11,0,0,0,1,1.19,11.4,11.4,0,0,0,1.79.08,4.57,4.57,0,0,0,3.71-1.38,6.59,6.59,0,0,0,1.38-4.37,7.15,7.15,0,0,0-.84-3.6,3.84,3.84,0,0,0-2.31-1.9,8.25,8.25,0,0,0-2.26-.28,6.39,6.39,0,0,0-2,.19C667,331.05,666.83,331.41,666.83,332Z"/>
          <path class="cls-4" d="M706.93,328.92a4.78,4.78,0,0,1,3.86,1.81v-.48a.54.54,0,0,1,0-.15c0-.32,0-.47,0-.44,0-.49.22-.74.66-.74s.7.3.7.9c0,.11,0,.45,0,1a13.54,13.54,0,0,0-.13,1.47,9.29,9.29,0,0,0,.07,1.17l.1.81v.22c0,.63-.26.95-.77.95s-.82-.3-.81-.91v-.76a3.15,3.15,0,0,0-1-2.47,3.67,3.67,0,0,0-2.62-.95,3.85,3.85,0,0,0-3.29,1.62,7.37,7.37,0,0,0-1.19,4.47,7.46,7.46,0,0,0,1.22,4.55,4.37,4.37,0,0,0,5.56,1.06,3.14,3.14,0,0,0,1.34-1.51,4.52,4.52,0,0,0,.25-1.67c0-.65.27-1,.81-1s.88.33.88,1a4.82,4.82,0,0,1-1.58,3.73,5.76,5.76,0,0,1-4.07,1.45,5.7,5.7,0,0,1-4.59-2,8,8,0,0,1-1.72-5.39,8.54,8.54,0,0,1,1.76-5.61A5.71,5.71,0,0,1,706.93,328.92Z"/>
          <path class="cls-4" d="M732.74,341.2l-.77-2.09a.85.85,0,0,0-.26-.43,1.42,1.42,0,0,0-.57-.08h-3.79a.87.87,0,0,0-.59.15,2.7,2.7,0,0,0-.41.8l-.62,1.65a1.19,1.19,0,0,0-.09.44c0,.46.28.69.83.69a5.86,5.86,0,0,0,.61-.05,5.36,5.36,0,0,1,.59,0q.87,0,.87.75c0,.46-.32.7-1,.7l-.47,0-1.06-.14c-.2,0-.53,0-1,0s-.85,0-1.05,0l-.89.11a7.6,7.6,0,0,1-.87.07c-.56,0-.84-.24-.84-.7s.27-.75.81-.75a.34.34,0,0,1,.26.09h.28a1,1,0,0,0,.87-.45,5.13,5.13,0,0,0,.43-1l4-10.75a1.31,1.31,0,0,1,1.34-.9,1.25,1.25,0,0,1,1.3.9l3.82,10.56a4.31,4.31,0,0,0,.66,1.33,1.12,1.12,0,0,0,.85.32.88.88,0,0,0,.26,0l.59-.06c.54,0,.81.23.81.7s-.27.75-.81.75a6,6,0,0,1-.62-.05,17.67,17.67,0,0,0-2-.16c-.52,0-1.38,0-2.56.17l-.68,0c-.57,0-.85-.24-.85-.73s.31-.72.94-.72a4.79,4.79,0,0,1,.56,0,5.49,5.49,0,0,0,.57.05c.46,0,.7-.2.7-.58A3.1,3.1,0,0,0,732.74,341.2Zm-1.53-4.35L729.29,331l-2,5.88a.79.79,0,0,0-.05.15c0,.13.11.19.32.19H731c.17,0,.26-.06.26-.17A1.2,1.2,0,0,0,731.21,336.85Z"/>
          <path class="cls-4" d="M749.19,340.77v-8.53c0-1.05-.36-1.57-1.08-1.57l-.44,0a4.48,4.48,0,0,1-.58.06c-.45,0-.67-.24-.67-.71s.31-.74.93-.74a1.77,1.77,0,0,1,.32,0l1.05.13a11.13,11.13,0,0,0,1.27.06c.36,0,.78,0,1.28-.06q1.74-.15,2.64-.15a11.41,11.41,0,0,1,2.34.21,3.67,3.67,0,0,1,2.2,1.32,3.91,3.91,0,0,1,.8,2.47,3.64,3.64,0,0,1-1.38,3.07,6.36,6.36,0,0,1-4,1.07h-2.39c-.23,0-.37,0-.44.11a1,1,0,0,0-.09.54v.43a18,18,0,0,0,.16,3.27c.11.38.41.57.93.57a1.31,1.31,0,0,0,.44-.07l.58,0a.59.59,0,0,1,.66.68c0,.51-.31.77-.94.77l-.3,0-1.06-.15a10.69,10.69,0,0,0-1.35-.07,9.62,9.62,0,0,0-1.21.07l-1.24.17-.12,0h-.15q-1,0-1-.75a.71.71,0,0,1,.19-.5.63.63,0,0,1,.47-.2,2.59,2.59,0,0,1,.57.07,2.31,2.31,0,0,0,.45,0C748.83,342.37,749.19,341.84,749.19,340.77Zm1.94-9.65a2.62,2.62,0,0,0-.15,1.17v3.15q0,.58.81.66H753a11.15,11.15,0,0,0,2.52-.23,2.29,2.29,0,0,0,1.89-2.49q0-2.72-3.45-2.71Q751.43,330.67,751.13,331.12Z"/>
          <path class="cls-4" d="M775.72,340.79c0,1.07.36,1.6,1.08,1.6a4.59,4.59,0,0,0,.52-.05,3.07,3.07,0,0,1,.51-.06.68.68,0,0,1,.68.68q0,.75-1,.75h-.13l-.15,0-1-.15a9.12,9.12,0,0,0-1.34-.09,10,10,0,0,0-1.43.09l-1.07.15-.15,0h-.15q-.93,0-.93-.75a.6.6,0,0,1,.68-.68,3.31,3.31,0,0,1,.51.06,4.67,4.67,0,0,0,.51.05c.71,0,1.07-.53,1.07-1.6v-8.65a1.36,1.36,0,0,0-1.56-1.51h-.66a1.33,1.33,0,0,0-1.53,1.49,6.29,6.29,0,0,0,0,.72l.08.79a4,4,0,0,1,0,.53c0,.9-.27,1.35-.83,1.35s-.78-.33-.78-1c0-.19,0-.51,0-1,0-.68.06-1.12.06-1.3q0-.54,0-1.11c0-.75-.07-1.07-.07-1,0-.6.27-.89.8-.89l1.39.06,1.74.09h2.43l2.27,0q.4,0,1.38-.06c.59,0,1-.05,1.37-.05.71,0,1.06.29,1.06.87v0c0,.14,0,.41,0,.79s-.08.8-.12,1.24v.23c0,.21,0,.55.06,1s.09,1,.09,1.11c0,.58-.28.87-.83.87s-.81-.35-.81-1.07q0-.37.06-1.14c0-.51.07-.89.07-1.15,0-1-.57-1.47-1.69-1.47h-.59a1.57,1.57,0,0,0-1.13.33,1.59,1.59,0,0,0-.39,1.09l-.08,1.5Z"/>
          <path class="cls-4" d="M793.38,332.22c0-1.05-.36-1.57-1.08-1.57a1.72,1.72,0,0,0-.45,0,3.6,3.6,0,0,1-.58.07.62.62,0,0,1-.47-.21.72.72,0,0,1-.19-.5c0-.5.31-.74.94-.74a1.73,1.73,0,0,1,.3,0l1.13.15a10.73,10.73,0,0,0,2.77,0l1-.13a1.57,1.57,0,0,1,.29,0c.63,0,.94.24.94.74a.68.68,0,0,1-.19.5.61.61,0,0,1-.47.21,3.93,3.93,0,0,1-.57-.07,1.72,1.72,0,0,0-.45,0c-.73,0-1.09.52-1.09,1.57v8.55c0,1.07.36,1.6,1.09,1.6l.45,0a3.49,3.49,0,0,1,.57-.07.59.59,0,0,1,.66.68c0,.51-.31.77-.94.77h-.14l-.15,0-1.11-.17a7.31,7.31,0,0,0-1.17-.09,10.86,10.86,0,0,0-1.6.11l-1,.15-.15,0h-.17c-.61,0-.92-.26-.92-.77a.59.59,0,0,1,.66-.68l.58,0a1.41,1.41,0,0,0,.45.07c.72,0,1.08-.53,1.08-1.6Z"/>
          <path class="cls-4" d="M813.82,344.07a5.47,5.47,0,0,1-4.49-2,8.59,8.59,0,0,1-1.65-5.54,8.45,8.45,0,0,1,1.66-5.55,6.12,6.12,0,0,1,9-.06,8,8,0,0,1,1.65,5.31,9,9,0,0,1-1.68,5.75A5.44,5.44,0,0,1,813.82,344.07Zm0-13.61a3.69,3.69,0,0,0-3.18,1.57,7.56,7.56,0,0,0-1.13,4.43,7.68,7.68,0,0,0,1.13,4.49,3.87,3.87,0,0,0,6.3-.06,7.72,7.72,0,0,0,1.16-4.49A7.47,7.47,0,0,0,817,332,3.66,3.66,0,0,0,813.86,330.46Z"/>
          <path class="cls-4" d="M835.67,330.26l5.72,11.92v-8.59c0-1.11,0-1.72,0-1.83-.13-.74-.49-1.11-1.07-1.11a4.67,4.67,0,0,0-.51.05,3.31,3.31,0,0,1-.51.06.63.63,0,0,1-.48-.21.66.66,0,0,1-.2-.48c0-.51.32-.76,1-.76a.94.94,0,0,1,.27,0l1,.13a10.5,10.5,0,0,0,1.2.08,12.16,12.16,0,0,0,1.47-.12l.74-.09.15,0h.15c.61,0,.92.24.92.73s-.29.72-.87.72h-.46a1,1,0,0,0-.84.27,2.66,2.66,0,0,0-.24,1.21v9.07a4.58,4.58,0,0,1-.33,2.06,1.21,1.21,0,0,1-1.15.6c-.7,0-1.29-.5-1.78-1.5l-5.61-11.61v9.91c0,1.07.37,1.6,1.09,1.6l.51,0a4.12,4.12,0,0,1,.51,0,.61.61,0,0,1,.69.69q0,.72-1,.72h-.13l-.15,0-.87-.13a9.69,9.69,0,0,0-1.37-.11,12.79,12.79,0,0,0-1.43.11l-1,.13-.15,0h-.17c-.61,0-.91-.25-.91-.75s.22-.66.68-.66l.57.05a1.86,1.86,0,0,0,.45.06c.72,0,1.09-.53,1.09-1.6v-8.56c0-1.07-.37-1.6-1.1-1.6a2.82,2.82,0,0,0-.43,0,4.69,4.69,0,0,1-.59.07c-.45,0-.67-.24-.67-.71s.3-.74.91-.74a2.31,2.31,0,0,1,.34,0c.71.07,1.25.1,1.64.1.21,0,.53,0,1-.06s.75-.06,1-.06a.87.87,0,0,1,.87.44Z"/>
          <path class="cls-4" d="M857.33,332.22c0-1.05-.37-1.57-1.09-1.57a1.72,1.72,0,0,0-.45,0,3.5,3.5,0,0,1-.57.07.61.61,0,0,1-.47-.21.68.68,0,0,1-.19-.5c0-.5.31-.74.94-.74a1.57,1.57,0,0,1,.29,0l1.13.15a11.41,11.41,0,0,0,1.32.08,10.94,10.94,0,0,0,1.45-.1l1-.13a1.62,1.62,0,0,1,.3,0c.62,0,.94.24.94.74a.72.72,0,0,1-.19.5.62.62,0,0,1-.47.21,4,4,0,0,1-.58-.07,1.72,1.72,0,0,0-.45,0c-.72,0-1.08.52-1.08,1.57v8.55c0,1.07.36,1.6,1.08,1.6.12,0,.27,0,.45,0a3.46,3.46,0,0,1,.58-.07.59.59,0,0,1,.66.68c0,.51-.32.77-.94.77h-.15l-.15,0-1.11-.17a7.31,7.31,0,0,0-1.17-.09,10.86,10.86,0,0,0-1.6.11l-1,.15-.15,0h-.17c-.61,0-.91-.26-.91-.77a.59.59,0,0,1,.66-.68l.57,0a1.5,1.5,0,0,0,.45.07c.72,0,1.09-.53,1.09-1.6Z"/>
          <path class="cls-4" d="M877.13,330.26l5.72,11.92v-8.59c0-1.11,0-1.72,0-1.83-.12-.74-.48-1.11-1.06-1.11a4.26,4.26,0,0,0-.51.05,3.31,3.31,0,0,1-.51.06.72.72,0,0,1-.69-.69c0-.51.32-.76,1-.76a1,1,0,0,1,.28,0l1,.13a10.19,10.19,0,0,0,1.19.08,11.87,11.87,0,0,0,1.47-.12l.75-.09.15,0H886c.61,0,.91.24.91.73s-.29.72-.87.72h-.45a1,1,0,0,0-.85.27,2.66,2.66,0,0,0-.24,1.21v9.07a4.58,4.58,0,0,1-.33,2.06,1.19,1.19,0,0,1-1.14.6c-.7,0-1.29-.5-1.78-1.5l-5.61-11.61v9.91c0,1.07.36,1.6,1.09,1.6l.51,0a4,4,0,0,1,.51,0,.61.61,0,0,1,.68.69q0,.72-1,.72h-.13l-.14,0-.88-.13a9.56,9.56,0,0,0-1.36-.11,12.62,12.62,0,0,0-1.43.11l-1,.13-.15,0h-.17c-.61,0-.92-.25-.92-.75a.59.59,0,0,1,.68-.66l.58.05a1.72,1.72,0,0,0,.44.06c.73,0,1.09-.53,1.09-1.6v-8.56c0-1.07-.36-1.6-1.1-1.6a2.61,2.61,0,0,0-.42,0,5.14,5.14,0,0,1-.59.07.62.62,0,0,1-.68-.71c0-.5.31-.74.91-.74a2.44,2.44,0,0,1,.35,0c.7.07,1.25.1,1.63.1.22,0,.53,0,1-.06s.74-.06,1-.06a.87.87,0,0,1,.87.44Z"/>
          <path class="cls-4" d="M902.21,328.92a5.62,5.62,0,0,1,3.87,1.6,1.78,1.78,0,0,1-.08-.34c0-.28,0-.44,0-.47a.62.62,0,0,1,.71-.7c.51,0,.76.3.76.91a2.7,2.7,0,0,1,0,.45l-.16,1a5.86,5.86,0,0,0-.07,1c0,.27,0,.85.08,1.73v.19c0,.64-.26,1-.79,1s-.74-.35-.74-1v-.64a2.94,2.94,0,0,0-1-2.33,3.82,3.82,0,0,0-2.6-.85,3.76,3.76,0,0,0-3.23,1.6,7.29,7.29,0,0,0-1.17,4.39A7.76,7.76,0,0,0,899,341a3.9,3.9,0,0,0,3.34,1.66,3.28,3.28,0,0,0,2.53-1,3.85,3.85,0,0,0,.9-2.74,1.54,1.54,0,0,0-.25-1,1.05,1.05,0,0,0-.86-.29c-.11,0-.28,0-.49,0l-.49,0q-1,0-1-.72t.87-.75a4.82,4.82,0,0,1,.62.05,16.92,16.92,0,0,0,2.15.18,13.5,13.5,0,0,0,2.22-.19,3.32,3.32,0,0,1,.57,0c.57,0,.85.23.85.7a.67.67,0,0,1-.22.51.7.7,0,0,1-.52.22h-.7c-.63,0-.94.69-.94,2.07v1.69c0,.37,0,.7,0,1s0,.53,0,.7c0,.58-.25.87-.76.87a.66.66,0,0,1-.75-.75l0-.51c0-.13,0-.35,0-.66a7.63,7.63,0,0,1-.77.91,5,5,0,0,1-3.43,1.11,5.46,5.46,0,0,1-4.43-2,8.13,8.13,0,0,1-1.69-5.35,8.66,8.66,0,0,1,1.73-5.65A5.67,5.67,0,0,1,902.21,328.92Z"/>
          <path class="cls-4" d="M940.15,340.79c0,1.07.36,1.6,1.09,1.6a4.67,4.67,0,0,0,.51-.05,3.31,3.31,0,0,1,.51-.06.66.66,0,0,1,.48.2.65.65,0,0,1,.2.48q0,.75-1,.75h-.12l-.15,0-1.05-.15a8.92,8.92,0,0,0-1.34-.09,10,10,0,0,0-1.43.09l-1.06.15-.15,0h-.15c-.63,0-.94-.25-.94-.75a.6.6,0,0,1,.68-.68,3.28,3.28,0,0,1,.52.06,4.26,4.26,0,0,0,.51.05c.71,0,1.06-.53,1.06-1.6v-8.65a1.35,1.35,0,0,0-1.55-1.51h-.66c-1,0-1.54.49-1.54,1.49,0,.35,0,.59,0,.72l.09.79c0,.13,0,.31,0,.53,0,.9-.28,1.35-.83,1.35s-.79-.33-.79-1c0-.19,0-.51,0-1,.05-.68.07-1.12.07-1.3,0-.36,0-.73,0-1.11-.05-.75-.07-1.07-.07-1,0-.6.27-.89.81-.89l1.38.06,1.75.09h2.42l2.28,0q.4,0,1.38-.06c.58,0,1-.05,1.36-.05.71,0,1.06.29,1.06.87v0c0,.14,0,.41,0,.79s-.07.8-.12,1.24v.23c0,.21,0,.55.07,1s.08,1,.08,1.11c0,.58-.27.87-.83.87s-.81-.35-.81-1.07c0-.25,0-.63.07-1.14s.06-.89.06-1.15q0-1.47-1.68-1.47h-.6a1.27,1.27,0,0,0-1.51,1.42l-.09,1.5Z"/>
          <path class="cls-4" d="M961.59,344.07a5.47,5.47,0,0,1-4.49-2,10.12,10.12,0,0,1,0-11.09,5.61,5.61,0,0,1,4.58-2,5.53,5.53,0,0,1,4.45,2,8,8,0,0,1,1.65,5.31,9.1,9.1,0,0,1-1.67,5.75A5.47,5.47,0,0,1,961.59,344.07Zm0-13.61a3.67,3.67,0,0,0-3.17,1.57,7.48,7.48,0,0,0-1.13,4.43,7.6,7.6,0,0,0,1.13,4.49,3.86,3.86,0,0,0,6.29-.06,7.64,7.64,0,0,0,1.16-4.49,7.55,7.55,0,0,0-1.1-4.4A3.67,3.67,0,0,0,961.63,330.46Z"/>
          <path class="cls-4" d="M984.07,344.07a5.47,5.47,0,0,1-4.49-2,10.12,10.12,0,0,1,0-11.09,5.61,5.61,0,0,1,4.58-2,5.53,5.53,0,0,1,4.45,2,8,8,0,0,1,1.65,5.31,9.1,9.1,0,0,1-1.67,5.75A5.47,5.47,0,0,1,984.07,344.07Zm0-13.61a3.67,3.67,0,0,0-3.17,1.57,7.48,7.48,0,0,0-1.13,4.43,7.6,7.6,0,0,0,1.13,4.49,3.86,3.86,0,0,0,6.29-.06,7.64,7.64,0,0,0,1.16-4.49,7.55,7.55,0,0,0-1.1-4.4A3.67,3.67,0,0,0,984.11,330.46Z"/>
          <path class="cls-4" d="M1004.59,340.48c0,.83.08,1.33.25,1.48a.87.87,0,0,0,.5.24,13.6,13.6,0,0,0,1.4,0h1.88a3.4,3.4,0,0,0,2-.39,2,2,0,0,0,.49-1.56c0-.21,0-.46,0-.74,0-.55,0-.88,0-1,0-.61.25-.92.75-.92s.89.28.89.85a2.19,2.19,0,0,1,0,.4l-.15,1.09a7.7,7.7,0,0,0-.06,1c0,.2,0,.5.05.89s.06.68.06.88c0,.64-.37,1-1.09,1-.14,0-.47,0-1-.08-.34,0-.87-.05-1.58-.07h-5c-.34,0-.9,0-1.7.09l-.59,0-.65,0c-.59,0-.89-.26-.89-.77a.59.59,0,0,1,.66-.68,3.31,3.31,0,0,1,.51.06,2.58,2.58,0,0,0,.51.07c.73,0,1.09-.53,1.09-1.6v-8.55c0-1.05-.36-1.57-1.09-1.57a1.72,1.72,0,0,0-.45,0,3.38,3.38,0,0,1-.57.07.62.62,0,0,1-.47-.21.68.68,0,0,1-.19-.5c0-.5.3-.74.92-.74a1.84,1.84,0,0,1,.31,0l1.13.13a13.59,13.59,0,0,0,1.39.1,10.72,10.72,0,0,0,1.36-.1l1-.13a1.58,1.58,0,0,1,.28,0c.64,0,1,.24,1,.74a.68.68,0,0,1-.19.5.62.62,0,0,1-.47.21,4,4,0,0,1-.58-.07,1.68,1.68,0,0,0-.44,0c-.73,0-1.09.52-1.09,1.57Z"/>
          <path class="cls-4" d="M1028.24,328.92a4.6,4.6,0,0,1,3.41,1.34V330q0-.84.66-.84c.48,0,.73.31.73.92v.13s0,.24-.07.64-.06.87-.06,1.43c0,.07,0,.3,0,.68l.06.85a1.15,1.15,0,0,1,0,.3c0,.68-.27,1-.79,1a.74.74,0,0,1-.83-.85v-.11l0-.57c0-.2,0-.36,0-.47a2.48,2.48,0,0,0-.86-2,3.56,3.56,0,0,0-2.38-.73,3.34,3.34,0,0,0-2.2.68,2.28,2.28,0,0,0-.83,1.84,2.11,2.11,0,0,0,1.22,2,9.68,9.68,0,0,0,2.39.62,8.42,8.42,0,0,1,3.47,1.1,3.48,3.48,0,0,1,1.41,3,4.14,4.14,0,0,1-1.44,3.27,5.46,5.46,0,0,1-3.71,1.25,5.6,5.6,0,0,1-4-1.53v.31a2.23,2.23,0,0,1,.09.45.69.69,0,0,1-.79.77c-.57,0-.85-.3-.85-.89a.24.24,0,0,1,.06-.17l.1-1.11c.05-.56.07-.91.07-1.07a10.18,10.18,0,0,0-.12-1.28,11.56,11.56,0,0,1-.11-1.27q0-1,.81-1c.55,0,.83.32.83,1v.88a3.27,3.27,0,0,0,1,2.54,3.9,3.9,0,0,0,2.76.94,4,4,0,0,0,2.57-.76,2.53,2.53,0,0,0,1-2.09c0-1.35-.85-2.17-2.56-2.47l-1.21-.22a13.64,13.64,0,0,1-2.82-.74,3.26,3.26,0,0,1-1.46-1.27,3.57,3.57,0,0,1-.54-1.95,3.84,3.84,0,0,1,1.36-3.05A5.25,5.25,0,0,1,1028.24,328.92Z"/>
        </g>
        <g>
          <path class="cls-5" d="M557.8,328.92a4.8,4.8,0,0,1,3.86,1.81v-.48a.79.79,0,0,1,0-.15c0-.32,0-.47,0-.44,0-.49.22-.74.66-.74s.7.3.7.9c0,.11,0,.45,0,1s-.13,1.2-.13,1.47a9.33,9.33,0,0,0,.08,1.17l.09.81v.22c0,.63-.25.95-.76.95s-.83-.3-.81-.91v-.76a3.16,3.16,0,0,0-1-2.47,3.66,3.66,0,0,0-2.61-.95,3.87,3.87,0,0,0-3.3,1.62,9,9,0,0,0,0,9,4,4,0,0,0,3.42,1.63,4.08,4.08,0,0,0,2.14-.57,3.12,3.12,0,0,0,1.33-1.51,4.5,4.5,0,0,0,.26-1.67c0-.65.27-1,.81-1s.87.33.87,1a4.82,4.82,0,0,1-1.58,3.73,6.32,6.32,0,0,1-8.66-.57,8.08,8.08,0,0,1-1.71-5.39,8.54,8.54,0,0,1,1.75-5.61A5.73,5.73,0,0,1,557.8,328.92Z"/>
          <path class="cls-5" d="M577.68,340.48c0,.83.08,1.33.25,1.48a.87.87,0,0,0,.51.24,13.23,13.23,0,0,0,1.39,0h1.88a3.4,3.4,0,0,0,2-.39,2,2,0,0,0,.49-1.56c0-.21,0-.46,0-.74,0-.55,0-.88,0-1,0-.61.25-.92.75-.92s.89.28.89.85a2.19,2.19,0,0,1,0,.4l-.15,1.09a7.7,7.7,0,0,0-.06,1c0,.2,0,.5,0,.89s.06.68.06.88c0,.64-.37,1-1.09,1-.14,0-.47,0-1-.08-.34,0-.87-.05-1.58-.07h-5c-.34,0-.9,0-1.7.09l-.59,0-.65,0c-.59,0-.89-.26-.89-.77a.59.59,0,0,1,.66-.68,3.31,3.31,0,0,1,.51.06,2.58,2.58,0,0,0,.51.07c.73,0,1.09-.53,1.09-1.6v-8.55c0-1.05-.36-1.57-1.09-1.57a1.72,1.72,0,0,0-.45,0,3.38,3.38,0,0,1-.57.07.61.61,0,0,1-.47-.21.68.68,0,0,1-.19-.5c0-.5.3-.74.92-.74a1.84,1.84,0,0,1,.31,0l1.13.13a13.59,13.59,0,0,0,1.39.1,10.72,10.72,0,0,0,1.36-.1l1-.13a1.58,1.58,0,0,1,.28,0c.64,0,1,.24,1,.74a.72.72,0,0,1-.19.5.62.62,0,0,1-.47.21,4,4,0,0,1-.58-.07,1.68,1.68,0,0,0-.44,0c-.73,0-1.09.52-1.09,1.57Z"/>
          <path class="cls-5" d="M601.74,344.07a5.47,5.47,0,0,1-4.49-2,8.59,8.59,0,0,1-1.65-5.54,8.45,8.45,0,0,1,1.66-5.55,6.12,6.12,0,0,1,9-.06,8,8,0,0,1,1.65,5.31,9,9,0,0,1-1.68,5.75A5.44,5.44,0,0,1,601.74,344.07Zm0-13.61A3.7,3.7,0,0,0,598.6,332a7.56,7.56,0,0,0-1.13,4.43A7.68,7.68,0,0,0,598.6,341a3.87,3.87,0,0,0,6.3-.06,7.72,7.72,0,0,0,1.16-4.49A7.47,7.47,0,0,0,605,332,3.66,3.66,0,0,0,601.78,330.46Z"/>
          <path class="cls-5" d="M623.81,328.92a4.6,4.6,0,0,1,3.41,1.34V330q0-.84.66-.84c.48,0,.73.31.73.92v.13s0,.24-.07.64-.06.87-.06,1.43c0,.07,0,.3,0,.68l.06.85a1.15,1.15,0,0,1,0,.3c0,.68-.27,1-.79,1a.74.74,0,0,1-.83-.85v-.11l0-.57c0-.2,0-.36,0-.47a2.48,2.48,0,0,0-.86-2,3.56,3.56,0,0,0-2.38-.73,3.34,3.34,0,0,0-2.2.68,2.27,2.27,0,0,0-.82,1.84,2.1,2.1,0,0,0,1.21,2,9.68,9.68,0,0,0,2.39.62,8.42,8.42,0,0,1,3.47,1.1,3.48,3.48,0,0,1,1.41,3,4.14,4.14,0,0,1-1.44,3.27,5.46,5.46,0,0,1-3.71,1.25,5.6,5.6,0,0,1-4-1.53v.31a2.23,2.23,0,0,1,.09.45.69.69,0,0,1-.79.77c-.57,0-.85-.3-.85-.89a.24.24,0,0,1,.06-.17l.1-1.11c0-.56.07-.91.07-1.07a11.9,11.9,0,0,0-.11-1.28,9.9,9.9,0,0,1-.12-1.27q0-1,.81-1c.55,0,.83.32.83,1v.88a3.27,3.27,0,0,0,1,2.54,3.9,3.9,0,0,0,2.76.94,4,4,0,0,0,2.57-.76,2.53,2.53,0,0,0,1-2.09c0-1.35-.86-2.17-2.56-2.47l-1.21-.22a13.64,13.64,0,0,1-2.82-.74,3.26,3.26,0,0,1-1.46-1.27,3.57,3.57,0,0,1-.54-1.95,3.84,3.84,0,0,1,1.36-3.05A5.25,5.25,0,0,1,623.81,328.92Z"/>
          <path class="cls-5" d="M642.18,332.22c0-1.05-.36-1.57-1.09-1.57a1.72,1.72,0,0,0-.45,0,3.5,3.5,0,0,1-.57.07.61.61,0,0,1-.47-.21.68.68,0,0,1-.19-.5c0-.5.3-.74.89-.74l.32,0,3,.21h.21l5.12-.15,1.11-.06c.22,0,.43,0,.61,0,.74,0,1.11.32,1.11,1,0,.11,0,.47-.07,1.08,0,.46,0,.88,0,1.26s0,.84,0,1a8.94,8.94,0,0,1,.08.92c0,.54-.26.81-.76.81s-.76-.38-.76-1.13v-1.11c0-1.19-.25-1.89-.74-2.11a10.31,10.31,0,0,0-2.86-.23,14,14,0,0,0-1.79.06,1.17,1.17,0,0,0-.91,1.28v2.13c0,.57.12.9.37,1a2.06,2.06,0,0,0,.51,0h.86c.88,0,1.32-.3,1.32-.91a4.46,4.46,0,0,0,0-.66,6.72,6.72,0,0,1-.05-.73c0-.56.25-.85.75-.85s.76.31.76.92c0,.11,0,.55-.14,1.32a14.37,14.37,0,0,0-.12,1.72c0,.29,0,.79.09,1.52,0,.11,0,.36.11.74a6.29,6.29,0,0,1,.06.75.68.68,0,0,1-.77.77c-.49,0-.74-.3-.74-.9,0-.16,0-.38.05-.68a5.22,5.22,0,0,0,0-.68c0-.61-.4-.92-1.21-.92h-1c-.41,0-.66.07-.76.21a2,2,0,0,0-.13.92v1.32c0,.23,0,.53,0,.92s0,.78,0,.94c0,.56.13.92.34,1.06a2.53,2.53,0,0,0,1.11.15h2.9a2.88,2.88,0,0,0,1.72-.37,1.73,1.73,0,0,0,.47-1.4c0-.21,0-.53,0-1s0-.73,0-.94q0-1,.75-1c.54,0,.8.32.8,1q0,.38,0,1.17t0,1.17c0,.2,0,.49,0,.88s0,.69,0,.89a.88.88,0,0,1-1,1c-.15,0-.4,0-.74,0-.17,0-.49,0-.94,0l-1.66,0c-1.21,0-2.26,0-3.14,0-1.33,0-2.64,0-3.92.13l-.19,0h-.13c-.59,0-.89-.26-.89-.77a.59.59,0,0,1,.66-.68l.57,0a1.5,1.5,0,0,0,.45.07c.73,0,1.09-.53,1.09-1.6Z"/>
          <path class="cls-5" d="M665,332.22q0-1.59-1.08-1.59a2.57,2.57,0,0,0-.45,0,4.17,4.17,0,0,1-.58.06c-.44,0-.66-.22-.66-.68s.32-.74,1-.74a1.58,1.58,0,0,1,.28,0l1.13.15a11.58,11.58,0,0,0,1.36.08,11.71,11.71,0,0,0,1.19-.06l1.39-.15a10.17,10.17,0,0,1,1.06,0,8.24,8.24,0,0,1,3.24.55,5.5,5.5,0,0,1,2.7,2.51,8.47,8.47,0,0,1,1,4.16,8.67,8.67,0,0,1-.79,3.76,5.29,5.29,0,0,1-2.15,2.46,7.72,7.72,0,0,1-4,1c-.32,0-.64,0-1,0l-1.47-.13q-.75-.06-1.56-.06a9,9,0,0,0-1.15.06l-1,.15-.15,0h-.17c-.61,0-.92-.25-.92-.75a.76.76,0,0,1,.19-.5.65.65,0,0,1,.47-.2,2.74,2.74,0,0,1,.58.07,2.31,2.31,0,0,0,.45,0c.72,0,1.08-.53,1.08-1.6Zm1.79-.21v9a1.11,1.11,0,0,0,1,1.19,11.4,11.4,0,0,0,1.79.08,4.57,4.57,0,0,0,3.71-1.38,6.59,6.59,0,0,0,1.38-4.37,7.15,7.15,0,0,0-.84-3.6,3.84,3.84,0,0,0-2.31-1.9,8.25,8.25,0,0,0-2.26-.28,6.39,6.39,0,0,0-2,.19C667,331.05,666.83,331.41,666.83,332Z"/>
          <path class="cls-5" d="M706.93,328.92a4.78,4.78,0,0,1,3.86,1.81v-.48a.54.54,0,0,1,0-.15c0-.32,0-.47,0-.44,0-.49.22-.74.66-.74s.7.3.7.9c0,.11,0,.45,0,1a13.54,13.54,0,0,0-.13,1.47,9.29,9.29,0,0,0,.07,1.17l.1.81v.22c0,.63-.26.95-.77.95s-.82-.3-.81-.91v-.76a3.15,3.15,0,0,0-1-2.47,3.67,3.67,0,0,0-2.62-.95,3.85,3.85,0,0,0-3.29,1.62,7.37,7.37,0,0,0-1.19,4.47,7.46,7.46,0,0,0,1.22,4.55,4.37,4.37,0,0,0,5.56,1.06,3.14,3.14,0,0,0,1.34-1.51,4.52,4.52,0,0,0,.25-1.67c0-.65.27-1,.81-1s.88.33.88,1a4.82,4.82,0,0,1-1.58,3.73,5.76,5.76,0,0,1-4.07,1.45,5.7,5.7,0,0,1-4.59-2,8,8,0,0,1-1.72-5.39,8.54,8.54,0,0,1,1.76-5.61A5.71,5.71,0,0,1,706.93,328.92Z"/>
          <path class="cls-5" d="M732.74,341.2l-.77-2.09a.85.85,0,0,0-.26-.43,1.42,1.42,0,0,0-.57-.08h-3.79a.87.87,0,0,0-.59.15,2.7,2.7,0,0,0-.41.8l-.62,1.65a1.19,1.19,0,0,0-.09.44c0,.46.28.69.83.69a5.86,5.86,0,0,0,.61-.05,5.36,5.36,0,0,1,.59,0q.87,0,.87.75c0,.46-.32.7-1,.7l-.47,0-1.06-.14c-.2,0-.53,0-1,0s-.85,0-1.05,0l-.89.11a7.6,7.6,0,0,1-.87.07c-.56,0-.84-.24-.84-.7s.27-.75.81-.75a.34.34,0,0,1,.26.09h.28a1,1,0,0,0,.87-.45,5.13,5.13,0,0,0,.43-1l4-10.75a1.31,1.31,0,0,1,1.34-.9,1.25,1.25,0,0,1,1.3.9l3.82,10.56a4.31,4.31,0,0,0,.66,1.33,1.12,1.12,0,0,0,.85.32.88.88,0,0,0,.26,0l.59-.06c.54,0,.81.23.81.7s-.27.75-.81.75a6,6,0,0,1-.62-.05,17.67,17.67,0,0,0-2-.16c-.52,0-1.38,0-2.56.17l-.68,0c-.57,0-.85-.24-.85-.73s.31-.72.94-.72a4.79,4.79,0,0,1,.56,0,5.49,5.49,0,0,0,.57.05c.46,0,.7-.2.7-.58A3.1,3.1,0,0,0,732.74,341.2Zm-1.53-4.35L729.29,331l-2,5.88a.79.79,0,0,0-.05.15c0,.13.11.19.32.19H731c.17,0,.26-.06.26-.17A1.2,1.2,0,0,0,731.21,336.85Z"/>
          <path class="cls-5" d="M749.19,340.77v-8.53c0-1.05-.36-1.57-1.08-1.57l-.44,0a4.48,4.48,0,0,1-.58.06c-.45,0-.67-.24-.67-.71s.31-.74.93-.74a1.77,1.77,0,0,1,.32,0l1.05.13a11.13,11.13,0,0,0,1.27.06c.36,0,.78,0,1.28-.06q1.74-.15,2.64-.15a11.41,11.41,0,0,1,2.34.21,3.67,3.67,0,0,1,2.2,1.32,3.91,3.91,0,0,1,.8,2.47,3.64,3.64,0,0,1-1.38,3.07,6.36,6.36,0,0,1-4,1.07h-2.39c-.23,0-.37,0-.44.11a1,1,0,0,0-.09.54v.43a18,18,0,0,0,.16,3.27c.11.38.41.57.93.57a1.31,1.31,0,0,0,.44-.07l.58,0a.59.59,0,0,1,.66.68c0,.51-.31.77-.94.77l-.3,0-1.06-.15a10.69,10.69,0,0,0-1.35-.07,9.62,9.62,0,0,0-1.21.07l-1.24.17-.12,0h-.15q-1,0-1-.75a.71.71,0,0,1,.19-.5.63.63,0,0,1,.47-.2,2.59,2.59,0,0,1,.57.07,2.31,2.31,0,0,0,.45,0C748.83,342.37,749.19,341.84,749.19,340.77Zm1.94-9.65a2.62,2.62,0,0,0-.15,1.17v3.15q0,.58.81.66H753a11.15,11.15,0,0,0,2.52-.23,2.29,2.29,0,0,0,1.89-2.49q0-2.72-3.45-2.71Q751.43,330.67,751.13,331.12Z"/>
          <path class="cls-5" d="M775.72,340.79c0,1.07.36,1.6,1.08,1.6a4.59,4.59,0,0,0,.52-.05,3.07,3.07,0,0,1,.51-.06.68.68,0,0,1,.68.68q0,.75-1,.75h-.13l-.15,0-1-.15a9.12,9.12,0,0,0-1.34-.09,10,10,0,0,0-1.43.09l-1.07.15-.15,0h-.15q-.93,0-.93-.75a.6.6,0,0,1,.68-.68,3.31,3.31,0,0,1,.51.06,4.67,4.67,0,0,0,.51.05c.71,0,1.07-.53,1.07-1.6v-8.65a1.36,1.36,0,0,0-1.56-1.51h-.66a1.33,1.33,0,0,0-1.53,1.49,6.29,6.29,0,0,0,0,.72l.08.79a4,4,0,0,1,0,.53c0,.9-.27,1.35-.83,1.35s-.78-.33-.78-1c0-.19,0-.51,0-1,0-.68.06-1.12.06-1.3q0-.54,0-1.11c0-.75-.07-1.07-.07-1,0-.6.27-.89.8-.89l1.39.06,1.74.09h2.43l2.27,0q.4,0,1.38-.06c.59,0,1-.05,1.37-.05.71,0,1.06.29,1.06.87v0c0,.14,0,.41,0,.79s-.08.8-.12,1.24v.23c0,.21,0,.55.06,1s.09,1,.09,1.11c0,.58-.28.87-.83.87s-.81-.35-.81-1.07q0-.37.06-1.14c0-.51.07-.89.07-1.15,0-1-.57-1.47-1.69-1.47h-.59a1.57,1.57,0,0,0-1.13.33,1.59,1.59,0,0,0-.39,1.09l-.08,1.5Z"/>
          <path class="cls-5" d="M793.38,332.22c0-1.05-.36-1.57-1.08-1.57a1.72,1.72,0,0,0-.45,0,3.6,3.6,0,0,1-.58.07.62.62,0,0,1-.47-.21.72.72,0,0,1-.19-.5c0-.5.31-.74.94-.74a1.73,1.73,0,0,1,.3,0l1.13.15a10.73,10.73,0,0,0,2.77,0l1-.13a1.57,1.57,0,0,1,.29,0c.63,0,.94.24.94.74a.68.68,0,0,1-.19.5.61.61,0,0,1-.47.21,3.93,3.93,0,0,1-.57-.07,1.72,1.72,0,0,0-.45,0c-.73,0-1.09.52-1.09,1.57v8.55c0,1.07.36,1.6,1.09,1.6l.45,0a3.49,3.49,0,0,1,.57-.07.59.59,0,0,1,.66.68c0,.51-.31.77-.94.77h-.14l-.15,0-1.11-.17a7.31,7.31,0,0,0-1.17-.09,10.86,10.86,0,0,0-1.6.11l-1,.15-.15,0h-.17c-.61,0-.92-.26-.92-.77a.59.59,0,0,1,.66-.68l.58,0a1.41,1.41,0,0,0,.45.07c.72,0,1.08-.53,1.08-1.6Z"/>
          <path class="cls-5" d="M813.82,344.07a5.47,5.47,0,0,1-4.49-2,8.59,8.59,0,0,1-1.65-5.54,8.45,8.45,0,0,1,1.66-5.55,6.12,6.12,0,0,1,9-.06,8,8,0,0,1,1.65,5.31,9,9,0,0,1-1.68,5.75A5.44,5.44,0,0,1,813.82,344.07Zm0-13.61a3.69,3.69,0,0,0-3.18,1.57,7.56,7.56,0,0,0-1.13,4.43,7.68,7.68,0,0,0,1.13,4.49,3.87,3.87,0,0,0,6.3-.06,7.72,7.72,0,0,0,1.16-4.49A7.47,7.47,0,0,0,817,332,3.66,3.66,0,0,0,813.86,330.46Z"/>
          <path class="cls-5" d="M835.67,330.26l5.72,11.92v-8.59c0-1.11,0-1.72,0-1.83-.13-.74-.49-1.11-1.07-1.11a4.67,4.67,0,0,0-.51.05,3.31,3.31,0,0,1-.51.06.63.63,0,0,1-.48-.21.66.66,0,0,1-.2-.48c0-.51.32-.76,1-.76a.94.94,0,0,1,.27,0l1,.13a10.5,10.5,0,0,0,1.2.08,12.16,12.16,0,0,0,1.47-.12l.74-.09.15,0h.15c.61,0,.92.24.92.73s-.29.72-.87.72h-.46a1,1,0,0,0-.84.27,2.66,2.66,0,0,0-.24,1.21v9.07a4.58,4.58,0,0,1-.33,2.06,1.21,1.21,0,0,1-1.15.6c-.7,0-1.29-.5-1.78-1.5l-5.61-11.61v9.91c0,1.07.37,1.6,1.09,1.6l.51,0a4.12,4.12,0,0,1,.51,0,.61.61,0,0,1,.69.69q0,.72-1,.72h-.13l-.15,0-.87-.13a9.69,9.69,0,0,0-1.37-.11,12.79,12.79,0,0,0-1.43.11l-1,.13-.15,0h-.17c-.61,0-.91-.25-.91-.75s.22-.66.68-.66l.57.05a1.86,1.86,0,0,0,.45.06c.72,0,1.09-.53,1.09-1.6v-8.56c0-1.07-.37-1.6-1.1-1.6a2.82,2.82,0,0,0-.43,0,4.69,4.69,0,0,1-.59.07c-.45,0-.67-.24-.67-.71s.3-.74.91-.74a2.31,2.31,0,0,1,.34,0c.71.07,1.25.1,1.64.1.21,0,.53,0,1-.06s.75-.06,1-.06a.87.87,0,0,1,.87.44Z"/>
          <path class="cls-5" d="M857.33,332.22c0-1.05-.37-1.57-1.09-1.57a1.72,1.72,0,0,0-.45,0,3.5,3.5,0,0,1-.57.07.61.61,0,0,1-.47-.21.68.68,0,0,1-.19-.5c0-.5.31-.74.94-.74a1.57,1.57,0,0,1,.29,0l1.13.15a11.41,11.41,0,0,0,1.32.08,10.94,10.94,0,0,0,1.45-.1l1-.13a1.62,1.62,0,0,1,.3,0c.62,0,.94.24.94.74a.72.72,0,0,1-.19.5.62.62,0,0,1-.47.21,4,4,0,0,1-.58-.07,1.72,1.72,0,0,0-.45,0c-.72,0-1.08.52-1.08,1.57v8.55c0,1.07.36,1.6,1.08,1.6.12,0,.27,0,.45,0a3.46,3.46,0,0,1,.58-.07.59.59,0,0,1,.66.68c0,.51-.32.77-.94.77h-.15l-.15,0-1.11-.17a7.31,7.31,0,0,0-1.17-.09,10.86,10.86,0,0,0-1.6.11l-1,.15-.15,0h-.17c-.61,0-.91-.26-.91-.77a.59.59,0,0,1,.66-.68l.57,0a1.5,1.5,0,0,0,.45.07c.72,0,1.09-.53,1.09-1.6Z"/>
          <path class="cls-5" d="M877.13,330.26l5.72,11.92v-8.59c0-1.11,0-1.72,0-1.83-.12-.74-.48-1.11-1.06-1.11a4.26,4.26,0,0,0-.51.05,3.31,3.31,0,0,1-.51.06.72.72,0,0,1-.69-.69c0-.51.32-.76,1-.76a1,1,0,0,1,.28,0l1,.13a10.19,10.19,0,0,0,1.19.08,11.87,11.87,0,0,0,1.47-.12l.75-.09.15,0H886c.61,0,.91.24.91.73s-.29.72-.87.72h-.45a1,1,0,0,0-.85.27,2.66,2.66,0,0,0-.24,1.21v9.07a4.58,4.58,0,0,1-.33,2.06,1.19,1.19,0,0,1-1.14.6c-.7,0-1.29-.5-1.78-1.5l-5.61-11.61v9.91c0,1.07.36,1.6,1.09,1.6l.51,0a4,4,0,0,1,.51,0,.61.61,0,0,1,.68.69q0,.72-1,.72h-.13l-.14,0-.88-.13a9.56,9.56,0,0,0-1.36-.11,12.62,12.62,0,0,0-1.43.11l-1,.13-.15,0h-.17c-.61,0-.92-.25-.92-.75a.59.59,0,0,1,.68-.66l.58.05a1.72,1.72,0,0,0,.44.06c.73,0,1.09-.53,1.09-1.6v-8.56c0-1.07-.36-1.6-1.1-1.6a2.61,2.61,0,0,0-.42,0,5.14,5.14,0,0,1-.59.07.62.62,0,0,1-.68-.71c0-.5.31-.74.91-.74a2.44,2.44,0,0,1,.35,0c.7.07,1.25.1,1.63.1.22,0,.53,0,1-.06s.74-.06,1-.06a.87.87,0,0,1,.87.44Z"/>
          <path class="cls-5" d="M902.21,328.92a5.62,5.62,0,0,1,3.87,1.6,1.78,1.78,0,0,1-.08-.34c0-.28,0-.44,0-.47a.62.62,0,0,1,.71-.7c.51,0,.76.3.76.91a2.7,2.7,0,0,1,0,.45l-.16,1a5.86,5.86,0,0,0-.07,1c0,.27,0,.85.08,1.73v.19c0,.64-.26,1-.79,1s-.74-.35-.74-1v-.64a2.94,2.94,0,0,0-1-2.33,3.82,3.82,0,0,0-2.6-.85,3.76,3.76,0,0,0-3.23,1.6,7.29,7.29,0,0,0-1.17,4.39A7.76,7.76,0,0,0,899,341a3.9,3.9,0,0,0,3.34,1.66,3.28,3.28,0,0,0,2.53-1,3.85,3.85,0,0,0,.9-2.74,1.54,1.54,0,0,0-.25-1,1.05,1.05,0,0,0-.86-.29c-.11,0-.28,0-.49,0l-.49,0q-1,0-1-.72t.87-.75a4.82,4.82,0,0,1,.62.05,16.92,16.92,0,0,0,2.15.18,13.5,13.5,0,0,0,2.22-.19,3.32,3.32,0,0,1,.57,0c.57,0,.85.23.85.7a.67.67,0,0,1-.22.51.7.7,0,0,1-.52.22h-.7c-.63,0-.94.69-.94,2.07v1.69c0,.37,0,.7,0,1s0,.53,0,.7c0,.58-.25.87-.76.87a.66.66,0,0,1-.75-.75l0-.51c0-.13,0-.35,0-.66a7.63,7.63,0,0,1-.77.91,5,5,0,0,1-3.43,1.11,5.46,5.46,0,0,1-4.43-2,8.13,8.13,0,0,1-1.69-5.35,8.66,8.66,0,0,1,1.73-5.65A5.67,5.67,0,0,1,902.21,328.92Z"/>
          <path class="cls-5" d="M940.15,340.79c0,1.07.36,1.6,1.09,1.6a4.67,4.67,0,0,0,.51-.05,3.31,3.31,0,0,1,.51-.06.66.66,0,0,1,.48.2.65.65,0,0,1,.2.48q0,.75-1,.75h-.12l-.15,0-1.05-.15a8.92,8.92,0,0,0-1.34-.09,10,10,0,0,0-1.43.09l-1.06.15-.15,0h-.15c-.63,0-.94-.25-.94-.75a.6.6,0,0,1,.68-.68,3.28,3.28,0,0,1,.52.06,4.26,4.26,0,0,0,.51.05c.71,0,1.06-.53,1.06-1.6v-8.65a1.35,1.35,0,0,0-1.55-1.51h-.66c-1,0-1.54.49-1.54,1.49,0,.35,0,.59,0,.72l.09.79c0,.13,0,.31,0,.53,0,.9-.28,1.35-.83,1.35s-.79-.33-.79-1c0-.19,0-.51,0-1,.05-.68.07-1.12.07-1.3,0-.36,0-.73,0-1.11-.05-.75-.07-1.07-.07-1,0-.6.27-.89.81-.89l1.38.06,1.75.09h2.42l2.28,0q.4,0,1.38-.06c.58,0,1-.05,1.36-.05.71,0,1.06.29,1.06.87v0c0,.14,0,.41,0,.79s-.07.8-.12,1.24v.23c0,.21,0,.55.07,1s.08,1,.08,1.11c0,.58-.27.87-.83.87s-.81-.35-.81-1.07c0-.25,0-.63.07-1.14s.06-.89.06-1.15q0-1.47-1.68-1.47h-.6a1.27,1.27,0,0,0-1.51,1.42l-.09,1.5Z"/>
          <path class="cls-5" d="M961.59,344.07a5.47,5.47,0,0,1-4.49-2,10.12,10.12,0,0,1,0-11.09,5.61,5.61,0,0,1,4.58-2,5.53,5.53,0,0,1,4.45,2,8,8,0,0,1,1.65,5.31,9.1,9.1,0,0,1-1.67,5.75A5.47,5.47,0,0,1,961.59,344.07Zm0-13.61a3.67,3.67,0,0,0-3.17,1.57,7.48,7.48,0,0,0-1.13,4.43,7.6,7.6,0,0,0,1.13,4.49,3.86,3.86,0,0,0,6.29-.06,7.64,7.64,0,0,0,1.16-4.49,7.55,7.55,0,0,0-1.1-4.4A3.67,3.67,0,0,0,961.63,330.46Z"/>
          <path class="cls-5" d="M984.07,344.07a5.47,5.47,0,0,1-4.49-2,10.12,10.12,0,0,1,0-11.09,5.61,5.61,0,0,1,4.58-2,5.53,5.53,0,0,1,4.45,2,8,8,0,0,1,1.65,5.31,9.1,9.1,0,0,1-1.67,5.75A5.47,5.47,0,0,1,984.07,344.07Zm0-13.61a3.67,3.67,0,0,0-3.17,1.57,7.48,7.48,0,0,0-1.13,4.43,7.6,7.6,0,0,0,1.13,4.49,3.86,3.86,0,0,0,6.29-.06,7.64,7.64,0,0,0,1.16-4.49,7.55,7.55,0,0,0-1.1-4.4A3.67,3.67,0,0,0,984.11,330.46Z"/>
          <path class="cls-5" d="M1004.59,340.48c0,.83.08,1.33.25,1.48a.87.87,0,0,0,.5.24,13.6,13.6,0,0,0,1.4,0h1.88a3.4,3.4,0,0,0,2-.39,2,2,0,0,0,.49-1.56c0-.21,0-.46,0-.74,0-.55,0-.88,0-1,0-.61.25-.92.75-.92s.89.28.89.85a2.19,2.19,0,0,1,0,.4l-.15,1.09a7.7,7.7,0,0,0-.06,1c0,.2,0,.5.05.89s.06.68.06.88c0,.64-.37,1-1.09,1-.14,0-.47,0-1-.08-.34,0-.87-.05-1.58-.07h-5c-.34,0-.9,0-1.7.09l-.59,0-.65,0c-.59,0-.89-.26-.89-.77a.59.59,0,0,1,.66-.68,3.31,3.31,0,0,1,.51.06,2.58,2.58,0,0,0,.51.07c.73,0,1.09-.53,1.09-1.6v-8.55c0-1.05-.36-1.57-1.09-1.57a1.72,1.72,0,0,0-.45,0,3.38,3.38,0,0,1-.57.07.62.62,0,0,1-.47-.21.68.68,0,0,1-.19-.5c0-.5.3-.74.92-.74a1.84,1.84,0,0,1,.31,0l1.13.13a13.59,13.59,0,0,0,1.39.1,10.72,10.72,0,0,0,1.36-.1l1-.13a1.58,1.58,0,0,1,.28,0c.64,0,1,.24,1,.74a.68.68,0,0,1-.19.5.62.62,0,0,1-.47.21,4,4,0,0,1-.58-.07,1.68,1.68,0,0,0-.44,0c-.73,0-1.09.52-1.09,1.57Z"/>
          <path class="cls-5" d="M1028.24,328.92a4.6,4.6,0,0,1,3.41,1.34V330q0-.84.66-.84c.48,0,.73.31.73.92v.13s0,.24-.07.64-.06.87-.06,1.43c0,.07,0,.3,0,.68l.06.85a1.15,1.15,0,0,1,0,.3c0,.68-.27,1-.79,1a.74.74,0,0,1-.83-.85v-.11l0-.57c0-.2,0-.36,0-.47a2.48,2.48,0,0,0-.86-2,3.56,3.56,0,0,0-2.38-.73,3.34,3.34,0,0,0-2.2.68,2.28,2.28,0,0,0-.83,1.84,2.11,2.11,0,0,0,1.22,2,9.68,9.68,0,0,0,2.39.62,8.42,8.42,0,0,1,3.47,1.1,3.48,3.48,0,0,1,1.41,3,4.14,4.14,0,0,1-1.44,3.27,5.46,5.46,0,0,1-3.71,1.25,5.6,5.6,0,0,1-4-1.53v.31a2.23,2.23,0,0,1,.09.45.69.69,0,0,1-.79.77c-.57,0-.85-.3-.85-.89a.24.24,0,0,1,.06-.17l.1-1.11c.05-.56.07-.91.07-1.07a10.18,10.18,0,0,0-.12-1.28,11.56,11.56,0,0,1-.11-1.27q0-1,.81-1c.55,0,.83.32.83,1v.88a3.27,3.27,0,0,0,1,2.54,3.9,3.9,0,0,0,2.76.94,4,4,0,0,0,2.57-.76,2.53,2.53,0,0,0,1-2.09c0-1.35-.85-2.17-2.56-2.47l-1.21-.22a13.64,13.64,0,0,1-2.82-.74,3.26,3.26,0,0,1-1.46-1.27,3.57,3.57,0,0,1-.54-1.95,3.84,3.84,0,0,1,1.36-3.05A5.25,5.25,0,0,1,1028.24,328.92Z"/>
        </g>
      </g>
      <g>
        <g>
          <path class="cls-6" d="M574.92,247.59q0-4.6-3.18-4.61a5.13,5.13,0,0,0-1.3.13,9.84,9.84,0,0,1-1.68.18,1.79,1.79,0,0,1-1.37-.59,2,2,0,0,1-.56-1.46c0-1.45.91-2.18,2.74-2.18a7.73,7.73,0,0,1,.87.07l3.3.43a28.3,28.3,0,0,0,3.85.25,31.22,31.22,0,0,0,4.23-.31l2.8-.37a7.56,7.56,0,0,1,.87-.07c1.83,0,2.74.73,2.74,2.18a2,2,0,0,1-.56,1.46,1.79,1.79,0,0,1-1.37.59,10.7,10.7,0,0,1-1.68-.18,5.13,5.13,0,0,0-1.3-.13q-3.18,0-3.18,4.61v25q0,4.66,3.18,4.66a9.28,9.28,0,0,0,1.3-.12,11.77,11.77,0,0,1,1.68-.19,1.73,1.73,0,0,1,1.93,2c0,1.5-.91,2.24-2.74,2.24h-.43a1.92,1.92,0,0,0-.44-.06l-3.23-.5a23.31,23.31,0,0,0-3.42-.25,32.42,32.42,0,0,0-4.67.31l-2.86.44a2.69,2.69,0,0,0-.44.06h-.5c-1.78,0-2.67-.74-2.67-2.24a1.73,1.73,0,0,1,1.93-2c.2,0,.76,0,1.68.13a5.08,5.08,0,0,0,1.3.18q3.18,0,3.18-4.66Z"/>
          <path class="cls-6" d="M620.3,241.86,637,276.64V251.57c0-3.24,0-5-.06-5.35-.38-2.16-1.41-3.24-3.11-3.24a11.45,11.45,0,0,0-1.5.16,10.94,10.94,0,0,1-1.49.15,2,2,0,0,1-2-2c0-1.49.93-2.24,2.8-2.24a3.75,3.75,0,0,1,.81.07l2.8.37a25.66,25.66,0,0,0,3.48.25,37.09,37.09,0,0,0,4.29-.34l2.18-.29a2.83,2.83,0,0,0,.44-.06h.43c1.79,0,2.68.72,2.68,2.15s-.85,2.08-2.54,2.08H644.9a2.91,2.91,0,0,0-2.47.81,7.65,7.65,0,0,0-.69,3.54V274.1c0,2.86-.33,4.87-1,6a3.51,3.51,0,0,1-3.35,1.74q-3.06,0-5.19-4.36l-16.38-33.9v28.93q0,4.66,3.18,4.66c.33,0,.83,0,1.49-.09s1.16-.09,1.49-.09a1.76,1.76,0,0,1,2,2c0,1.41-.93,2.11-2.79,2.11h-.38a2.75,2.75,0,0,0-.43-.06l-2.55-.37a27.21,27.21,0,0,0-4-.31,35.23,35.23,0,0,0-4.16.31l-3.05.37a2.69,2.69,0,0,0-.44.06h-.5c-1.78,0-2.67-.72-2.67-2.18,0-1.28.66-1.92,2-1.92q.32,0,1.68.12a5.18,5.18,0,0,0,1.31.19q3.16,0,3.17-4.67v-25q0-4.67-3.21-4.67a9.46,9.46,0,0,0-1.24.13,12.69,12.69,0,0,1-1.73.18c-1.31,0-2-.68-2-2s.89-2.18,2.67-2.18c.25,0,.58,0,1,.07,2.07.2,3.67.31,4.78.31.62,0,1.56-.07,2.8-.19s2.17-.19,2.79-.19a2.53,2.53,0,0,1,2.55,1.31Z"/>
          <path class="cls-6" d="M680.93,237.94a13.39,13.39,0,0,1,10,3.92V241c0-1.62.64-2.42,1.93-2.42s2.11.89,2.11,2.67v.37c0,.09-.06.71-.19,1.87a41.31,41.31,0,0,0-.18,4.17c0,.21,0,.87.12,2l.19,2.49a4.9,4.9,0,0,1,.06.87c0,2-.77,3-2.3,3a2.17,2.17,0,0,1-2.43-2.49v-.31l.13-1.68c0-.58.06-1,.06-1.37a7.22,7.22,0,0,0-2.52-5.85,10.46,10.46,0,0,0-6.94-2.12,9.77,9.77,0,0,0-6.44,2,6.6,6.6,0,0,0-2.39,5.35,6.12,6.12,0,0,0,3.54,5.78,26.67,26.67,0,0,0,7,1.81q7.41,1.17,10.14,3.23a10.13,10.13,0,0,1,4.11,8.65,12.08,12.08,0,0,1-4.19,9.52,15.81,15.81,0,0,1-10.83,3.67,16.21,16.21,0,0,1-11.73-4.48v.92a7.66,7.66,0,0,1,.25,1.29,2,2,0,0,1-2.3,2.27q-2.49,0-2.49-2.61a.68.68,0,0,1,.18-.5l.29-3.24c.14-1.61.21-2.65.21-3.11a31.62,31.62,0,0,0-.34-3.73,29.58,29.58,0,0,1-.34-3.73c0-1.87.78-2.8,2.36-2.8s2.43.93,2.43,2.81v2.56a9.63,9.63,0,0,0,3,7.43A11.42,11.42,0,0,0,681.4,278a11.66,11.66,0,0,0,7.5-2.24,7.4,7.4,0,0,0,2.8-6.1q0-5.91-7.47-7.21l-3.55-.63a39.23,39.23,0,0,1-8.21-2.17,9.49,9.49,0,0,1-4.26-3.7,10.46,10.46,0,0,1-1.59-5.7,11.17,11.17,0,0,1,4-8.89A15.31,15.31,0,0,1,680.93,237.94Z"/>
          <path class="cls-6" d="M722.06,272.54v-24.9q0-4.59-3.15-4.59a12.3,12.3,0,0,0-1.3.09,13,13,0,0,1-1.67.15c-1.31,0-2-.68-2-2s.91-2.18,2.73-2.18a7.86,7.86,0,0,1,.93.07l3,.37a31.53,31.53,0,0,0,3.72.19c1,0,2.28-.07,3.73-.19,3.4-.29,6-.44,7.7-.44a32.26,32.26,0,0,1,6.84.63,10.62,10.62,0,0,1,6.42,3.85,11.35,11.35,0,0,1,2.33,7.22q0,5.85-4,9t-11.6,3.11h-7c-.67,0-1.09.11-1.28.34a2.92,2.92,0,0,0-.28,1.58V266q0,7.88.47,9.54c.31,1.11,1.21,1.67,2.71,1.67a4.64,4.64,0,0,0,1.3-.18c.91-.09,1.48-.13,1.68-.13a1.73,1.73,0,0,1,1.93,2c0,1.5-.91,2.24-2.74,2.24l-.87-.12-3.11-.44a31.28,31.28,0,0,0-3.92-.18,28.1,28.1,0,0,0-3.54.18l-3.61.5a1.78,1.78,0,0,0-.38.06h-.43c-1.87,0-2.8-.72-2.8-2.18a2.06,2.06,0,0,1,.56-1.46,1.82,1.82,0,0,1,1.37-.59,9,9,0,0,1,1.68.19,5.23,5.23,0,0,0,1.3.12Q722.06,277.2,722.06,272.54Zm5.66-28.19a7.74,7.74,0,0,0-.44,3.42V257c0,1.12.79,1.77,2.37,1.93h3.61a33.37,33.37,0,0,0,7.34-.68q5.53-1.31,5.53-7.28,0-7.9-10.07-7.9Q728.59,243.05,727.72,244.35Z"/>
          <path class="cls-6" d="M774.19,247.59c0-3.07-1.05-4.61-3.17-4.61a5.13,5.13,0,0,0-1.3.13,9.84,9.84,0,0,1-1.68.18,1.79,1.79,0,0,1-1.37-.59,2,2,0,0,1-.56-1.46c0-1.45.87-2.18,2.6-2.18l.93.07q9.3.62,8.68.62h.62l14.94-.44c.29,0,1.37-.06,3.23-.18.66,0,1.26-.07,1.8-.07,2.14,0,3.22,1,3.22,2.87,0,.33-.06,1.39-.18,3.17-.09,1.33-.13,2.55-.13,3.67a30.11,30.11,0,0,0,.1,3,25.49,25.49,0,0,1,.21,2.67c0,1.58-.74,2.37-2.21,2.37s-2.21-1.1-2.21-3.3v-3.24q0-5.22-2.17-6.15-1.62-.69-8.34-.69a37.06,37.06,0,0,0-5.23.19c-1.78.45-2.67,1.7-2.67,3.73v6.22c0,1.66.36,2.61,1.1,2.86a5.61,5.61,0,0,0,1.47.13h2.52q3.87,0,3.87-2.68a16.48,16.48,0,0,0-.16-1.93,17,17,0,0,1-.16-2.11c0-1.66.74-2.49,2.21-2.49s2.21.89,2.21,2.68c0,.33-.13,1.61-.4,3.85a42.67,42.67,0,0,0-.34,5c0,.83.08,2.3.24,4.42,0,.33.15,1.06.32,2.18a17.61,17.61,0,0,1,.18,2.18,2,2,0,0,1-2.24,2.24c-1.45,0-2.18-.88-2.18-2.62a19.62,19.62,0,0,1,.16-2,19.41,19.41,0,0,0,.16-2c0-1.78-1.19-2.67-3.55-2.67h-2.8c-1.2,0-1.94.2-2.21.62a5.64,5.64,0,0,0-.4,2.67v3.86c0,.66,0,1.55.06,2.68,0,1.36.06,2.28.06,2.73,0,1.66.37,2.7,1,3.11a7.27,7.27,0,0,0,3.23.44h8.46q3.67,0,5-1.09c.91-.72,1.37-2.08,1.37-4.08q0-.93-.09-2.76c-.06-1.23-.1-2.15-.1-2.77,0-1.87.74-2.8,2.21-2.8s2.34.95,2.34,2.86c0,.75,0,1.89-.1,3.42s-.09,2.68-.09,3.42c0,.58,0,1.45.09,2.59s.1,2,.1,2.58c0,1.95-1,2.92-2.87,2.92-.45,0-1.18,0-2.17-.12-.5,0-1.41-.06-2.74-.06.29,0-1.33-.05-4.85-.13s-6.58-.12-9.15-.12c-3.9,0-7.71.12-11.45.37a3.06,3.06,0,0,0-.56.06h-.37c-1.74,0-2.61-.74-2.61-2.24a1.73,1.73,0,0,1,1.93-2c.2,0,.76,0,1.68.13a5.08,5.08,0,0,0,1.3.18c2.12,0,3.17-1.55,3.17-4.66Z"/>
          <path class="cls-6" d="M840.21,237.94a14,14,0,0,1,11.26,5.29v-1.4a2.08,2.08,0,0,1-.13-.45c-.08-.93-.12-1.36-.12-1.27,0-1.44.64-2.17,1.93-2.17s2.05.87,2.05,2.62c0,.33,0,1.32-.12,3-.25,2.08-.38,3.51-.38,4.3a26.63,26.63,0,0,0,.22,3.42l.28,2.36v.62c0,1.87-.75,2.8-2.24,2.8s-2.41-.88-2.36-2.65v-2.22a9.14,9.14,0,0,0-2.8-7.22,10.61,10.61,0,0,0-7.63-2.78,11.29,11.29,0,0,0-9.62,4.73q-3.46,4.74-3.47,13.07,0,8.52,3.58,13.28a12.71,12.71,0,0,0,16.23,3.08,9.11,9.11,0,0,0,3.89-4.42,12.88,12.88,0,0,0,.75-4.85c0-1.91.79-2.86,2.36-2.86s2.55.95,2.55,2.86a14.11,14.11,0,0,1-4.6,10.89q-4.61,4.23-11.88,4.23-8.4,0-13.41-5.91t-5-15.74q0-10.14,5.13-16.36A16.71,16.71,0,0,1,840.21,237.94Z"/>
          <path class="cls-6" d="M893.46,272.6q0,4.66,3.18,4.66a11.09,11.09,0,0,0,1.49-.15,11.34,11.34,0,0,1,1.49-.16,2,2,0,0,1,2,2c0,1.46-.93,2.18-2.8,2.18h-.37a2.75,2.75,0,0,0-.43-.06l-3-.44a29,29,0,0,0-3.92-.24,31.92,31.92,0,0,0-4.17.24l-3.11.44a1.92,1.92,0,0,0-.44.06h-.43c-1.83,0-2.74-.72-2.74-2.18a1.76,1.76,0,0,1,2-2,11.34,11.34,0,0,1,1.49.16,11.05,11.05,0,0,0,1.5.15q3.11,0,3.11-4.66V247.34q0-4.43-4.55-4.42h-1.92q-4.49,0-4.48,4.36c0,1,0,1.74.06,2.11l.25,2.3q.06.57.06,1.56,0,3.92-2.43,3.92c-1.53,0-2.3-1-2.3-2.86,0-.54,0-1.47.13-2.8.12-2,.18-3.26.18-3.8,0-1,0-2.11-.1-3.23-.14-2.2-.21-3.13-.21-2.8,0-1.75.79-2.62,2.36-2.62.58,0,1.93.07,4,.19.2,0,1.9.08,5.09.25h7.08q1.25,0,6.65-.11c.79,0,2.13,0,4-.16,1.69-.11,3-.17,4-.17,2.07,0,3.11.85,3.11,2.55v.13c0,.41-.06,1.18-.16,2.3s-.22,2.32-.34,3.61v.68c0,.63.06,1.6.18,2.93.17,1.74.25,2.82.25,3.23,0,1.7-.81,2.55-2.42,2.55s-2.37-1-2.37-3.12c0-.75.07-1.86.19-3.34s.19-2.6.19-3.35q0-4.3-4.92-4.31h-1.74a4.6,4.6,0,0,0-3.3,1,4.7,4.7,0,0,0-1.12,3.2l-.25,4.35Z"/>
          <path class="cls-6" d="M943.61,282.18q-8.28,0-13.1-6T925.69,260q0-10.32,4.85-16.21t13.38-5.88q8.15,0,13,5.73t4.82,15.49q0,10.57-4.88,16.8A15.91,15.91,0,0,1,943.61,282.18Zm.12-39.76a10.75,10.75,0,0,0-9.27,4.61q-3.3,4.6-3.29,12.94t3.29,13.1a11.31,11.31,0,0,0,18.39-.19q3.39-4.83,3.39-13.1T953,246.93A10.72,10.72,0,0,0,943.73,242.42Z"/>
          <path class="cls-6" d="M1009.93,257.85a21.24,21.24,0,0,1-4.6,1.49c2.42.46,4.1,1.37,5,2.73s1.38,3.62,1.38,6.76v3.6q0,4.45,2.84,4.46c1.93,0,2.89-1.76,2.89-5.3v-4.25a8.13,8.13,0,0,1,.25-2.47,1.93,1.93,0,0,1,1.93-1c1.49,0,2.24.87,2.24,2.61,0,0,0,.5-.07,1.37v4.54a7.66,7.66,0,0,0-.06,1.12,7,7,0,0,1-7.65,7.65q-7.33,0-7.34-7.4v-5.35q0-4.17-1.58-5.51c-1.06-.89-3.23-1.34-6.54-1.34h-5.76c-1.33,0-2,.81-2,2.43v4.79A50.16,50.16,0,0,0,991,274q.56,3.11,3.11,3.11a8.14,8.14,0,0,0,1.3-.08c.71-.07,1.25-.11,1.62-.11a1.79,1.79,0,0,1,2,2.06c0,1.45-.89,2.17-2.67,2.17l-.94-.12-3.35-.44a28.37,28.37,0,0,0-3.43-.25,37.2,37.2,0,0,0-4.35.31l-3,.38-.93.12c-1.79,0-2.68-.74-2.68-2.24a1.73,1.73,0,0,1,1.93-2c.21,0,.77,0,1.68.13a5.15,5.15,0,0,0,1.31.18q3.17,0,3.17-4.66v-25q0-4.67-3.17-4.67a9.82,9.82,0,0,0-1.49.16,11.2,11.2,0,0,1-1.5.15,1.8,1.8,0,0,1-1.37-.59,2,2,0,0,1-.56-1.4c0-1.45.92-2.18,2.74-2.18.17,0,.46,0,.87.07l3.17.31q1.24.12,3.12.12t4.29-.12l4.73-.25c1.57-.08,3-.13,4.35-.13q13.69,0,13.69,10.42C1014.66,253.57,1013.08,256.37,1009.93,257.85Zm-17.23-.49h5.85q5.22,0,7.84-1.5,3.17-1.8,3.17-6,0-7.1-9.74-7.1c-3.45,0-5.8.26-7,.78a3.12,3.12,0,0,0-1.91,3.08v9.15c0,.7.13,1.15.38,1.33A2.5,2.5,0,0,0,992.7,257.36Z"/>
        </g>
        <text class="cls-7" transform="translate(536.11 198.59)">C<tspan class="cls-8" x="73.61" y="0">APTION</tspan></text>
      </g>
      <g class="cls-9">
        <g>
          <path d="M404.27,206.64c0-8.93-7.2-21.78-21.78-21.78-3.17,0-6.16.12-14.74,5.75-31,20.38-64.43,31.18-100.92,31.18-55.48,0-93.85-26-97.27-28.34-3.21-2.17-6.17-4.88-9.64-6.61a22,22,0,0,0-19.3,0,21.5,21.5,0,0,0-6.49,33.46,48.76,48.76,0,0,0,8.76,7.53,241.17,241.17,0,0,0,27.88,15.75,16.17,16.17,0,0,1,1.94,1.26,6.17,6.17,0,0,1,1.87,2.15,3.69,3.69,0,0,1-.51,4,12.86,12.86,0,0,1-10.59,4.51c3.19,1.71,9.26,2.13,13.34,2.21-3.36,3.6-4.09,9-4.21,14,8-11,23-17.94,41-12.93,4.25,1.19,7.3,4.42,10,7.77s5.93,7.08,10.8,6.82c-1.27,4.18-5.27,6.41-9.43,6.74a15.06,15.06,0,0,1-6.51-.92,33,33,0,0,0-8.39-2.33,25.29,25.29,0,0,0-16.14,3.82,29.32,29.32,0,0,0-6,5,33.19,33.19,0,0,0-2.51,3,15.15,15.15,0,0,0-.86,1.59s.86.68,1.13.87a32.64,32.64,0,0,0,6.94,4,25.76,25.76,0,0,0,8.85,1.74c6.22.12,11.92-2.16,17.94-3.26s14-.64,17.46,2.08a32.41,32.41,0,0,0,2.82,2.29l.3.2a2.67,2.67,0,0,0,.56.26,3.75,3.75,0,0,0,5-2.93,1.61,1.61,0,0,0,0-.22c.55-1,.95-2.22,1.7-3.71,1.28-2.52,3.52-4.47,4.14-7.3.69-3.1-.28-6.23-.84-9.27-.51-2.84-.13-5.4,2.06-7.43A35,35,0,0,1,259.3,263a14.82,14.82,0,0,1,7.78-2.23,12,12,0,0,1,7.17,3,22.37,22.37,0,0,1,2.7,2.72c.45.53.82.76.49,1.42s-.91,1.36-1.32,2a44.48,44.48,0,0,0-4,8.31,40,40,0,0,0-2.29,17.07,25.74,25.74,0,0,0,2.33,8.6c1.29,2.75,3.06,5.27,4,8.18a21,21,0,0,1,.88,4.08c.17,1.33.09,2.58,1.2,3.51a12,12,0,0,0,2.92,1.55,39,39,0,0,1,4,2c3.83,2.28,8.95,7.9,3.76,11.6-.75.54-3.09,1.77-4,1.64a3.94,3.94,0,0,0-2.94-1.63,3.49,3.49,0,0,0-2.37.71c-1.11.76-1.81,2.3-2.59,3.34a15.1,15.1,0,0,1-13.28,6.36,16,16,0,0,1-6.65-2.09,21.68,21.68,0,0,1-5.21-4.72c-1.57-1.78-3.54-3.44-6.08-3.17a15.42,15.42,0,0,0-3.23.8,9.51,9.51,0,0,1-3.47-1.17,12,12,0,0,1-5.29-5.78c-.18-.42-.16-.7-.63-.77a5.25,5.25,0,0,0-1.77.55,47.19,47.19,0,0,0-4.39,1.75,59.35,59.35,0,0,0-14.81,10,40,40,0,0,0-5.91,6.49c-1.66,2.29-3.25,4.61-5,6.82A48.37,48.37,0,0,1,189.35,365c-10.14,6.31-22.35,5.57-33.07,1.15a18.23,18.23,0,0,1-9.94-9.34,19.2,19.2,0,0,1-.56-14.1A21.64,21.64,0,0,1,147.6,339a7.45,7.45,0,0,1,1.92-2.52,1.86,1.86,0,0,1,2.5.29c.65.83.43,2.05.48,3a13.06,13.06,0,0,0,7,10.8c9,4.62,19.93-3.27,18.44-13.23A12.9,12.9,0,0,0,169,326.93c-5.5-1.6-10.93.32-15.35,3.61A29.17,29.17,0,0,0,144,343.06a31.89,31.89,0,0,0-1.37,17.73,43.07,43.07,0,0,0,15.84,26.14c9.29,7.11,21.29,10.34,32.87,10.62,2.64.06,10.59,0,15.24-2a.69.69,0,0,1,.85,1c-2.26,3.77-6.76,5.88-11.63,5.81,4.58,2.19,9.76,2.19,15.07,2,5.5-.2,11-1.58,16.29-3a72.94,72.94,0,0,0,27.89-14,32,32,0,0,0,5.88-5.69,25.82,25.82,0,0,0,2.27-3.14,5.73,5.73,0,0,1,2.54-2.75c2.33-1,4.73.36,5.49,2.89s4.11,6.2,6.93,8.43c8.86,7,18.59,10.25,28.86,13.39A94.79,94.79,0,0,0,323.11,404a60,60,0,0,0,9.38.5c2.82-.11,6.1-.49,8.48-2.16a12.44,12.44,0,0,1-12-6.63.39.39,0,0,1,.56-.49c4.59,2.79,10.1,3.73,15.41,3.84a63.53,63.53,0,0,0,18-2.19c12.14-3.33,21.59-12,26.82-23.38,5.08-11,6.62-24.44,0-35.14a28.6,28.6,0,0,0-5.19-6.2,19.9,19.9,0,0,0-7.14-4.49c-5.6-1.61-11.39,3.18-9.84,9.09a7.54,7.54,0,0,0,14.76-.82,1.77,1.77,0,0,1,2.08-1.61c1.17.22,2.18,1.75,2.87,2.63a19.43,19.43,0,0,1,3.75,16.3A18.88,18.88,0,0,1,381,365.57c-11,5.5-25.17,3.08-33.45-6-2.23-2.44-4.08-5.21-6.35-7.64a64.21,64.21,0,0,0-7.58-6.88,41.88,41.88,0,0,0-3.79-2.69c-1.08-.65-2.35-1.28-2.84-2.53a3,3,0,0,1,1.24-3.64,18.07,18.07,0,0,1,3.36-1.17c12.2-4.46,23-14,26.63-26.49a57.17,57.17,0,0,0,1.79-7.47,18.37,18.37,0,0,1-.05-23.8,11.59,11.59,0,0,1,1.84-2.11.64.64,0,0,0,.08-.91,6.37,6.37,0,0,1,1.07-9.49s.3-.2.57-.4c-3.19-.85-7.07-2.9-8.38-6.61,4.05,0,10.69-.41,14.08-2.22a12.94,12.94,0,0,1-10.4-4.27,4,4,0,0,1,.71-5.89,22.87,22.87,0,0,1,2.23-1.39A262.22,262.22,0,0,0,387,229.85C395.22,224.56,404.27,219,404.27,206.64Z"/>
          <path d="M266.71,215.28c53.18,0,91.22-25,99.75-31.18a4.79,4.79,0,0,0,1.68-3.55c0-4.71-.86-14.43-.86-14.43-3.15-40.88-43-88.9-100.56-88.09-68.59,1-96.48,56.95-100.49,87.56a99.43,99.43,0,0,0-1.06,14.61,5.2,5.2,0,0,0,2.18,4.1C183.82,196,219.58,215.28,266.71,215.28Z"/>
          <path d="M380.12,270.77a5.69,5.69,0,0,0-2.43-4.72c-1.31-.89-4-.75-4.3-.75h-6.31a4.86,4.86,0,0,0-4.83,5.31,5,5,0,0,0,5.09,4.39h1.34a1.74,1.74,0,0,1,1.74,1.74v1a5,5,0,0,0,4.39,5.09,4.86,4.86,0,0,0,5.31-4.83Z"/>
          <path d="M376,357.18a3.77,3.77,0,1,0-4.31-4.32A3.79,3.79,0,0,0,376,357.18Z"/>
          <path d="M379.61,289.27a4.24,4.24,0,1,0-4.86,4.86A4.25,4.25,0,0,0,379.61,289.27Z"/>
          <path d="M379.61,302.83a4.24,4.24,0,0,0-8.38,1.34,4.29,4.29,0,0,0,3.52,3.52A4.25,4.25,0,0,0,379.61,302.83Z"/>
          <path d="M376.09,312.87a4.24,4.24,0,1,0,3.52,3.52A4.25,4.25,0,0,0,376.09,312.87Z"/>
        </g>
        <g>
          <path class="cls-10" d="M404.27,206.64c0-8.93-7.2-21.78-21.78-21.78-3.17,0-6.16.12-14.74,5.75-31,20.38-64.43,31.18-100.92,31.18-55.48,0-93.85-26-97.27-28.34-3.21-2.17-6.17-4.88-9.64-6.61a22,22,0,0,0-19.3,0,21.5,21.5,0,0,0-6.49,33.46,48.76,48.76,0,0,0,8.76,7.53,241.17,241.17,0,0,0,27.88,15.75,16.17,16.17,0,0,1,1.94,1.26,6.17,6.17,0,0,1,1.87,2.15,3.69,3.69,0,0,1-.51,4,12.86,12.86,0,0,1-10.59,4.51c3.19,1.71,9.26,2.13,13.34,2.21-3.36,3.6-4.09,9-4.21,14,8-11,23-17.94,41-12.93,4.25,1.19,7.3,4.42,10,7.77s5.93,7.08,10.8,6.82c-1.27,4.18-5.27,6.41-9.43,6.74a15.06,15.06,0,0,1-6.51-.92,33,33,0,0,0-8.39-2.33,25.29,25.29,0,0,0-16.14,3.82,29.32,29.32,0,0,0-6,5,33.19,33.19,0,0,0-2.51,3,15.15,15.15,0,0,0-.86,1.59s.86.68,1.13.87a32.64,32.64,0,0,0,6.94,4,25.76,25.76,0,0,0,8.85,1.74c6.22.12,11.92-2.16,17.94-3.26s14-.64,17.46,2.08a32.41,32.41,0,0,0,2.82,2.29l.3.2a2.67,2.67,0,0,0,.56.26,3.75,3.75,0,0,0,5-2.93,1.61,1.61,0,0,0,0-.22c.55-1,.95-2.22,1.7-3.71,1.28-2.52,3.52-4.47,4.14-7.3.69-3.1-.28-6.23-.84-9.27-.51-2.84-.13-5.4,2.06-7.43A35,35,0,0,1,259.3,263a14.82,14.82,0,0,1,7.78-2.23,12,12,0,0,1,7.17,3,22.37,22.37,0,0,1,2.7,2.72c.45.53.82.76.49,1.42s-.91,1.36-1.32,2a44.48,44.48,0,0,0-4,8.31,40,40,0,0,0-2.29,17.07,25.74,25.74,0,0,0,2.33,8.6c1.29,2.75,3.06,5.27,4,8.18a21,21,0,0,1,.88,4.08c.17,1.33.09,2.58,1.2,3.51a12,12,0,0,0,2.92,1.55,39,39,0,0,1,4,2c3.83,2.28,8.95,7.9,3.76,11.6-.75.54-3.09,1.77-4,1.64a3.94,3.94,0,0,0-2.94-1.63,3.49,3.49,0,0,0-2.37.71c-1.11.76-1.81,2.3-2.59,3.34a15.1,15.1,0,0,1-13.28,6.36,16,16,0,0,1-6.65-2.09,21.68,21.68,0,0,1-5.21-4.72c-1.57-1.78-3.54-3.44-6.08-3.17a15.42,15.42,0,0,0-3.23.8,9.51,9.51,0,0,1-3.47-1.17,12,12,0,0,1-5.29-5.78c-.18-.42-.16-.7-.63-.77a5.25,5.25,0,0,0-1.77.55,47.19,47.19,0,0,0-4.39,1.75,59.35,59.35,0,0,0-14.81,10,40,40,0,0,0-5.91,6.49c-1.66,2.29-3.25,4.61-5,6.82A48.37,48.37,0,0,1,189.35,365c-10.14,6.31-22.35,5.57-33.07,1.15a18.23,18.23,0,0,1-9.94-9.34,19.2,19.2,0,0,1-.56-14.1A21.64,21.64,0,0,1,147.6,339a7.45,7.45,0,0,1,1.92-2.52,1.86,1.86,0,0,1,2.5.29c.65.83.43,2.05.48,3a13.06,13.06,0,0,0,7,10.8c9,4.62,19.93-3.27,18.44-13.23A12.9,12.9,0,0,0,169,326.93c-5.5-1.6-10.93.32-15.35,3.61A29.17,29.17,0,0,0,144,343.06a31.89,31.89,0,0,0-1.37,17.73,43.07,43.07,0,0,0,15.84,26.14c9.29,7.11,21.29,10.34,32.87,10.62,2.64.06,10.59,0,15.24-2a.69.69,0,0,1,.85,1c-2.26,3.77-6.76,5.88-11.63,5.81,4.58,2.19,9.76,2.19,15.07,2,5.5-.2,11-1.58,16.29-3a72.94,72.94,0,0,0,27.89-14,32,32,0,0,0,5.88-5.69,25.82,25.82,0,0,0,2.27-3.14,5.73,5.73,0,0,1,2.54-2.75c2.33-1,4.73.36,5.49,2.89s4.11,6.2,6.93,8.43c8.86,7,18.59,10.25,28.86,13.39A94.79,94.79,0,0,0,323.11,404a60,60,0,0,0,9.38.5c2.82-.11,6.1-.49,8.48-2.16a12.44,12.44,0,0,1-12-6.63.39.39,0,0,1,.56-.49c4.59,2.79,10.1,3.73,15.41,3.84a63.53,63.53,0,0,0,18-2.19c12.14-3.33,21.59-12,26.82-23.38,5.08-11,6.62-24.44,0-35.14a28.6,28.6,0,0,0-5.19-6.2,19.9,19.9,0,0,0-7.14-4.49c-5.6-1.61-11.39,3.18-9.84,9.09a7.54,7.54,0,0,0,14.76-.82,1.77,1.77,0,0,1,2.08-1.61c1.17.22,2.18,1.75,2.87,2.63a19.43,19.43,0,0,1,3.75,16.3A18.88,18.88,0,0,1,381,365.57c-11,5.5-25.17,3.08-33.45-6-2.23-2.44-4.08-5.21-6.35-7.64a64.21,64.21,0,0,0-7.58-6.88,41.88,41.88,0,0,0-3.79-2.69c-1.08-.65-2.35-1.28-2.84-2.53a3,3,0,0,1,1.24-3.64,18.07,18.07,0,0,1,3.36-1.17c12.2-4.46,23-14,26.63-26.49a57.17,57.17,0,0,0,1.79-7.47,18.37,18.37,0,0,1-.05-23.8,11.59,11.59,0,0,1,1.84-2.11.64.64,0,0,0,.08-.91,6.37,6.37,0,0,1,1.07-9.49s.3-.2.57-.4c-3.19-.85-7.07-2.9-8.38-6.61,4.05,0,10.69-.41,14.08-2.22a12.94,12.94,0,0,1-10.4-4.27,4,4,0,0,1,.71-5.89,22.87,22.87,0,0,1,2.23-1.39A262.22,262.22,0,0,0,387,229.85C395.22,224.56,404.27,219,404.27,206.64Z"/>
          <path class="cls-10" d="M266.71,215.28c53.18,0,91.22-25,99.75-31.18a4.79,4.79,0,0,0,1.68-3.55c0-4.71-.86-14.43-.86-14.43-3.15-40.88-43-88.9-100.56-88.09-68.59,1-96.48,56.95-100.49,87.56a99.43,99.43,0,0,0-1.06,14.61,5.2,5.2,0,0,0,2.18,4.1C183.82,196,219.58,215.28,266.71,215.28Z"/>
          <path class="cls-11" d="M380.12,270.77a5.69,5.69,0,0,0-2.43-4.72c-1.31-.89-4-.75-4.3-.75h-6.31a4.86,4.86,0,0,0-4.83,5.31,5,5,0,0,0,5.09,4.39h1.34a1.74,1.74,0,0,1,1.74,1.74v1a5,5,0,0,0,4.39,5.09,4.86,4.86,0,0,0,5.31-4.83Z"/>
          <path class="cls-11" d="M376,357.18a3.77,3.77,0,1,0-4.31-4.32A3.79,3.79,0,0,0,376,357.18Z"/>
          <path class="cls-11" d="M379.61,289.27a4.24,4.24,0,1,0-4.86,4.86A4.25,4.25,0,0,0,379.61,289.27Z"/>
          <path class="cls-11" d="M379.61,302.83a4.24,4.24,0,0,0-8.38,1.34,4.29,4.29,0,0,0,3.52,3.52A4.25,4.25,0,0,0,379.61,302.83Z"/>
          <path class="cls-11" d="M376.09,312.87a4.24,4.24,0,1,0,3.52,3.52A4.25,4.25,0,0,0,376.09,312.87Z"/>
        </g>
      </g>
      <path class="cls-11" d="M375.42,400.83a3,3,0,1,0,3,3A3,3,0,0,0,375.42,400.83Z"/>
      <path class="cls-12" d="M360.87,284.71h0v0Z"/>
      <circle class="cls-13" cx="375.42" cy="378.98" r="2.91"/>
      <path class="cls-14" d="M349.66,292.33a33.94,33.94,0,1,1-65.2-13.21c5.15-12.18,32.54-3.06,53.54-12.39A33.83,33.83,0,0,1,349.66,292.33Z"/>
    </g>
  </g>
</svg>
