<svg id="Layer_1" data-name="Layer 1" xmlns="http://www.w3.org/2000/svg" viewBox="0 0 615.85 936.09">
  <defs>
    <style>
      .cls-1, .cls-3, .cls-4, .cls-5, .cls-6 {
        fill: #221e1f;
      }

      .cls-1, .cls-2 {
        opacity: 0.03;
      }

      .cls-4 {
        opacity: 0.21;
      }

      .cls-5 {
        opacity: 0.61;
      }

      .cls-6 {
        opacity: 0.67;
      }

      .cls-7 {
        fill: #9e9e9e;
      }

      .cls-10, .cls-11, .cls-12, .cls-8 {
        fill: #484848;
      }

      .cls-9 {
        fill: #333;
      }

      .cls-10 {
        opacity: 0.65;
      }

      .cls-11 {
        opacity: 0.52;
      }

      .cls-12 {
        opacity: 0.3;
      }

      .cls-13, .cls-14 {
        fill: #fff;
      }

      .cls-14 {
        opacity: 0.36;
      }

      .cls-15 {
        opacity: 0.39;
      }
    </style>
  </defs>
  <title>ico-tall</title>
  <path class="cls-1" d="M61.36,673h64.39a0,0,0,0,1,0,0v80.36a0,0,0,0,1,0,0H68.44a7.08,7.08,0,0,1-7.08-7.08V673A0,0,0,0,1,61.36,673Z"/>
  <g class="cls-2">
    <path class="cls-3" d="M124.75,674v78.36H68.92a6.57,6.57,0,0,1-6.56-6.56V674h62.39m1-1H61.36v72.8a7.56,7.56,0,0,0,7.56,7.56h56.83V673Z"/>
  </g>
  <path class="cls-4" d="M439.77,863.77c-2,0-3.65.8-3.65,1.78s1.63,1.77,3.65,1.77,3.64-.79,3.64-1.77S441.78,863.77,439.77,863.77Z"/>
  <path class="cls-4" d="M281.57,740.23c-2,0-3.64.72-3.64,1.62s1.63,1.63,3.64,1.63,3.65-.73,3.65-1.63S283.59,740.23,281.57,740.23Z"/>
  <path class="cls-4" d="M288.52,758.54c-1.63,0-3,.59-3,1.32s1.33,1.33,3,1.33,3-.6,3-1.33S290.16,758.54,288.52,758.54Z"/>
  <path class="cls-5" d="M484.24,744.54c-3.13,0-5.67.28-5.67.63s2.54.63,5.67.63,5.67-.29,5.67-.63S487.37,744.54,484.24,744.54Z"/>
  <path class="cls-5" d="M528.86,745.17c-3.13,0-5.67.28-5.67.63s2.54.62,5.67.62,5.67-.28,5.67-.62S532,745.17,528.86,745.17Z"/>
  <path class="cls-4" d="M552.27,883c-1.64,0-3,.65-3,1.45s1.33,1.44,3,1.44,3-.65,3-1.44S553.9,883,552.27,883Z"/>
  <path class="cls-4" d="M557.06,872.27c-1.64,0-3,.65-3,1.44s1.32,1.45,3,1.45,3-.65,3-1.45S558.69,872.27,557.06,872.27Z"/>
  <path class="cls-4" d="M577.91,885.15c-1.64,0-3,.65-3,1.44s1.32,1.45,3,1.45,3-.65,3-1.45S579.55,885.15,577.91,885.15Z"/>
  <path class="cls-4" d="M517,683.4a1.49,1.49,0,1,0,1.49,1.48A1.49,1.49,0,0,0,517,683.4Z"/>
  <path class="cls-4" d="M444.89,891.52c-.82,0-1.48.32-1.48.72s.66.72,1.48.72,1.48-.32,1.48-.72S445.71,891.52,444.89,891.52Z"/>
  <path class="cls-4" d="M433.94,853.44c-.82,0-1.48.32-1.48.72s.66.72,1.48.72,1.48-.32,1.48-.72S434.76,853.44,433.94,853.44Z"/>
  <path class="cls-4" d="M390.35,862.63c-2,0-3.64.79-3.64,1.77s1.63,1.78,3.64,1.78,3.65-.8,3.65-1.78S392.36,862.63,390.35,862.63Z"/>
  <path class="cls-4" d="M197.34,827.67a1.82,1.82,0,1,0,1.82,1.82A1.82,1.82,0,0,0,197.34,827.67Z"/>
  <g>
    <path class="cls-3" d="M75.13,790.8q0-4.6-3.31-4.61a5.72,5.72,0,0,0-1.37.13,10.46,10.46,0,0,1-1.75.18,1.92,1.92,0,0,1-1.43-.59,2,2,0,0,1-.58-1.46c0-1.45,1-2.18,2.85-2.18a8.2,8.2,0,0,1,.91.07l3.45.43a30.88,30.88,0,0,0,4,.25,34.17,34.17,0,0,0,4.42-.31l2.92-.37a8.38,8.38,0,0,1,.91-.07c1.91,0,2.86.73,2.86,2.18a2,2,0,0,1-.59,1.46,1.89,1.89,0,0,1-1.42.59,11.56,11.56,0,0,1-1.76-.18,5.63,5.63,0,0,0-1.36-.13q-3.32,0-3.31,4.61v25q0,4.66,3.31,4.66a10.15,10.15,0,0,0,1.36-.12A12.72,12.72,0,0,1,87,820.1a1.77,1.77,0,0,1,2,2c0,1.5-1,2.24-2.86,2.24h-.45a2.15,2.15,0,0,0-.46-.06l-3.38-.5a25.22,25.22,0,0,0-3.57-.25,35.3,35.3,0,0,0-4.87.31l-3,.44a3.07,3.07,0,0,0-.45.06h-.52c-1.86,0-2.79-.74-2.79-2.24a1.77,1.77,0,0,1,2-2c.22,0,.8,0,1.75.13a5.61,5.61,0,0,0,1.37.18q3.32,0,3.31-4.66Z"/>
    <path class="cls-3" d="M122.51,785.07,140,819.85V794.78c0-3.24,0-5-.07-5.35q-.58-3.24-3.24-3.24a12.31,12.31,0,0,0-1.56.16,12.2,12.2,0,0,1-1.56.15,2,2,0,0,1-1.46-.59,1.88,1.88,0,0,1-.62-1.4c0-1.49,1-2.24,2.92-2.24a4.12,4.12,0,0,1,.85.07l2.92.37a28.08,28.08,0,0,0,3.64.25,40.57,40.57,0,0,0,4.48-.34c.65-.08,1.41-.17,2.27-.29a3,3,0,0,0,.46-.06h.45c1.86,0,2.79.72,2.79,2.15s-.88,2.08-2.64,2.08h-1.39q-2,0-2.58.81a7.39,7.39,0,0,0-.73,3.54v26.46c0,2.86-.33,4.87-1,6a3.7,3.7,0,0,1-3.49,1.74q-3.19,0-5.42-4.36l-17.09-33.9v28.93q0,4.66,3.31,4.66.51,0,1.56-.09t1.56-.09c1.38,0,2.07.66,2.07,2s-1,2.11-2.92,2.11h-.39a3.07,3.07,0,0,0-.45-.06l-2.67-.37a29.34,29.34,0,0,0-4.15-.31,38.21,38.21,0,0,0-4.35.31l-3.19.37a3.07,3.07,0,0,0-.45.06h-.52c-1.86,0-2.79-.72-2.79-2.18q0-1.92,2.07-1.92c.22,0,.81,0,1.76.12a5.56,5.56,0,0,0,1.36.19q3.31,0,3.31-4.67v-25c0-3.11-1.11-4.67-3.35-4.67a10.23,10.23,0,0,0-1.29.13,13.78,13.78,0,0,1-1.8.18,1.81,1.81,0,0,1-2.06-2c0-1.45.93-2.18,2.78-2.18.26,0,.61,0,1,.07,2.16.2,3.83.31,5,.31.65,0,1.62-.07,2.92-.19s2.27-.19,2.92-.19a2.68,2.68,0,0,1,2.66,1.31Z"/>
    <path class="cls-3" d="M185.8,781.15a14.28,14.28,0,0,1,10.39,3.92v-.87c0-1.62.67-2.42,2-2.42s2.2.89,2.2,2.67v.37c0,.09-.06.71-.19,1.87a38,38,0,0,0-.2,4.17c0,.21,0,.87.13,2l.2,2.49a4.9,4.9,0,0,1,.06.87c0,2-.8,3-2.4,3a2.22,2.22,0,0,1-2.53-2.49v-.31l.13-1.68c0-.58.06-1,.06-1.37A7.07,7.07,0,0,0,193,787.5a11.23,11.23,0,0,0-7.24-2.12,10.47,10.47,0,0,0-6.72,2,6.47,6.47,0,0,0-2.5,5.35,6.1,6.1,0,0,0,3.7,5.78,28.83,28.83,0,0,0,7.27,1.81q7.74,1.17,10.59,3.23a10,10,0,0,1,4.29,8.65,11.84,11.84,0,0,1-4.38,9.52q-4.37,3.67-11.3,3.67a17.36,17.36,0,0,1-12.25-4.48v.92a7.05,7.05,0,0,1,.26,1.29c0,1.51-.8,2.27-2.4,2.27a2.3,2.3,0,0,1-2.6-2.61.65.65,0,0,1,.19-.5l.3-3.24c.15-1.61.22-2.65.22-3.11a30,30,0,0,0-.35-3.73,28.59,28.59,0,0,1-.36-3.73c0-1.87.82-2.8,2.47-2.8s2.53.93,2.53,2.81V811a9.42,9.42,0,0,0,3.11,7.43c2.07,1.84,4.88,2.75,8.42,2.75a12.54,12.54,0,0,0,7.83-2.24,7.28,7.28,0,0,0,2.92-6.1q0-5.91-7.8-7.21l-3.7-.63a42.19,42.19,0,0,1-8.57-2.17,9.76,9.76,0,0,1-4.45-3.7,10.1,10.1,0,0,1-1.66-5.7,11,11,0,0,1,4.16-8.89Q179.18,781.16,185.8,781.15Z"/>
    <path class="cls-3" d="M228.73,815.75v-24.9q0-4.59-3.29-4.59a13.29,13.29,0,0,0-1.35.09,14.23,14.23,0,0,1-1.74.15,1.81,1.81,0,0,1-2.06-2c0-1.45,1-2.18,2.85-2.18a8.51,8.51,0,0,1,1,.07l3.18.37a34.5,34.5,0,0,0,3.89.19c1.08,0,2.38-.07,3.89-.19q5.33-.44,8-.44a34.88,34.88,0,0,1,7.13.63,11.23,11.23,0,0,1,6.72,3.85,11.08,11.08,0,0,1,2.43,7.22,10.48,10.48,0,0,1-4.19,9Q251,806,243.09,806h-7.28c-.69,0-1.14.11-1.33.34a2.72,2.72,0,0,0-.29,1.58v1.24q0,7.88.48,9.54c.33,1.11,1.27,1.67,2.83,1.67a5.07,5.07,0,0,0,1.36-.18c1-.09,1.54-.13,1.76-.13a1.77,1.77,0,0,1,2,2c0,1.5-.95,2.24-2.86,2.24l-.91-.12-3.24-.44a34.21,34.21,0,0,0-4.1-.18,30.74,30.74,0,0,0-3.7.18l-3.77.5a2.05,2.05,0,0,0-.39.06h-.45c-2,0-2.92-.72-2.92-2.18a2,2,0,0,1,.58-1.46,2,2,0,0,1,1.43-.59,9.62,9.62,0,0,1,1.75.19,5.82,5.82,0,0,0,1.37.12Q228.74,820.41,228.73,815.75Zm5.91-28.19q-.45.63-.45,3.42v9.21c0,1.12.82,1.77,2.46,1.93h3.77a36.35,36.35,0,0,0,7.67-.68q5.78-1.31,5.78-7.28,0-7.9-10.53-7.9Q235.56,786.26,234.64,787.56Z"/>
    <path class="cls-3" d="M283.16,790.8c0-3.07-1.11-4.61-3.31-4.61a5.66,5.66,0,0,0-1.37.13,10.57,10.57,0,0,1-1.75.18,1.92,1.92,0,0,1-1.43-.59,2,2,0,0,1-.59-1.46c0-1.45.91-2.18,2.72-2.18l1,.07q9.72.61,9.07.62h.64l15.6-.44c.3,0,1.43-.06,3.37-.18.69,0,1.31-.07,1.87-.07q3.38,0,3.37,2.87c0,.33-.06,1.39-.19,3.17-.09,1.33-.13,2.55-.13,3.67a30.11,30.11,0,0,0,.1,3,23.53,23.53,0,0,1,.22,2.67,2.07,2.07,0,0,1-2.31,2.37c-1.53,0-2.3-1.1-2.3-3.3v-3.24q0-5.22-2.27-6.15-1.69-.69-8.71-.69a40.25,40.25,0,0,0-5.45.19,3.43,3.43,0,0,0-2.8,3.73v6.22c0,1.66.39,2.61,1.16,2.86a6,6,0,0,0,1.53.13h2.63q4,0,4-2.68a14.83,14.83,0,0,0-.17-1.93,17,17,0,0,1-.16-2.11q0-2.49,2.31-2.49c1.53,0,2.3.89,2.3,2.68,0,.33-.14,1.61-.42,3.85a41,41,0,0,0-.36,5c0,.83.09,2.3.26,4.42l.33,2.18a16.13,16.13,0,0,1,.19,2.18c0,1.49-.78,2.23-2.33,2.23s-2.28-.87-2.28-2.61a19.62,19.62,0,0,1,.16-2,17.38,17.38,0,0,0,.17-2c0-1.78-1.24-2.67-3.7-2.67h-2.93c-1.25,0-2,.2-2.3.62a5.3,5.3,0,0,0-.43,2.67v3.86c0,.66,0,1.55.07,2.68,0,1.36.06,2.28.06,2.73.05,1.66.39,2.7,1,3.11A8,8,0,0,0,293,820h8.83q3.84,0,5.26-1.09c1-.72,1.43-2.08,1.43-4.08q0-.93-.09-2.76c-.07-1.23-.1-2.15-.1-2.77,0-1.87.77-2.8,2.31-2.8s2.43,1,2.43,2.86c0,.75,0,1.89-.1,3.42s-.1,2.68-.1,3.42c0,.58,0,1.45.1,2.59s.1,2,.1,2.58c0,2-1,2.92-3,2.92-.48,0-1.23,0-2.27-.12-.52,0-1.47-.06-2.86-.06.3,0-1.39,0-5.07-.13s-6.86-.12-9.54-.12q-6.11,0-11.95.37a3.28,3.28,0,0,0-.59.06h-.39c-1.82,0-2.73-.74-2.73-2.24a1.77,1.77,0,0,1,2-2c.21,0,.8,0,1.75.13a5.61,5.61,0,0,0,1.37.18c2.2,0,3.31-1.55,3.31-4.66Z"/>
    <path class="cls-3" d="M352.07,781.15a14.8,14.8,0,0,1,11.75,5.29V785a3,3,0,0,1-.13-.45c-.08-.93-.13-1.36-.13-1.27,0-1.44.68-2.17,2-2.17s2.14.87,2.14,2.62c0,.33,0,1.32-.13,3a41.41,41.41,0,0,0-.39,4.3,26.63,26.63,0,0,0,.22,3.42l.3,2.36v.62c0,1.87-.78,2.8-2.34,2.8s-2.51-.88-2.47-2.65v-2.22a8.92,8.92,0,0,0-2.91-7.22,11.38,11.38,0,0,0-8-2.78,12,12,0,0,0-10,4.73q-3.63,4.74-3.63,13.07,0,8.52,3.74,13.28a12.5,12.5,0,0,0,10.42,4.76,12.75,12.75,0,0,0,6.53-1.68,9.29,9.29,0,0,0,4.06-4.42,12.43,12.43,0,0,0,.78-4.85c0-1.91.82-2.86,2.47-2.86s2.66,1,2.66,2.86a13.83,13.83,0,0,1-4.81,10.89q-4.8,4.23-12.4,4.23-8.78,0-14-5.91t-5.23-15.74q0-10.14,5.36-16.36A17.73,17.73,0,0,1,352.07,781.15Z"/>
    <path class="cls-3" d="M407.66,815.81q0,4.66,3.32,4.66a11.93,11.93,0,0,0,1.55-.15,12.67,12.67,0,0,1,1.56-.16,2,2,0,0,1,1.46.59,1.87,1.87,0,0,1,.62,1.4c0,1.46-1,2.18-2.92,2.18h-.39a3.07,3.07,0,0,0-.45-.06l-3.19-.44a31.39,31.39,0,0,0-4.09-.24,34.79,34.79,0,0,0-4.35.24l-3.25.44a2,2,0,0,0-.45.06h-.46c-1.9,0-2.85-.72-2.85-2.18s.69-2,2.07-2a12.31,12.31,0,0,1,1.56.16,11.89,11.89,0,0,0,1.56.15q3.26,0,3.25-4.66V790.55q0-4.42-4.74-4.42h-2q-4.67,0-4.67,4.36c0,1,0,1.74.06,2.11l.26,2.3a15.21,15.21,0,0,1,.07,1.56q0,3.91-2.54,3.92c-1.6,0-2.4-1-2.4-2.86,0-.54,0-1.47.13-2.8.13-2,.2-3.26.2-3.8,0-1,0-2.11-.11-3.23-.15-2.2-.22-3.13-.22-2.8,0-1.75.82-2.62,2.46-2.62.61,0,2,.07,4.22.19.21,0,2,.08,5.32.25h7.39q1.29,0,6.94-.11c.82,0,2.22-.05,4.21-.16,1.77-.11,3.15-.17,4.15-.17q3.24,0,3.24,2.55V785c0,.41-.05,1.18-.16,2.3s-.23,2.32-.36,3.61v.68c0,.63.07,1.6.2,2.93.17,1.74.26,2.82.26,3.23a2.25,2.25,0,0,1-2.54,2.55q-2.46,0-2.46-3.12c0-.75.06-1.86.19-3.34s.19-2.6.19-3.35q0-4.31-5.13-4.31h-1.82a5,5,0,0,0-3.44,1,4.66,4.66,0,0,0-1.17,3.21l-.26,4.35Z"/>
    <path class="cls-3" d="M460,825.39q-8.64,0-13.67-6t-5-16.18q0-10.32,5.06-16.21t14-5.88q8.51,0,13.54,5.73t5,15.49q0,10.57-5.1,16.8T460,825.39Zm.13-39.76a11.41,11.41,0,0,0-9.68,4.61q-3.43,4.6-3.44,12.94t3.44,13.1a12.12,12.12,0,0,0,19.2-.19q3.54-4.83,3.54-13.1t-3.38-12.85Q466.45,785.64,460.14,785.63Z"/>
    <path class="cls-3" d="M529.25,801.06a22.94,22.94,0,0,1-4.81,1.49q3.79.69,5.24,2.73t1.45,6.76v3.6c0,3,1,4.46,3,4.46s3-1.76,3-5.3v-4.25a8.13,8.13,0,0,1,.25-2.47,2,2,0,0,1,2-1q2.34,0,2.34,2.61s0,.5-.07,1.37v4.54a7.66,7.66,0,0,0-.06,1.12,7.45,7.45,0,0,1-2.11,5.63,8.15,8.15,0,0,1-5.88,2q-7.67,0-7.67-7.4v-5.35q0-4.17-1.65-5.51t-6.82-1.34h-6q-2.07,0-2.07,2.43V812a50.16,50.16,0,0,0,.13,5.23q.58,3.11,3.25,3.11a8.84,8.84,0,0,0,1.36-.08c.74-.07,1.3-.11,1.69-.11a1.83,1.83,0,0,1,2.08,2.06c0,1.45-.93,2.17-2.79,2.17l-1-.12-3.5-.44a31,31,0,0,0-3.58-.25,40.51,40.51,0,0,0-4.54.31l-3.12.38-1,.12c-1.87,0-2.8-.74-2.8-2.24a1.77,1.77,0,0,1,2-2c.21,0,.8,0,1.75.13a5.6,5.6,0,0,0,1.36.18q3.31,0,3.32-4.66v-25q0-4.66-3.32-4.67a10.7,10.7,0,0,0-1.55.16,12.2,12.2,0,0,1-1.56.15,2,2,0,0,1-2-2c0-1.45,1-2.18,2.86-2.18.17,0,.48,0,.91.07l3.31.31c.87.08,1.95.12,3.25.12s2.84,0,4.48-.12l4.94-.25c1.64-.08,3.16-.13,4.54-.13q14.29,0,14.29,10.42C534.18,796.78,532.54,799.58,529.25,801.06Zm-18-.49h6.1q5.46,0,8.19-1.5a6.32,6.32,0,0,0,3.31-6q0-7.1-10.17-7.1-5.41,0-7.33.78a3.11,3.11,0,0,0-2,3.08V799c0,.7.13,1.15.39,1.33A2.73,2.73,0,0,0,511.26,800.57Z"/>
  </g>
  <g>
    <path class="cls-3" d="M94.57,683.28a19.93,19.93,0,0,1,16.13,7.58v-2a4,4,0,0,1-.18-.64c-.12-1.34-.17-2-.17-1.83,0-2.06.92-3.1,2.76-3.1s2.94,1.25,2.94,3.74c0,.48-.06,1.91-.18,4.28q-.53,4.46-.53,6.15a41,41,0,0,0,.3,4.9l.41,3.39v.89q0,4-3.21,4-3.48,0-3.38-3.8v-3.18a13.14,13.14,0,0,0-4-10.34,15.22,15.22,0,0,0-10.94-4,16.14,16.14,0,0,0-13.77,6.77q-5,6.78-5,18.72,0,12.21,5.12,19t14.31,6.82a16.94,16.94,0,0,0,9-2.4,13.17,13.17,0,0,0,5.57-6.33,18.6,18.6,0,0,0,1.07-7q0-4.1,3.39-4.1,3.64,0,3.65,4.1a20.22,20.22,0,0,1-6.59,15.59q-6.6,6.06-17,6.06-12,0-19.21-8.46t-7.17-22.55q0-14.52,7.35-23.44T94.57,683.28Z"/>
    <path class="cls-3" d="M181.28,734.61l-3.2-8.73A3.53,3.53,0,0,0,177,724.1a5.08,5.08,0,0,0-2.36-.36H158.74a3.65,3.65,0,0,0-2.45.62,10.84,10.84,0,0,0-1.74,3.39L152,734.61a5.69,5.69,0,0,0-.35,1.87q0,2.87,3.47,2.86a25.07,25.07,0,0,0,2.54-.18c1.1-.12,1.92-.18,2.45-.18q3.66,0,3.66,3.12,0,2.94-4,2.94a14.5,14.5,0,0,1-2-.18l-4.46-.55a35.64,35.64,0,0,0-4.1-.16,42.38,42.38,0,0,0-4.36.15l-3.75.44a34.18,34.18,0,0,1-3.65.3Q134,745,134,742.1q0-3.12,3.39-3.12a1.46,1.46,0,0,1,1.07.36h1.16a4.11,4.11,0,0,0,3.65-1.88,22.06,22.06,0,0,0,1.78-4.2l16.58-45a5.48,5.48,0,0,1,5.61-3.75,5.27,5.27,0,0,1,5.44,3.74l16,44.2a17.68,17.68,0,0,0,2.76,5.53,4.66,4.66,0,0,0,3.57,1.34,3.61,3.61,0,0,0,1.07-.12l2.49-.24q3.39,0,3.39,2.94,0,3.12-3.39,3.12a22.64,22.64,0,0,1-2.58-.2,75.65,75.65,0,0,0-8.38-.69q-3.3,0-10.69.71Q175,745,174,745q-3.57,0-3.57-3t3.92-3a22.3,22.3,0,0,1,2.36.18,22.45,22.45,0,0,0,2.37.18c2,0,2.94-.81,2.94-2.41A12.16,12.16,0,0,0,181.28,734.61Zm-6.41-18.18-8-24.59-8.2,24.59a3.76,3.76,0,0,0-.18.63c0,.53.45.8,1.34.8H174c.71,0,1.07-.24,1.07-.71A3,3,0,0,0,174.87,716.43Z"/>
    <path class="cls-3" d="M228.87,732.84V697.17q0-6.58-4.51-6.58a17,17,0,0,0-1.86.14,22.14,22.14,0,0,1-2.38.21c-1.89,0-2.83-1-2.83-2.94s1.3-3.12,3.91-3.12a13.1,13.1,0,0,1,1.34.09l4.36.54a43.63,43.63,0,0,0,5.33.27q2.24,0,5.34-.27,7.29-.63,11-.63a46.18,46.18,0,0,1,9.79.9,15.25,15.25,0,0,1,9.21,5.52,16.32,16.32,0,0,1,3.33,10.34q0,8.37-5.74,12.83t-16.62,4.46h-10c-1,0-1.56.16-1.83.49a4,4,0,0,0-.4,2.26v1.77q0,11.28.67,13.67c.44,1.6,1.73,2.39,3.87,2.39a6.71,6.71,0,0,0,1.87-.26c1.31-.12,2.11-.18,2.41-.18q2.76,0,2.76,2.85c0,2.14-1.3,3.21-3.92,3.21l-1.25-.18-4.45-.62a42.85,42.85,0,0,0-5.62-.27,38.65,38.65,0,0,0-5.08.27l-5.16.71a2.46,2.46,0,0,0-.54.09h-.62c-2.68,0-4-1-4-3.12a2.93,2.93,0,0,1,.8-2.1,2.6,2.6,0,0,1,2-.84,13.47,13.47,0,0,1,2.41.27,7.72,7.72,0,0,0,1.87.17Q228.88,739.51,228.87,732.84ZM237,692.46c-.42.59-.62,2.23-.62,4.9v13.19c0,1.6,1.13,2.53,3.38,2.76h5.17a46.82,46.82,0,0,0,10.52-1q7.94-1.87,7.93-10.42,0-11.32-14.44-11.32Q238.23,690.59,237,692.46Z"/>
    <path class="cls-3" d="M318.61,732.92q0,6.68,4.55,6.68a15,15,0,0,0,2.14-.22,14.86,14.86,0,0,1,2.13-.22,2.89,2.89,0,0,1,2.86,2.85q0,3.12-4,3.12h-.54a3.72,3.72,0,0,0-.62-.09l-4.37-.63a41.11,41.11,0,0,0-5.61-.35,45.49,45.49,0,0,0-6,.35l-4.46.63a2.5,2.5,0,0,0-.62.09h-.63q-3.91,0-3.92-3.12a2.52,2.52,0,0,1,2.85-2.85,14.84,14.84,0,0,1,2.14.22,14.84,14.84,0,0,0,2.14.22q4.45,0,4.46-6.68V696.74q0-6.33-6.51-6.33h-2.76q-6.42,0-6.42,6.24,0,2.22.09,3l.36,3.3a21,21,0,0,1,.09,2.22q0,5.63-3.48,5.62-3.3,0-3.3-4.1c0-.77.06-2.11.18-4,.18-2.85.27-4.67.27-5.44,0-1.48,0-3-.15-4.63-.2-3.15-.3-4.49-.3-4q0-3.75,3.38-3.75,1.25,0,5.79.27c.29,0,2.73.12,7.29.36H315.8q1.79,0,9.52-.16,1.69,0,5.78-.23c2.44-.16,4.33-.24,5.7-.24q4.45,0,4.45,3.66v.18c0,.59-.08,1.69-.23,3.29s-.31,3.33-.49,5.17v1c0,.89.09,2.29.27,4.19.24,2.5.36,4,.36,4.64q0,3.64-3.48,3.65c-2.26,0-3.38-1.49-3.38-4.48,0-1.07.09-2.67.26-4.78s.27-3.72.27-4.79q0-6.18-7-6.18H325.3q-3.3,0-4.73,1.38t-1.6,4.59l-.36,6.24Z"/>
    <path class="cls-3" d="M371.28,697.09c0-4.39-1.51-6.59-4.55-6.59a7.26,7.26,0,0,0-1.87.18,13.15,13.15,0,0,1-2.4.26,2.59,2.59,0,0,1-2-.84,2.92,2.92,0,0,1-.81-2.1q0-3.12,3.93-3.12c.35,0,.77,0,1.24.09l4.73.63a41.31,41.31,0,0,0,5.52.35,45,45,0,0,0,6.06-.44l4-.54c.48-.05.89-.09,1.25-.09q3.92,0,3.92,3.12a3,3,0,0,1-.8,2.1,2.62,2.62,0,0,1-2,.84,14.28,14.28,0,0,1-2.41-.26,7.2,7.2,0,0,0-1.87-.18q-4.55,0-4.54,6.59v35.74c0,4.46,1.51,6.68,4.54,6.68a13.93,13.93,0,0,0,1.87-.17,17.65,17.65,0,0,1,2.41-.27q2.76,0,2.76,2.85,0,3.21-3.92,3.21h-.62a2.64,2.64,0,0,0-.63-.09l-4.63-.71a32,32,0,0,0-4.9-.36,46,46,0,0,0-6.69.44l-4.1.63a3.72,3.72,0,0,0-.62.09h-.71q-3.84,0-3.84-3.21c0-1.9.92-2.85,2.77-2.85.29,0,1.1.06,2.4.18a7.5,7.5,0,0,0,1.87.26c3,0,4.55-2.22,4.55-6.68Z"/>
    <path class="cls-3" d="M435.53,746.64q-11.85,0-18.76-8.55t-6.9-23.17q0-14.79,6.95-23.22T436,683.28q11.67,0,18.58,8.2t6.91,22.19q0,15.15-7,24.06T435.53,746.64Zm.18-56.94a15.41,15.41,0,0,0-13.28,6.59q-4.73,6.6-4.72,18.54,0,12.12,4.72,18.76a16.19,16.19,0,0,0,26.34-.27q4.85-6.9,4.85-18.76T449,696.16Q444.35,689.7,435.71,689.7Z"/>
    <path class="cls-3" d="M505.71,688.9l23.93,49.81V702.8c0-4.64,0-7.19-.09-7.67-.53-3.09-2-4.63-4.45-4.63a14.84,14.84,0,0,0-2.14.22,15,15,0,0,1-2.14.22,2.87,2.87,0,0,1-2.85-2.85c0-2.14,1.33-3.21,4-3.21a5.85,5.85,0,0,1,1.15.09l4,.54a37.6,37.6,0,0,0,5,.35,50.11,50.11,0,0,0,6.14-.49c.9-.1,1.93-.24,3.12-.4a3.79,3.79,0,0,0,.63-.09h.62q3.83,0,3.83,3.08t-3.63,3H541c-1.82,0-3,.39-3.54,1.16s-.88,2.46-1,5.07v37.91q0,6.13-1.39,8.63a5,5,0,0,1-4.79,2.49q-4.38,0-7.43-6.24l-23.46-48.57v41.44c0,4.46,1.51,6.68,4.55,6.68.47,0,1.18,0,2.13-.13s1.67-.13,2.14-.13A2.52,2.52,0,0,1,511,742.1c0,2-1.33,3-4,3h-.53a3.86,3.86,0,0,0-.62-.09l-3.66-.54a40.25,40.25,0,0,0-5.7-.44,52.57,52.57,0,0,0-6,.44l-4.37.54a3.58,3.58,0,0,0-.62.09h-.72q-3.82,0-3.83-3.12,0-2.76,2.85-2.76c.3,0,1.1.06,2.41.17a7,7,0,0,0,1.87.27q4.54,0,4.55-6.68V697.18c0-4.45-1.54-6.68-4.6-6.68a12.16,12.16,0,0,0-1.77.18,17.08,17.08,0,0,1-2.48.26c-1.89,0-2.83-1-2.83-2.94s1.28-3.12,3.83-3.12c.35,0,.83,0,1.42.09,3,.3,5.25.45,6.85.45.89,0,2.22-.09,4-.27s3.11-.27,4-.27c1.83,0,3.05.63,3.64,1.88Z"/>
  </g>
  <g>
    <path class="cls-6" d="M430.64,863.75a1.82,1.82,0,1,0,1.82,1.82A1.82,1.82,0,0,0,430.64,863.75Z"/>
    <g>
      <g>
        <path class="cls-3" d="M74.1,857.3A4.78,4.78,0,0,1,78,859.11v-.48a.64.64,0,0,1,0-.15c0-.32,0-.47,0-.44,0-.49.22-.74.66-.74s.7.3.7.9c0,.11,0,.45,0,1a13.54,13.54,0,0,0-.13,1.47c0,.38,0,.77.07,1.17l.1.81v.21c0,.64-.25,1-.77,1s-.82-.3-.81-.91v-.76a3.15,3.15,0,0,0-1-2.47,3.67,3.67,0,0,0-2.62-1,3.85,3.85,0,0,0-3.29,1.62,9,9,0,0,0,0,9A4,4,0,0,0,74.25,871a4.1,4.1,0,0,0,2.14-.57,3.17,3.17,0,0,0,1.33-1.51,4.52,4.52,0,0,0,.25-1.67c0-.65.27-1,.81-1s.88.33.88,1A4.84,4.84,0,0,1,78.08,871,5.76,5.76,0,0,1,74,872.45a5.7,5.7,0,0,1-4.59-2A8.09,8.09,0,0,1,67.7,865a8.54,8.54,0,0,1,1.76-5.61A5.72,5.72,0,0,1,74.1,857.3Z"/>
        <path class="cls-3" d="M93.64,868.86c0,.83.08,1.33.25,1.48a.87.87,0,0,0,.5.24,13.47,13.47,0,0,0,1.4,0h1.87a3.37,3.37,0,0,0,2-.39,1.94,1.94,0,0,0,.49-1.57c0-.21,0-.45,0-.73,0-.55,0-.88,0-1,0-.62.25-.92.75-.92s.89.28.89.85a3.9,3.9,0,0,1,0,.4l-.15,1.09a7.7,7.7,0,0,0-.06,1c0,.2,0,.49.05.89s0,.68,0,.88q0,1-1.08,1c-.15,0-.47,0-1-.08-.35,0-.87,0-1.58-.07h-5c-.34,0-.91,0-1.7.08l-.59,0-.65,0c-.6,0-.89-.26-.89-.77a.59.59,0,0,1,.66-.68,3.31,3.31,0,0,1,.51.06,2.49,2.49,0,0,0,.51.07c.72,0,1.09-.54,1.09-1.6V860.6c0-1.05-.37-1.57-1.09-1.57a1.72,1.72,0,0,0-.45,0,3.45,3.45,0,0,1-.57.06.6.6,0,0,1-.47-.2.68.68,0,0,1-.19-.5c0-.5.3-.74.91-.74a2,2,0,0,1,.32,0l1.13.12a11.68,11.68,0,0,0,1.39.11,9.32,9.32,0,0,0,1.36-.11l1-.12a1.52,1.52,0,0,1,.28,0c.64,0,1,.24,1,.74a.69.69,0,0,1-.2.5.58.58,0,0,1-.46.2,3.66,3.66,0,0,1-.58-.06,1.72,1.72,0,0,0-.45,0c-.72,0-1.08.52-1.08,1.57Z"/>
        <path class="cls-3" d="M117.35,872.45a5.45,5.45,0,0,1-4.48-2,8.59,8.59,0,0,1-1.66-5.54,8.45,8.45,0,0,1,1.67-5.55,5.58,5.58,0,0,1,4.58-2,5.5,5.5,0,0,1,4.44,2,8,8,0,0,1,1.65,5.31,9.1,9.1,0,0,1-1.67,5.75A5.45,5.45,0,0,1,117.35,872.45Zm0-13.61a3.67,3.67,0,0,0-3.17,1.57,7.54,7.54,0,0,0-1.13,4.43,7.68,7.68,0,0,0,1.13,4.49,3.87,3.87,0,0,0,6.3-.06,7.72,7.72,0,0,0,1.16-4.49,7.47,7.47,0,0,0-1.11-4.4A3.67,3.67,0,0,0,117.39,858.84Z"/>
        <path class="cls-3" d="M139.09,857.3a4.61,4.61,0,0,1,3.41,1.34v-.29q0-.84.66-.84c.48,0,.72.31.72.92v.13s0,.24-.06.64a11.76,11.76,0,0,0-.07,1.43c0,.07,0,.29.05.68l.06.85a2.11,2.11,0,0,1,0,.3c0,.68-.26,1-.79,1a.74.74,0,0,1-.83-.85v-.11l0-.57a4.47,4.47,0,0,0,0-.47,2.45,2.45,0,0,0-.86-2,3.54,3.54,0,0,0-2.37-.73,3.37,3.37,0,0,0-2.21.68,2.27,2.27,0,0,0-.82,1.84,2.12,2.12,0,0,0,1.21,2,9.46,9.46,0,0,0,2.39.61,8.34,8.34,0,0,1,3.47,1.11,3.48,3.48,0,0,1,1.41,3,4.13,4.13,0,0,1-1.43,3.26,5.43,5.43,0,0,1-3.71,1.26,5.56,5.56,0,0,1-4-1.53v.31a3,3,0,0,1,.08.44.69.69,0,0,1-.78.78.78.78,0,0,1-.86-.89.21.21,0,0,1,.07-.17l.09-1.11c.05-.56.08-.91.08-1.07a10.18,10.18,0,0,0-.12-1.28,9.9,9.9,0,0,1-.12-1.27q0-1,.81-1c.56,0,.83.32.83,1v.88a3.27,3.27,0,0,0,1,2.54,3.91,3.91,0,0,0,2.77.94,4,4,0,0,0,2.57-.76,2.55,2.55,0,0,0,1-2.09c0-1.35-.85-2.17-2.55-2.47l-1.22-.22a13.52,13.52,0,0,1-2.81-.74,3.21,3.21,0,0,1-1.46-1.27,3.61,3.61,0,0,1-.55-2,3.84,3.84,0,0,1,1.37-3A5.25,5.25,0,0,1,139.09,857.3Z"/>
        <path class="cls-3" d="M157.11,860.6c0-1.05-.36-1.57-1.08-1.57a1.72,1.72,0,0,0-.45,0,3.45,3.45,0,0,1-.58.06.61.61,0,0,1-.47-.2.72.72,0,0,1-.19-.5c0-.5.3-.74.89-.74l.32,0c2.13.14,3.12.21,3,.21h.21l5.12-.15,1.1-.06c.23,0,.43,0,.62,0,.73,0,1.1.32,1.1,1q0,.17-.06,1.08c0,.46-.05.88-.05,1.26s0,.84,0,1a8.28,8.28,0,0,1,.07.92c0,.54-.25.81-.76.81s-.75-.38-.75-1.13v-1.11c0-1.19-.25-1.89-.75-2.11a10.27,10.27,0,0,0-2.85-.23,13.89,13.89,0,0,0-1.79.06,1.17,1.17,0,0,0-.92,1.28v2.13c0,.57.13.9.38,1a2,2,0,0,0,.5,0h.86c.89,0,1.33-.3,1.33-.91a4.7,4.7,0,0,0-.06-.66,6.72,6.72,0,0,1-.05-.73c0-.57.25-.85.76-.85s.75.31.75.92c0,.11,0,.55-.13,1.32a14.37,14.37,0,0,0-.12,1.72c0,.29,0,.79.08,1.52,0,.11.05.36.11.74a6.14,6.14,0,0,1,.06.75.68.68,0,0,1-.76.77q-.75,0-.75-.9c0-.16,0-.38.05-.68a5.67,5.67,0,0,0,.06-.68c0-.61-.41-.92-1.22-.92h-1q-.62,0-.75.21a2,2,0,0,0-.14.92v1.32c0,.23,0,.53,0,.92s0,.78,0,.93c0,.57.13.93.34,1.07a2.53,2.53,0,0,0,1.11.15h2.9a3,3,0,0,0,1.73-.37,1.73,1.73,0,0,0,.46-1.4c0-.21,0-.53,0-1s0-.73,0-.95c0-.63.25-1,.76-1s.8.32.8,1c0,.25,0,.64,0,1.17s0,.91,0,1.17,0,.49,0,.88,0,.69,0,.89a.88.88,0,0,1-1,1l-.75,0c-.17,0-.48,0-.94,0l-1.66,0c-1.21,0-2.25,0-3.13,0-1.34,0-2.64,0-3.92.13a.65.65,0,0,0-.19,0h-.13c-.6,0-.9-.26-.9-.77a.59.59,0,0,1,.66-.68l.58,0a1.41,1.41,0,0,0,.45.07c.72,0,1.08-.54,1.08-1.6Z"/>
        <path class="cls-3" d="M179.64,860.6c0-1.06-.37-1.59-1.09-1.59a2.57,2.57,0,0,0-.45,0,4.06,4.06,0,0,1-.57.06c-.44,0-.66-.22-.66-.68s.31-.74.95-.74a1.52,1.52,0,0,1,.28,0l1.13.15a11.71,11.71,0,0,0,1.36.08q.6,0,1.2-.06l1.38-.15a10.38,10.38,0,0,1,1.07,0,8.3,8.3,0,0,1,3.24.55,5.53,5.53,0,0,1,2.69,2.51,8.47,8.47,0,0,1,1,4.16,8.67,8.67,0,0,1-.79,3.76,5.34,5.34,0,0,1-2.15,2.46,7.69,7.69,0,0,1-4,1c-.31,0-.63,0-1,0l-1.47-.13q-.75-.06-1.56-.06a9.07,9.07,0,0,0-1.15.06l-1,.15a.5.5,0,0,0-.15,0h-.17c-.61,0-.91-.25-.91-.75a.71.71,0,0,1,.19-.5.62.62,0,0,1,.47-.2,3.45,3.45,0,0,1,.57.06,1.64,1.64,0,0,0,.45,0c.72,0,1.09-.54,1.09-1.6Zm1.79-.21v9a1.1,1.1,0,0,0,.95,1.19,11.5,11.5,0,0,0,1.79.08,4.57,4.57,0,0,0,3.71-1.38,6.6,6.6,0,0,0,1.39-4.37,7.05,7.05,0,0,0-.85-3.6,3.84,3.84,0,0,0-2.31-1.9,7.83,7.83,0,0,0-2.26-.28,6.43,6.43,0,0,0-2,.19C181.55,859.43,181.43,859.79,181.43,860.39Z"/>
        <path class="cls-3" d="M220.85,857.3a4.78,4.78,0,0,1,3.85,1.81v-.48a.64.64,0,0,1,0-.15c0-.32,0-.47,0-.44,0-.49.22-.74.66-.74s.7.3.7.9c0,.11,0,.45,0,1a13.54,13.54,0,0,0-.13,1.47,9.41,9.41,0,0,0,.07,1.17l.1.81v.21c0,.64-.25,1-.77,1s-.82-.3-.81-.91v-.76a3.15,3.15,0,0,0-1-2.47,3.67,3.67,0,0,0-2.62-1,3.85,3.85,0,0,0-3.29,1.62,9,9,0,0,0,0,9A4,4,0,0,0,221,871a4.1,4.1,0,0,0,2.14-.57,3.17,3.17,0,0,0,1.33-1.51,4.52,4.52,0,0,0,.25-1.67c0-.65.27-1,.81-1s.88.33.88,1a4.84,4.84,0,0,1-1.58,3.73,5.76,5.76,0,0,1-4.07,1.45,5.7,5.7,0,0,1-4.59-2,8,8,0,0,1-1.72-5.39,8.54,8.54,0,0,1,1.76-5.61A5.72,5.72,0,0,1,220.85,857.3Z"/>
        <path class="cls-3" d="M246.31,869.57l-.77-2.08a.85.85,0,0,0-.26-.43,1.23,1.23,0,0,0-.57-.08h-3.79a.94.94,0,0,0-.59.14,2.8,2.8,0,0,0-.41.81l-.62,1.64a1.29,1.29,0,0,0-.09.45c0,.46.28.68.83.68a5.38,5.38,0,0,0,.61,0,5.36,5.36,0,0,1,.59,0c.58,0,.87.25.87.74s-.32.71-1,.71l-.47,0-1.06-.14c-.2,0-.53,0-1,0s-.85,0-1,0l-.89.11c-.4,0-.69.07-.87.07-.56,0-.84-.24-.84-.71s.27-.74.81-.74a.38.38,0,0,1,.26.08h.28a1,1,0,0,0,.87-.44,5.13,5.13,0,0,0,.43-1l4-10.75a1.31,1.31,0,0,1,1.34-.9,1.26,1.26,0,0,1,1.3.89l3.82,10.57a4.31,4.31,0,0,0,.66,1.33,1.11,1.11,0,0,0,.85.31l.26,0,.59-.06c.54,0,.81.23.81.7s-.27.75-.81.75a6,6,0,0,1-.62-.05,17.67,17.67,0,0,0-2-.16c-.52,0-1.38,0-2.56.17l-.68,0c-.57,0-.85-.24-.85-.73s.31-.72.94-.72a4.79,4.79,0,0,1,.56,0,4.93,4.93,0,0,0,.57,0c.47,0,.7-.19.7-.57A3.35,3.35,0,0,0,246.31,869.57Zm-1.53-4.34-1.92-5.88-2,5.88a.79.79,0,0,0-.05.15c0,.13.11.19.32.19h3.39c.17,0,.26-.06.26-.17A1.2,1.2,0,0,0,244.78,865.23Z"/>
        <path class="cls-3" d="M262.42,869.15v-8.53c0-1-.36-1.57-1.08-1.57l-.44,0a4,4,0,0,1-.58,0c-.45,0-.67-.23-.67-.7s.31-.74.93-.74a1.77,1.77,0,0,1,.32,0l1.05.12a9,9,0,0,0,1.27.07c.36,0,.78,0,1.28-.07,1.16-.09,2-.14,2.64-.14a11.41,11.41,0,0,1,2.34.21,3.67,3.67,0,0,1,2.2,1.32,3.91,3.91,0,0,1,.8,2.47,3.64,3.64,0,0,1-1.38,3.07,6.39,6.39,0,0,1-4,1.06h-2.39a.58.58,0,0,0-.44.12,1,1,0,0,0-.09.54v.43a17.82,17.82,0,0,0,.16,3.26c.1.39.41.58.92.58a1.33,1.33,0,0,0,.45-.07l.58,0a.59.59,0,0,1,.66.68c0,.51-.32.77-.94.77l-.3,0-1.06-.15a10.69,10.69,0,0,0-1.35-.07,9.62,9.62,0,0,0-1.21.07l-1.24.17a.32.32,0,0,0-.12,0h-.15q-1,0-1-.75a.71.71,0,0,1,.19-.5.63.63,0,0,1,.47-.2,3.35,3.35,0,0,1,.57.06,1.64,1.64,0,0,0,.45,0C262.06,870.75,262.42,870.22,262.42,869.15Zm1.94-9.65a2.62,2.62,0,0,0-.15,1.17v3.15q0,.58.81.66h1.23a11.76,11.76,0,0,0,2.52-.23,2.29,2.29,0,0,0,1.89-2.49q0-2.71-3.45-2.71Q264.66,859.05,264.36,859.5Z"/>
        <path class="cls-3" d="M288.61,869.17c0,1.07.36,1.6,1.08,1.6a4.26,4.26,0,0,0,.51,0,3.28,3.28,0,0,1,.52-.06.68.68,0,0,1,.68.68q0,.75-1,.75h-.13a.5.5,0,0,0-.15,0l-1-.15a9.12,9.12,0,0,0-1.34-.09,10,10,0,0,0-1.43.09l-1.07.15a.44.44,0,0,0-.15,0H285q-.93,0-.93-.75a.6.6,0,0,1,.68-.68,3.31,3.31,0,0,1,.51.06,4.67,4.67,0,0,0,.51,0c.71,0,1.07-.53,1.07-1.6v-8.65a1.36,1.36,0,0,0-1.56-1.51h-.66a1.33,1.33,0,0,0-1.53,1.49,6.29,6.29,0,0,0,0,.72l.08.79a4,4,0,0,1,0,.53c0,.9-.27,1.35-.83,1.35s-.79-.33-.79-1c0-.19,0-.51.05-1,0-.68.06-1.12.06-1.3q0-.54,0-1.11a7.9,7.9,0,0,0-.08-1c0-.6.27-.89.81-.89l1.39.06,1.74.08h2.42l2.28,0q.41,0,1.38-.06c.58,0,1,0,1.36,0,.71,0,1.07.29,1.07.87v0c0,.14,0,.41-.06.79s-.07.8-.11,1.24v.23c0,.21,0,.55.06,1s.09,1,.09,1.11c0,.58-.28.87-.83.87s-.81-.35-.81-1.07q0-.37.06-1.14c0-.51.06-.89.06-1.15q0-1.47-1.68-1.47h-.6a1.56,1.56,0,0,0-1.12.33,1.59,1.59,0,0,0-.39,1.09l-.08,1.5Z"/>
        <path class="cls-3" d="M305.93,860.6c0-1.05-.36-1.57-1.09-1.57a1.72,1.72,0,0,0-.45,0,3.25,3.25,0,0,1-.57.06.6.6,0,0,1-.47-.2.68.68,0,0,1-.19-.5c0-.5.31-.74.94-.74a1.57,1.57,0,0,1,.29,0l1.13.15a11.41,11.41,0,0,0,1.32.08,9.46,9.46,0,0,0,1.45-.11l1-.12a1.73,1.73,0,0,1,.3,0c.63,0,.94.24.94.74a.72.72,0,0,1-.19.5.61.61,0,0,1-.47.2,3.78,3.78,0,0,1-.58-.06,1.68,1.68,0,0,0-.44,0c-.73,0-1.09.52-1.09,1.57v8.55c0,1.06.36,1.6,1.09,1.6a2.94,2.94,0,0,0,.44,0,4.48,4.48,0,0,1,.58-.06.59.59,0,0,1,.66.68c0,.51-.31.77-.94.77h-.15a.41.41,0,0,0-.15,0l-1.11-.17a7.22,7.22,0,0,0-1.17-.09,11,11,0,0,0-1.6.11l-1,.15-.14,0h-.17c-.62,0-.92-.26-.92-.77a.59.59,0,0,1,.66-.68l.57,0a1.5,1.5,0,0,0,.45.07c.73,0,1.09-.54,1.09-1.6Z"/>
        <path class="cls-3" d="M326,872.45a5.45,5.45,0,0,1-4.48-2,8.59,8.59,0,0,1-1.65-5.54,8.45,8.45,0,0,1,1.66-5.55,5.6,5.6,0,0,1,4.58-2,5.5,5.5,0,0,1,4.44,2,8,8,0,0,1,1.65,5.31,9,9,0,0,1-1.67,5.75A5.44,5.44,0,0,1,326,872.45Zm.05-13.61a3.67,3.67,0,0,0-3.18,1.57,7.54,7.54,0,0,0-1.13,4.43,7.68,7.68,0,0,0,1.13,4.49,3.87,3.87,0,0,0,6.3-.06,7.72,7.72,0,0,0,1.16-4.49,7.47,7.47,0,0,0-1.11-4.4A3.67,3.67,0,0,0,326.07,858.84Z"/>
        <path class="cls-3" d="M347.53,858.64l5.72,11.92V862c0-1.11,0-1.72,0-1.83-.12-.74-.48-1.11-1.06-1.11a4.26,4.26,0,0,0-.51.05,3,3,0,0,1-.51,0,.62.62,0,0,1-.48-.2.63.63,0,0,1-.21-.48c0-.51.32-.76,1-.76a1,1,0,0,1,.28,0l1,.12a8.47,8.47,0,0,0,1.19.09,11.87,11.87,0,0,0,1.47-.12l.75-.1h.3c.61,0,.91.24.91.73s-.29.71-.87.71H356a1,1,0,0,0-.85.28,2.66,2.66,0,0,0-.24,1.21v9.07a4.61,4.61,0,0,1-.33,2.06,1.19,1.19,0,0,1-1.14.6c-.7,0-1.29-.5-1.78-1.5L346,859.24v9.91c0,1.06.36,1.6,1.09,1.6l.51,0a4,4,0,0,1,.51,0,.61.61,0,0,1,.68.69q0,.72-1,.72h-.13l-.14,0-.88-.13a9.56,9.56,0,0,0-1.36-.11,12.62,12.62,0,0,0-1.43.11l-1,.13a.5.5,0,0,0-.15,0h-.17c-.61,0-.92-.25-.92-.75a.59.59,0,0,1,.68-.66l.58.05a1.74,1.74,0,0,0,.45.06c.72,0,1.08-.53,1.08-1.6v-8.56c0-1.07-.36-1.6-1.1-1.6a2.61,2.61,0,0,0-.42,0,4.59,4.59,0,0,1-.59.06.61.61,0,0,1-.68-.7c0-.5.31-.74.92-.74a2.38,2.38,0,0,1,.34,0c.7.07,1.25.1,1.63.1.22,0,.53,0,1-.06s.74-.06,1-.06a.85.85,0,0,1,.87.44Z"/>
        <path class="cls-3" d="M368.85,860.6c0-1.05-.36-1.57-1.08-1.57a1.72,1.72,0,0,0-.45,0,3.45,3.45,0,0,1-.58.06.61.61,0,0,1-.47-.2.72.72,0,0,1-.19-.5c0-.5.31-.74.94-.74a1.67,1.67,0,0,1,.3,0l1.13.15a11.14,11.14,0,0,0,1.32.08,9.65,9.65,0,0,0,1.45-.11l1-.12a1.57,1.57,0,0,1,.29,0c.63,0,.94.24.94.74a.68.68,0,0,1-.19.5.6.6,0,0,1-.47.2,3.67,3.67,0,0,1-.57-.06,1.72,1.72,0,0,0-.45,0c-.73,0-1.09.52-1.09,1.57v8.55c0,1.06.36,1.6,1.09,1.6a3.2,3.2,0,0,0,.45,0,4.54,4.54,0,0,1,.57-.06.59.59,0,0,1,.66.68c0,.51-.31.77-.94.77h-.14a.44.44,0,0,0-.15,0l-1.11-.17a7.31,7.31,0,0,0-1.17-.09,10.86,10.86,0,0,0-1.6.11l-1,.15a.5.5,0,0,0-.15,0H367c-.61,0-.92-.26-.92-.77a.59.59,0,0,1,.66-.68l.58,0a1.41,1.41,0,0,0,.45.07c.72,0,1.08-.54,1.08-1.6Z"/>
        <path class="cls-3" d="M388.32,858.64,394,870.56V862c0-1.11,0-1.72,0-1.83-.13-.74-.49-1.11-1.07-1.11a4.67,4.67,0,0,0-.51.05,3,3,0,0,1-.51,0,.68.68,0,0,1-.68-.68c0-.51.32-.76,1-.76a.94.94,0,0,1,.27,0l1,.12a8.69,8.69,0,0,0,1.19.09,12.15,12.15,0,0,0,1.48-.12l.74-.1h.3c.61,0,.92.24.92.73s-.29.71-.87.71h-.46a1,1,0,0,0-.84.28,2.66,2.66,0,0,0-.24,1.21v9.07a4.61,4.61,0,0,1-.33,2.06,1.22,1.22,0,0,1-1.15.6c-.7,0-1.29-.5-1.78-1.5l-5.61-11.61v9.91c0,1.06.37,1.6,1.09,1.6l.51,0a4.12,4.12,0,0,1,.51,0,.6.6,0,0,1,.68.69c0,.48-.31.72-.95.72h-.13a.5.5,0,0,0-.15,0l-.87-.13a9.69,9.69,0,0,0-1.37-.11,12.79,12.79,0,0,0-1.43.11l-1,.13a.5.5,0,0,0-.15,0h-.17c-.61,0-.92-.25-.92-.75s.23-.66.69-.66l.57.05a1.86,1.86,0,0,0,.45.06c.72,0,1.09-.53,1.09-1.6v-8.56c0-1.07-.37-1.6-1.1-1.6a2.82,2.82,0,0,0-.43,0,4.43,4.43,0,0,1-.59.06.61.61,0,0,1-.68-.7c0-.5.31-.74.92-.74a2.31,2.31,0,0,1,.34,0c.71.07,1.25.1,1.64.1.21,0,.53,0,.95-.06s.75-.06,1-.06a.85.85,0,0,1,.87.44Z"/>
        <path class="cls-3" d="M413.05,857.3a5.54,5.54,0,0,1,3.87,1.6c-.05-.2-.08-.31-.08-.34,0-.28,0-.44,0-.47a.62.62,0,0,1,.7-.7c.51,0,.77.3.77.91a2.49,2.49,0,0,1,0,.45l-.16,1a5.86,5.86,0,0,0-.07,1c0,.27,0,.85.09,1.73v.19c0,.64-.27,1-.79,1s-.75-.35-.75-1v-.64a2.93,2.93,0,0,0-1-2.33,4.2,4.2,0,0,0-5.83.75,7.29,7.29,0,0,0-1.17,4.39,7.71,7.71,0,0,0,1.21,4.62,3.87,3.87,0,0,0,3.33,1.66,3.32,3.32,0,0,0,2.54-1,3.89,3.89,0,0,0,.89-2.74,1.61,1.61,0,0,0-.24-1,1.07,1.07,0,0,0-.87-.29c-.11,0-.27,0-.49,0l-.49,0c-.68,0-1-.24-1-.73s.29-.74.87-.74a4.82,4.82,0,0,1,.62,0,17.06,17.06,0,0,0,2.15.18,13.5,13.5,0,0,0,2.22-.19,3.37,3.37,0,0,1,.58,0c.56,0,.85.23.85.7a.68.68,0,0,1-.23.51.7.7,0,0,1-.52.22h-.7c-.63,0-.94.69-.94,2.07v1.69c0,.37,0,.7,0,1s.05.53.05.7c0,.58-.26.87-.77.87a.66.66,0,0,1-.75-.75l.05-.51c0-.13,0-.35,0-.66a6.78,6.78,0,0,1-.77.91,5,5,0,0,1-3.43,1.11,5.46,5.46,0,0,1-4.43-2,8.18,8.18,0,0,1-1.68-5.35,8.66,8.66,0,0,1,1.72-5.65A5.66,5.66,0,0,1,413.05,857.3Z"/>
        <path class="cls-3" d="M450.31,869.17c0,1.07.37,1.6,1.09,1.6a4.67,4.67,0,0,0,.51,0,3.31,3.31,0,0,1,.51-.06.66.66,0,0,1,.48.2.65.65,0,0,1,.2.48c0,.5-.31.75-1,.75H452a.5.5,0,0,0-.15,0l-1.05-.15a8.92,8.92,0,0,0-1.34-.09,10.13,10.13,0,0,0-1.43.09l-1.06.15a.44.44,0,0,0-.15,0h-.15c-.62,0-.94-.25-.94-.75a.6.6,0,0,1,.68-.68,3.28,3.28,0,0,1,.52.06,4.26,4.26,0,0,0,.51,0c.71,0,1.06-.53,1.06-1.6v-8.65A1.35,1.35,0,0,0,447,859h-.66c-1,0-1.54.49-1.54,1.49,0,.35,0,.59,0,.72l.09.79c0,.13,0,.31,0,.53,0,.9-.28,1.35-.83,1.35s-.79-.33-.79-1c0-.19,0-.51,0-1,.05-.68.07-1.12.07-1.3,0-.36,0-.73,0-1.11-.05-.75-.07-1.07-.07-1,0-.6.27-.89.81-.89l1.38.06,1.75.08h2.42l2.28,0q.4,0,1.38-.06c.58,0,1,0,1.36,0,.71,0,1.07.29,1.07.87v0c0,.14,0,.41-.06.79s-.07.8-.12,1.24v.23c0,.21,0,.55.07,1s.08,1,.08,1.11c0,.58-.27.87-.83.87s-.81-.35-.81-1.07c0-.25,0-.63.07-1.14s.06-.89.06-1.15q0-1.47-1.68-1.47h-.6a1.61,1.61,0,0,0-1.13.33,1.59,1.59,0,0,0-.38,1.09l-.09,1.5Z"/>
        <path class="cls-3" d="M471.41,872.45a5.47,5.47,0,0,1-4.49-2,10.12,10.12,0,0,1,0-11.09,5.61,5.61,0,0,1,4.58-2,5.5,5.5,0,0,1,4.45,2,8,8,0,0,1,1.65,5.31,9.1,9.1,0,0,1-1.67,5.75A5.47,5.47,0,0,1,471.41,872.45Zm0-13.61a3.67,3.67,0,0,0-3.17,1.57,7.46,7.46,0,0,0-1.13,4.43,7.6,7.6,0,0,0,1.13,4.49,3.86,3.86,0,0,0,6.29-.06,7.64,7.64,0,0,0,1.16-4.49,7.55,7.55,0,0,0-1.1-4.4A3.67,3.67,0,0,0,471.45,858.84Z"/>
        <path class="cls-3" d="M493.55,872.45a5.47,5.47,0,0,1-4.49-2,8.59,8.59,0,0,1-1.65-5.54,8.45,8.45,0,0,1,1.66-5.55,5.61,5.61,0,0,1,4.58-2,5.5,5.5,0,0,1,4.45,2,8,8,0,0,1,1.65,5.31,9.1,9.1,0,0,1-1.67,5.75A5.47,5.47,0,0,1,493.55,872.45Zm0-13.61a3.67,3.67,0,0,0-3.17,1.57,7.46,7.46,0,0,0-1.13,4.43,7.6,7.6,0,0,0,1.13,4.49,3.86,3.86,0,0,0,6.29-.06,7.64,7.64,0,0,0,1.16-4.49,7.55,7.55,0,0,0-1.1-4.4A3.67,3.67,0,0,0,493.59,858.84Z"/>
        <path class="cls-3" d="M513.73,868.86c0,.83.08,1.33.25,1.48a.87.87,0,0,0,.5.24,13.47,13.47,0,0,0,1.4,0h1.87a3.37,3.37,0,0,0,2-.39,1.94,1.94,0,0,0,.49-1.57c0-.21,0-.45,0-.73,0-.55,0-.88,0-1,0-.62.25-.92.75-.92s.89.28.89.85a3.9,3.9,0,0,1,0,.4l-.15,1.09a7.7,7.7,0,0,0-.06,1c0,.2,0,.49.05.89s0,.68,0,.88q0,1-1.08,1c-.15,0-.47,0-1-.08-.34,0-.87,0-1.58-.07h-5c-.34,0-.91,0-1.7.08l-.59,0-.65,0c-.6,0-.89-.26-.89-.77a.59.59,0,0,1,.66-.68,3.31,3.31,0,0,1,.51.06,2.58,2.58,0,0,0,.51.07c.72,0,1.09-.54,1.09-1.6V860.6c0-1.05-.37-1.57-1.09-1.57a1.72,1.72,0,0,0-.45,0,3.45,3.45,0,0,1-.57.06.6.6,0,0,1-.47-.2.68.68,0,0,1-.19-.5c0-.5.3-.74.91-.74a2,2,0,0,1,.32,0l1.13.12a11.68,11.68,0,0,0,1.39.11,9.32,9.32,0,0,0,1.36-.11l1-.12a1.52,1.52,0,0,1,.28,0c.64,0,1,.24,1,.74a.69.69,0,0,1-.2.5.58.58,0,0,1-.46.2,3.66,3.66,0,0,1-.58-.06,1.72,1.72,0,0,0-.45,0c-.72,0-1.08.52-1.08,1.57Z"/>
        <path class="cls-3" d="M537,857.3a4.6,4.6,0,0,1,3.41,1.34v-.29q0-.84.66-.84c.48,0,.72.31.72.92v.13s0,.24-.06.64a14.21,14.21,0,0,0-.07,1.43c0,.07,0,.29,0,.68l.06.85a1.24,1.24,0,0,1,0,.3c0,.68-.26,1-.79,1a.74.74,0,0,1-.83-.85v-.11l0-.57c0-.2,0-.36,0-.47a2.46,2.46,0,0,0-.87-2,3.52,3.52,0,0,0-2.37-.73,3.37,3.37,0,0,0-2.21.68,2.3,2.3,0,0,0-.82,1.84,2.11,2.11,0,0,0,1.22,2,9.36,9.36,0,0,0,2.38.61,8.45,8.45,0,0,1,3.48,1.11,3.5,3.5,0,0,1,1.4,3,4.13,4.13,0,0,1-1.43,3.26,5.43,5.43,0,0,1-3.71,1.26,5.56,5.56,0,0,1-4-1.53v.31a2,2,0,0,1,.08.44.69.69,0,0,1-.78.78.78.78,0,0,1-.86-.89.24.24,0,0,1,.07-.17l.1-1.11c0-.56.07-.91.07-1.07a10.18,10.18,0,0,0-.12-1.28,9.9,9.9,0,0,1-.12-1.27q0-1,.81-1c.56,0,.83.32.83,1v.88a3.24,3.24,0,0,0,1,2.54,3.9,3.9,0,0,0,2.76.94,4,4,0,0,0,2.57-.76,2.52,2.52,0,0,0,1-2.09c0-1.35-.85-2.17-2.55-2.47l-1.22-.22a13.7,13.7,0,0,1-2.81-.74,3.21,3.21,0,0,1-1.46-1.27,3.6,3.6,0,0,1-.54-2,3.83,3.83,0,0,1,1.36-3A5.25,5.25,0,0,1,537,857.3Z"/>
      </g>
      <g>
        <path class="cls-7" d="M74.1,857.3A4.78,4.78,0,0,1,78,859.11v-.48a.64.64,0,0,1,0-.15c0-.32,0-.47,0-.44,0-.49.22-.74.66-.74s.7.3.7.9c0,.11,0,.45,0,1a13.54,13.54,0,0,0-.13,1.47c0,.38,0,.77.07,1.17l.1.81v.21c0,.64-.25,1-.77,1s-.82-.3-.81-.91v-.76a3.15,3.15,0,0,0-1-2.47,3.67,3.67,0,0,0-2.62-1,3.85,3.85,0,0,0-3.29,1.62,9,9,0,0,0,0,9A4,4,0,0,0,74.25,871a4.1,4.1,0,0,0,2.14-.57,3.17,3.17,0,0,0,1.33-1.51,4.52,4.52,0,0,0,.25-1.67c0-.65.27-1,.81-1s.88.33.88,1A4.84,4.84,0,0,1,78.08,871,5.76,5.76,0,0,1,74,872.45a5.7,5.7,0,0,1-4.59-2A8.09,8.09,0,0,1,67.7,865a8.54,8.54,0,0,1,1.76-5.61A5.72,5.72,0,0,1,74.1,857.3Z"/>
        <path class="cls-7" d="M93.64,868.86c0,.83.08,1.33.25,1.48a.87.87,0,0,0,.5.24,13.47,13.47,0,0,0,1.4,0h1.87a3.37,3.37,0,0,0,2-.39,1.94,1.94,0,0,0,.49-1.57c0-.21,0-.45,0-.73,0-.55,0-.88,0-1,0-.62.25-.92.75-.92s.89.28.89.85a3.9,3.9,0,0,1,0,.4l-.15,1.09a7.7,7.7,0,0,0-.06,1c0,.2,0,.49.05.89s0,.68,0,.88q0,1-1.08,1c-.15,0-.47,0-1-.08-.35,0-.87,0-1.58-.07h-5c-.34,0-.91,0-1.7.08l-.59,0-.65,0c-.6,0-.89-.26-.89-.77a.59.59,0,0,1,.66-.68,3.31,3.31,0,0,1,.51.06,2.49,2.49,0,0,0,.51.07c.72,0,1.09-.54,1.09-1.6V860.6c0-1.05-.37-1.57-1.09-1.57a1.72,1.72,0,0,0-.45,0,3.45,3.45,0,0,1-.57.06.6.6,0,0,1-.47-.2.68.68,0,0,1-.19-.5c0-.5.3-.74.91-.74a2,2,0,0,1,.32,0l1.13.12a11.68,11.68,0,0,0,1.39.11,9.32,9.32,0,0,0,1.36-.11l1-.12a1.52,1.52,0,0,1,.28,0c.64,0,1,.24,1,.74a.69.69,0,0,1-.2.5.58.58,0,0,1-.46.2,3.66,3.66,0,0,1-.58-.06,1.72,1.72,0,0,0-.45,0c-.72,0-1.08.52-1.08,1.57Z"/>
        <path class="cls-7" d="M117.35,872.45a5.45,5.45,0,0,1-4.48-2,8.59,8.59,0,0,1-1.66-5.54,8.45,8.45,0,0,1,1.67-5.55,5.58,5.58,0,0,1,4.58-2,5.5,5.5,0,0,1,4.44,2,8,8,0,0,1,1.65,5.31,9.1,9.1,0,0,1-1.67,5.75A5.45,5.45,0,0,1,117.35,872.45Zm0-13.61a3.67,3.67,0,0,0-3.17,1.57,7.54,7.54,0,0,0-1.13,4.43,7.68,7.68,0,0,0,1.13,4.49,3.87,3.87,0,0,0,6.3-.06,7.72,7.72,0,0,0,1.16-4.49,7.47,7.47,0,0,0-1.11-4.4A3.67,3.67,0,0,0,117.39,858.84Z"/>
        <path class="cls-7" d="M139.09,857.3a4.61,4.61,0,0,1,3.41,1.34v-.29q0-.84.66-.84c.48,0,.72.31.72.92v.13s0,.24-.06.64a11.76,11.76,0,0,0-.07,1.43c0,.07,0,.29.05.68l.06.85a2.11,2.11,0,0,1,0,.3c0,.68-.26,1-.79,1a.74.74,0,0,1-.83-.85v-.11l0-.57a4.47,4.47,0,0,0,0-.47,2.45,2.45,0,0,0-.86-2,3.54,3.54,0,0,0-2.37-.73,3.37,3.37,0,0,0-2.21.68,2.27,2.27,0,0,0-.82,1.84,2.12,2.12,0,0,0,1.21,2,9.46,9.46,0,0,0,2.39.61,8.34,8.34,0,0,1,3.47,1.11,3.48,3.48,0,0,1,1.41,3,4.13,4.13,0,0,1-1.43,3.26,5.43,5.43,0,0,1-3.71,1.26,5.56,5.56,0,0,1-4-1.53v.31a3,3,0,0,1,.08.44.69.69,0,0,1-.78.78.78.78,0,0,1-.86-.89.21.21,0,0,1,.07-.17l.09-1.11c.05-.56.08-.91.08-1.07a10.18,10.18,0,0,0-.12-1.28,9.9,9.9,0,0,1-.12-1.27q0-1,.81-1c.56,0,.83.32.83,1v.88a3.27,3.27,0,0,0,1,2.54,3.91,3.91,0,0,0,2.77.94,4,4,0,0,0,2.57-.76,2.55,2.55,0,0,0,1-2.09c0-1.35-.85-2.17-2.55-2.47l-1.22-.22a13.52,13.52,0,0,1-2.81-.74,3.21,3.21,0,0,1-1.46-1.27,3.61,3.61,0,0,1-.55-2,3.84,3.84,0,0,1,1.37-3A5.25,5.25,0,0,1,139.09,857.3Z"/>
        <path class="cls-7" d="M157.11,860.6c0-1.05-.36-1.57-1.08-1.57a1.72,1.72,0,0,0-.45,0,3.45,3.45,0,0,1-.58.06.61.61,0,0,1-.47-.2.72.72,0,0,1-.19-.5c0-.5.3-.74.89-.74l.32,0c2.13.14,3.12.21,3,.21h.21l5.12-.15,1.1-.06c.23,0,.43,0,.62,0,.73,0,1.1.32,1.1,1q0,.17-.06,1.08c0,.46-.05.88-.05,1.26s0,.84,0,1a8.28,8.28,0,0,1,.07.92c0,.54-.25.81-.76.81s-.75-.38-.75-1.13v-1.11c0-1.19-.25-1.89-.75-2.11a10.27,10.27,0,0,0-2.85-.23,13.89,13.89,0,0,0-1.79.06,1.17,1.17,0,0,0-.92,1.28v2.13c0,.57.13.9.38,1a2,2,0,0,0,.5,0h.86c.89,0,1.33-.3,1.33-.91a4.7,4.7,0,0,0-.06-.66,6.72,6.72,0,0,1-.05-.73c0-.57.25-.85.76-.85s.75.31.75.92c0,.11,0,.55-.13,1.32a14.37,14.37,0,0,0-.12,1.72c0,.29,0,.79.08,1.52,0,.11.05.36.11.74a6.14,6.14,0,0,1,.06.75.68.68,0,0,1-.76.77q-.75,0-.75-.9c0-.16,0-.38.05-.68a5.67,5.67,0,0,0,.06-.68c0-.61-.41-.92-1.22-.92h-1q-.62,0-.75.21a2,2,0,0,0-.14.92v1.32c0,.23,0,.53,0,.92s0,.78,0,.93c0,.57.13.93.34,1.07a2.53,2.53,0,0,0,1.11.15h2.9a3,3,0,0,0,1.73-.37,1.73,1.73,0,0,0,.46-1.4c0-.21,0-.53,0-1s0-.73,0-.95c0-.63.25-1,.76-1s.8.32.8,1c0,.25,0,.64,0,1.17s0,.91,0,1.17,0,.49,0,.88,0,.69,0,.89a.88.88,0,0,1-1,1l-.75,0c-.17,0-.48,0-.94,0l-1.66,0c-1.21,0-2.25,0-3.13,0-1.34,0-2.64,0-3.92.13a.65.65,0,0,0-.19,0h-.13c-.6,0-.9-.26-.9-.77a.59.59,0,0,1,.66-.68l.58,0a1.41,1.41,0,0,0,.45.07c.72,0,1.08-.54,1.08-1.6Z"/>
        <path class="cls-7" d="M179.64,860.6c0-1.06-.37-1.59-1.09-1.59a2.57,2.57,0,0,0-.45,0,4.06,4.06,0,0,1-.57.06c-.44,0-.66-.22-.66-.68s.31-.74.95-.74a1.52,1.52,0,0,1,.28,0l1.13.15a11.71,11.71,0,0,0,1.36.08q.6,0,1.2-.06l1.38-.15a10.38,10.38,0,0,1,1.07,0,8.3,8.3,0,0,1,3.24.55,5.53,5.53,0,0,1,2.69,2.51,8.47,8.47,0,0,1,1,4.16,8.67,8.67,0,0,1-.79,3.76,5.34,5.34,0,0,1-2.15,2.46,7.69,7.69,0,0,1-4,1c-.31,0-.63,0-1,0l-1.47-.13q-.75-.06-1.56-.06a9.07,9.07,0,0,0-1.15.06l-1,.15a.5.5,0,0,0-.15,0h-.17c-.61,0-.91-.25-.91-.75a.71.71,0,0,1,.19-.5.62.62,0,0,1,.47-.2,3.45,3.45,0,0,1,.57.06,1.64,1.64,0,0,0,.45,0c.72,0,1.09-.54,1.09-1.6Zm1.79-.21v9a1.1,1.1,0,0,0,.95,1.19,11.5,11.5,0,0,0,1.79.08,4.57,4.57,0,0,0,3.71-1.38,6.6,6.6,0,0,0,1.39-4.37,7.05,7.05,0,0,0-.85-3.6,3.84,3.84,0,0,0-2.31-1.9,7.83,7.83,0,0,0-2.26-.28,6.43,6.43,0,0,0-2,.19C181.55,859.43,181.43,859.79,181.43,860.39Z"/>
        <path class="cls-7" d="M220.85,857.3a4.78,4.78,0,0,1,3.85,1.81v-.48a.64.64,0,0,1,0-.15c0-.32,0-.47,0-.44,0-.49.22-.74.66-.74s.7.3.7.9c0,.11,0,.45,0,1a13.54,13.54,0,0,0-.13,1.47,9.41,9.41,0,0,0,.07,1.17l.1.81v.21c0,.64-.25,1-.77,1s-.82-.3-.81-.91v-.76a3.15,3.15,0,0,0-1-2.47,3.67,3.67,0,0,0-2.62-1,3.85,3.85,0,0,0-3.29,1.62,9,9,0,0,0,0,9A4,4,0,0,0,221,871a4.1,4.1,0,0,0,2.14-.57,3.17,3.17,0,0,0,1.33-1.51,4.52,4.52,0,0,0,.25-1.67c0-.65.27-1,.81-1s.88.33.88,1a4.84,4.84,0,0,1-1.58,3.73,5.76,5.76,0,0,1-4.07,1.45,5.7,5.7,0,0,1-4.59-2,8,8,0,0,1-1.72-5.39,8.54,8.54,0,0,1,1.76-5.61A5.72,5.72,0,0,1,220.85,857.3Z"/>
        <path class="cls-7" d="M246.31,869.57l-.77-2.08a.85.85,0,0,0-.26-.43,1.23,1.23,0,0,0-.57-.08h-3.79a.94.94,0,0,0-.59.14,2.8,2.8,0,0,0-.41.81l-.62,1.64a1.29,1.29,0,0,0-.09.45c0,.46.28.68.83.68a5.38,5.38,0,0,0,.61,0,5.36,5.36,0,0,1,.59,0c.58,0,.87.25.87.74s-.32.71-1,.71l-.47,0-1.06-.14c-.2,0-.53,0-1,0s-.85,0-1,0l-.89.11c-.4,0-.69.07-.87.07-.56,0-.84-.24-.84-.71s.27-.74.81-.74a.38.38,0,0,1,.26.08h.28a1,1,0,0,0,.87-.44,5.13,5.13,0,0,0,.43-1l4-10.75a1.31,1.31,0,0,1,1.34-.9,1.26,1.26,0,0,1,1.3.89l3.82,10.57a4.31,4.31,0,0,0,.66,1.33,1.11,1.11,0,0,0,.85.31l.26,0,.59-.06c.54,0,.81.23.81.7s-.27.75-.81.75a6,6,0,0,1-.62-.05,17.67,17.67,0,0,0-2-.16c-.52,0-1.38,0-2.56.17l-.68,0c-.57,0-.85-.24-.85-.73s.31-.72.94-.72a4.79,4.79,0,0,1,.56,0,4.93,4.93,0,0,0,.57,0c.47,0,.7-.19.7-.57A3.35,3.35,0,0,0,246.31,869.57Zm-1.53-4.34-1.92-5.88-2,5.88a.79.79,0,0,0-.05.15c0,.13.11.19.32.19h3.39c.17,0,.26-.06.26-.17A1.2,1.2,0,0,0,244.78,865.23Z"/>
        <path class="cls-7" d="M262.42,869.15v-8.53c0-1-.36-1.57-1.08-1.57l-.44,0a4,4,0,0,1-.58,0c-.45,0-.67-.23-.67-.7s.31-.74.93-.74a1.77,1.77,0,0,1,.32,0l1.05.12a9,9,0,0,0,1.27.07c.36,0,.78,0,1.28-.07,1.16-.09,2-.14,2.64-.14a11.41,11.41,0,0,1,2.34.21,3.67,3.67,0,0,1,2.2,1.32,3.91,3.91,0,0,1,.8,2.47,3.64,3.64,0,0,1-1.38,3.07,6.39,6.39,0,0,1-4,1.06h-2.39a.58.58,0,0,0-.44.12,1,1,0,0,0-.09.54v.43a17.82,17.82,0,0,0,.16,3.26c.1.39.41.58.92.58a1.33,1.33,0,0,0,.45-.07l.58,0a.59.59,0,0,1,.66.68c0,.51-.32.77-.94.77l-.3,0-1.06-.15a10.69,10.69,0,0,0-1.35-.07,9.62,9.62,0,0,0-1.21.07l-1.24.17a.32.32,0,0,0-.12,0h-.15q-1,0-1-.75a.71.71,0,0,1,.19-.5.63.63,0,0,1,.47-.2,3.35,3.35,0,0,1,.57.06,1.64,1.64,0,0,0,.45,0C262.06,870.75,262.42,870.22,262.42,869.15Zm1.94-9.65a2.62,2.62,0,0,0-.15,1.17v3.15q0,.58.81.66h1.23a11.76,11.76,0,0,0,2.52-.23,2.29,2.29,0,0,0,1.89-2.49q0-2.71-3.45-2.71Q264.66,859.05,264.36,859.5Z"/>
        <path class="cls-7" d="M288.61,869.17c0,1.07.36,1.6,1.08,1.6a4.26,4.26,0,0,0,.51,0,3.28,3.28,0,0,1,.52-.06.68.68,0,0,1,.68.68q0,.75-1,.75h-.13a.5.5,0,0,0-.15,0l-1-.15a9.12,9.12,0,0,0-1.34-.09,10,10,0,0,0-1.43.09l-1.07.15a.44.44,0,0,0-.15,0H285q-.93,0-.93-.75a.6.6,0,0,1,.68-.68,3.31,3.31,0,0,1,.51.06,4.67,4.67,0,0,0,.51,0c.71,0,1.07-.53,1.07-1.6v-8.65a1.36,1.36,0,0,0-1.56-1.51h-.66a1.33,1.33,0,0,0-1.53,1.49,6.29,6.29,0,0,0,0,.72l.08.79a4,4,0,0,1,0,.53c0,.9-.27,1.35-.83,1.35s-.79-.33-.79-1c0-.19,0-.51.05-1,0-.68.06-1.12.06-1.3q0-.54,0-1.11a7.9,7.9,0,0,0-.08-1c0-.6.27-.89.81-.89l1.39.06,1.74.08h2.42l2.28,0q.41,0,1.38-.06c.58,0,1,0,1.36,0,.71,0,1.07.29,1.07.87v0c0,.14,0,.41-.06.79s-.07.8-.11,1.24v.23c0,.21,0,.55.06,1s.09,1,.09,1.11c0,.58-.28.87-.83.87s-.81-.35-.81-1.07q0-.37.06-1.14c0-.51.06-.89.06-1.15q0-1.47-1.68-1.47h-.6a1.56,1.56,0,0,0-1.12.33,1.59,1.59,0,0,0-.39,1.09l-.08,1.5Z"/>
        <path class="cls-7" d="M305.93,860.6c0-1.05-.36-1.57-1.09-1.57a1.72,1.72,0,0,0-.45,0,3.25,3.25,0,0,1-.57.06.6.6,0,0,1-.47-.2.68.68,0,0,1-.19-.5c0-.5.31-.74.94-.74a1.57,1.57,0,0,1,.29,0l1.13.15a11.41,11.41,0,0,0,1.32.08,9.46,9.46,0,0,0,1.45-.11l1-.12a1.73,1.73,0,0,1,.3,0c.63,0,.94.24.94.74a.72.72,0,0,1-.19.5.61.61,0,0,1-.47.2,3.78,3.78,0,0,1-.58-.06,1.68,1.68,0,0,0-.44,0c-.73,0-1.09.52-1.09,1.57v8.55c0,1.06.36,1.6,1.09,1.6a2.94,2.94,0,0,0,.44,0,4.48,4.48,0,0,1,.58-.06.59.59,0,0,1,.66.68c0,.51-.31.77-.94.77h-.15a.41.41,0,0,0-.15,0l-1.11-.17a7.22,7.22,0,0,0-1.17-.09,11,11,0,0,0-1.6.11l-1,.15-.14,0h-.17c-.62,0-.92-.26-.92-.77a.59.59,0,0,1,.66-.68l.57,0a1.5,1.5,0,0,0,.45.07c.73,0,1.09-.54,1.09-1.6Z"/>
        <path class="cls-7" d="M326,872.45a5.45,5.45,0,0,1-4.48-2,8.59,8.59,0,0,1-1.65-5.54,8.45,8.45,0,0,1,1.66-5.55,5.6,5.6,0,0,1,4.58-2,5.5,5.5,0,0,1,4.44,2,8,8,0,0,1,1.65,5.31,9,9,0,0,1-1.67,5.75A5.44,5.44,0,0,1,326,872.45Zm.05-13.61a3.67,3.67,0,0,0-3.18,1.57,7.54,7.54,0,0,0-1.13,4.43,7.68,7.68,0,0,0,1.13,4.49,3.87,3.87,0,0,0,6.3-.06,7.72,7.72,0,0,0,1.16-4.49,7.47,7.47,0,0,0-1.11-4.4A3.67,3.67,0,0,0,326.07,858.84Z"/>
        <path class="cls-7" d="M347.53,858.64l5.72,11.92V862c0-1.11,0-1.72,0-1.83-.12-.74-.48-1.11-1.06-1.11a4.26,4.26,0,0,0-.51.05,3,3,0,0,1-.51,0,.62.62,0,0,1-.48-.2.63.63,0,0,1-.21-.48c0-.51.32-.76,1-.76a1,1,0,0,1,.28,0l1,.12a8.47,8.47,0,0,0,1.19.09,11.87,11.87,0,0,0,1.47-.12l.75-.1h.3c.61,0,.91.24.91.73s-.29.71-.87.71H356a1,1,0,0,0-.85.28,2.66,2.66,0,0,0-.24,1.21v9.07a4.61,4.61,0,0,1-.33,2.06,1.19,1.19,0,0,1-1.14.6c-.7,0-1.29-.5-1.78-1.5L346,859.24v9.91c0,1.06.36,1.6,1.09,1.6l.51,0a4,4,0,0,1,.51,0,.61.61,0,0,1,.68.69q0,.72-1,.72h-.13l-.14,0-.88-.13a9.56,9.56,0,0,0-1.36-.11,12.62,12.62,0,0,0-1.43.11l-1,.13a.5.5,0,0,0-.15,0h-.17c-.61,0-.92-.25-.92-.75a.59.59,0,0,1,.68-.66l.58.05a1.74,1.74,0,0,0,.45.06c.72,0,1.08-.53,1.08-1.6v-8.56c0-1.07-.36-1.6-1.1-1.6a2.61,2.61,0,0,0-.42,0,4.59,4.59,0,0,1-.59.06.61.61,0,0,1-.68-.7c0-.5.31-.74.92-.74a2.38,2.38,0,0,1,.34,0c.7.07,1.25.1,1.63.1.22,0,.53,0,1-.06s.74-.06,1-.06a.85.85,0,0,1,.87.44Z"/>
        <path class="cls-7" d="M368.85,860.6c0-1.05-.36-1.57-1.08-1.57a1.72,1.72,0,0,0-.45,0,3.45,3.45,0,0,1-.58.06.61.61,0,0,1-.47-.2.72.72,0,0,1-.19-.5c0-.5.31-.74.94-.74a1.67,1.67,0,0,1,.3,0l1.13.15a11.14,11.14,0,0,0,1.32.08,9.65,9.65,0,0,0,1.45-.11l1-.12a1.57,1.57,0,0,1,.29,0c.63,0,.94.24.94.74a.68.68,0,0,1-.19.5.6.6,0,0,1-.47.2,3.67,3.67,0,0,1-.57-.06,1.72,1.72,0,0,0-.45,0c-.73,0-1.09.52-1.09,1.57v8.55c0,1.06.36,1.6,1.09,1.6a3.2,3.2,0,0,0,.45,0,4.54,4.54,0,0,1,.57-.06.59.59,0,0,1,.66.68c0,.51-.31.77-.94.77h-.14a.44.44,0,0,0-.15,0l-1.11-.17a7.31,7.31,0,0,0-1.17-.09,10.86,10.86,0,0,0-1.6.11l-1,.15a.5.5,0,0,0-.15,0H367c-.61,0-.92-.26-.92-.77a.59.59,0,0,1,.66-.68l.58,0a1.41,1.41,0,0,0,.45.07c.72,0,1.08-.54,1.08-1.6Z"/>
        <path class="cls-7" d="M388.32,858.64,394,870.56V862c0-1.11,0-1.72,0-1.83-.13-.74-.49-1.11-1.07-1.11a4.67,4.67,0,0,0-.51.05,3,3,0,0,1-.51,0,.68.68,0,0,1-.68-.68c0-.51.32-.76,1-.76a.94.94,0,0,1,.27,0l1,.12a8.69,8.69,0,0,0,1.19.09,12.15,12.15,0,0,0,1.48-.12l.74-.1h.3c.61,0,.92.24.92.73s-.29.71-.87.71h-.46a1,1,0,0,0-.84.28,2.66,2.66,0,0,0-.24,1.21v9.07a4.61,4.61,0,0,1-.33,2.06,1.22,1.22,0,0,1-1.15.6c-.7,0-1.29-.5-1.78-1.5l-5.61-11.61v9.91c0,1.06.37,1.6,1.09,1.6l.51,0a4.12,4.12,0,0,1,.51,0,.6.6,0,0,1,.68.69c0,.48-.31.72-.95.72h-.13a.5.5,0,0,0-.15,0l-.87-.13a9.69,9.69,0,0,0-1.37-.11,12.79,12.79,0,0,0-1.43.11l-1,.13a.5.5,0,0,0-.15,0h-.17c-.61,0-.92-.25-.92-.75s.23-.66.69-.66l.57.05a1.86,1.86,0,0,0,.45.06c.72,0,1.09-.53,1.09-1.6v-8.56c0-1.07-.37-1.6-1.1-1.6a2.82,2.82,0,0,0-.43,0,4.43,4.43,0,0,1-.59.06.61.61,0,0,1-.68-.7c0-.5.31-.74.92-.74a2.31,2.31,0,0,1,.34,0c.71.07,1.25.1,1.64.1.21,0,.53,0,.95-.06s.75-.06,1-.06a.85.85,0,0,1,.87.44Z"/>
        <path class="cls-7" d="M413.05,857.3a5.54,5.54,0,0,1,3.87,1.6c-.05-.2-.08-.31-.08-.34,0-.28,0-.44,0-.47a.62.62,0,0,1,.7-.7c.51,0,.77.3.77.91a2.49,2.49,0,0,1,0,.45l-.16,1a5.86,5.86,0,0,0-.07,1c0,.27,0,.85.09,1.73v.19c0,.64-.27,1-.79,1s-.75-.35-.75-1v-.64a2.93,2.93,0,0,0-1-2.33,4.2,4.2,0,0,0-5.83.75,7.29,7.29,0,0,0-1.17,4.39,7.71,7.71,0,0,0,1.21,4.62,3.87,3.87,0,0,0,3.33,1.66,3.32,3.32,0,0,0,2.54-1,3.89,3.89,0,0,0,.89-2.74,1.61,1.61,0,0,0-.24-1,1.07,1.07,0,0,0-.87-.29c-.11,0-.27,0-.49,0l-.49,0c-.68,0-1-.24-1-.73s.29-.74.87-.74a4.82,4.82,0,0,1,.62,0,17.06,17.06,0,0,0,2.15.18,13.5,13.5,0,0,0,2.22-.19,3.37,3.37,0,0,1,.58,0c.56,0,.85.23.85.7a.68.68,0,0,1-.23.51.7.7,0,0,1-.52.22h-.7c-.63,0-.94.69-.94,2.07v1.69c0,.37,0,.7,0,1s.05.53.05.7c0,.58-.26.87-.77.87a.66.66,0,0,1-.75-.75l.05-.51c0-.13,0-.35,0-.66a6.78,6.78,0,0,1-.77.91,5,5,0,0,1-3.43,1.11,5.46,5.46,0,0,1-4.43-2,8.18,8.18,0,0,1-1.68-5.35,8.66,8.66,0,0,1,1.72-5.65A5.66,5.66,0,0,1,413.05,857.3Z"/>
        <path class="cls-7" d="M450.31,869.17c0,1.07.37,1.6,1.09,1.6a4.67,4.67,0,0,0,.51,0,3.31,3.31,0,0,1,.51-.06.66.66,0,0,1,.48.2.65.65,0,0,1,.2.48c0,.5-.31.75-1,.75H452a.5.5,0,0,0-.15,0l-1.05-.15a8.92,8.92,0,0,0-1.34-.09,10.13,10.13,0,0,0-1.43.09l-1.06.15a.44.44,0,0,0-.15,0h-.15c-.62,0-.94-.25-.94-.75a.6.6,0,0,1,.68-.68,3.28,3.28,0,0,1,.52.06,4.26,4.26,0,0,0,.51,0c.71,0,1.06-.53,1.06-1.6v-8.65A1.35,1.35,0,0,0,447,859h-.66c-1,0-1.54.49-1.54,1.49,0,.35,0,.59,0,.72l.09.79c0,.13,0,.31,0,.53,0,.9-.28,1.35-.83,1.35s-.79-.33-.79-1c0-.19,0-.51,0-1,.05-.68.07-1.12.07-1.3,0-.36,0-.73,0-1.11-.05-.75-.07-1.07-.07-1,0-.6.27-.89.81-.89l1.38.06,1.75.08h2.42l2.28,0q.4,0,1.38-.06c.58,0,1,0,1.36,0,.71,0,1.07.29,1.07.87v0c0,.14,0,.41-.06.79s-.07.8-.12,1.24v.23c0,.21,0,.55.07,1s.08,1,.08,1.11c0,.58-.27.87-.83.87s-.81-.35-.81-1.07c0-.25,0-.63.07-1.14s.06-.89.06-1.15q0-1.47-1.68-1.47h-.6a1.61,1.61,0,0,0-1.13.33,1.59,1.59,0,0,0-.38,1.09l-.09,1.5Z"/>
        <path class="cls-7" d="M471.41,872.45a5.47,5.47,0,0,1-4.49-2,10.12,10.12,0,0,1,0-11.09,5.61,5.61,0,0,1,4.58-2,5.5,5.5,0,0,1,4.45,2,8,8,0,0,1,1.65,5.31,9.1,9.1,0,0,1-1.67,5.75A5.47,5.47,0,0,1,471.41,872.45Zm0-13.61a3.67,3.67,0,0,0-3.17,1.57,7.46,7.46,0,0,0-1.13,4.43,7.6,7.6,0,0,0,1.13,4.49,3.86,3.86,0,0,0,6.29-.06,7.64,7.64,0,0,0,1.16-4.49,7.55,7.55,0,0,0-1.1-4.4A3.67,3.67,0,0,0,471.45,858.84Z"/>
        <path class="cls-7" d="M493.55,872.45a5.47,5.47,0,0,1-4.49-2,8.59,8.59,0,0,1-1.65-5.54,8.45,8.45,0,0,1,1.66-5.55,5.61,5.61,0,0,1,4.58-2,5.5,5.5,0,0,1,4.45,2,8,8,0,0,1,1.65,5.31,9.1,9.1,0,0,1-1.67,5.75A5.47,5.47,0,0,1,493.55,872.45Zm0-13.61a3.67,3.67,0,0,0-3.17,1.57,7.46,7.46,0,0,0-1.13,4.43,7.6,7.6,0,0,0,1.13,4.49,3.86,3.86,0,0,0,6.29-.06,7.64,7.64,0,0,0,1.16-4.49,7.55,7.55,0,0,0-1.1-4.4A3.67,3.67,0,0,0,493.59,858.84Z"/>
        <path class="cls-7" d="M513.73,868.86c0,.83.08,1.33.25,1.48a.87.87,0,0,0,.5.24,13.47,13.47,0,0,0,1.4,0h1.87a3.37,3.37,0,0,0,2-.39,1.94,1.94,0,0,0,.49-1.57c0-.21,0-.45,0-.73,0-.55,0-.88,0-1,0-.62.25-.92.75-.92s.89.28.89.85a3.9,3.9,0,0,1,0,.4l-.15,1.09a7.7,7.7,0,0,0-.06,1c0,.2,0,.49.05.89s0,.68,0,.88q0,1-1.08,1c-.15,0-.47,0-1-.08-.34,0-.87,0-1.58-.07h-5c-.34,0-.91,0-1.7.08l-.59,0-.65,0c-.6,0-.89-.26-.89-.77a.59.59,0,0,1,.66-.68,3.31,3.31,0,0,1,.51.06,2.58,2.58,0,0,0,.51.07c.72,0,1.09-.54,1.09-1.6V860.6c0-1.05-.37-1.57-1.09-1.57a1.72,1.72,0,0,0-.45,0,3.45,3.45,0,0,1-.57.06.6.6,0,0,1-.47-.2.68.68,0,0,1-.19-.5c0-.5.3-.74.91-.74a2,2,0,0,1,.32,0l1.13.12a11.68,11.68,0,0,0,1.39.11,9.32,9.32,0,0,0,1.36-.11l1-.12a1.52,1.52,0,0,1,.28,0c.64,0,1,.24,1,.74a.69.69,0,0,1-.2.5.58.58,0,0,1-.46.2,3.66,3.66,0,0,1-.58-.06,1.72,1.72,0,0,0-.45,0c-.72,0-1.08.52-1.08,1.57Z"/>
        <path class="cls-7" d="M537,857.3a4.6,4.6,0,0,1,3.41,1.34v-.29q0-.84.66-.84c.48,0,.72.31.72.92v.13s0,.24-.06.64a14.21,14.21,0,0,0-.07,1.43c0,.07,0,.29,0,.68l.06.85a1.24,1.24,0,0,1,0,.3c0,.68-.26,1-.79,1a.74.74,0,0,1-.83-.85v-.11l0-.57c0-.2,0-.36,0-.47a2.46,2.46,0,0,0-.87-2,3.52,3.52,0,0,0-2.37-.73,3.37,3.37,0,0,0-2.21.68,2.3,2.3,0,0,0-.82,1.84,2.11,2.11,0,0,0,1.22,2,9.36,9.36,0,0,0,2.38.61,8.45,8.45,0,0,1,3.48,1.11,3.5,3.5,0,0,1,1.4,3,4.13,4.13,0,0,1-1.43,3.26,5.43,5.43,0,0,1-3.71,1.26,5.56,5.56,0,0,1-4-1.53v.31a2,2,0,0,1,.08.44.69.69,0,0,1-.78.78.78.78,0,0,1-.86-.89.24.24,0,0,1,.07-.17l.1-1.11c0-.56.07-.91.07-1.07a10.18,10.18,0,0,0-.12-1.28,9.9,9.9,0,0,1-.12-1.27q0-1,.81-1c.56,0,.83.32.83,1v.88a3.24,3.24,0,0,0,1,2.54,3.9,3.9,0,0,0,2.76.94,4,4,0,0,0,2.57-.76,2.52,2.52,0,0,0,1-2.09c0-1.35-.85-2.17-2.55-2.47l-1.22-.22a13.7,13.7,0,0,1-2.81-.74,3.21,3.21,0,0,1-1.46-1.27,3.6,3.6,0,0,1-.54-2,3.83,3.83,0,0,1,1.36-3A5.25,5.25,0,0,1,537,857.3Z"/>
      </g>
    </g>
  </g>
  <g>
    <g>
      <path class="cls-8" d="M423.76,631.82a111.61,111.61,0,0,1-13.36-.91,166.69,166.69,0,0,1-28.25-6.15c-18.63-5.69-35.29-11.37-50.44-23.33-5.31-4.18-10-9.72-11-12.9a12.07,12.07,0,0,0-11.38-9,11.7,11.7,0,0,0-4.55.94c-2.76,1.17-5,3.47-6.82,7a42.25,42.25,0,0,1-3.17,4.35l-.46.58c-3.16,4-5.8,6.24-9.85,9.51-14.38,11.58-29.79,19.3-48.51,24.28-10.06,2.68-19.13,4.93-28.33,5.26-1.76.07-4.08.14-6.34.14-.91,0-1.78,0-2.63,0a24.4,24.4,0,0,0,6.81-7.32,5.75,5.75,0,0,0-4.9-8.7,5.57,5.57,0,0,0-2.27.48c-7.1,3.08-19.75,3.32-23.46,3.32-.81,0-1.51,0-2.07,0-21.79-.52-41.86-7-56.52-18.18-13.68-10.46-23.45-26.6-26.8-44.3-.09-.45-.17-.91-.25-1.36A37.56,37.56,0,0,0,108,571.55a82.1,82.1,0,0,0,31.27,6.54,60.06,60.06,0,0,0,32.31-9c7.8-4.85,15.18-11.71,22.58-21,2.38-3,4.6-6.11,6.75-9.12l2.38-3.32a69,69,0,0,1,10-11c8.92-8,17-13.46,25.53-17.33,2.4-1.1,4.85-2.07,7.28-2.91A25.6,25.6,0,0,0,256.57,515a21.43,21.43,0,0,0,7.9,2.58c.28,0,.56,0,.83,0a11.86,11.86,0,0,0,4.54-1.05,6.41,6.41,0,0,1,1.31-.44l.5,0c2,0,4,1.31,6.63,4.25l.16.18c2.93,3.3,6,6.7,10.3,9.22a33.38,33.38,0,0,0,13.86,4.35c.82.07,1.64.11,2.46.11,9.79,0,19.05-4.87,25.41-13.34.53-.71,1-1.47,1.47-2.19a11.66,11.66,0,0,1,2.11-2.78,2,2,0,0,1,1.67-.51,2.88,2.88,0,0,1,1.6.9l1.11,1.72,2,.26a6.52,6.52,0,0,0,.91.06c3.53,0,8.55-3,9.6-3.79,5.05-3.6,6-7.93,5.84-10.93-.33-7.92-8.28-14.71-12.92-17.47a70.84,70.84,0,0,0-7.46-3.71l-.19-.08c-.34-.16-.69-.3-1-.45a13.42,13.42,0,0,1-3.17-1.67c-.21-.18-.3-.61-.45-2.16,0-.42-.08-.83-.13-1.26a42.3,42.3,0,0,0-1.79-8.21,58.4,58.4,0,0,0-4.75-10.11c-1-1.76-1.89-3.42-2.68-5.11a42.05,42.05,0,0,1-3.78-14,67.64,67.64,0,0,1,3.87-28.77,75.54,75.54,0,0,1,6.81-14.11c.25-.41.53-.8.81-1.2a21.68,21.68,0,0,0,1.75-2.79c1.26-2.5.85-4.93-1.21-7.21l-.26-.28a44.87,44.87,0,0,0-5.41-5.44,26.12,26.12,0,0,0-15.61-6.4l-.89,0c-4.93,0-10,1.51-15.49,4.61a68,68,0,0,0-12.76,9.09c-4.68,4.34-6.38,10.22-5.06,17.47.2,1.12.43,2.23.67,3.36.85,4.11,1.66,8,.87,11.56-.5,2.26-1.94,4.28-3.61,6.62a42.38,42.38,0,0,0-3.45,5.43c-.75,1.47-1.3,2.78-1.79,3.94s-.82,1.92-1.19,2.6l-.45.8-.1.92c0,.12,0,.24,0,.36a2.36,2.36,0,0,1-1.81,1.66l-.35,0a2.32,2.32,0,0,1-.81-.15l-.16-.05h0s0,0-.08-.06l-.27-.17a55,55,0,0,1-4.68-3.82l-.1-.09-.11-.08c-6.35-4.95-17-5.69-22.83-5.69a69.44,69.44,0,0,0-12.15,1.06c-3.76.69-7.44,1.62-11,2.51-6.7,1.7-13,3.29-19.59,3.29h-.81a41.66,41.66,0,0,1-14.37-2.81,51,51,0,0,1-10.23-5.8c1.1-1.43,2.25-2.8,3.43-4.07a49.07,49.07,0,0,1,9.83-8.21,41.22,41.22,0,0,1,22-6.42,39.25,39.25,0,0,1,4.2.22c4.79.51,9.16,2.08,14,3.92a31.15,31.15,0,0,0,11.13,2c.85,0,1.7,0,2.55-.11,10.28-.81,18.29-6.67,20.92-15.29l1.87-6.15L250,396h-.65c-6.1,0-10.41-4.8-15-10.6-5-6.26-11.29-13-20.24-15.5a83.51,83.51,0,0,0-22.4-3.16,69.26,69.26,0,0,0-46.35,17.14,21,21,0,0,1,4.58-8.52L156.8,368l-10.07-.2c-2.2,0-4.31-.13-6.29-.27a26.82,26.82,0,0,0,4.72-4.44,11.07,11.07,0,0,0,1.44-12.25,15.53,15.53,0,0,0-4.72-5.44,28.07,28.07,0,0,0-4.21-2.69c-.27-.13-28.18-13.4-49.53-28A83,83,0,0,1,73.2,301.93a34.17,34.17,0,0,1,10.31-53.16,35.14,35.14,0,0,1,15.43-3.55,34.34,34.34,0,0,1,15.29,3.54A70.11,70.11,0,0,1,125,255.93c2,1.47,4,3,6.06,4.41,12.77,8.65,81.29,51.76,177.54,51.76,64.71,0,126.63-19.12,184-56.83,14.61-9.59,19.19-9.59,24-9.59,23.66,0,34.68,20.69,34.68,34.67,0,19.31-13.65,28.11-28.1,37.42l-.85.56a465,465,0,0,1-45,25.18l-.11.06-.11.06a42,42,0,0,0-4.49,2.79,11.76,11.76,0,0,0-4.82,8.23,11.6,11.6,0,0,0,2.79,9,26.5,26.5,0,0,0,4.3,3.92c-2.36.17-4.9.26-7.58.29l-6.29.07,2.09,5.93c2.15,6.08,6.9,9.82,11.24,12.07a15.77,15.77,0,0,0-2.19,6.24,16.24,16.24,0,0,0,2.07,10.28c-.56.66-1.14,1.4-1.76,2.26a37.57,37.57,0,0,0-1.16,46.85,102.13,102.13,0,0,1-2.73,10.9c-5.74,19.51-23,36.63-45.15,44.7-.51.18-1.14.36-1.79.54a19.2,19.2,0,0,0-5,1.94,10,10,0,0,0-4.1,12.07c1.37,3.44,4.26,5.14,6.38,6.39l.6.36A68.47,68.47,0,0,1,426,533a110.68,110.68,0,0,1,13.11,11.89c2,2.12,3.78,4.4,5.68,6.82s3.66,4.65,5.71,6.9c10.16,11.09,25.05,17.45,40.87,17.45A55.16,55.16,0,0,0,516,570.32a39.53,39.53,0,0,0,16.76-15.74,84.4,84.4,0,0,1-7,24c-9.25,20-25.36,34.11-45.37,39.61A110.39,110.39,0,0,1,451.63,622c-.79,0-1.57,0-2.36,0-10.44-.23-19-2.33-25.49-6.26a5.21,5.21,0,0,0-2.71-.76,5.26,5.26,0,0,0-4.42,2.45,5.14,5.14,0,0,0-.26,5,25,25,0,0,0,8.07,9.38ZM125.47,537.26a17.27,17.27,0,0,1-7.93-1.94,19,19,0,0,1-10.15-15.66c0-.31,0-.65,0-1,0-1.83.06-4.6-1.81-7A7.63,7.63,0,0,0,103.8,510q1.83-1.67,3.84-3.17c4.07-3,10.44-6.63,17.68-6.63a21.26,21.26,0,0,1,6,.86,18.69,18.69,0,0,1,12.89,15.09A17.55,17.55,0,0,1,140,530.43,19.49,19.49,0,0,1,125.47,537.26Zm377.68-17.21a9.3,9.3,0,0,1-8.92-6.8,8.31,8.31,0,0,1,1.47-7.46,10,10,0,0,1,10.65-3.43,25.74,25.74,0,0,1,8.41,4.83A8.49,8.49,0,0,0,512,512c-.46,2.33-1.92,6.42-6.58,7.7A8.51,8.51,0,0,1,503.15,520.05Z"/>
      <path class="cls-9" d="M98.94,249.72h0a29.94,29.94,0,0,1,13.28,3.06,67.43,67.43,0,0,1,10.06,6.74c2,1.51,4.07,3.07,6.26,4.56,6.84,4.63,25.8,16.63,54.14,28A337.52,337.52,0,0,0,308.59,316.6a325.26,325.26,0,0,0,97.15-14.7c30.5-9.53,60.57-23.95,89.36-42.87,13.49-8.85,17.24-8.85,21.58-8.85a28.43,28.43,0,0,1,22.52,10.34,32.5,32.5,0,0,1,7.65,19.83c0,16.86-12.06,24.64-26,33.64l-.85.55a459.45,459.45,0,0,1-44.48,24.91l-.23.11-.22.12a48.22,48.22,0,0,0-5,3.08,16.28,16.28,0,0,0-5,20.62l-10.32.11L459,375.35a25.15,25.15,0,0,0,9.72,12.34,20.44,20.44,0,0,0-.89,3.9,20.68,20.68,0,0,0,1.27,10.28l-.05.07a42.19,42.19,0,0,0-2.41,50.67c-.45,2.1-1.07,4.58-2.25,8.57C459,479.34,442.76,495.33,422,502.92c-.35.13-.88.27-1.45.43a23.47,23.47,0,0,0-6.15,2.43,14.49,14.49,0,0,0-6,17.57c1.93,4.88,5.9,7.22,8.28,8.62l.56.33a67.32,67.32,0,0,1,6,4.25A106.67,106.67,0,0,1,435.78,548c1.86,2,3.6,4.19,5.44,6.52s3.76,4.78,5.93,7.15c11,12,27.1,18.92,44.18,18.92A59.74,59.74,0,0,0,518,574.34a45,45,0,0,0,6.17-3.73c-.75,2-1.6,4.08-2.53,6.1-8.68,18.83-23.76,32-42.47,37.16a105.66,105.66,0,0,1-27.54,3.66c-.75,0-1.51,0-2.26,0-9.65-.21-17.47-2.1-23.25-5.61a9.79,9.79,0,0,0-5.05-1.41,9.69,9.69,0,0,0-8.73,13.92c.39.8.82,1.59,1.28,2.34l-2.68-.3a162.56,162.56,0,0,1-27.47-6c-18.2-5.56-34.44-11.09-49-22.56-5.27-4.15-8.91-8.93-9.42-10.65-2.17-7.31-8.48-12.22-15.7-12.22a16.08,16.08,0,0,0-6.3,1.3c-3.71,1.57-6.75,4.62-9.06,9.09-.43.76-2.08,2.85-2.71,3.64l-.47.6c-2.86,3.65-5.22,5.62-9.14,8.77-13.87,11.18-28.75,18.63-46.84,23.45-9.17,2.44-17.48,4.51-25.66,5l.19-.32a10.25,10.25,0,0,0-8.76-15.52,10,10,0,0,0-4.06.85c-4.19,1.82-12.49,3-21.67,3-.77,0-1.43,0-2,0-20.84-.5-40-6.63-53.89-17.26a67.06,67.06,0,0,1-20.09-25.65,47.77,47.77,0,0,0,7.33,3.79,86.43,86.43,0,0,0,33,6.88A64.48,64.48,0,0,0,173.94,573c8.24-5.13,16-12.32,23.71-22,2.47-3.09,4.73-6.26,6.91-9.32.78-1.1,1.56-2.19,2.35-3.28a64.57,64.57,0,0,1,9.33-10.24c8.58-7.64,16.34-12.92,24.41-16.6,1.18-.54,2.36-1,3.56-1.52a29.58,29.58,0,0,0,10.28,9,25.65,25.65,0,0,0,9.57,3.07c.41,0,.83.06,1.24.06a16.16,16.16,0,0,0,6.21-1.37l.27-.11c.32.12,1.29.63,3.13,2.7l.17.19c3,3.39,6.43,7.24,11.41,10.12a38.08,38.08,0,0,0,15.74,4.94c.94.08,1.89.12,2.83.12,11.22,0,21.79-5.52,29-15.14.5-.66.94-1.33,1.33-1.95l.35.53,4.07.58a11.17,11.17,0,0,0,1.54.1c5.67,0,12.15-4.58,12.22-4.63,5.21-3.72,7.95-9,7.71-14.77-.38-9.21-8.38-17.16-15.1-21.16a73.28,73.28,0,0,0-7.95-3.95l-.17-.08-1.09-.48c-.29-.12-.63-.26-1-.41,0-.36-.07-.72-.12-1.09a47.31,47.31,0,0,0-2-9.07,64.22,64.22,0,0,0-5.09-10.87c-.93-1.69-1.82-3.29-2.55-4.86A37.47,37.47,0,0,1,322.93,439a63,63,0,0,1,3.63-26.84A70.62,70.62,0,0,1,333,398.86c.15-.24.39-.59.65-1a25,25,0,0,0,2.08-3.33c1.24-2.44,2.63-7.28-1.89-12.27l-.16-.18a48.28,48.28,0,0,0-6-6,30.59,30.59,0,0,0-18.3-7.43l-1.06,0c-5.73,0-11.52,1.7-17.7,5.19A72.2,72.2,0,0,0,277,383.58c-4,3.75-8.43,10.53-6.43,21.57.22,1.19.46,2.34.69,3.46.75,3.63,1.47,7.06.89,9.67-.3,1.37-1.5,3.05-2.88,5a47.08,47.08,0,0,0-3.81,6c-.81,1.6-1.42,3.05-1.91,4.21-.36.83-.69,1.62-.95,2.1-.55-.46-1.17-1-1.86-1.6l-.2-.18-.21-.16c-7.42-5.78-19.22-6.64-25.59-6.64a73,73,0,0,0-13,1.14c-3.91.71-7.66,1.66-11.28,2.57-6.42,1.62-12.48,3.15-18.49,3.15h-.72a37.24,37.24,0,0,1-12.81-2.5,35.22,35.22,0,0,1-5.17-2.6l0,0a44.7,44.7,0,0,1,8.92-7.46,36.76,36.76,0,0,1,19.57-5.73,35.51,35.51,0,0,1,3.72.19c4.25.46,8.33,1.92,12.83,3.65a35.53,35.53,0,0,0,12.74,2.33c1,0,1.94,0,2.91-.12,12.16-1,21.69-8,24.86-18.47l3.74-12.29-12.83.68h-.41c-3.72,0-6.91-3.12-11.51-8.9-5.43-6.83-12.36-14.19-22.55-17a88.06,88.06,0,0,0-23.62-3.33,76.38,76.38,0,0,0-28.36,5.35l3.63-3.9-16.57-.32a15.52,15.52,0,0,0,.21-14.62,20.14,20.14,0,0,0-6.09-7,33.26,33.26,0,0,0-4.92-3.11c-.27-.13-27.83-13.23-48.92-27.62a78.1,78.1,0,0,1-14.11-12.11,29.68,29.68,0,0,1,8.94-46.13,30.57,30.57,0,0,1,13.44-3.09m26.38,255a16.85,16.85,0,0,1,4.73.68,14.13,14.13,0,0,1,9.7,11.43,13.22,13.22,0,0,1-3.19,10.64,14.91,14.91,0,0,1-11.09,5.27,12.79,12.79,0,0,1-5.87-1.44,14.44,14.44,0,0,1-7.72-11.88v-.72a15.63,15.63,0,0,0-1.67-8.15l.11-.09c3.53-2.62,9-5.74,15-5.74m378.26,1.73a5.34,5.34,0,0,1,1.53.22,14.84,14.84,0,0,1,3.41,1.58,13.69,13.69,0,0,0-.9,2.89c-.69,3.5-2.71,4.05-3.37,4.24a4.11,4.11,0,0,1-1.1.15,4.79,4.79,0,0,1-4.56-3.44,3.87,3.87,0,0,1,.67-3.57,5.54,5.54,0,0,1,4.32-2.07M98.94,240.72a39.37,39.37,0,0,0-17.42,4,38.68,38.68,0,0,0-11.69,60.18A87.48,87.48,0,0,0,85.6,318.48c20.33,13.88,46.71,26.71,50.15,28.33a28.49,28.49,0,0,1,3.51,2.28,10.9,10.9,0,0,1,3.35,3.86,6.65,6.65,0,0,1-.9,7.29c-3.2,3.83-8.92,8.11-18.53,8.11h-.54c5.75,3.07,16.67,3.84,24,4-6,6.48-7.35,16.12-7.57,25.2,11.09-15.36,29.77-26.25,52.62-26.25a78.6,78.6,0,0,1,21.2,3c7.64,2.13,13.13,7.94,17.93,14s10.29,12.3,18.55,12.3c.29,0,.59,0,.89,0-2.29,7.52-9.48,11.52-17,12.12-.74.06-1.47.09-2.2.09a26.45,26.45,0,0,1-9.52-1.74c-5-1.91-9.73-3.62-15.09-4.19a45.36,45.36,0,0,0-29,6.87,53.28,53.28,0,0,0-10.73,9,62.06,62.06,0,0,0-4.51,5.47,25.33,25.33,0,0,0-1.54,2.85s1.53,1.23,2,1.58a60.23,60.23,0,0,0,12.49,7.22,46.09,46.09,0,0,0,15.92,3.11h.9c10.84,0,20.83-3.94,31.39-5.87a64.87,64.87,0,0,1,11.35-1c8,0,15.84,1.45,20.06,4.74a57.66,57.66,0,0,0,5.06,4.12c.18.12.36.24.55.35a4.47,4.47,0,0,0,1,.48,6.75,6.75,0,0,0,2.35.42,7.37,7.37,0,0,0,1-.08,6.82,6.82,0,0,0,5.62-5.62c0-.13,0-.25,0-.39,1-1.76,1.7-4,3.06-6.68,2.3-4.54,6.32-8,7.45-13.12,1.24-5.6-.52-11.21-1.51-16.69-.93-5.1-.24-9.72,3.69-13.37A64.08,64.08,0,0,1,295,381.7c4.06-2.29,8.57-4,13.27-4H309a21.73,21.73,0,0,1,12.9,5.37,40.25,40.25,0,0,1,4.87,4.9c.81.94,1.47,1.36.87,2.55s-1.63,2.44-2.37,3.65a79.62,79.62,0,0,0-7.22,15,71.93,71.93,0,0,0-4.11,30.7,46.54,46.54,0,0,0,4.18,15.47c2.33,5,5.52,9.49,7.24,14.71a39.42,39.42,0,0,1,1.59,7.36c.29,2.38.16,4.63,2.15,6.32a21.5,21.5,0,0,0,5.26,2.77,70.54,70.54,0,0,1,7.19,3.55c6.89,4.1,16.11,14.21,6.77,20.88-1.28.91-5.14,3-7,3a1.23,1.23,0,0,1-.28,0,7.18,7.18,0,0,0-5.29-2.92h-.07a6.19,6.19,0,0,0-4.2,1.28c-2,1.36-3.25,4.13-4.65,6-5.25,7-13.11,11.54-21.81,11.54-.69,0-1.39,0-2.09-.09a28.8,28.8,0,0,1-12-3.76c-3.8-2.2-6.49-5.27-9.36-8.5-2.64-3-5.88-5.76-10-5.76-.32,0-.63,0-1,.05-2,.21-3.43,1.47-5.39,1.47l-.42,0a17.4,17.4,0,0,1-6.24-2.1,21.5,21.5,0,0,1-9.51-10.41c-.33-.75-.3-1.24-1.14-1.38h-.19a12.09,12.09,0,0,0-3,1c-2.68.91-5.32,2-7.9,3.14-9.89,4.52-18.56,10.86-26.66,18.07a73.61,73.61,0,0,0-10.63,11.68c-3,4.11-5.83,8.3-9,12.27-6.11,7.65-13.08,14.76-21.44,20a55.8,55.8,0,0,1-29.93,8.28,78.1,78.1,0,0,1-29.55-6.2,32.87,32.87,0,0,1-17.9-16.81,34.57,34.57,0,0,1-1-25.36,38.6,38.6,0,0,1,3.28-6.75C95,516.9,96,515,97.53,513.94a3.71,3.71,0,0,1,2.07-.64,3,3,0,0,1,2.42,1.15c1.17,1.5.79,3.69.87,5.44a23.5,23.5,0,0,0,12.59,19.43,21.68,21.68,0,0,0,10,2.44c13.19,0,25.32-11.93,23.18-26.24a23.14,23.14,0,0,0-16.08-18.74,25.78,25.78,0,0,0-7.25-1c-7.33,0-14.37,3.06-20.37,7.52a52.55,52.55,0,0,0-17.41,22.53c-4,10.12-4.48,21.28-2.47,31.9,3.5,18.43,13.54,35.6,28.5,47,16.73,12.79,38.3,18.61,59.14,19.11.59,0,1.33,0,2.18,0,6,0,17.91-.51,25.25-3.7a1.18,1.18,0,0,1,.48-.1,1.25,1.25,0,0,1,1,1.88c-4,6.66-11.88,10.45-20.46,10.45h-.48c6.36,3,13.36,3.74,20.61,3.74,2.15,0,4.32-.06,6.51-.14,9.9-.36,19.75-2.86,29.31-5.41,18.83-5,34.89-12.81,50.18-25.13,4.32-3.48,7.15-5.86,10.57-10.23a48,48,0,0,0,4.09-5.65c1-1.88,2.4-4,4.58-4.95a7.23,7.23,0,0,1,2.79-.58c3.18,0,6,2.25,7.07,5.79,1.42,4.78,7.4,11.14,12.48,15.15,15.94,12.57,33.45,18.45,51.92,24.09a169.4,169.4,0,0,0,29,6.31,113.37,113.37,0,0,0,13.91,1c1,0,2,0,2.95-.05,5.08-.19,11-.88,15.26-3.89-.53,0-1.05.06-1.57.06-8.39,0-16.43-4.7-20-12a.69.69,0,0,1,.63-1,.74.74,0,0,1,.37.1c8.26,5,18.19,6.71,27.74,6.92.81,0,1.63,0,2.45,0a113.89,113.89,0,0,0,29.92-4c21.84-6,38.85-21.65,48.27-42.07,9.12-19.79,11.89-44-.05-63.21a51,51,0,0,0-9.34-11.16c-3.63-3.24-8.1-6.71-12.84-8.07a14.34,14.34,0,0,0-4-.57c-8.6,0-16.11,7.7-13.7,16.91a13.82,13.82,0,0,0,13.27,10.17,13.18,13.18,0,0,0,3.5-.48c5.53-1.53,8.76-5.92,9.8-11.17a3.28,3.28,0,0,1,3.07-3,3.09,3.09,0,0,1,.66.07c2.1.4,3.93,3.16,5.17,4.73a35.06,35.06,0,0,1,6.75,29.33A34.06,34.06,0,0,1,514,566.3a50.56,50.56,0,0,1-22.63,5.25c-14,0-28-5.54-37.55-16-4-4.4-7.34-9.39-11.43-13.75a114.34,114.34,0,0,0-13.64-12.38,71.18,71.18,0,0,0-6.82-4.84c-1.94-1.16-4.22-2.3-5.11-4.55a5.43,5.43,0,0,1,2.24-6.55c1.8-1.1,4.08-1.4,6-2.12,22-8,41.33-25.24,47.93-47.65a104.27,104.27,0,0,0,3.22-13.44c-9.51-10.45-11.54-29.35-.09-42.81a20.23,20.23,0,0,1,3.31-3.8,1.16,1.16,0,0,0,.14-1.64c-4.47-4.94-3.89-13.25,1.92-17.07l1-.73c-5.75-1.52-12.73-5.21-15.08-11.88,7.27-.08,19.22-.74,25.33-4h-.55c-9.25,0-14.9-4-18.17-7.68a7.24,7.24,0,0,1,1.27-10.6,39,39,0,0,1,4-2.49,469.44,469.44,0,0,0,45.49-25.47c14.74-9.51,31-19.56,31-41.76,0-16.06-12.94-39.17-39.17-39.17-5.72,0-11.09.2-26.52,10.33-55.83,36.67-115.93,56.09-181.57,56.09-99.82,0-168.86-46.81-175-51-5.77-3.91-11.09-8.78-17.34-11.89a38.86,38.86,0,0,0-17.3-4Z"/>
    </g>
    <g>
      <path class="cls-8" d="M308.37,291.4c-89,0-152.84-38.4-176.15-54.91a4.87,4.87,0,0,1-2.05-3.85c-.34-10.43,1.85-25.32,1.87-25.47,3.37-25.7,17.15-64.46,45.74-96.43,32.84-36.72,78-56.52,130.67-57.27l2.53,0c45.5,0,88.89,18,122.19,50.62,29.57,29,48.88,67.77,51.65,103.73,0,.22,1.54,17.44,1.54,25.61a4.47,4.47,0,0,1-1.15,2.74c-7.46,5.37-28.1,19.2-58.68,31.68A311.61,311.61,0,0,1,308.37,291.4Z"/>
      <path class="cls-9" d="M311,58a165.91,165.91,0,0,1,66.55,13.77A173.93,173.93,0,0,1,430,107.29c28.81,28.25,47.62,66,50.32,100.86v.1c0,.17,1.46,16.63,1.51,24.76-7.88,5.61-27.84,18.74-57,30.66A307.24,307.24,0,0,1,308.37,286.9a305.78,305.78,0,0,1-106.93-19.43,296.69,296.69,0,0,1-66.62-34.65.44.44,0,0,1-.15-.33c-.33-10,1.8-24.51,1.82-24.66v-.15c3.28-25,16.72-62.74,44.62-93.94a163.78,163.78,0,0,1,51.83-39C255.48,64,280.9,58.36,308.51,58L311,58m0-9-2.59,0C185,50.72,134.81,151.44,127.59,206.51c0,0-2.28,15.31-1.91,26.28a9.41,9.41,0,0,0,3.94,7.38c29.62,21,93.95,55.73,178.75,55.73,95.68,0,164.11-45,179.47-56.1a8.63,8.63,0,0,0,3-6.39c0-8.47-1.55-26-1.55-26C483.68,134.53,413.06,49,311,49Z"/>
    </g>
  </g>
  <path class="cls-10" d="M512.41,395.73a10.22,10.22,0,0,0-4.37-8.49c-2.36-1.6-7.25-1.35-7.75-1.35H488.94a8.74,8.74,0,0,0-8.68,9.56,9,9,0,0,0,9.15,7.89h2.42a3.14,3.14,0,0,1,3.14,3.13v1.73a9,9,0,0,0,7.88,9.16,8.75,8.75,0,0,0,9.56-8.69Z"/>
  <path class="cls-11" d="M505,551.19a6.78,6.78,0,1,0-7.76-7.76A6.82,6.82,0,0,0,505,551.19Z"/>
  <path class="cls-10" d="M511.5,429a7.64,7.64,0,1,0-8.75,8.74A7.68,7.68,0,0,0,511.5,429Z"/>
  <path class="cls-10" d="M511.5,453.41a7.64,7.64,0,1,0-8.75,8.74A7.67,7.67,0,0,0,511.5,453.41Z"/>
  <path class="cls-10" d="M505.17,471.47a7.64,7.64,0,1,0,6.33,6.33A7.64,7.64,0,0,0,505.17,471.47Z"/>
  <path class="cls-12" d="M504,629.72a5.4,5.4,0,1,0,5.4,5.4A5.4,5.4,0,0,0,504,629.72Z"/>
  <path class="cls-8" d="M477.77,420.81h0v0Z"/>
  <circle class="cls-13" cx="503.96" cy="590.41" r="5.23"/>
  <path class="cls-14" d="M457.61,434.52A61.06,61.06,0,1,1,340.3,410.76c9.27-21.92,58.54-5.5,96.34-22.29A60.89,60.89,0,0,1,457.61,434.52Z"/>
  <path class="cls-8" d="M335,485.7a6.78,6.78,0,1,0-7.76-7.76A6.82,6.82,0,0,0,335,485.7Z"/>
  <path class="cls-8" d="M272.18,524.91a6.77,6.77,0,1,0-7.76-7.76A6.79,6.79,0,0,0,272.18,524.91Z"/>
  <g class="cls-15">
    <path class="cls-3" d="M522.37,887.35a4,4,0,0,1-2.43-.86c-5.35-4.41-13.85-7-29.93-7-17,0-30.87,3.47-30.87,7.74,0,2.89,6.29,5.4,15.6,6.73a.45.45,0,0,1,0,.89c-2.93.55-4.84,1.42-4.84,2.41,0,1.66,5.37,3,12,3s12-1.35,12-3c0-.91,3.48-2.45,6.81-2.77a8,8,0,0,1,3.27.37c3.47,1.17,9,1.92,15.25,1.92,10.51,0,19-2.14,19-4.77C538.26,889.69,531.38,887.73,522.37,887.35Z"/>
    <path class="cls-3" d="M478.22,902.31c-1.92,0-3.48.45-3.48,1s1.56,1,3.48,1,3.49-.45,3.49-1S480.15,902.31,478.22,902.31Z"/>
    <path class="cls-3" d="M457.36,904.8a9.26,9.26,0,0,0-2.54.32.28.28,0,0,0,0-.13c0-.55-1.56-1-3.48-1s-3.49.45-3.49,1,1.56,1,3.49,1a8.94,8.94,0,0,0,2.54-.32.43.43,0,0,0-.05.13c0,.56,1.56,1,3.49,1s3.49-.45,3.49-1S459.29,904.8,457.36,904.8Z"/>
    <path class="cls-3" d="M440.11,903c-1.3,0-2.37.34-2.37.77s1.07.77,2.37.77,2.37-.34,2.37-.77S441.42,903,440.11,903Z"/>
    <path class="cls-3" d="M496.76,897.78c-1.31,0-2.37.35-2.37.77s1.06.77,2.37.77,2.37-.34,2.37-.77S498.07,897.78,496.76,897.78Z"/>
    <path class="cls-3" d="M523,876.69c-1.31,0-2.37.34-2.37.77s1.06.77,2.37.77,2.37-.35,2.37-.77S524.32,876.69,523,876.69Z"/>
    <path class="cls-3" d="M459.14,884.92c-1.31,0-2.37.35-2.37.77s1.06.77,2.37.77,2.37-.34,2.37-.77S460.45,884.92,459.14,884.92Z"/>
    <path class="cls-3" d="M524.81,884.92c-1.3,0-2.37.35-2.37.77s1.07.77,2.37.77,2.37-.34,2.37-.77S526.12,884.92,524.81,884.92Z"/>
    <path class="cls-3" d="M456.74,891.64c-1.31,0-2.37.35-2.37.77s1.06.77,2.37.77,2.37-.34,2.37-.77S458,891.64,456.74,891.64Z"/>
    <path class="cls-3" d="M445.4,910.64c-1.31,0-2.37.35-2.37.78s1.06.77,2.37.77,2.37-.35,2.37-.77S446.71,910.64,445.4,910.64Z"/>
    <path class="cls-3" d="M540.88,894.92c-1.78,0-3.22.47-3.22,1a.44.44,0,0,0,.15.3l-.52,0c-1.31,0-2.37.35-2.37.77s1.06.77,2.37.77,2.37-.34,2.37-.77c0,0,0,0,0-.08a9.85,9.85,0,0,0,1.25.08c1.79,0,3.23-.47,3.23-1S542.67,894.92,540.88,894.92Z"/>
    <path class="cls-3" d="M467.72,901.1c.31-.15.5-.33.5-.51,0-.56-1.56-1-3.49-1s-3.49.45-3.49,1c0,0,0,0,0,.06-3.21.22-5.61,1.05-5.61,2,0,1.17,3.28,2.11,7.33,2.11s7.34-.94,7.34-2.11C470.32,902.05,469.3,901.48,467.72,901.1Z"/>
    <path class="cls-3" d="M443.92,900.6c-1.31,0-2.37.34-2.37.77s1.06.77,2.37.77,2.37-.35,2.37-.77S445.23,900.6,443.92,900.6Z"/>
    <g>
      <ellipse class="cls-3" cx="466.51" cy="894.22" rx="1.18" ry="0.39"/>
      <path class="cls-3" d="M467.34,895.16c-1.31,0-2.37.35-2.37.77s1.06.77,2.37.77,2.36-.34,2.36-.77S468.64,895.16,467.34,895.16Z"/>
      <path class="cls-3" d="M464.67,896.8c-.14-.25.37-.34.37-.53,0-.54-.24-.83-1.79-1.12-.66-.14.81-.45,1.3-.81s-1.06-.77-2.37-.77-2.37.34-2.37.77.52.55,1.28.68c-2.09,0-3.77.57-3.77,1.25s1.67,1.24,3.75,1.25l.72.23a3.41,3.41,0,0,0,2.11.55c1.3,0,2.37-.35,2.37-.77S465.6,896.9,464.67,896.8Z"/>
    </g>
  </g>
</svg>
