<svg id="Layer_1" data-name="Layer 1" xmlns="http://www.w3.org/2000/svg" viewBox="0 0 432 432">
  <defs>
    <style>
      .cls-1 {
        fill: #686c89;
      }

      .cls-2 {
        fill: #54586d;
      }

      .cls-3 {
        fill: #484848;
      }

      .cls-4 {
        opacity: 0.5;
      }
    </style>
  </defs>
  <title>icon-c-dark copy</title>
  <g>
    <path class="cls-1" d="M221.14,179.27c-62.56,0-107.45-27-123.85-38.61a4.08,4.08,0,0,1-1.71-3.21,124.31,124.31,0,0,1,1.32-18c2.37-18.1,12.08-45.41,32.22-67.93,23.14-25.88,55-39.84,92.07-40.36l1.78,0c32.07,0,62.65,12.67,86.11,35.67,20.84,20.43,34.44,47.77,36.4,73.13,0,.15,1.08,12.24,1.08,18a3.63,3.63,0,0,1-1.08,2.45C336.47,146.91,288.13,179.27,221.14,179.27Z"/>
    <path class="cls-2" d="M223,13.67c31.41,0,61.37,12.42,84.36,35,20.42,20,33.75,46.76,35.66,71.53v.06c0,.12,1.06,12,1.07,17.71a2,2,0,0,1-.19.57,203.68,203.68,0,0,1-40.6,21.89,216.62,216.62,0,0,1-82.13,16.38c-61.85,0-106.2-26.68-122.41-38.15a1.61,1.61,0,0,1-.65-1.26c-.23-7.13,1.28-17.41,1.29-17.51v-.09c2.32-17.68,11.84-44.45,31.6-66.54a116.26,116.26,0,0,1,36.74-27.68c16-7.59,34-11.58,53.51-11.85l1.74,0m0-5-1.82,0C134.66,9.91,99.49,80.51,94.43,119.11c0,0-1.6,10.73-1.35,18.42a6.57,6.57,0,0,0,2.77,5.17c20.76,14.71,65.86,39.07,125.29,39.07,67.07,0,115-31.57,125.8-39.32a6.06,6.06,0,0,0,2.12-4.48c0-5.94-1.09-18.2-1.09-18.2C344,68.66,294.53,8.67,223,8.67Z"/>
  </g>
  <path class="cls-3" d="M339.88,269.33h0v0Z"/>
  <g>
    <g>
      <path class="cls-1" d="M361.1,245.8c-1.65-1.13-5.08-1-5.43-1h-8a6.13,6.13,0,0,0-6.08,6.7,6.34,6.34,0,0,0,6.41,5.53h1.7a2.2,2.2,0,0,1,2.2,2.19v1.22a6.35,6.35,0,0,0,5.53,6.42,6.13,6.13,0,0,0,6.7-6.09v-9.07A7.15,7.15,0,0,0,361.1,245.8Z"/>
      <path class="cls-1" d="M357.49,351.34a4.75,4.75,0,1,0,5.44,5.44A4.78,4.78,0,0,0,357.49,351.34Z"/>
      <path class="cls-1" d="M359.09,270.64a5.35,5.35,0,1,0,4.44,4.44A5.35,5.35,0,0,0,359.09,270.64Z"/>
      <path class="cls-1" d="M359.09,287.74a5.35,5.35,0,1,0,4.44,4.44A5.35,5.35,0,0,0,359.09,287.74Z"/>
      <path class="cls-1" d="M359.09,304.84a5.35,5.35,0,1,0,4.44,4.43A5.35,5.35,0,0,0,359.09,304.84Z"/>
      <path class="cls-1" d="M358.24,415.76a3.79,3.79,0,1,0,3.78,3.78A3.78,3.78,0,0,0,358.24,415.76Z"/>
      <circle class="cls-1" cx="358.24" cy="388.21" r="3.66"/>
    </g>
    <g>
      <path class="cls-1" d="M361.1,245.8c-1.65-1.13-5.08-1-5.43-1h-8a6.13,6.13,0,0,0-6.08,6.7,6.34,6.34,0,0,0,6.41,5.53h1.7a2.2,2.2,0,0,1,2.2,2.19v1.22a6.35,6.35,0,0,0,5.53,6.42,6.13,6.13,0,0,0,6.7-6.09v-9.07A7.15,7.15,0,0,0,361.1,245.8Z"/>
      <path class="cls-1" d="M357.49,351.34a4.75,4.75,0,1,0,5.44,5.44A4.78,4.78,0,0,0,357.49,351.34Z"/>
      <path class="cls-1" d="M359.09,270.64a5.35,5.35,0,1,0,4.44,4.44A5.35,5.35,0,0,0,359.09,270.64Z"/>
      <path class="cls-1" d="M359.09,287.74a5.35,5.35,0,1,0,4.44,4.44A5.35,5.35,0,0,0,359.09,287.74Z"/>
      <path class="cls-1" d="M359.09,304.84a5.35,5.35,0,1,0,4.44,4.43A5.35,5.35,0,0,0,359.09,304.84Z"/>
      <path class="cls-1" d="M358.24,415.76a3.79,3.79,0,1,0,3.78,3.78A3.78,3.78,0,0,0,358.24,415.76Z"/>
      <circle class="cls-1" cx="358.24" cy="388.21" r="3.66"/>
    </g>
  </g>
  <g>
    <path class="cls-1" d="M302,418.39a78,78,0,0,1-9.5-.65,118.18,118.18,0,0,1-20-4.35c-13.17-4-24.95-8.05-35.73-16.55-3.39-2.67-7.25-6.83-8.07-9.62a7.32,7.32,0,0,0-6.87-5.48,7.11,7.11,0,0,0-2.74.56,8.78,8.78,0,0,0-4.21,4.4,29.47,29.47,0,0,1-2.34,3.23l-.32.41a38.3,38.3,0,0,1-7.09,6.84,89.81,89.81,0,0,1-34.43,17.25c-7.12,1.89-13.54,3.48-20.11,3.72-1.25,0-2.88.1-4.49.1a52.14,52.14,0,0,1-5.75-.29,16.61,16.61,0,0,0,7.69-6.62,2.81,2.81,0,0,0,0-2.88,2.83,2.83,0,0,0-3.62-1.23c-5,2.18-13.49,2.42-16.9,2.42l-1.48,0c-15.51-.37-29.82-5-40.29-13A52.58,52.58,0,0,1,66.59,364.9a43.21,43.21,0,0,1-.77-9,24.59,24.59,0,0,0,15.3,18.06,56.33,56.33,0,0,0,21.48,4.5,40.93,40.93,0,0,0,22-6.11c5.35-3.33,10.43-8.05,15.53-14.44,1.66-2.08,3.2-4.25,4.7-6.35l1.67-2.32a49.21,49.21,0,0,1,7.16-7.87A72.44,72.44,0,0,1,171.88,329c1.77-.8,3.57-1.52,5.36-2.13l.7-.28.08,0a16.92,16.92,0,0,0,7.34,7.76,13.68,13.68,0,0,0,5.12,1.69l.47,0a5.75,5.75,0,0,0,1.89-.33l.3-.1.26-.19a2.61,2.61,0,0,1,1.18-.5l.33,0a3.11,3.11,0,0,1,.69.09l.11,0h.12c1.59.16,3.2,1.22,5.08,3.33l.12.14a28.42,28.42,0,0,0,6.94,6.22,22.19,22.19,0,0,0,9.23,2.9c.53.05,1.08.07,1.62.07a21.19,21.19,0,0,0,16.89-8.89c.35-.46.67-1,1-1.46a8.39,8.39,0,0,1,1.8-2.28,2.42,2.42,0,0,1,1.83-.56,3.06,3.06,0,0,1,2.07,1.14l.5.76.9.13a3.64,3.64,0,0,0,.48,0c2.18,0,5.49-2,6.06-2.44,3.11-2.22,3.68-4.86,3.6-6.67-.21-5.07-5.43-9.49-8.48-11.31a50.44,50.44,0,0,0-5.11-2.53l-1.71-.76-.2,0a2.72,2.72,0,0,1-1.78-1.31l-.05-.13a2.81,2.81,0,0,1-.29-1.18v-.09l-.05-.49c0-.28,0-.57-.09-.86a28.82,28.82,0,0,0-1.2-5.53,40.74,40.74,0,0,0-3.24-6.89c-.69-1.25-1.34-2.43-1.92-3.65a30.49,30.49,0,0,1-2.75-10.18,48.48,48.48,0,0,1,2.77-20.66,53.65,53.65,0,0,1,4.88-10.11c.19-.31.4-.6.61-.9a16,16,0,0,0,1.14-1.81,3.08,3.08,0,0,0-.67-3.76l-.21-.23a30.14,30.14,0,0,0-3.65-3.67,17.18,17.18,0,0,0-10.25-4.22h-.58a20.82,20.82,0,0,0-10.29,3.08,46.52,46.52,0,0,0-8.73,6.21c-3,2.8-4.05,6.46-3.19,11.2.14.77.3,1.54.46,2.32.63,3,1.22,5.85.61,8.59a14.56,14.56,0,0,1-2.72,5.06,28.94,28.94,0,0,0-2.33,3.66c-.5,1-.88,1.89-1.22,2.68a19.44,19.44,0,0,1-.89,1.94l-.2.36,0,.41a2.44,2.44,0,0,0,0,.27A2.76,2.76,0,0,1,190.3,285a2,2,0,0,1-.42,0,2.64,2.64,0,0,1-1-.18,1.53,1.53,0,0,1-.38-.17,1.8,1.8,0,0,1-.25-.17,36.34,36.34,0,0,1-3.38-2.75l-.09-.08c-3-2.38-8.63-3.74-15.29-3.74a46.83,46.83,0,0,0-8.32.73c-2.59.47-5.15,1.12-7.62,1.74-4.77,1.21-9.27,2.34-14,2.34H139a30.43,30.43,0,0,1-10.47-2.05,39.91,39.91,0,0,1-8.33-4.84l0,0a2.7,2.7,0,0,1,.16-.26,44.91,44.91,0,0,1,3-3.66,35.68,35.68,0,0,1,7.12-5.95,30.05,30.05,0,0,1,16-4.68,28.71,28.71,0,0,1,3.07.17,39.41,39.41,0,0,1,10.07,2.81,20.43,20.43,0,0,0,7.39,1.35c.56,0,1.13,0,1.7-.07,6.72-.53,11.95-4.33,13.65-9.9l.83-2.74-2.86.16h-.51c-4.79,0-8.14-3.72-11.44-7.87-3.55-4.46-7.65-8.81-13.6-10.47a57.5,57.5,0,0,0-15.39-2.17A47.1,47.1,0,0,0,105,246.92c.56-3.74,1.74-7.47,4.29-10.21l3.06-3.27-4.48-.09a76.45,76.45,0,0,1-8-.54,17.19,17.19,0,0,0,6.07-4.66,6.61,6.61,0,0,0,.88-7.31,9.62,9.62,0,0,0-3-3.41,18.4,18.4,0,0,0-2.77-1.78c-.19-.09-19.83-9.43-34.88-19.7a60.08,60.08,0,0,1-10.69-9.18A25.12,25.12,0,0,1,63,147.7a25.69,25.69,0,0,1,11.32-2.61,25.35,25.35,0,0,1,11.24,2.6,51.25,51.25,0,0,1,7.72,5.14c1.36,1,2.76,2.09,4.2,3.06,8.91,6,56.68,36.08,123.8,36.08,45.13,0,88.32-13.33,128.37-39.64,10.53-6.92,13.91-6.92,17.48-6.92,17.37,0,25.47,15.2,25.47,25.46,0,14.17-10.29,20.8-20.23,27.2l-.6.39a326.38,326.38,0,0,1-31.66,17.73l-.1.05a27.3,27.3,0,0,0-3,1.88,7.07,7.07,0,0,0-2.9,5,7,7,0,0,0,1.68,5.41,17.24,17.24,0,0,0,5.8,4.33,82,82,0,0,1-9,.54l-2.79,0,.92,2.64c1.58,4.47,5.4,7,8.53,8.39a9.82,9.82,0,0,0-2.13,5,10.18,10.18,0,0,0,1.76,7.18,18.37,18.37,0,0,0-1.77,2.18,25.11,25.11,0,0,0-.49,31.81,71,71,0,0,1-2,8.28c-4.12,14-16.52,26.31-32.35,32.09-.43.15-.89.28-1.35.41a12.45,12.45,0,0,0-3.23,1.24,5.8,5.8,0,0,0-2.4,7,8.3,8.3,0,0,0,4,3.91l.43.26a48.31,48.31,0,0,1,4.59,3.26,78.75,78.75,0,0,1,9.33,8.45c1.42,1.53,2.7,3.15,4,4.86s2.53,3.22,4,4.77a38.3,38.3,0,0,0,44.55,8,25.8,25.8,0,0,0,13.76-16.91v0a54.07,54.07,0,0,1-5.36,24.25c-6.63,14.37-18.19,24.45-32.55,28.39a78.16,78.16,0,0,1-20.44,2.72c-.56,0-1.12,0-1.68,0-7.63-.16-13.66-1.65-18.44-4.55a2.48,2.48,0,0,0-1.3-.37,2.53,2.53,0,0,0-2.12,1.18,2.45,2.45,0,0,0-.12,2.39,17,17,0,0,0,8.65,8c-.9.1-1.76.14-2.53.17S302.69,418.39,302,418.39Zm8.22-173.56c-11.78,5.23-25.31,5.73-37.26,6.17-14.64.54-27.28,1-31.3,10.5a44.8,44.8,0,1,0,70.69-16.35l-1-.84ZM92.94,352.1a13.29,13.29,0,0,1-6.09-1.48,14.51,14.51,0,0,1-7.74-11.95c0-.24,0-.5,0-.76a6.34,6.34,0,0,0-1-4.18,4.06,4.06,0,0,0-2.39-1.48,35,35,0,0,1,4.06-3.52c4.29-3.19,8.81-4.88,13.08-4.88a16.11,16.11,0,0,1,4.53.65A14.29,14.29,0,0,1,107.21,336,13.47,13.47,0,0,1,104,346.92,14.82,14.82,0,0,1,92.94,352.1ZM357.67,340a7.68,7.68,0,0,1-7.36-5.63,7,7,0,0,1,1.23-6.22,8.16,8.16,0,0,1,8.69-2.81c2.82.81,5.57,2.92,7.57,4.65a4.49,4.49,0,0,0-2.77,3.46,7.7,7.7,0,0,1-5.44,6.29A7.29,7.29,0,0,1,357.67,340Z"/>
    <path class="cls-2" d="M74.34,147.09a23.33,23.33,0,0,1,10.34,2.39,48.54,48.54,0,0,1,7.41,5c1.38,1,2.81,2.11,4.3,3.12,9,6.08,57.19,36.42,124.91,36.42a225.67,225.67,0,0,0,67.4-10.2A247.94,247.94,0,0,0,350.76,154c10-6.59,13.12-6.59,16.39-6.59a22.15,22.15,0,0,1,17.56,8.08,25.26,25.26,0,0,1,5.91,15.38c0,13.08-9.38,19.12-19.31,25.52l-.6.39a324.66,324.66,0,0,1-31.44,17.6l-.1.05-.1,0a32.32,32.32,0,0,0-3.24,2,9.14,9.14,0,0,0-3.72,6.37,9,9,0,0,0,2.16,6.95c.43.48.9,1,1.44,1.47-1,0-2,.07-3.11.08l-5.59.06,1.86,5.27a16,16,0,0,0,7.52,8.51,12,12,0,0,0-1.22,3.94,12.22,12.22,0,0,0,1.27,7.21c-.28.36-.58.74-.88,1.17a26.67,26.67,0,0,0-6.24,15.06,46.81,46.81,0,0,0-15.64-28.94L311.76,242l-2.33,1c-11.43,5.08-24.76,5.57-36.52,6-15.32.56-28.56,1.05-33.07,11.72a46.8,46.8,0,1,0,89.89,19.47,26.46,26.46,0,0,0,4.78,10.9,73.09,73.09,0,0,1-1.82,7.19c-4,13.42-15.88,25.21-31.13,30.77-.33.12-.75.24-1.2.36a14.52,14.52,0,0,0-3.73,1.45,7.84,7.84,0,0,0-3.22,9.49,10.26,10.26,0,0,0,4.83,4.91l.41.24a47.18,47.18,0,0,1,4.4,3.13,78.08,78.08,0,0,1,9.09,8.24c1.37,1.46,2.61,3.05,3.94,4.73s2.58,3.28,4,4.88a40.31,40.31,0,0,0,46.92,8.4,29,29,0,0,0,9.9-8.06,57.73,57.73,0,0,1-4.21,12.75c-6.37,13.83-17.47,23.52-31.26,27.31a76.29,76.29,0,0,1-19.91,2.64c-.54,0-1.09,0-1.63,0-7.17-.15-13.05-1.59-17.45-4.26a4.48,4.48,0,0,0-6.15,1.46,4.43,4.43,0,0,0-.23,4.32,17.82,17.82,0,0,0,4,5.34c-2.22-.08-4.64-.28-7.34-.61a114.87,114.87,0,0,1-19.65-4.28c-13-4-24.58-7.91-35.09-16.2-3.53-2.79-6.78-6.58-7.39-8.62a9.3,9.3,0,0,0-8.78-6.92,9,9,0,0,0-3.52.73,10.65,10.65,0,0,0-5.21,5.32,29.58,29.58,0,0,1-2.13,2.91l-.32.41a36.63,36.63,0,0,1-6.78,6.53,87.79,87.79,0,0,1-33.69,16.86c-7,1.87-13.31,3.43-19.66,3.66-1.1,0-2.5.09-3.91.09a17.85,17.85,0,0,0,3.15-3.87,4.86,4.86,0,0,0-6.09-7c-3.26,1.42-9.28,2.26-16.11,2.26l-1.43,0c-15.09-.36-29-4.82-39.12-12.57a50.35,50.35,0,0,1-17.77-27.35,28,28,0,0,0,11.1,8.06,58.46,58.46,0,0,0,22.24,4.65A43,43,0,0,0,125.7,374c5.54-3.45,10.79-8.33,16-14.89,1.69-2.12,3.26-4.32,4.77-6.44l1.66-2.31a47,47,0,0,1,6.87-7.55,70.43,70.43,0,0,1,17.69-12c1.43-.66,2.9-1.25,4.36-1.78a18.68,18.68,0,0,0,7.36,7.06,15.73,15.73,0,0,0,5.85,1.9l.66,0a7.84,7.84,0,0,0,2.51-.43l.62-.2.52-.39a.66.66,0,0,1,.31-.13l.27,0,.22,0,.23,0c1,.1,2.28,1,3.79,2.67l.11.13a30.19,30.19,0,0,0,7.43,6.63A24.24,24.24,0,0,0,217,349.57c.59.05,1.2.08,1.79.08A23.17,23.17,0,0,0,237.31,340c.4-.52.74-1.06,1.07-1.59a10,10,0,0,1,1.23-1.7l.33-.2h.33a1.47,1.47,0,0,1,.49.3l.94,1.46,1.81.25a4.77,4.77,0,0,0,.76,0c3.08,0,7.18-2.78,7.22-2.81a9.69,9.69,0,0,0,4.44-8.38c-.23-5.54-5.24-10.44-9.46-12.95a50.63,50.63,0,0,0-5.33-2.64l-.12-.06-.71-.31-.68-.3-.37-.16-.39-.09a.71.71,0,0,1-.44-.29l0,0v0l0,0a.63.63,0,0,1-.07-.3v-.19l0-.17,0-.39c0-.3-.05-.6-.09-.91a31.38,31.38,0,0,0-1.29-5.92,41.83,41.83,0,0,0-3.39-7.23c-.68-1.22-1.31-2.37-1.86-3.53a28.58,28.58,0,0,1-2.57-9.52,46.41,46.41,0,0,1,2.67-19.8,51.84,51.84,0,0,1,4.7-9.74c.14-.23.33-.5.53-.79a16,16,0,0,0,1.29-2.06,5,5,0,0,0-1-6l-.17-.19a31.28,31.28,0,0,0-3.9-3.91,19.17,19.17,0,0,0-11.44-4.68h-.66a22.77,22.77,0,0,0-11.27,3.34,48.57,48.57,0,0,0-9.11,6.49c-3.5,3.25-4.78,7.63-3.8,13,.14.78.31,1.57.47,2.37.58,2.79,1.13,5.43.62,7.74a13.15,13.15,0,0,1-2.39,4.34,29.41,29.41,0,0,0-2.49,3.92c-.54,1.05-.93,2-1.28,2.8s-.55,1.31-.8,1.75l-.4.73-.08.83c0,.05,0,.11,0,.16a.78.78,0,0,1-.55.48h-.12a.74.74,0,0,1-.28-.06h0l0,0-.07-.05,0,0,0,0a38.63,38.63,0,0,1-3.15-2.58l-.09-.08-.09-.08c-4.65-3.62-12.35-4.16-16.52-4.16a48.81,48.81,0,0,0-8.67.76c-2.67.49-5.26,1.14-7.76,1.77-4.64,1.17-9,2.28-13.53,2.28H139a28.31,28.31,0,0,1-9.77-1.91,32.44,32.44,0,0,1-6.27-3.47c.59-.73,1.2-1.43,1.81-2.09a33.51,33.51,0,0,1,6.72-5.61,28,28,0,0,1,14.94-4.37,27.06,27.06,0,0,1,2.85.15,37.57,37.57,0,0,1,9.58,2.69,22.55,22.55,0,0,0,8.1,1.48c.62,0,1.24,0,1.86-.07,7.55-.6,13.46-4.94,15.4-11.32l1.66-5.47-5.7.31h-.41c-3.9,0-6.78-3.22-9.88-7.11-3.57-4.5-8.11-9.34-14.62-11.15a59.07,59.07,0,0,0-15.93-2.25,49.69,49.69,0,0,0-30.5,10.12,11.73,11.73,0,0,1,1.85-2.66l6.1-6.55-9-.17-2.22-.07a18.53,18.53,0,0,0,1.75-1.85,8.61,8.61,0,0,0,1.11-9.52,11.73,11.73,0,0,0-3.56-4.11,19.84,19.84,0,0,0-3.09-2c-.19-.09-19.68-9.36-34.6-19.55a57.36,57.36,0,0,1-10.32-8.85,23.11,23.11,0,0,1,7-35.94,23.63,23.63,0,0,1,10.44-2.41M92.83,325.85a14,14,0,0,1,4,.57,12.23,12.23,0,0,1,8.43,9.89,11.47,11.47,0,0,1-2.77,9.3,12.8,12.8,0,0,1-9.52,4.49,11.18,11.18,0,0,1-5.17-1.26,12.45,12.45,0,0,1-6.66-10.27c0-.2,0-.42,0-.64a8.2,8.2,0,0,0-1.46-5.43,5.34,5.34,0,0,0-.59-.66c.61-.52,1.24-1,1.89-1.51,2.74-2,7-4.48,11.88-4.48M358,327.06a6.18,6.18,0,0,1,1.7.24,15.81,15.81,0,0,1,4.86,2.66,7,7,0,0,0-1.47,3.14,5.69,5.69,0,0,1-4,4.75,5,5,0,0,1-1.39.19,5.66,5.66,0,0,1-5.43-4.14,5,5,0,0,1,.88-4.49,6.24,6.24,0,0,1,4.86-2.35m-283.64-184a27.6,27.6,0,0,0-12.21,2.82,27.11,27.11,0,0,0-8.19,42.18,61.44,61.44,0,0,0,11,9.51c14.25,9.73,32.74,18.72,35.16,19.86a20.53,20.53,0,0,1,2.45,1.59,7.8,7.8,0,0,1,2.36,2.71,4.65,4.65,0,0,1-.64,5.11c-2.24,2.68-6.25,5.69-13,5.69H91c4,2.16,11.68,2.7,16.82,2.8-4.23,4.54-5.15,11.29-5.3,17.66a44.92,44.92,0,0,1,36.88-18.4,55.29,55.29,0,0,1,14.86,2.1c5.35,1.49,9.2,5.56,12.56,9.79s7.22,8.62,13,8.62c.2,0,.41,0,.62,0-1.6,5.28-6.64,8.08-11.89,8.5-.51,0-1,.06-1.54.06a18.71,18.71,0,0,1-6.67-1.21,41.39,41.39,0,0,0-10.58-2.94,30.16,30.16,0,0,0-3.28-.17,32,32,0,0,0-17.08,5,38,38,0,0,0-7.52,6.28,44.75,44.75,0,0,0-3.16,3.84,17.92,17.92,0,0,0-1.08,2s1.07.86,1.42,1.1a41.69,41.69,0,0,0,8.75,5.06,32.3,32.3,0,0,0,11.16,2.19h.63c7.6,0,14.61-2.77,22-4.11a44.4,44.4,0,0,1,8-.7c5.6,0,11.11,1,14.06,3.32a39.66,39.66,0,0,0,3.55,2.89c.12.09.25.17.38.25a3.55,3.55,0,0,0,.71.33,4.78,4.78,0,0,0,1.65.3,4.37,4.37,0,0,0,.72-.06,4.78,4.78,0,0,0,3.94-3.94c0-.09,0-.18,0-.27.69-1.24,1.19-2.8,2.14-4.68,1.62-3.18,4.43-5.63,5.22-9.2.87-3.92-.36-7.86-1.06-11.7-.64-3.57-.16-6.81,2.59-9.37a45.43,45.43,0,0,1,8.36-5.94,19.12,19.12,0,0,1,9.3-2.82h.5a15.18,15.18,0,0,1,9.05,3.76,27.62,27.62,0,0,1,3.41,3.43c.57.66,1,1,.61,1.79s-1.14,1.71-1.66,2.56A55.92,55.92,0,0,0,228,261.12a50.39,50.39,0,0,0-2.88,21.52A32.51,32.51,0,0,0,228,293.49c1.63,3.47,3.87,6.65,5.07,10.31a27.61,27.61,0,0,1,1.12,5.16c.05.41.08.82.12,1.22a4.54,4.54,0,0,0,.47,2c0,.1.08.19.13.29a4.75,4.75,0,0,0,3.08,2.27l1.39.61a49.12,49.12,0,0,1,5,2.49c4.83,2.87,11.29,10,4.75,14.63-.9.64-3.6,2.07-4.9,2.07h-.2a5,5,0,0,0-3.7-2.05h-.05a4.35,4.35,0,0,0-2.95.9c-1.4.95-2.28,2.89-3.26,4.2a19.28,19.28,0,0,1-15.29,8.09c-.48,0-1,0-1.46-.06A20.23,20.23,0,0,1,209,343a27,27,0,0,1-6.56-6c-1.72-1.92-3.8-3.73-6.39-4a5.11,5.11,0,0,0-1.11-.13,4.46,4.46,0,0,0-.63.05,4.77,4.77,0,0,0-2.07.87A3.75,3.75,0,0,1,191,334h-.29a12.16,12.16,0,0,1-4.37-1.47,15,15,0,0,1-6.67-7.3c-.23-.52-.21-.87-.8-1h-.13a8.11,8.11,0,0,0-2.1.7c-1.88.64-3.73,1.38-5.54,2.2a74.92,74.92,0,0,0-18.68,12.67,50.7,50.7,0,0,0-7.45,8.18c-2.09,2.88-4.09,5.82-6.31,8.6a61,61,0,0,1-15,14,39.2,39.2,0,0,1-21,5.8,54.89,54.89,0,0,1-20.72-4.35,23.08,23.08,0,0,1-12.54-11.78,24.23,24.23,0,0,1-.7-17.78,26.8,26.8,0,0,1,2.29-4.73,9.5,9.5,0,0,1,2.43-3.18,2.59,2.59,0,0,1,1.44-.44,2.11,2.11,0,0,1,1.7.8c.83,1.05.55,2.59.61,3.81a16.49,16.49,0,0,0,8.83,13.63,15.23,15.23,0,0,0,7,1.7c9.25,0,17.75-8.35,16.25-18.39a16.23,16.23,0,0,0-11.27-13.13,18.05,18.05,0,0,0-5.09-.73c-5.14,0-10.07,2.14-14.27,5.27a36.79,36.79,0,0,0-12.21,15.79,40.29,40.29,0,0,0-1.73,22.36,54.35,54.35,0,0,0,20,33c11.72,9,26.85,13,41.45,13.39l1.53,0c4.23,0,12.56-.36,17.7-2.59a.83.83,0,0,1,.34-.07.88.88,0,0,1,.73,1.32c-2.81,4.67-8.32,7.32-14.34,7.32h-.33c4.45,2.13,9.36,2.62,14.44,2.62,1.51,0,3-.05,4.56-.1,6.95-.25,13.85-2,20.55-3.79a91.88,91.88,0,0,0,35.17-17.62,40,40,0,0,0,7.41-7.17,33.51,33.51,0,0,0,2.87-4,7.15,7.15,0,0,1,3.21-3.47,5.14,5.14,0,0,1,2-.41,5.31,5.31,0,0,1,5,4.06c1,3.36,5.19,7.81,8.75,10.62,11.17,8.81,23.44,12.94,36.39,16.89a118.89,118.89,0,0,0,20.33,4.42,79.58,79.58,0,0,0,9.75.67c.69,0,1.38,0,2.07,0,3.57-.13,7.7-.62,10.7-2.72-.37,0-.74,0-1.1,0a15.64,15.64,0,0,1-14-8.39.49.49,0,0,1,.44-.7.42.42,0,0,1,.26.08c5.79,3.51,12.75,4.7,19.44,4.84.57,0,1.15,0,1.72,0a79.67,79.67,0,0,0,21-2.79c15.31-4.2,27.23-15.17,33.83-29.48,6.4-13.88,8.34-30.82,0-44.31a35.88,35.88,0,0,0-6.55-7.83c-2.54-2.27-5.67-4.7-9-5.65a10.2,10.2,0,0,0-2.81-.4c-6,0-11.3,5.4-9.61,11.86a9.68,9.68,0,0,0,9.3,7.12,9.46,9.46,0,0,0,2.46-.33,9.6,9.6,0,0,0,6.86-7.83,2.31,2.31,0,0,1,2.16-2.08,2.49,2.49,0,0,1,.46.05c1.48.28,2.75,2.21,3.62,3.32A24.51,24.51,0,0,1,378,355.72a23.81,23.81,0,0,1-12.71,15.58A35.36,35.36,0,0,1,349.39,375a35.79,35.79,0,0,1-26.32-11.21c-2.82-3.09-5.15-6.58-8-9.64a80.11,80.11,0,0,0-9.56-8.67,49.87,49.87,0,0,0-4.78-3.4c-1.36-.82-3-1.61-3.59-3.19a3.81,3.81,0,0,1,1.57-4.59,23.31,23.31,0,0,1,4.23-1.48c15.39-5.62,29-17.7,33.59-33.4a72,72,0,0,0,2.26-9.43c-6.66-7.32-8.09-20.57-.06-30a14.18,14.18,0,0,1,2.32-2.66.81.81,0,0,0,.1-1.15,8,8,0,0,1,1.35-12l.72-.51c-4-1.07-8.92-3.65-10.57-8.33,5.1-.05,13.47-.52,17.75-2.81H350c-6.48,0-10.44-2.79-12.73-5.39a5.07,5.07,0,0,1,.89-7.43A26.24,26.24,0,0,1,341,218a328.09,328.09,0,0,0,31.88-17.85c10.33-6.66,21.75-13.71,21.75-29.27,0-11.26-9.08-27.46-27.47-27.46-4,0-7.77.14-18.58,7.25C309.43,176.36,267.31,190,221.3,190c-70,0-118.36-32.81-122.68-35.74-4-2.73-7.77-6.14-12.15-8.33a27.22,27.22,0,0,0-12.13-2.81ZM283,321.73a42.82,42.82,0,0,1-39.44-59.45c6.5-15.36,41-3.86,67.53-15.62A42.79,42.79,0,0,1,283,321.73Z"/>
  </g>
  <g class="cls-4">
    <path class="cls-1" d="M283,319.23a40.33,40.33,0,0,1-37.14-56c2.91-6.86,13.68-7.25,27.33-7.76,11.86-.43,25.23-.92,37.41-5.91A40.3,40.3,0,0,1,283,319.23Z"/>
    <path class="cls-2" d="M310,252.5a37.79,37.79,0,1,1-61.84,11.73c2.28-5.4,12.86-5.79,25.11-6.24,11.58-.42,24.58-.9,36.73-5.49m1.08-5.84c-26.49,11.76-61,.26-67.53,15.62a42.8,42.8,0,1,0,67.53-15.62Z"/>
  </g>
</svg>
