<svg id="Layer_1" data-name="Layer 1" xmlns="http://www.w3.org/2000/svg" viewBox="0 0 432 432">
  <defs>
    <style>
      .cls-1, .cls-4 {
        fill: #ccb696;
      }

      .cls-2, .cls-3 {
        fill: #2d1806;
      }

      .cls-2 {
        opacity: 0.69;
      }

      .cls-3 {
        opacity: 0.73;
      }

      .cls-4 {
        opacity: 0.4;
      }
    </style>
  </defs>
  <title>icon-w-dark</title>
  <rect class="cls-1" x="-2.8" width="440.63" height="437.95"/>
  <circle class="cls-2" cx="319.31" cy="368.19" r="4"/>
  <path class="cls-3" d="M218.38,59.81c79.35,0,95.92,65.36,95.92,95.92h0a3.82,3.82,0,0,1-1.58,3.1q-3.66,2.63-7.5,5-2.12,1.32-4.29,2.56c-24.31,14-53.23,23.22-82.25,23.65s-58.14-8-82.86-21.08c-1.89-1-3.76-2.05-5.6-3.13l-.27-.16a15.42,15.42,0,0,1-7.49-13.3v-5.55C122.46,118.29,147.07,59.81,218.38,59.81Z"/>
  <path class="cls-2" d="M319.94,275.94a4,4,0,1,1,3.32-3.32A4,4,0,0,1,319.94,275.94Z"/>
  <path class="cls-2" d="M323.26,282.58a4,4,0,1,1-3.32-3.32A4,4,0,0,1,323.26,282.58Z"/>
  <path class="cls-2" d="M319.94,264.73a4,4,0,1,1,3.32-3.32A4,4,0,0,1,319.94,264.73Z"/>
  <path class="cls-2" d="M318.86,254a4.72,4.72,0,0,1-4.1-4.77v-2.58h-1.91a4.72,4.72,0,0,1-4.76-4.11,4.58,4.58,0,0,1,4.54-5h4.92a4.9,4.9,0,0,1,.77.08,3.88,3.88,0,0,1,3.29.63,5.35,5.35,0,0,1,2.3,4.45v6.79A4.59,4.59,0,0,1,318.86,254Z"/>
  <path class="cls-3" d="M298.9,235.38a10.23,10.23,0,0,1,10.23,1.67,5.88,5.88,0,0,0,3.22,10.8h.1a10.32,10.32,0,0,1-5.24,6.3c.13,2.7.12,5.78.12,9.45A42.39,42.39,0,0,1,277,304.15a2.8,2.8,0,0,0-.68,5.08C283.7,313.8,288,316.4,292.51,324c5.32,8.54,14.76,13.83,30.15,9.51,6.4-1.79,11.89-6.88,13.14-13.46a18.55,18.55,0,0,0-4.47-15.87,2.49,2.49,0,0,0-4.17.94,8,8,0,0,1-1.15,2.07A7.14,7.14,0,0,1,313,303a6.83,6.83,0,0,1,.18-1.58,7.14,7.14,0,0,1,5.68-5.71,2.64,2.64,0,0,1,1.29-.26l.12,0a5,5,0,0,1,.56.11,5.69,5.69,0,0,1,.84.17,7,7,0,0,1,3.25,1.53c9.51,5.3,15.74,16.45,13.19,30.54-3.69,20.4-17.16,30.42-27.27,33.37-10.76,3.14-23.71,3.65-31.88-.41a.8.8,0,0,0-1,1.15c2.29,3.51,6.47,5.78,10.53,4.87-8.85,6.22-47.84-2.27-61.65-18.85-.89-1.07-1.7-2.13-2.46-3.17a5,5,0,0,0-8.11,0c-.77,1.05-1.59,2.11-2.5,3.19-13.93,16.58-53.29,25.07-62.23,18.85,5,1.11,10.19-2.52,11.85-7.34-7.94,5.45-22.34,6.92-33.21,1-9.27-5.07-25-12.22-28.76-32.62-2.74-15,4.59-26.55,15.14-31.55a15.79,15.79,0,0,1,6.24-1.09,12.07,12.07,0,1,1-12.08,12.08,8.7,8.7,0,0,1,0-.89,1.8,1.8,0,0,0-3.14-1.38A18.24,18.24,0,0,0,105,324.31a15.81,15.81,0,0,0,8,7.84c5.3,2.37,11.69,3.28,16,1.48,6.83-1.68,13-5.42,18.94-9.15,6.09-3.85,11-9.07,16.64-13.67,1.49-1.22,9.31-10.16,22.38-14-.78,3.63,5.05,7.32,9.65,7.32,0,0,6.85-1,8,2.61,2.49,2.48,6.65,4.7,13.44,5a11.75,11.75,0,0,0,9.83-4.79s2-3.71,9-2.49c.61,0,3.82-4.32.22-9.13-3.86-2.24-5.82-.8-7.77-3,1.85-16.22-8.17-16.64-8.17-29.31a40,40,0,0,1,7.58-23.56c-8.59-11.16-16.75-5.1-23.26-.12a6.62,6.62,0,0,0-2.51,6.27c.74,4.78,2.75,9.31-1,13.71A16.92,16.92,0,0,0,199,265a4.5,4.5,0,0,1-6.86,2.36c-7.51-5.38-15.94-4-25.36-1.36-10.94,3.08-19.2.84-25.9-5.07,8.81-13.1,22-15,32.35-10.13,7.57,2.46,13.3-.92,14.73-5.63-11.46.62-14.21-12.77-28.24-14.12-25.18-2.43-37.14,11.27-37.14,11.27-.52-2.12-.17-13.59,8.65-16.42,5.38-2.24,2-6.56-1.19-8-2.6-1.17-5.17-2.39-7.69-3.68a173.7,173.7,0,0,1-26.08-16.4,20.14,20.14,0,0,1-2.94-2.74,20.55,20.55,0,0,1-4.8-16.94,15.52,15.52,0,0,1,.76-3,20.45,20.45,0,0,1,16.6-13.6,19.53,19.53,0,0,1,3.9-.15,20.14,20.14,0,0,1,11.13,4.12c25.36,19.35,59.3,30,95.59,30h0c31.77,0,75.93-11.18,99.3-32.75,5.66-5.22,14.16-8.95,23.3.3A21.51,21.51,0,0,1,343.77,175c.21,5-2.78,13.95-14.28,23.89-12.4,10.7-22.16,15.7-28.85,19.38C292.82,226.35,304.07,224.51,298.9,235.38Z"/>
  <path class="cls-4" d="M297.44,254.79a44.82,44.82,0,0,1,1,9c-.46,17.22-14.61,31.42-31.81,32.38a33.78,33.78,0,0,1-35.72-33.73,13.9,13.9,0,0,1,9.18-14.17c22.29,17.59,28.82-5,42.58-6.62A19.31,19.31,0,0,0,297.44,254.79Z"/>
  <path class="cls-2" d="M315.36,321a4,4,0,1,1,3.32,3.32A4,4,0,0,1,315.36,321Z"/>
</svg>
