<svg id="Layer_1" data-name="Layer 1" xmlns="http://www.w3.org/2000/svg" viewBox="0 0 432 432">
  <defs>
    <style>
      .cls-1, .cls-2 {
        fill: #484848;
      }

      .cls-2 {
        opacity: 0.75;
      }

      .cls-3, .cls-4 {
        fill: #fff;
      }

      .cls-4 {
        opacity: 0.36;
      }
    </style>
  </defs>
  <title>icon-c</title>
  <g>
    <path class="cls-1" d="M296.79,197.3a19.12,19.12,0,0,1,2-1.27,237.09,237.09,0,0,0,23.1-12.93c7.48-4.83,15.75-9.93,15.75-21.2,0-8.16-6.58-19.9-19.89-19.9-2.9,0-5.64.11-13.47,5.25-28.35,18.63-58.87,28.49-92.2,28.49-50.69,0-85.74-23.78-88.87-25.9-2.93-2-5.63-4.45-8.8-6a20.1,20.1,0,0,0-17.63,0,19.64,19.64,0,0,0-5.94,30.56,44.2,44.2,0,0,0,8,6.89,220.71,220.71,0,0,0,25.47,14.39,15.42,15.42,0,0,1,1.78,1.15,5.67,5.67,0,0,1,1.7,2,3.41,3.41,0,0,1-.46,3.71,11.75,11.75,0,0,1-9.68,4.11c2.91,1.56,8.46,1.95,12.18,2-3.06,3.29-3.73,8.18-3.84,12.79,7.29-10.09,21-16.39,37.49-11.81,3.87,1.08,6.66,4,9.1,7.09s5.42,6.48,9.87,6.24c-1.16,3.82-4.81,5.85-8.61,6.15a13.69,13.69,0,0,1-5.95-.83,29.94,29.94,0,0,0-7.67-2.13,23.07,23.07,0,0,0-14.74,3.49,26.68,26.68,0,0,0-5.45,4.55,31.74,31.74,0,0,0-2.29,2.77,13,13,0,0,0-.78,1.45s.77.63,1,.8a30,30,0,0,0,6.35,3.67,23.46,23.46,0,0,0,8.08,1.58c5.68.12,10.89-2,16.39-3s12.77-.58,16,1.91a29.43,29.43,0,0,0,2.57,2.09l.27.18a2.55,2.55,0,0,0,.52.24,3.36,3.36,0,0,0,1.71.17,3.46,3.46,0,0,0,2.86-2.85,1.34,1.34,0,0,0,0-.2c.5-.89.87-2,1.56-3.39,1.17-2.3,3.21-4.08,3.78-6.66.63-2.84-.26-5.7-.77-8.48-.47-2.59-.12-4.93,1.88-6.79a32.54,32.54,0,0,1,6.05-4.3,13.65,13.65,0,0,1,7.1-2,11,11,0,0,1,6.56,2.73,20.66,20.66,0,0,1,2.47,2.48c.41.48.74.69.44,1.3s-.83,1.24-1.2,1.85a40.33,40.33,0,0,0-3.67,7.6,36.6,36.6,0,0,0-2.09,15.59,23.67,23.67,0,0,0,2.13,7.86c1.18,2.51,2.8,4.81,3.67,7.47a19.86,19.86,0,0,1,.81,3.73c0,.3.06.6.09.88a3.28,3.28,0,0,0,.34,1.44,1.89,1.89,0,0,0,.09.21,3.45,3.45,0,0,0,2.23,1.65l1,.44a34.33,34.33,0,0,1,3.65,1.8c3.5,2.08,8.18,7.22,3.44,10.6-.68.49-2.82,1.62-3.69,1.49a3.62,3.62,0,0,0-2.69-1.48,3.07,3.07,0,0,0-2.16.65c-1,.69-1.66,2.1-2.37,3a13.78,13.78,0,0,1-12.13,5.82,14.64,14.64,0,0,1-6.08-1.91,19.78,19.78,0,0,1-4.76-4.32,7.55,7.55,0,0,0-4.62-2.89,3.24,3.24,0,0,0-2.76.58,2.77,2.77,0,0,1-1.12.15,8.87,8.87,0,0,1-3.17-1.06,11,11,0,0,1-4.83-5.29c-.17-.38-.16-.63-.58-.7a4.81,4.81,0,0,0-1.62.5,41.85,41.85,0,0,0-4,1.6,54.45,54.45,0,0,0-13.53,9.17,37,37,0,0,0-5.4,5.93c-1.51,2.09-3,4.22-4.57,6.23a44.12,44.12,0,0,1-10.89,10.14c-9.26,5.77-20.42,5.09-30.21,1a16.64,16.64,0,0,1-9.08-8.53,17.54,17.54,0,0,1-.51-12.88,20.08,20.08,0,0,1,1.66-3.43,6.86,6.86,0,0,1,1.76-2.3,1.69,1.69,0,0,1,2.28.26c.59.76.4,1.88.44,2.76a11.9,11.9,0,0,0,6.39,9.87c8.2,4.22,18.21-3,16.85-12.08a11.77,11.77,0,0,0-8.17-9.52c-5-1.47-10,.28-14,3.29a26.77,26.77,0,0,0-8.84,11.44,29.23,29.23,0,0,0-1.25,16.2,39.42,39.42,0,0,0,14.47,23.88c8.49,6.49,19.45,9.45,30,9.7,2.42.06,9.68,0,13.93-1.86a.63.63,0,0,1,.78.91c-2.07,3.44-6.18,5.37-10.64,5.3,4.19,2,8.92,2,13.77,1.82,5-.18,10-1.45,14.89-2.74A66.56,66.56,0,0,0,201.33,327a29.39,29.39,0,0,0,5.37-5.2,24,24,0,0,0,2.07-2.87,5.2,5.2,0,0,1,2.33-2.51,3.7,3.7,0,0,1,5,2.64c.72,2.43,3.75,5.66,6.33,7.7,8.1,6.38,17,9.37,26.37,12.23a87.15,87.15,0,0,0,14.73,3.21,54.46,54.46,0,0,0,8.56.45c2.58-.1,5.58-.45,7.75-2a11.36,11.36,0,0,1-10.93-6.05.35.35,0,0,1,.51-.45c4.19,2.54,9.23,3.4,14.08,3.51a57.76,57.76,0,0,0,16.44-2c11.09-3,19.73-11,24.51-21.36,4.63-10.05,6-22.33,0-32.1a26.36,26.36,0,0,0-4.75-5.67,18,18,0,0,0-6.52-4.09c-5.11-1.47-10.4,2.9-9,8.3a6.89,6.89,0,0,0,13.49-.75,1.61,1.61,0,0,1,1.9-1.47c1.06.2,2,1.6,2.62,2.4a17.81,17.81,0,0,1,3.43,14.89,17.3,17.3,0,0,1-9.22,11.29c-10,5-23,2.81-30.55-5.45-2.05-2.24-3.73-4.77-5.8-7a59.79,59.79,0,0,0-6.93-6.28,38.17,38.17,0,0,0-3.47-2.46c-1-.59-2.14-1.17-2.59-2.31a2.77,2.77,0,0,1,1.14-3.33,17.06,17.06,0,0,1,3.06-1.07c11.15-4.07,21-12.82,24.33-24.2a52.48,52.48,0,0,0,1.64-6.83,16.75,16.75,0,0,1-.05-21.73,10.64,10.64,0,0,1,1.69-1.93.6.6,0,0,0,.07-.84,5.81,5.81,0,0,1,1-8.66l.53-.37c-2.92-.78-6.46-2.65-7.66-6,3.7,0,9.76-.38,12.86-2a11.82,11.82,0,0,1-9.5-3.9A3.67,3.67,0,0,1,296.79,197.3Z"/>
    <g>
      <path class="cls-1" d="M212,169.79c48.59,0,83.33-22.87,91.13-28.48a4.4,4.4,0,0,0,1.54-3.25c0-4.3-.79-13.18-.79-13.18C301,87.54,264.57,43.66,212,44.4c-62.66.89-88.14,52-91.81,80a90.92,90.92,0,0,0-1,13.34,4.76,4.76,0,0,0,2,3.75C136.28,152.14,169,169.79,212,169.79Z"/>
      <path class="cls-2" d="M315.62,220.49a5.17,5.17,0,0,0-2.22-4.31c-1.2-.82-3.68-.69-3.93-.69H303.7a4.45,4.45,0,0,0-4.41,4.85,4.6,4.6,0,0,0,4.65,4h1.23a1.59,1.59,0,0,1,1.59,1.59v.88a4.6,4.6,0,0,0,4,4.65,4.44,4.44,0,0,0,4.85-4.41Z"/>
      <path class="cls-2" d="M311.87,299.43a3.44,3.44,0,1,0-3.94-3.94A3.45,3.45,0,0,0,311.87,299.43Z"/>
      <path class="cls-2" d="M315.16,237.39a3.88,3.88,0,1,0-4.44,4.44A3.91,3.91,0,0,0,315.16,237.39Z"/>
      <path class="cls-2" d="M315.16,249.78a3.88,3.88,0,1,0-4.44,4.44A3.9,3.9,0,0,0,315.16,249.78Z"/>
      <path class="cls-2" d="M311.94,259a3.87,3.87,0,1,0,3.22,3.21A3.88,3.88,0,0,0,311.94,259Z"/>
    </g>
    <path class="cls-2" d="M311.33,339.31a2.74,2.74,0,1,0,2.74,2.74A2.74,2.74,0,0,0,311.33,339.31Z"/>
    <path class="cls-1" d="M298,233.22h0v0Z"/>
    <circle class="cls-3" cx="311.33" cy="319.35" r="2.65"/>
    <path class="cls-4" d="M287.79,240.18a31,31,0,1,1-59.57-12.06c4.71-11.13,29.73-2.8,48.92-11.32A30.9,30.9,0,0,1,287.79,240.18Z"/>
  </g>
</svg>
