<svg id="Layer_1" data-name="Layer 1" xmlns="http://www.w3.org/2000/svg" viewBox="0 0 432 432">
  <defs>
    <style>
      .cls-1, .cls-2 {
        fill: #484848;
      }

      .cls-1 {
        opacity: 0.67;
      }

      .cls-3, .cls-4 {
        fill: #fff;
      }

      .cls-4 {
        opacity: 0.23;
      }
    </style>
  </defs>
  <title>icon-bw</title>
  <g>
    <circle class="cls-1" cx="319.31" cy="368.19" r="4"/>
    <path class="cls-2" d="M218.38,59.81c76.07,0,95.92,65.36,95.92,95.92h0a3.82,3.82,0,0,1-1.58,3.1q-3.66,2.63-7.5,5-2.12,1.32-4.29,2.56c-24.31,14-53.23,23.52-82.25,23.95s-58.14-8.26-82.86-21.38c-1.89-1-3.76-2.05-5.6-3.13l-.27-.16a15.42,15.42,0,0,1-7.49-13.3v-5.55C122.46,118.29,153.85,59.81,218.38,59.81Z"/>
    <path class="cls-3" d="M319.94,275.94a4,4,0,1,1,3.32-3.32A4,4,0,0,1,319.94,275.94Z"/>
    <path class="cls-3" d="M323.26,282.58a4,4,0,1,1-3.32-3.32A4,4,0,0,1,323.26,282.58Z"/>
    <path class="cls-3" d="M319.94,264.73a4,4,0,1,1,3.32-3.32A4,4,0,0,1,319.94,264.73Z"/>
    <path class="cls-1" d="M318.86,254a4.72,4.72,0,0,1-4.1-4.77v-1.89a.69.69,0,0,0-.69-.69h-1.22a4.72,4.72,0,0,1-4.76-4.11c-.28-2.72,1.71-5,3.61-5h5.85c.26,0,2.83-.13,4.06.71a5.35,5.35,0,0,1,2.3,4.45v6.79A4.59,4.59,0,0,1,318.86,254Z"/>
    <path class="cls-2" d="M298.9,235.38a10.23,10.23,0,0,1,10.23,1.67,5.88,5.88,0,0,0,3.22,10.8h.1a10.32,10.32,0,0,1-5.24,6.3c.13,2.7.12,5.78.12,9.45A42.4,42.4,0,0,1,277,304.17a2.8,2.8,0,0,0-.62,5.06C283.7,313.81,290,319,292.51,324c4.37,8.84,14.76,13.83,30.15,9.51,6.4-1.79,11.89-6.88,13.14-13.46a18.52,18.52,0,0,0-4.2-15.56,2.63,2.63,0,0,0-4.46.68,7.8,7.8,0,0,1-1,1.86,6.89,6.89,0,0,1-5.65,3c-4-.06-6.63-3.12-7.29-7.05a4.29,4.29,0,0,1-.05-1.55,7.14,7.14,0,0,1,5.68-5.71,9.25,9.25,0,0,1,2.81,0,12.77,12.77,0,0,1,3.25,1.53c9.51,5.3,15.74,16.45,13.19,30.54-3.69,20.4-17.16,30.42-27.27,33.37-11.81,3.45-26.26,3.72-34.13-1.73,1.66,4.82,6.79,8.45,11.74,7.34-8.85,6.22-47.84-2.27-61.65-18.85-1.16-1.4-2.19-2.76-3.14-4.12a4.11,4.11,0,0,0-6.75,0c-1,1.36-2,2.73-3.18,4.13-13.93,16.58-53.29,25.07-62.23,18.85,5,1.11,10.19-2.52,11.85-7.34-22.86,7-57.44-9.7-62-31.64-3.08-14.92,4.59-26.55,15.14-31.55a15.79,15.79,0,0,1,6.24-1.09,12.07,12.07,0,1,1-12.08,12.08v-.08a2.12,2.12,0,0,0-3.83-1.25A18.22,18.22,0,0,0,105,324.17a15.91,15.91,0,0,0,8,8c5.33,2.39,20.5,11.46,36.3-5,5.32-5.54,11.21-15.15,16.83-19.74,1.5-1.22,7.29-8.67,20.85-10.62-.28,3.56,4.14,9.5,8.74,9.5,0,0,4.78-5.09,8.93.43,1.89,2.52,5.78,4.42,12.57,4.57,4.25.09,8.1-.54,10.9-4.7,2.93-1.73,7.19-2.72,9.69-.83.48.36,3.76-5.44-.67-10.44h0c-8.84-7.76-16-19.61-16-32.28a40,40,0,0,1,7.58-23.56c-8.59-11.16-16.76-5.1-23.26-.12a6.62,6.62,0,0,0-2.51,6.27c.74,4.78,2.75,9.31-1,13.71A17,17,0,0,0,199,265a4.5,4.5,0,0,1-6.86,2.36c-7.51-5.37-16-4-25.36-1.35-10.94,3.08-19.2.84-25.9-5.07,8.81-13.1,22-15,32.35-10.13l.25.08c5.58,1.73,9.23-5.63,4.63-9.22-5-3.9-9.37-9.74-18.39-10.61-15.45-1.49-25.92,3.09-31.7,6.85a2.42,2.42,0,0,1-3.54-3,29.62,29.62,0,0,1,6.74-9,4.81,4.81,0,0,0-1.18-8c-2.6-1.17-5.17-2.39-7.69-3.68a173.7,173.7,0,0,1-26.08-16.4,20.14,20.14,0,0,1-2.94-2.74,20.5,20.5,0,0,1-4.8-16.92,15,15,0,0,1,.77-3,20.44,20.44,0,0,1,16.59-13.59,19.53,19.53,0,0,1,3.9-.15,20.14,20.14,0,0,1,11.13,4.12c25.36,19.35,59.3,30,95.59,30h0c31.77,0,75.93-11.18,99.3-32.75,5.66-5.22,14.16-8.95,23.3.3A21.51,21.51,0,0,1,343.77,175c.21,5-2.78,13.95-14.28,23.89-12.4,10.7-22.16,15.7-28.85,19.38C292.82,226.35,304.07,224.51,298.9,235.38Z"/>
    <path class="cls-3" d="M315.36,321a4,4,0,1,1,3.32,3.32A4,4,0,0,1,315.36,321Z"/>
    <path class="cls-1" d="M323.26,321a4,4,0,1,0-3.32,3.32A4,4,0,0,0,323.26,321Z"/>
    <path class="cls-1" d="M322.23,257.83c-4.28-3.23-9.09,1.58-5.86,5.86l0,0c4.27,3.24,9.09-1.58,5.85-5.85Z"/>
    <path class="cls-1" d="M319.94,268a4,4,0,1,0,3.32,3.32A4,4,0,0,0,319.94,268Z"/>
    <path class="cls-1" d="M319.94,279.26a4,4,0,1,0,3.32,3.32A4,4,0,0,0,319.94,279.26Z"/>
  </g>
  <path class="cls-4" d="M297.44,254.79a44.82,44.82,0,0,1,1,9c-.46,17.22-14.61,31.42-31.81,32.38a33.78,33.78,0,0,1-35.72-33.73s.23-15.31,10.59-19.4c22,5.38,36.36-15.17,49.73-.82C291.19,242.21,285.33,252.27,297.44,254.79Z"/>
</svg>
