<svg xmlns="http://www.w3.org/2000/svg" viewBox="0 0 401.96 181.83">
  <defs>
    <style>
      .cls-1 {
        isolation: isolate;
      }

      .cls-2 {
        opacity: 0.05;
      }

      .cls-3 {
        fill: #484848;
      }

      .cls-4 {
        fill: #333;
      }

      .cls-5, .cls-6, .cls-7 {
        fill: #656770;
      }

      .cls-5 {
        opacity: 0.54;
      }

      .cls-7 {
        opacity: 0.26;
        mix-blend-mode: multiply;
      }

      .cls-14, .cls-8, .cls-9 {
        fill: #fff;
      }

      .cls-9 {
        opacity: 0.23;
      }

      .cls-10 {
        fill: #d1ae00;
      }

      .cls-11 {
        font-size: 39.89px;
        fill: #1a1928;
        font-family: AmericanTypewriter, American Typewriter;
        letter-spacing: 0.19em;
      }

      .cls-12 {
        letter-spacing: 0.2em;
      }

      .cls-13 {
        fill: #9e9e9e;
      }

      .cls-14 {
        opacity: 0.13;
      }
    </style>
  </defs>
  <title>logo-w-dark copy 2</title>
  <g class="cls-1">
    <g id="Layer_1" data-name="Layer 1">
      <g class="cls-2">
        <path class="cls-3" d="M29.32,64.13l.15.09c1,.61,2.06,1.19,3.11,1.75A96.81,96.81,0,0,0,78.74,77.21a96.1,96.1,0,0,0,45.83-12.67c.8-.47,1.6-.94,2.38-1.43,1.74-1.08,3.42-2.22,5.06-3.43V58.59c0-17-3.47-53.43-53.43-53.43C33,5.16,25.14,37.74,25.14,53.63v3.09A8.59,8.59,0,0,0,29.32,64.13Z"/>
        <path class="cls-3" d="M137.91,137.42a6.41,6.41,0,0,0-3.38-.76,3.9,3.9,0,0,0-3.17,3.08,4.32,4.32,0,0,0-.1.88,3.93,3.93,0,0,0,4.35,3.86,4.15,4.15,0,0,0,3.37-2.25,3.7,3.7,0,0,0,.32-.87,1,1,0,0,1,1.77-.54A10.31,10.31,0,0,1,144,150.1a10.09,10.09,0,0,1-7.32,7.5c-8.57,2.41-14-1.52-16.8-5.3a32.88,32.88,0,0,0-9-8.2,1.57,1.57,0,0,1,.4-2.83,23.61,23.61,0,0,0,16.86-22.59c0-2.05,0-3.76-.07-5.27A5.75,5.75,0,0,0,131,109.9h0a3.28,3.28,0,0,1-1.8-6,5.71,5.71,0,0,0-5.69-.93c3-4.14-2.86-4.59,1-9.53a81.5,81.5,0,0,0,16.07-10.8c6.41-5.53,8.07-10.54,8-13.3a12,12,0,0,0-2.61-6.64c-5.09-5.15-9.83-3.07-13-.17-13,12-37.62,18.25-55.31,18.25h0c-20.22,0-39.13-5.94-53.25-16.72A11.36,11.36,0,0,0,6.64,69.42a8.72,8.72,0,0,0-.43,1.67,11.46,11.46,0,0,0,2.68,9.44,10.71,10.71,0,0,0,1.63,1.52,97.48,97.48,0,0,0,14.53,9.14c1.39.71,2.8,1.38,4.23,2A2.7,2.7,0,0,1,30,97.67c-3.9,3.47-3,9.16-1.46,10.51,0,0,4.82-5.87,17.3-7.61,10.57-1.48,9.35,8.21,15.73,7.86-.79,2.63-4,4.51-8.21,3.14-5.75-2.74-13.11-1.65-18,5.64,3.73,3.29,8.33,4.54,14.42,2.83,5.25-1.48,10-2.24,14.13.75a2.47,2.47,0,0,0,3.79-1.23,9.55,9.55,0,0,1,1.75-3.22c2.08-2.47,1-5,.54-7.68a3.65,3.65,0,0,1,1.4-3.45c3.62-2.77,8.17-6.16,13,.07a22.26,22.26,0,0,0-4.22,13.12c0,7,4,13.66,8.88,18h0c2,2.67-.25,4.27-.59,4.25-1.61-.12-4.24.43-4.55,2.23a6,6,0,0,1-5.56,3.71c-3.78-.18-5.21-1.09-7.4-3.84-2.4-3-4.47-1.45-4.47-1.45a5.83,5.83,0,0,1-5.37-4.08c-7.29,2.12-11.64,7.1-12.47,7.78A100.39,100.39,0,0,1,39,152.3a37.74,37.74,0,0,1-10.86,4.81,10.33,10.33,0,0,1-8.28-.24,8.86,8.86,0,0,1-4.5-4.5,10.15,10.15,0,0,1,1.12-10.21,1.16,1.16,0,0,1,2.08.77v0a6.73,6.73,0,1,0,6.72-6.72,8.76,8.76,0,0,0-3.47.6c-5.88,2.79-10,9.23-8.43,17.58C15.45,165.8,22,169,27.17,171.85c6.06,3.31,16.31,3.24,20.73.21-.93,2.68-3.82,4.71-6.6,4.09,5,3.46,26.9-1.27,34.67-10.51a36.46,36.46,0,0,0,3.65-5.27,36.23,36.23,0,0,0,3.63,5.27c7.69,9.24,29.41,14,34.34,10.51-2.76.62-5.62-1.41-6.54-4.09,4.39,3,12.43,2.88,19,1,5.64-1.64,13.14-7.22,15.19-18.59C146.67,146.58,143.2,140.37,137.91,137.42Z"/>
      </g>
      <g>
        <path class="cls-3" d="M74.27,72.68A96.16,96.16,0,0,1,30,61.58C29,61,27.93,60.44,26.94,59.86l-.14-.09a7.37,7.37,0,0,1-3.57-6.33V50.35c0-7.89,2.52-47.23,52.19-47.23,34.63,0,52.18,17.56,52.18,52.19v.45c-1.45,1.05-2.95,2.06-4.46,3-.78.48-1.56.94-2.35,1.4a95.22,95.22,0,0,1-45.22,12.5Z"/>
        <path class="cls-4" d="M75.42,4.37c20.7,0,35.28,6.45,43.34,19.17,5.08,8,7.57,18.36,7.59,31.58-1.26.9-2.56,1.77-3.87,2.58-.73.46-1.49.91-2.32,1.38A93.67,93.67,0,0,1,75.55,71.42H74.27a94.79,94.79,0,0,1-43.67-11c-1-.54-2-1.11-3-1.69l-.15-.08a6.13,6.13,0,0,1-2.95-5.26V50.35c0-5,.89-17.82,9.11-28.69C42.26,10.19,56.33,4.37,75.42,4.37m0-2.5C29.81,1.87,22,34.45,22,50.35v3.09a8.6,8.6,0,0,0,4.18,7.41l.15.09q1.53.9,3.12,1.74A96.82,96.82,0,0,0,74.27,73.93h1.32a96.09,96.09,0,0,0,45.82-12.67c.8-.46,1.6-.93,2.39-1.42,1.73-1.08,3.42-2.23,5-3.44V55.31c0-17-3.47-53.44-53.43-53.44Z"/>
      </g>
      <circle class="cls-5" cx="131.65" cy="173.66" r="2.23"/>
      <path class="cls-6" d="M75.42,1.87c50,0,53.43,36.41,53.43,53.44v1.08c-1.63,1.21-3.32,2.36-5,3.44-.79.49-1.59,1-2.39,1.42A96.09,96.09,0,0,1,75.59,73.92,96.67,96.67,0,0,1,29.43,62.68q-1.59-.84-3.12-1.74l-.15-.09A8.6,8.6,0,0,1,22,53.44V50.35C22,34.45,29.81,1.87,75.42,1.87Z"/>
      <path class="cls-7" d="M75.42,4.87c20.52,0,35,6.37,42.92,18.94,5,7.9,7.46,18.06,7.51,31.05-1.19.84-2.41,1.65-3.64,2.42-.72.45-1.47.9-2.3,1.37A93.27,93.27,0,0,1,75.54,70.92H74.27A94.36,94.36,0,0,1,30.83,60c-1-.54-2-1.1-3-1.68l-.14-.08A5.62,5.62,0,0,1,25,53.44V50.35c0-5,.88-17.64,9-28.39C42.56,10.62,56.5,4.87,75.42,4.87m0-3C29.81,1.87,22,34.45,22,50.35v3.09a8.6,8.6,0,0,0,4.18,7.41l.15.09q1.53.9,3.12,1.74A96.82,96.82,0,0,0,74.27,73.93h1.32a96.09,96.09,0,0,0,45.82-12.67c.8-.46,1.6-.93,2.39-1.42,1.73-1.08,3.42-2.23,5-3.44V55.31c0-17-3.47-53.44-53.43-53.44Z"/>
      <path class="cls-8" d="M132,122.27a2.23,2.23,0,1,1,1.85-1.85A2.22,2.22,0,0,1,132,122.27Z"/>
      <path class="cls-8" d="M133.85,126a2.23,2.23,0,1,1-1.85-1.85A2.23,2.23,0,0,1,133.85,126Z"/>
      <path class="cls-8" d="M132,116a2.22,2.22,0,0,1-2.55-2.55A2.23,2.23,0,1,1,132,116Z"/>
      <path class="cls-6" d="M120.28,99.68a5.53,5.53,0,0,1,2-.39,5.7,5.7,0,0,1,3.65,1.32,3.28,3.28,0,0,0,1.8,6h0a5.76,5.76,0,0,1-2.91,3.51c.07,1.5.06,3.22.06,5.26A23.61,23.61,0,0,1,108.11,138a1.58,1.58,0,0,0-.39,2.84,32.87,32.87,0,0,1,9,8.2c2.75,3.78,8.22,7.7,16.79,5.3a10.09,10.09,0,0,0,7.32-7.5,10.35,10.35,0,0,0-2.91-9.29,1.06,1.06,0,0,0-1.78.55,3.7,3.7,0,0,1-.32.87,4.14,4.14,0,0,1-3.37,2.24,3.91,3.91,0,0,1-4.34-3.85,3.65,3.65,0,0,1,.1-.88,3.86,3.86,0,0,1,3.16-3.08,6.27,6.27,0,0,1,3.38.75c5.3,3,8.77,9.17,7.35,17-2.06,11.36-9.56,16.94-15.2,18.59-6.58,1.92-14.62,2.07-19-1,.92,2.69,3.78,4.71,6.54,4.09-4.93,3.47-26.65-1.27-34.34-10.5a35.61,35.61,0,0,1-2.71-3.74,1.08,1.08,0,0,0-1.84,0,34.53,34.53,0,0,1-2.73,3.74c-7.77,9.23-29.69,14-34.67,10.5,2.79.62,5.67-1.4,6.6-4.09-4.42,3-14.67,3.1-20.72-.21-5.17-2.82-11.73-6.05-13.8-17.41-1.53-8.35,2.56-14.79,8.43-17.58a8.85,8.85,0,0,1,3.48-.61,6.73,6.73,0,1,1-6.73,6.73v0a1.18,1.18,0,0,0-2.12-.72,10.15,10.15,0,0,0-1,10.24,8.89,8.89,0,0,0,4.53,4.45,10.36,10.36,0,0,0,8.21.21A38.16,38.16,0,0,0,35.84,149a100.79,100.79,0,0,0,9.62-7.32c.83-.68,5.19-5.66,12.47-7.78A5.84,5.84,0,0,0,63.3,138s2.07-1.55,4.47,1.45c2.2,2.75,3.62,3.67,7.4,3.84a6,6,0,0,0,5.56-3.71c.31-1.79,3-2.34,4.55-2.23.34,0,2.62-1.58.59-4.24h0C81,128.77,77,122.17,77,115.11A22.35,22.35,0,0,1,81.21,102c-4.78-6.22-9.34-2.84-13-.06a3.65,3.65,0,0,0-1.4,3.45c.41,2.67,1.55,5.21-.54,7.68a14.7,14.7,0,0,0-2.26,3.22,10.88,10.88,0,0,0-.62,3.85s-2-2.18-2.65-2.62c-4.19-3-8.89-2.24-14.14-.76-6.09,1.72-10.69.47-14.42-2.82,4.9-7.3,12.26-8.38,18-5.65,4.22,1.37,7.41-.51,8.21-3.13-6.39.34-5.17-9.35-15.74-7.87-12.48,1.75-17.3,7.61-17.3,7.61-1.58-1.34-2.44-7,1.46-10.5a2.71,2.71,0,0,0-.75-4.46q-2.14-1-4.22-2A95.63,95.63,0,0,1,7.37,78.77a11.32,11.32,0,0,1-1.64-1.52,11.46,11.46,0,0,1-2.68-9.44,8.72,8.72,0,0,1,.43-1.67,11.39,11.39,0,0,1,9.25-7.58,11.2,11.2,0,0,1,8.37,2.21c14.13,10.78,33,16.72,53.25,16.72h0c17.7,0,42.3-6.23,55.32-18.25,3.14-2.91,7.88-5,13,.17A12,12,0,0,1,145.27,66c.12,2.76-1.55,7.77-8,13.31a82.1,82.1,0,0,1-16.06,10.79C117.43,95.09,123.29,95.53,120.28,99.68Z"/>
      <path class="cls-7" d="M136.21,58.76h0a6.74,6.74,0,0,1,4.65,2.38,9.72,9.72,0,0,1,1.92,5c.09,2.31-1.71,6.66-7.1,11.32-6.15,5.31-14.46,9-16.41,11.16a6.65,6.65,0,0,0-1,7.9c.47,1-.24,5.06-6.51,6.55.32.11,3.1,2.16,6.36,1s4.63.41,4.66,2.86c0,.6,0,1.46,0,1.46a.91.91,0,0,0-.5.86l0,1c.06,1.33.06,2.87.06,4.66v.49a21.21,21.21,0,0,1-15,20.17,4.2,4.2,0,0,0-2.93,3.21,4,4,0,0,0,1.85,4.17,30.23,30.23,0,0,1,8.29,7.55,16.72,16.72,0,0,0,13.76,7.06,21.41,21.41,0,0,0,5.74-.83,13.53,13.53,0,0,0,4.47-2.2c-2.53,7.44-7.87,11.48-12.46,12.82a32.27,32.27,0,0,1-8.78,1.28c-3.45,0-6.33-.67-8.1-1.9a36.81,36.81,0,0,1-6.26-4.34,25.51,25.51,0,0,0,3.32,9C98.59,170.6,87,166.7,82,160.76a32.68,32.68,0,0,1-3.37-4.92l-2.16-3.79-2.18,3.79a33.24,33.24,0,0,1-3.41,4.91c-5,5.95-20.41,10.94-24.64,10.61a17.91,17.91,0,0,0,3.34-8.94s-4.22,5.92-14.47,6.13a21.46,21.46,0,0,1-9.9-2.18l-.52-.28c-4.25-2.32-8.63-4.7-11-11.33,1.72,1,3.75,2.63,7.45,2.32a12.29,12.29,0,0,0,4.57-.87,40.35,40.35,0,0,0,11.41-5.08A90.64,90.64,0,0,0,46,144.5l1-.86c.19-.16.39-.35.69-.64a27.28,27.28,0,0,1,9-6,8,8,0,0,0,6.58,3.52s1.94-.21,2.52.51c2.44,3.07,4.45,4.56,9.24,4.78h.32c6.85-.07,7.5-5.68,9.91-5.95a4.82,4.82,0,0,0,3.41-2.49,1.55,1.55,0,0,0,.1-1.49c1.1.7,3.63.66,5.63.25a19.35,19.35,0,0,1-6.9-4.89c-5-4.42-8-10.44-8-16.11a19.88,19.88,0,0,1,3.77-11.69l1-1.5-1.12-1.45c-2.29-3-4.9-4.49-7.78-4.49-3.5,0-6.49,2.29-8.68,4a6.16,6.16,0,0,0-2.35,5.82c.09.57.2,1.11.31,1.64.46,2.2.54,3.06-.29,4L64,112a4.71,4.71,0,0,1-5.27,1.64,14.4,14.4,0,0,0-4.57-.7,30.74,30.74,0,0,0-8.14,1.4,17,17,0,0,1-4.48.67,11.43,11.43,0,0,1-1.77-.13,2.21,2.21,0,0,1-.74-4.07,10.7,10.7,0,0,1,5.27-1.41,11.52,11.52,0,0,1,4.91,1.13l.15.07.16,0a11.22,11.22,0,0,0,3.51.58,8,8,0,0,0,7.86-5.36s1.38-4.51,1.14-5.29c-1.61,2.47-3.14,2.26-3.91,2.19-1.23-.13-1.77-.77-3.22-2.61C53,97.83,50.5,94.63,44.79,94.63a17.52,17.52,0,0,0-2.43.18A38.92,38.92,0,0,0,30.08,98.5a1.38,1.38,0,0,1-1.59-2.21l.05,0a5.11,5.11,0,0,0,1.64-4.6,5.28,5.28,0,0,0-3-4c-1.43-.64-2.82-1.31-4.11-2C18,83.09,8.83,77.05,7.6,75.59a9,9,0,0,1-2.08-7.4A7.3,7.3,0,0,1,5.83,67a8.91,8.91,0,0,1,7.23-6,12.2,12.2,0,0,1,6.63,1.81C34.24,73.9,53.64,80,74.37,80c18.15,0,43.57-6.5,57-18.91a7.66,7.66,0,0,1,4.83-2.32M22.13,135.46a4.16,4.16,0,0,1,3,1.3,4.21,4.21,0,0,1,1.18,3.09,4.29,4.29,0,0,1-4.06,4.06h-.16a4.24,4.24,0,0,1-4.23-4.26,3.7,3.7,0,0,0-.72-2.24,12.76,12.76,0,0,1,2.54-1.59,5.78,5.78,0,0,1,2.41-.37m109.72.38a5,5,0,0,1,1.72.5c.16.09.32.18.47.28a3.72,3.72,0,0,0-.34.9,1,1,0,0,1-.11.29,1.64,1.64,0,0,1-1.3.89h-.13a1.41,1.41,0,0,1-1.55-1.36,1.48,1.48,0,0,1,0-.34v-.11a1.43,1.43,0,0,1,1.18-1m4.36-79.58a9.87,9.87,0,0,0-6.52,3c-13,12-37.62,18.24-55.32,18.25h0c-20.21,0-39.13-5.94-53.25-16.72a11.31,11.31,0,0,0-6.2-2.3l-.65,0a11,11,0,0,0-1.52.11,11.39,11.39,0,0,0-9.25,7.58,8.72,8.72,0,0,0-.43,1.67,11.46,11.46,0,0,0,2.68,9.44,11.32,11.32,0,0,0,1.64,1.52A95.63,95.63,0,0,0,21.9,87.9q2.07,1.06,4.22,2a2.71,2.71,0,0,1,.75,4.46c-3.9,3.47-3,9.16-1.46,10.5,0,0,4.82-5.86,17.3-7.61a15.78,15.78,0,0,1,2.08-.15c8.2,0,7.75,8,13.33,8h.33A5.44,5.44,0,0,1,53,108.74a8.74,8.74,0,0,1-2.74-.46,14.15,14.15,0,0,0-6-1.37c-4.29,0-8.72,2.09-12,7a13.57,13.57,0,0,0,9.27,3.59,19,19,0,0,0,5.15-.77,28.22,28.22,0,0,1,7.47-1.3,11,11,0,0,1,6.66,2.06c.45.31,2.27,2,2.27,2s.59-2.63.89-3.56c.37-1.15,1.58-2,2.38-2.91,2.09-2.47,1-5,.54-7.69a3.65,3.65,0,0,1,1.4-3.44c2.12-1.62,4.55-3.45,7.16-3.45,1.86,0,3.81.92,5.8,3.51A22.35,22.35,0,0,0,77,115.11c0,7.06,4,13.66,8.89,18h0c2,2.64-.22,4.24-.58,4.24h-.43c-1.61,0-3.85.6-4.13,2.24a6,6,0,0,1-5.35,3.72h-.21c-3.78-.17-5.2-1.09-7.4-3.84a4.06,4.06,0,0,0-3.09-1.85,2.48,2.48,0,0,0-1.38.4,5.84,5.84,0,0,1-5.37-4.07C50.65,136,46.29,141,45.46,141.7A100.79,100.79,0,0,1,35.84,149,38.16,38.16,0,0,1,25,153.83a9.93,9.93,0,0,1-3.79.75,10.85,10.85,0,0,1-4.27-.9,9,9,0,0,1-4.72-4.6,10.17,10.17,0,0,1,1.12-10.21,1.1,1.1,0,0,1,.88-.45,1.2,1.2,0,0,1,1.2,1.23v0a6.73,6.73,0,0,0,6.73,6.73h.25A6.73,6.73,0,0,0,22.13,133a8.85,8.85,0,0,0-3.48.61c-5.87,2.79-10,9.23-8.43,17.58,2.07,11.36,8.63,14.59,13.8,17.41a24,24,0,0,0,11.1,2.49c3.83,0,7.44-.78,9.62-2.28A6.21,6.21,0,0,1,39.17,173a4.53,4.53,0,0,1-1-.12c1.11.77,3,1.14,5.5,1.14,8.53,0,23.13-4.46,29.17-11.64a35.06,35.06,0,0,0,2.75-3.77,1.07,1.07,0,0,1,1.81,0,34.6,34.6,0,0,0,2.72,3.77c6,7.18,20.44,11.64,28.9,11.64,2.42,0,4.35-.37,5.44-1.14a4.29,4.29,0,0,1-1,.12,6.18,6.18,0,0,1-5.53-4.21c2.38,1.65,5.83,2.35,9.53,2.35a34.56,34.56,0,0,0,9.48-1.38c5.64-1.65,13.14-7.23,15.2-18.59,1.42-7.85-2-14.07-7.35-17a7.31,7.31,0,0,0-2.91-.79,2.29,2.29,0,0,0-.47,0,3.86,3.86,0,0,0-3.16,3.08,3.65,3.65,0,0,0-.1.88,3.89,3.89,0,0,0,4,3.86h.29a4.14,4.14,0,0,0,3.37-2.24,3.7,3.7,0,0,0,.32-.87,1.05,1.05,0,0,1,1.78-.55,10.35,10.35,0,0,1,2.91,9.29,10.09,10.09,0,0,1-7.32,7.5,18.73,18.73,0,0,1-5.06.73,14.26,14.26,0,0,1-11.73-6,32.87,32.87,0,0,0-9-8.2,1.58,1.58,0,0,1,.4-2.84A23.61,23.61,0,0,0,125,115.39c0-2,0-3.76-.06-5.26a5.76,5.76,0,0,0,2.91-3.51h0a3.28,3.28,0,0,1-1.8-6,5.7,5.7,0,0,0-3.65-1.32,5.53,5.53,0,0,0-2,.39c3-4.15-2.85-4.59,1-9.54a82.1,82.1,0,0,0,16.06-10.79c6.41-5.54,8.08-10.55,8-13.31a12,12,0,0,0-2.61-6.63c-2.25-2.29-4.44-3.15-6.45-3.15Z"/>
      <path class="cls-8" d="M129.45,147.38a2.23,2.23,0,0,1,2.55-2.56,2.23,2.23,0,1,1-2.55,2.56Z"/>
      <path class="cls-5" d="M133.85,147.38a2.23,2.23,0,1,0-1.85,1.85A2.24,2.24,0,0,0,133.85,147.38Z"/>
      <path class="cls-5" d="M132,111.62a2.23,2.23,0,1,0,1.85,1.85A2.25,2.25,0,0,0,132,111.62Z"/>
      <path class="cls-5" d="M132,117.87a2.23,2.23,0,1,0,1.85,1.85A2.22,2.22,0,0,0,132,117.87Z"/>
      <path class="cls-5" d="M132,124.12a2.23,2.23,0,1,0,1.85,1.85A2.22,2.22,0,0,0,132,124.12Z"/>
      <path class="cls-9" d="M119.46,110.49a25.13,25.13,0,0,1,.54,5,18.82,18.82,0,0,1-37.62-.75,7.76,7.76,0,0,1,5.11-7.9c12.42,9.8,16.06-2.81,23.72-3.69A10.78,10.78,0,0,0,119.46,110.49Z"/>
      <g>
        <rect class="cls-10" x="172.4" y="91.22" width="224.57" height="38.19" rx="2.51"/>
        <g>
          <path class="cls-8" d="M188.48,104.52c0-1.37-.47-2.06-1.42-2.06a2,2,0,0,0-.58.06,4.8,4.8,0,0,1-.76.08.8.8,0,0,1-.61-.27.88.88,0,0,1-.25-.65c0-.65.41-1,1.23-1l.39,0,1.47.2a13.85,13.85,0,0,0,1.73.11,14.78,14.78,0,0,0,1.89-.14l1.25-.17.39,0c.82,0,1.23.32,1.23,1a.88.88,0,0,1-.25.65.8.8,0,0,1-.61.27,5.3,5.3,0,0,1-.76-.08,2.09,2.09,0,0,0-.58-.06c-1,0-1.42.69-1.42,2.06v11.17c0,1.39.47,2.09,1.42,2.09a3.66,3.66,0,0,0,.58-.06,6.71,6.71,0,0,1,.76-.08c.57,0,.86.29.86.89s-.41,1-1.23,1H193l-.2,0-1.44-.22a10.84,10.84,0,0,0-1.54-.11,14.28,14.28,0,0,0-2.08.14l-1.28.19-.2,0h-.22c-.8,0-1.2-.33-1.2-1s.29-.89.86-.89l.76,0a2,2,0,0,0,.58.09c.95,0,1.42-.7,1.42-2.09Z"/>
          <path class="cls-8" d="M208.79,102l7.48,15.57V106.3c0-1.44,0-2.24,0-2.39-.16-1-.63-1.45-1.39-1.45a4.31,4.31,0,0,0-.67.07,4.21,4.21,0,0,1-.66.07.85.85,0,0,1-.63-.27.83.83,0,0,1-.27-.62c0-.67.42-1,1.26-1l.36,0,1.25.17a12.69,12.69,0,0,0,1.56.11,16,16,0,0,0,1.92-.15l1-.13.19,0h.2q1.2,0,1.2,1t-1.14.93h-.59q-.85,0-1.11.36a3.48,3.48,0,0,0-.31,1.59v11.84a6.13,6.13,0,0,1-.43,2.7,1.57,1.57,0,0,1-1.5.78c-.92,0-1.69-.65-2.32-2l-7.34-15.18v13c0,1.39.48,2.09,1.42,2.09.15,0,.38,0,.67,0l.67,0a.79.79,0,0,1,.89.9c0,.63-.42.94-1.25.94H209l-.19,0-1.14-.16a11.5,11.5,0,0,0-1.79-.14,14.56,14.56,0,0,0-1.86.14l-1.37.16-.19,0h-.23c-.79,0-1.19-.32-1.19-1a.78.78,0,0,1,.89-.87l.75.06a2.46,2.46,0,0,0,.59.08c.94,0,1.42-.69,1.42-2.09V104.55c0-1.39-.48-2.09-1.44-2.09a3.46,3.46,0,0,0-.55.06,6.34,6.34,0,0,1-.78.08c-.59,0-.88-.31-.88-.92s.4-1,1.19-1l.45,0a20.73,20.73,0,0,0,2.14.14c.28,0,.69,0,1.25-.08a12,12,0,0,1,1.25-.08,1.14,1.14,0,0,1,1.14.58Z"/>
          <path class="cls-8" d="M235.93,100.2a6,6,0,0,1,4.46,1.76v-.39c0-.73.29-1.09.86-1.09s.95.4.95,1.2v.17s0,.31-.08.83a16.58,16.58,0,0,0-.09,1.87c0,.09,0,.39.06.89l.08,1.11a2.06,2.06,0,0,1,0,.39c0,.89-.34,1.34-1,1.34a1,1,0,0,1-1.09-1.11V107l.06-.75c0-.26,0-.47,0-.62A3.26,3.26,0,0,0,239,103a4.7,4.7,0,0,0-3.11-.94,4.41,4.41,0,0,0-2.88.89,3,3,0,0,0-1.07,2.39,2.74,2.74,0,0,0,1.59,2.59,11.77,11.77,0,0,0,3.11.81,10.94,10.94,0,0,1,4.54,1.45,4.53,4.53,0,0,1,1.84,3.87,5.38,5.38,0,0,1-1.87,4.26,7.07,7.07,0,0,1-4.85,1.64,7.25,7.25,0,0,1-5.25-2v.41a3.43,3.43,0,0,1,.11.58.9.9,0,0,1-1,1,1,1,0,0,1-1.12-1.16.3.3,0,0,1,.09-.23l.13-1.45c.06-.72.09-1.18.09-1.39a13.7,13.7,0,0,0-.15-1.67,14.2,14.2,0,0,1-.16-1.67c0-.84.36-1.25,1.06-1.25s1.09.42,1.09,1.25v1.15a4.3,4.3,0,0,0,1.33,3.33,5.11,5.11,0,0,0,3.61,1.23,5.25,5.25,0,0,0,3.36-1,3.33,3.33,0,0,0,1.25-2.73c0-1.77-1.11-2.84-3.34-3.23l-1.59-.28a17.55,17.55,0,0,1-3.67-1,4.19,4.19,0,0,1-1.91-1.65,4.64,4.64,0,0,1-.71-2.55,5,5,0,0,1,1.78-4A6.85,6.85,0,0,1,235.93,100.2Z"/>
          <path class="cls-8" d="M254.34,115.69V104.54c0-1.37-.47-2.05-1.41-2.05a4.68,4.68,0,0,0-.58,0,5.82,5.82,0,0,1-.75.07c-.59,0-.88-.31-.88-.92s.41-1,1.22-1l.42,0,1.36.17a13.11,13.11,0,0,0,1.67.08c.46,0,1,0,1.67-.08,1.52-.13,2.67-.19,3.45-.19a15,15,0,0,1,3.05.27,4.75,4.75,0,0,1,2.88,1.73,5.07,5.07,0,0,1,1.05,3.23,4.76,4.76,0,0,1-1.8,4,8.33,8.33,0,0,1-5.19,1.39h-3.12c-.3,0-.49,0-.57.16a1.17,1.17,0,0,0-.13.7v.56a23.71,23.71,0,0,0,.21,4.27c.14.5.54.75,1.21.75a2,2,0,0,0,.59-.09l.75,0c.57,0,.86.29.86.89s-.41,1-1.23,1l-.38,0-1.4-.2a12.81,12.81,0,0,0-1.75-.08,11.6,11.6,0,0,0-1.59.08l-1.61.22-.17,0H252c-.83,0-1.25-.32-1.25-1a.92.92,0,0,1,.25-.66.83.83,0,0,1,.61-.26,4.8,4.8,0,0,1,.76.08,2.09,2.09,0,0,0,.58.06C253.87,117.78,254.34,117.08,254.34,115.69Zm2.54-12.62a3.31,3.31,0,0,0-.2,1.53v4.13c0,.5.35.79,1.06.86h1.61a14.4,14.4,0,0,0,3.29-.31,3,3,0,0,0,2.48-3.26c0-2.35-1.51-3.53-4.51-3.53C258.38,102.49,257.13,102.68,256.88,103.07Z"/>
          <path class="cls-8" d="M277.68,104.52c0-1.37-.48-2.06-1.42-2.06a2.17,2.17,0,0,0-.59.06,4.69,4.69,0,0,1-.75.08.8.8,0,0,1-.61-.27.88.88,0,0,1-.25-.65c0-.65.39-1,1.16-1l.42,0c2.77.19,4.07.28,3.88.28h.28l6.69-.19,1.44-.09.81,0c1,0,1.44.42,1.44,1.28,0,.15,0,.62-.08,1.42,0,.59-.06,1.14-.06,1.64a13.3,13.3,0,0,0,0,1.36,12,12,0,0,1,.09,1.2c0,.71-.33,1.06-1,1.06s-1-.49-1-1.48v-1.44c0-1.56-.32-2.48-1-2.76a13.14,13.14,0,0,0-3.73-.31,15.9,15.9,0,0,0-2.34.09,1.52,1.52,0,0,0-1.2,1.67v2.78c0,.74.17,1.17.5,1.28a2.41,2.41,0,0,0,.66.06h1.12c1.15,0,1.73-.4,1.73-1.2a6.24,6.24,0,0,0-.07-.86,8.68,8.68,0,0,1-.07-1q0-1.11,1-1.11c.66,0,1,.4,1,1.19,0,.15-.06.73-.18,1.73a19.83,19.83,0,0,0-.15,2.26c0,.37,0,1,.11,2,0,.15.06.48.14,1a8.66,8.66,0,0,1,.08,1,.89.89,0,0,1-1,1c-.65,0-1-.39-1-1.17,0-.21,0-.5.07-.89a7.4,7.4,0,0,0,.07-.9c0-.79-.53-1.19-1.59-1.19h-1.25c-.54,0-.87.09-1,.28a2.51,2.51,0,0,0-.18,1.19v1.73q0,.45,0,1.2c0,.61,0,1,0,1.22,0,.74.16,1.21.44,1.39a3.29,3.29,0,0,0,1.45.2h3.79a3.72,3.72,0,0,0,2.25-.49,2.21,2.21,0,0,0,.62-1.82c0-.28,0-.69-.05-1.24s0-1,0-1.24c0-.84.33-1.25,1-1.25s1,.42,1,1.28c0,.33,0,.84,0,1.53s0,1.2,0,1.53,0,.65,0,1.16,0,.89,0,1.15a1.15,1.15,0,0,1-1.29,1.31c-.2,0-.52,0-1,0q-.33,0-1.23,0l-2.17-.06c-1.58,0-2.94,0-4.09,0-1.75,0-3.45,0-5.13.16l-.25,0h-.16c-.78,0-1.17-.33-1.17-1s.29-.89.86-.89l.75,0a2.12,2.12,0,0,0,.59.09c.94,0,1.42-.7,1.42-2.09Z"/>
          <path class="cls-8" d="M307.22,100.2a6.23,6.23,0,0,1,5,2.37v-.63a1,1,0,0,1-.06-.2q-.06-.61-.06-.57c0-.64.29-1,.87-1s.92.39.92,1.17c0,.15,0,.6-.06,1.34-.11.93-.17,1.57-.17,1.92a11.44,11.44,0,0,0,.1,1.53l.13,1.06v.28c0,.84-.34,1.25-1,1.25s-1.07-.39-1.05-1.18v-1a4.12,4.12,0,0,0-1.25-3.23,4.75,4.75,0,0,0-3.42-1.24,5.06,5.06,0,0,0-4.31,2.11,9.79,9.79,0,0,0-1.55,5.85,9.7,9.7,0,0,0,1.6,6,5.7,5.7,0,0,0,7.27,1.38,4.16,4.16,0,0,0,1.74-2,5.86,5.86,0,0,0,.33-2.17c0-.86.36-1.28,1.06-1.28s1.14.42,1.14,1.28a6.3,6.3,0,0,1-2.06,4.87,8.27,8.27,0,0,1-11.32-.75,10.55,10.55,0,0,1-2.24-7,11.16,11.16,0,0,1,2.3-7.32A7.45,7.45,0,0,1,307.22,100.2Z"/>
          <path class="cls-8" d="M331.06,115.72c0,1.39.48,2.08,1.42,2.08a4.31,4.31,0,0,0,.67-.07,5.54,5.54,0,0,1,.67-.06.85.85,0,0,1,.63.26.89.89,0,0,1,.26.63c0,.65-.42,1-1.25,1h-.17l-.19,0-1.37-.19a11.63,11.63,0,0,0-1.75-.11,13,13,0,0,0-1.87.11l-1.39.19-.2,0h-.19c-.82,0-1.23-.32-1.23-1a.79.79,0,0,1,.89-.89,5.38,5.38,0,0,1,.67.06,4.31,4.31,0,0,0,.67.07c.93,0,1.39-.69,1.39-2.08V104.41a1.77,1.77,0,0,0-2-2h-.86a1.75,1.75,0,0,0-2,1.95c0,.47,0,.78,0,1l.11,1a6.29,6.29,0,0,1,0,.7c0,1.16-.36,1.75-1.09,1.75s-1-.43-1-1.28c0-.24,0-.66.06-1.25.05-.9.08-1.46.08-1.7,0-.47,0-1,0-1.45-.07-1-.1-1.4-.1-1.25,0-.78.35-1.17,1.06-1.17.26,0,.86,0,1.81.08l2.28.11h3.16l3-.05c.35,0,.95,0,1.81-.07s1.35-.07,1.78-.07c.92,0,1.39.38,1.39,1.14v.05c0,.19,0,.53-.07,1s-.1,1-.16,1.62v.31c0,.27,0,.71.09,1.3.07.78.11,1.27.11,1.45,0,.76-.36,1.14-1.09,1.14s-1.06-.46-1.06-1.39q0-.51.09-1.5c.05-.66.08-1.16.08-1.5,0-1.28-.73-1.93-2.2-1.93h-.78a2.08,2.08,0,0,0-1.47.43,2.13,2.13,0,0,0-.51,1.44l-.11,2Z"/>
          <path class="cls-8" d="M353.51,120a7.12,7.12,0,0,1-5.86-2.67,11.18,11.18,0,0,1-2.16-7.24,11,11,0,0,1,2.17-7.25,7.33,7.33,0,0,1,6-2.64,7.19,7.19,0,0,1,5.8,2.57,10.4,10.4,0,0,1,2.16,6.93,11.9,11.9,0,0,1-2.18,7.52A7.12,7.12,0,0,1,353.51,120Zm.05-17.79a4.83,4.83,0,0,0-4.15,2.06,9.85,9.85,0,0,0-1.47,5.79,10,10,0,0,0,1.47,5.86,5.05,5.05,0,0,0,8.23-.08,10,10,0,0,0,1.52-5.86,9.71,9.71,0,0,0-1.45-5.75A4.78,4.78,0,0,0,353.56,102.21Z"/>
          <path class="cls-8" d="M383.19,109.12a9.62,9.62,0,0,1-2.06.66,3.32,3.32,0,0,1,2.25,1.22,5.53,5.53,0,0,1,.62,3v1.61c0,1.33.42,2,1.27,2s1.29-.79,1.29-2.37v-1.91a3.4,3.4,0,0,1,.12-1.1.85.85,0,0,1,.86-.47c.67,0,1,.39,1,1.17,0,0,0,.22,0,.61v2c0,.12,0,.28,0,.51a3.44,3.44,0,0,1-.91,2.52,3.41,3.41,0,0,1-2.52.9q-3.29,0-3.29-3.31v-2.4a3.21,3.21,0,0,0-.7-2.46,4.9,4.9,0,0,0-2.93-.6h-2.58c-.59,0-.89.36-.89,1.08V114a22.31,22.31,0,0,0,.06,2.34c.17.93.63,1.39,1.39,1.39a4.27,4.27,0,0,0,.59,0,5.63,5.63,0,0,1,.72,0c.59,0,.89.3.89.92s-.4,1-1.2,1l-.41,0-1.51-.2a12.78,12.78,0,0,0-1.53-.11,16.5,16.5,0,0,0-1.95.14l-1.34.17-.41,0c-.8,0-1.2-.33-1.2-1s.29-.89.86-.89l.75,0a2.12,2.12,0,0,0,.59.09c.95,0,1.42-.7,1.42-2.09V104.52c0-1.39-.47-2.09-1.42-2.09a6.07,6.07,0,0,0-.67.07,4.31,4.31,0,0,1-.67.07.83.83,0,0,1-.61-.26.88.88,0,0,1-.25-.63c0-.65.41-1,1.22-1l.39,0,1.42.14a13.61,13.61,0,0,0,1.4.06q.85,0,1.92-.06l2.12-.11c.7,0,1.35-.05,1.94-.05q6.13,0,6.13,4.66A3.77,3.77,0,0,1,383.19,109.12Zm-7.71-.23h2.62a7.2,7.2,0,0,0,3.51-.67,2.85,2.85,0,0,0,1.42-2.7c0-2.11-1.46-3.17-4.36-3.17a9.16,9.16,0,0,0-3.15.35,1.41,1.41,0,0,0-.85,1.38v4.09a.78.78,0,0,0,.17.6A1.17,1.17,0,0,0,375.48,108.89Z"/>
        </g>
        <text class="cls-11" transform="translate(171.11 82.59)">C<tspan class="cls-12" x="32.95" y="0">APTION</tspan></text>
        <g>
          <g>
            <path class="cls-13" d="M175.44,139a2.25,2.25,0,0,1,1.82.86v-.23l0-.07a1.92,1.92,0,0,0,0-.21c0-.23.11-.35.32-.35s.33.14.33.43c0,.05,0,.21,0,.48s-.06.57-.06.7a5.21,5.21,0,0,0,0,.55l.05.38v.1c0,.31-.12.46-.36.46s-.39-.15-.39-.43v-.36a1.44,1.44,0,0,0-.45-1.17,1.69,1.69,0,0,0-1.23-.45,1.81,1.81,0,0,0-1.56.76,4.28,4.28,0,0,0,0,4.27,2.05,2.05,0,0,0,2.62.5,1.46,1.46,0,0,0,.63-.72,2.06,2.06,0,0,0,.12-.78c0-.31.13-.47.39-.47s.41.16.41.47a2.3,2.3,0,0,1-.74,1.76,2.73,2.73,0,0,1-1.93.69,2.69,2.69,0,0,1-2.17-1,3.82,3.82,0,0,1-.81-2.55,4.06,4.06,0,0,1,.83-2.65A2.71,2.71,0,0,1,175.44,139Z"/>
            <path class="cls-13" d="M184.68,144.46c0,.39,0,.63.12.7a.38.38,0,0,0,.24.11c.09,0,.31,0,.66,0h.88a1.62,1.62,0,0,0,.93-.18,1,1,0,0,0,.23-.74c0-.1,0-.22,0-.35s0-.42,0-.47c0-.29.12-.44.35-.44s.43.14.43.41c0,.08,0,.14,0,.19l-.07.51a3.44,3.44,0,0,0,0,.46,3.57,3.57,0,0,0,0,.42q0,.28,0,.42c0,.3-.17.45-.52.45l-.46,0-.75,0h-2.36l-.81,0-.28,0H183c-.29,0-.43-.12-.43-.36a.29.29,0,0,1,.32-.32l.24,0,.24,0c.34,0,.51-.25.51-.76v-4c0-.49-.17-.74-.51-.74l-.21,0-.27,0a.29.29,0,0,1-.23-.1.32.32,0,0,1-.09-.23c0-.24.15-.36.44-.36h.15l.53.07c.3,0,.52.05.66.05a5.75,5.75,0,0,0,.64-.05l.46-.07h.14q.45,0,.45.36a.32.32,0,0,1-.09.23.28.28,0,0,1-.22.1l-.28,0-.21,0c-.34,0-.51.25-.51.74Z"/>
            <path class="cls-13" d="M195.89,146.16a2.6,2.6,0,0,1-2.12-1,4.07,4.07,0,0,1-.78-2.62,4,4,0,0,1,.79-2.62,2.63,2.63,0,0,1,2.16-1,2.6,2.6,0,0,1,2.1.93,3.77,3.77,0,0,1,.78,2.51,4.27,4.27,0,0,1-.79,2.72A2.59,2.59,0,0,1,195.89,146.16Zm0-6.44a1.76,1.76,0,0,0-1.5.74,3.55,3.55,0,0,0-.53,2.1,3.59,3.59,0,0,0,.53,2.12,1.83,1.83,0,0,0,3,0,3.68,3.68,0,0,0,.55-2.12,3.53,3.53,0,0,0-.53-2.08A1.73,1.73,0,0,0,195.91,139.72Z"/>
            <path class="cls-13" d="M206.17,139a2.15,2.15,0,0,1,1.61.64v-.14c0-.26.1-.4.31-.4s.34.15.34.44v.06l0,.3a6.45,6.45,0,0,0,0,.67s0,.15,0,.33l0,.4a.53.53,0,0,1,0,.14c0,.32-.12.48-.37.48a.35.35,0,0,1-.39-.4v0l0-.27c0-.09,0-.17,0-.22a1.18,1.18,0,0,0-.41-.95,1.68,1.68,0,0,0-1.12-.34,1.62,1.62,0,0,0-1,.32,1.09,1.09,0,0,0-.38.87,1,1,0,0,0,.57.93,4.34,4.34,0,0,0,1.13.3,3.9,3.9,0,0,1,1.64.52,1.66,1.66,0,0,1,.67,1.4,2,2,0,0,1-.68,1.54,2.57,2.57,0,0,1-1.76.6,2.67,2.67,0,0,1-1.9-.73v.15a1,1,0,0,1,0,.21.33.33,0,0,1-.37.37c-.27,0-.4-.14-.4-.43a.11.11,0,0,1,0-.08l0-.52c0-.26,0-.43,0-.51a4.54,4.54,0,0,0-.06-.6c0-.27,0-.47,0-.6,0-.31.13-.46.38-.46s.39.15.39.46v.41a1.55,1.55,0,0,0,.49,1.21,1.86,1.86,0,0,0,1.3.44,1.91,1.91,0,0,0,1.22-.36,1.2,1.2,0,0,0,.45-1c0-.64-.4-1-1.21-1.17l-.57-.1a6.53,6.53,0,0,1-1.33-.35,1.55,1.55,0,0,1-.69-.6,1.7,1.7,0,0,1-.26-.92,1.81,1.81,0,0,1,.64-1.44A2.49,2.49,0,0,1,206.17,139Z"/>
            <path class="cls-13" d="M214.69,140.55c0-.49-.17-.74-.52-.74l-.21,0-.27,0a.27.27,0,0,1-.22-.1.32.32,0,0,1-.09-.23q0-.36.42-.36H214l1.41.11h.1l2.42-.08.52,0h.29c.35,0,.52.16.52.47q0,.08,0,.51c0,.22,0,.41,0,.6a4.88,4.88,0,0,0,0,.49c0,.19,0,.34,0,.43q0,.39-.36.39c-.23,0-.35-.18-.35-.54V141c0-.57-.12-.9-.36-1a4.84,4.84,0,0,0-1.35-.11,6.22,6.22,0,0,0-.84,0,.55.55,0,0,0-.44.6v1c0,.27.06.43.18.47l.24,0h.41c.42,0,.63-.15.63-.44a2.11,2.11,0,0,0,0-.31,2.12,2.12,0,0,1,0-.34c0-.27.11-.41.35-.41s.36.15.36.44c0,0,0,.26-.06.62a6.46,6.46,0,0,0-.06.82c0,.13,0,.37,0,.71,0,.06,0,.17,0,.36a2.6,2.6,0,0,1,0,.35.32.32,0,0,1-.36.36c-.24,0-.35-.14-.35-.42a2.07,2.07,0,0,1,0-.32,2.63,2.63,0,0,0,0-.33c0-.29-.2-.43-.58-.43h-.45c-.2,0-.32,0-.36.1a1,1,0,0,0-.07.43v.63c0,.11,0,.25,0,.43s0,.37,0,.45a.6.6,0,0,0,.16.5,1.1,1.1,0,0,0,.52.07h1.37a1.36,1.36,0,0,0,.82-.18.81.81,0,0,0,.22-.66c0-.1,0-.25,0-.44s0-.35,0-.45c0-.31.12-.46.36-.46s.37.16.37.47c0,.12,0,.3,0,.55s0,.43,0,.56,0,.23,0,.41,0,.33,0,.42c0,.32-.15.47-.46.47a2.66,2.66,0,0,1-.35,0h-.45l-.78,0-1.48,0q-.94,0-1.86.06h-.15q-.42,0-.42-.36a.28.28,0,0,1,.31-.32l.27,0,.21,0c.35,0,.52-.25.52-.76Z"/>
            <path class="cls-13" d="M225.34,140.55c0-.5-.17-.75-.52-.75l-.21,0-.27,0a.28.28,0,0,1-.31-.32q0-.36.45-.36h.13l.54.08a6.28,6.28,0,0,0,.64,0,5.12,5.12,0,0,0,.56,0l.66-.07a3.34,3.34,0,0,1,.5,0,3.81,3.81,0,0,1,1.53.27,2.58,2.58,0,0,1,1.28,1.19,4,4,0,0,1,.47,2,4.11,4.11,0,0,1-.38,1.78,2.47,2.47,0,0,1-1,1.16,3.71,3.71,0,0,1-1.88.45,3.39,3.39,0,0,1-.45,0l-.7-.06c-.23,0-.48,0-.73,0a4.22,4.22,0,0,0-.55,0l-.48.07h-.15c-.29,0-.43-.11-.43-.35a.32.32,0,0,1,.09-.23.27.27,0,0,1,.22-.1l.27,0,.21,0c.35,0,.52-.25.52-.76Zm.84-.1v4.25a.52.52,0,0,0,.46.56,4.51,4.51,0,0,0,.84,0,2.19,2.19,0,0,0,1.76-.65,3.15,3.15,0,0,0,.65-2.07,3.32,3.32,0,0,0-.4-1.7,1.78,1.78,0,0,0-1.09-.9,3.73,3.73,0,0,0-1.07-.13,3,3,0,0,0-1,.09Q226.18,140,226.18,140.45Z"/>
            <path class="cls-13" d="M244.82,139a2.26,2.26,0,0,1,1.82.86v-.23l0-.07a1.92,1.92,0,0,0,0-.21c0-.23.11-.35.32-.35s.33.14.33.43c0,.05,0,.21,0,.48s-.06.57-.06.7a5.21,5.21,0,0,0,0,.55l.05.38v.1c0,.31-.12.46-.37.46s-.38-.15-.38-.43v-.36a1.47,1.47,0,0,0-.45-1.17,1.72,1.72,0,0,0-1.24-.45,1.81,1.81,0,0,0-1.55.76,3.49,3.49,0,0,0-.57,2.12,3.55,3.55,0,0,0,.58,2.15,1.93,1.93,0,0,0,1.62.77,1.91,1.91,0,0,0,1-.27,1.46,1.46,0,0,0,.63-.72,2.06,2.06,0,0,0,.12-.78c0-.31.13-.47.39-.47s.41.16.41.47a2.28,2.28,0,0,1-.75,1.76,3,3,0,0,1-4.09-.27,3.82,3.82,0,0,1-.81-2.55,4,4,0,0,1,.83-2.65A2.7,2.7,0,0,1,244.82,139Z"/>
            <path class="cls-13" d="M256.86,144.8l-.36-1c-.05-.11-.09-.18-.13-.2a.53.53,0,0,0-.27,0h-1.79a.39.39,0,0,0-.28.07,1.13,1.13,0,0,0-.19.38l-.3.78a.78.78,0,0,0,0,.21c0,.21.13.32.4.32l.28,0,.28,0c.28,0,.41.12.41.35s-.15.33-.45.33a1,1,0,0,1-.22,0l-.51-.06-.46,0-.49,0-.43.05-.41,0q-.39,0-.39-.33c0-.23.13-.35.38-.35.06,0,.1,0,.12,0h.13a.49.49,0,0,0,.42-.21,3.21,3.21,0,0,0,.2-.48l1.87-5.08a.63.63,0,0,1,.64-.43.6.6,0,0,1,.61.43l1.8,5a2,2,0,0,0,.32.63.51.51,0,0,0,.4.15h.12l.28,0c.26,0,.38.11.38.33s-.12.35-.38.35a1.68,1.68,0,0,1-.29,0,9.15,9.15,0,0,0-.95-.08c-.25,0-.65,0-1.21.08a2.07,2.07,0,0,1-.32,0c-.27,0-.4-.11-.4-.34s.15-.34.44-.34l.27,0,.27,0q.33,0,.33-.27A1.43,1.43,0,0,0,256.86,144.8Zm-.73-2.06-.9-2.78-.93,2.78,0,.07q0,.09.15.09H256c.08,0,.12,0,.12-.08A.17.17,0,0,0,256.13,142.74Z"/>
            <path class="cls-13" d="M264.47,144.6v-4c0-.49-.17-.74-.51-.74a.9.9,0,0,0-.21,0l-.27,0a.29.29,0,0,1-.32-.33q0-.36.45-.36h.15l.49.07a5,5,0,0,0,.6,0l.61,0c.55-.05,1-.08,1.24-.08a5.08,5.08,0,0,1,1.11.11,1.71,1.71,0,0,1,1,.62,1.85,1.85,0,0,1,.38,1.17,1.74,1.74,0,0,1-.65,1.45,3,3,0,0,1-1.88.5h-1.13a.28.28,0,0,0-.21.06.47.47,0,0,0,0,.25v.2a8.54,8.54,0,0,0,.08,1.55c.05.18.19.27.43.27a.66.66,0,0,0,.21,0l.28,0a.28.28,0,0,1,.31.32c0,.24-.15.36-.44.36l-.15,0-.5-.07a4.85,4.85,0,0,0-.63,0,4.51,4.51,0,0,0-.58,0l-.58.08h-.13c-.31,0-.46-.11-.46-.35a.32.32,0,0,1,.09-.23.29.29,0,0,1,.23-.1l.27,0,.21,0Q264.47,145.35,264.47,144.6Zm.92-4.57a1.23,1.23,0,0,0-.07.56v1.49c0,.18.13.28.38.31h.59a5.67,5.67,0,0,0,1.19-.11,1.09,1.09,0,0,0,.89-1.18c0-.85-.54-1.28-1.63-1.28Q265.52,139.82,265.39,140Z"/>
            <path class="cls-13" d="M276.85,144.6c0,.51.18.76.52.76l.24,0,.24,0a.3.3,0,0,1,.23.1.31.31,0,0,1,.09.22c0,.24-.15.35-.45.35h-.13l-.49-.07a5.92,5.92,0,0,0-.64,0,6.36,6.36,0,0,0-.67,0l-.51.07h-.14c-.29,0-.44-.11-.44-.35a.29.29,0,0,1,.32-.32l.24,0,.24,0c.34,0,.51-.25.51-.76v-4.09a.64.64,0,0,0-.74-.71H275a.63.63,0,0,0-.72.7v.35l.05.37c0,.06,0,.14,0,.25,0,.42-.14.64-.4.64s-.37-.16-.37-.47c0-.08,0-.24,0-.45s0-.53,0-.61,0-.35,0-.53c0-.35,0-.51,0-.45,0-.28.13-.43.38-.43l.66,0,.82.05h1.15l1.07,0,.66,0,.64,0c.34,0,.5.14.5.42v0c0,.07,0,.19,0,.37s0,.38-.06.58v.12c0,.1,0,.25,0,.47s0,.46,0,.52q0,.42-.39.42c-.26,0-.38-.17-.38-.51q0-.18,0-.54t0-.54c0-.47-.27-.7-.8-.7h-.28a.7.7,0,0,0-.53.16.75.75,0,0,0-.19.51l0,.71Z"/>
            <path class="cls-13" d="M285,140.55c0-.49-.17-.74-.51-.74l-.21,0-.27,0a.3.3,0,0,1-.23-.1.32.32,0,0,1-.09-.23q0-.36.45-.36h.14l.53.08a6.26,6.26,0,0,0,.63,0,5.89,5.89,0,0,0,.68-.05l.46-.07h.14c.29,0,.44.12.44.36a.32.32,0,0,1-.09.23.28.28,0,0,1-.22.1l-.27,0-.22,0c-.34,0-.51.25-.51.74v4c0,.51.17.76.51.76l.22,0,.27,0a.28.28,0,0,1,.31.32c0,.24-.15.36-.44.36h-.14l-.53-.08a4.74,4.74,0,0,0-.55,0,5.7,5.7,0,0,0-.76.05l-.46.07h-.15c-.29,0-.44-.12-.44-.36a.29.29,0,0,1,.32-.32l.27,0a.76.76,0,0,0,.21,0c.34,0,.51-.25.51-.76Z"/>
            <path class="cls-13" d="M294.54,146.16a2.6,2.6,0,0,1-2.12-1,4.07,4.07,0,0,1-.78-2.62,4,4,0,0,1,.79-2.62,2.63,2.63,0,0,1,2.16-1,2.6,2.6,0,0,1,2.1.93,3.77,3.77,0,0,1,.78,2.51,4.27,4.27,0,0,1-.79,2.72A2.57,2.57,0,0,1,294.54,146.16Zm0-6.44a1.76,1.76,0,0,0-1.5.74,3.62,3.62,0,0,0-.53,2.1,3.67,3.67,0,0,0,.53,2.12,1.83,1.83,0,0,0,3,0,3.6,3.6,0,0,0,.55-2.12,3.53,3.53,0,0,0-.53-2.08A1.7,1.7,0,0,0,294.56,139.72Z"/>
            <path class="cls-13" d="M304.71,139.63l2.71,5.63V141.2c0-.52,0-.81,0-.87-.06-.35-.23-.52-.51-.52l-.24,0-.24,0a.3.3,0,0,1-.23-.1.31.31,0,0,1-.09-.22c0-.24.15-.37.45-.37h.13l.46.07c.2,0,.39,0,.56,0a5.47,5.47,0,0,0,.7-.06l.35,0h.14c.29,0,.43.12.43.35s-.13.34-.41.34h-.21c-.21,0-.34,0-.4.13a1.2,1.2,0,0,0-.12.57v4.29a2.21,2.21,0,0,1-.15,1,.58.58,0,0,1-.54.29c-.34,0-.62-.24-.85-.71L304,139.91v4.68c0,.51.17.76.52.76h.24a1.25,1.25,0,0,1,.24,0,.29.29,0,0,1,.32.32c0,.23-.15.34-.45.34h-.13l-.41-.06a5.13,5.13,0,0,0-.65,0,6.61,6.61,0,0,0-.67,0l-.5.06h-.15c-.29,0-.43-.11-.43-.35s.1-.31.32-.31l.27,0,.21,0c.35,0,.52-.25.52-.76v-4.05c0-.5-.18-.75-.52-.75l-.2,0-.28,0c-.22,0-.32-.11-.32-.33s.14-.36.43-.36h.16a7,7,0,0,0,.78.06,3.15,3.15,0,0,0,.45,0l.45,0a.4.4,0,0,1,.41.22Z"/>
            <path class="cls-13" d="M314.79,140.55c0-.49-.17-.74-.51-.74l-.21,0-.28,0a.28.28,0,0,1-.22-.1.32.32,0,0,1-.09-.23q0-.36.45-.36h.14l.53.08c.2,0,.41,0,.62,0a5.89,5.89,0,0,0,.69-.05l.45-.07h.14q.45,0,.45.36a.32.32,0,0,1-.09.23.28.28,0,0,1-.22.1l-.28,0-.21,0c-.34,0-.51.25-.51.74v4c0,.51.17.76.51.76l.21,0,.28,0a.28.28,0,0,1,.31.32q0,.36-.45.36h-.14l-.52-.08a4.91,4.91,0,0,0-.55,0,5.58,5.58,0,0,0-.76.05l-.46.07h-.15c-.29,0-.44-.12-.44-.36a.28.28,0,0,1,.31-.32l.28,0a.76.76,0,0,0,.21,0c.34,0,.51-.25.51-.76Z"/>
            <path class="cls-13" d="M324,139.63l2.71,5.63V141.2c0-.52,0-.81,0-.87-.06-.35-.23-.52-.51-.52l-.24,0-.24,0a.3.3,0,0,1-.23-.1.31.31,0,0,1-.09-.22c0-.24.15-.37.45-.37H326l.46.07c.2,0,.39,0,.56,0a5.33,5.33,0,0,0,.7-.06l.35,0h.14c.29,0,.43.12.43.35s-.13.34-.41.34H328c-.21,0-.34,0-.4.13a1.34,1.34,0,0,0-.12.57v4.29a2.21,2.21,0,0,1-.15,1,.58.58,0,0,1-.54.29c-.33,0-.61-.24-.84-.71l-2.66-5.49v4.68c0,.51.17.76.52.76H324a1.25,1.25,0,0,1,.24,0,.28.28,0,0,1,.32.32c0,.23-.15.34-.45.34H324l-.41-.06a5.13,5.13,0,0,0-.65,0,6.61,6.61,0,0,0-.67,0l-.5.06h-.15c-.29,0-.43-.11-.43-.35a.28.28,0,0,1,.32-.31l.27,0,.21,0c.35,0,.52-.25.52-.76v-4.05c0-.5-.18-.75-.52-.75l-.2,0-.28,0c-.22,0-.32-.11-.32-.33s.14-.36.43-.36h.16a7.21,7.21,0,0,0,.78.06,3.15,3.15,0,0,0,.45,0l.45,0a.4.4,0,0,1,.41.22Z"/>
            <path class="cls-13" d="M335.69,139a2.67,2.67,0,0,1,1.83.76,1,1,0,0,1,0-.16,1.6,1.6,0,0,1,0-.22c0-.23.11-.34.33-.34s.36.15.36.44a1.22,1.22,0,0,1,0,.21l-.08.48a3.23,3.23,0,0,0,0,.46c0,.12,0,.4,0,.81v.09c0,.3-.12.46-.37.46s-.35-.17-.35-.5v-.3a1.42,1.42,0,0,0-.46-1.1,2,2,0,0,0-2.76.35,3.47,3.47,0,0,0-.55,2.08,3.7,3.7,0,0,0,.57,2.19,1.84,1.84,0,0,0,1.58.78,1.55,1.55,0,0,0,1.19-.45,1.82,1.82,0,0,0,.43-1.3.73.73,0,0,0-.12-.48.52.52,0,0,0-.41-.14h-.46c-.32,0-.48-.11-.48-.34s.13-.35.41-.35l.29,0a7.54,7.54,0,0,0,1,.09,6.57,6.57,0,0,0,1-.09l.27,0c.27,0,.4.11.4.33a.3.3,0,0,1-.1.24.36.36,0,0,1-.25.1h-.33c-.3,0-.45.33-.45,1v.8c0,.18,0,.34,0,.48a2.19,2.19,0,0,1,0,.33c0,.27-.12.41-.36.41a.32.32,0,0,1-.35-.36l0-.24c0-.06,0-.16,0-.31a4.55,4.55,0,0,1-.36.43,2.35,2.35,0,0,1-1.63.53,2.59,2.59,0,0,1-2.09-1,3.87,3.87,0,0,1-.8-2.53,4.08,4.08,0,0,1,.82-2.67A2.69,2.69,0,0,1,335.69,139Z"/>
            <path class="cls-13" d="M353.3,144.6c0,.51.17.76.52.76l.24,0,.24,0a.3.3,0,0,1,.23.1.31.31,0,0,1,.09.22c0,.24-.15.35-.45.35H354l-.49-.07a5.92,5.92,0,0,0-.64,0,6.36,6.36,0,0,0-.67,0l-.51.07h-.14c-.29,0-.44-.11-.44-.35a.29.29,0,0,1,.32-.32l.24,0,.24,0c.34,0,.51-.25.51-.76v-4.09a.64.64,0,0,0-.74-.71h-.31c-.48,0-.73.23-.73.7,0,.17,0,.29,0,.35l0,.37a1.7,1.7,0,0,1,0,.25c0,.42-.13.64-.39.64s-.37-.16-.37-.47c0-.08,0-.24,0-.45s0-.53,0-.61,0-.35,0-.53c0-.35,0-.51,0-.45,0-.28.13-.43.38-.43l.66,0,.82.05H353l1.07,0,.66,0,.64,0c.33,0,.5.14.5.42v0c0,.07,0,.19,0,.37s0,.38-.06.58v.12c0,.1,0,.25,0,.47s0,.46,0,.52q0,.42-.39.42c-.26,0-.38-.17-.38-.51q0-.18,0-.54t0-.54c0-.47-.27-.7-.8-.7h-.28a.7.7,0,0,0-.53.16.75.75,0,0,0-.19.51l0,.71Z"/>
            <path class="cls-13" d="M363.28,146.16a2.59,2.59,0,0,1-2.12-1,4.07,4.07,0,0,1-.78-2.62,4,4,0,0,1,.78-2.62,2.66,2.66,0,0,1,2.17-1,2.6,2.6,0,0,1,2.1.93,3.77,3.77,0,0,1,.78,2.51,4.33,4.33,0,0,1-.79,2.72A2.59,2.59,0,0,1,363.28,146.16Zm0-6.44a1.74,1.74,0,0,0-1.5.74,3.54,3.54,0,0,0-.54,2.1,3.59,3.59,0,0,0,.54,2.12,1.82,1.82,0,0,0,3,0,3.6,3.6,0,0,0,.55-2.12,3.53,3.53,0,0,0-.52-2.08A1.73,1.73,0,0,0,363.3,139.72Z"/>
            <path class="cls-13" d="M373.74,146.16a2.6,2.6,0,0,1-2.12-1,4.07,4.07,0,0,1-.78-2.62,4,4,0,0,1,.79-2.62,2.63,2.63,0,0,1,2.16-1,2.6,2.6,0,0,1,2.1.93,3.77,3.77,0,0,1,.79,2.51,4.27,4.27,0,0,1-.8,2.72A2.57,2.57,0,0,1,373.74,146.16Zm0-6.44a1.76,1.76,0,0,0-1.5.74,3.62,3.62,0,0,0-.53,2.1,3.67,3.67,0,0,0,.53,2.12,1.83,1.83,0,0,0,3,0,3.6,3.6,0,0,0,.55-2.12,3.53,3.53,0,0,0-.53-2.08A1.7,1.7,0,0,0,373.76,139.72Z"/>
            <path class="cls-13" d="M383.28,144.46c0,.39,0,.63.12.7a.38.38,0,0,0,.24.11c.1,0,.32,0,.66,0h.89a1.61,1.61,0,0,0,.92-.18.91.91,0,0,0,.24-.74c0-.1,0-.22,0-.35s0-.42,0-.47c0-.29.11-.44.35-.44a.37.37,0,0,1,.42.41,1,1,0,0,1,0,.19l-.07.51a3.44,3.44,0,0,0,0,.46,4.06,4.06,0,0,0,0,.42c0,.19,0,.33,0,.42q0,.45-.51.45l-.47,0-.74,0h-2.37l-.81,0-.27,0h-.31q-.42,0-.42-.36a.28.28,0,0,1,.31-.32l.24,0,.24,0c.35,0,.52-.25.52-.76v-4c0-.49-.17-.74-.52-.74l-.21,0-.27,0a.27.27,0,0,1-.22-.1.32.32,0,0,1-.09-.23c0-.24.14-.36.43-.36h.15l.54.07c.29,0,.51.05.65.05a5.75,5.75,0,0,0,.64-.05l.47-.07h.13q.45,0,.45.36a.32.32,0,0,1-.09.23.27.27,0,0,1-.22.1l-.27,0-.21,0c-.35,0-.52.25-.52.74Z"/>
            <path class="cls-13" d="M394.3,139a2.16,2.16,0,0,1,1.62.64v-.14c0-.26.1-.4.31-.4s.34.15.34.44v.06l0,.3a6.45,6.45,0,0,0,0,.67s0,.15,0,.33l0,.4a.53.53,0,0,1,0,.14c0,.32-.12.48-.37.48a.35.35,0,0,1-.4-.4v0l0-.27a1.94,1.94,0,0,0,0-.22,1.17,1.17,0,0,0-.4-.95,1.71,1.71,0,0,0-1.13-.34,1.61,1.61,0,0,0-1,.32,1.07,1.07,0,0,0-.39.87,1,1,0,0,0,.58.93,4.22,4.22,0,0,0,1.13.3,3.9,3.9,0,0,1,1.64.52,1.65,1.65,0,0,1,.66,1.4,1.92,1.92,0,0,1-.68,1.54,2.53,2.53,0,0,1-1.75.6,2.65,2.65,0,0,1-1.9-.73v.15a1,1,0,0,1,0,.21.33.33,0,0,1-.37.37c-.27,0-.4-.14-.4-.43a.11.11,0,0,1,0-.08l0-.52c0-.26,0-.43,0-.51a4.54,4.54,0,0,0-.06-.6,4.15,4.15,0,0,1-.05-.6c0-.31.12-.46.38-.46s.39.15.39.46v.41a1.57,1.57,0,0,0,.48,1.21,2.19,2.19,0,0,0,2.52.08,1.18,1.18,0,0,0,.46-1c0-.64-.41-1-1.21-1.17l-.58-.1a6.71,6.71,0,0,1-1.33-.35,1.6,1.6,0,0,1-.69-.6A1.69,1.69,0,0,1,392,141a1.81,1.81,0,0,1,.64-1.44A2.48,2.48,0,0,1,394.3,139Z"/>
          </g>
          <g>
            <path class="cls-13" d="M175.44,139a2.25,2.25,0,0,1,1.82.86v-.23l0-.07a1.92,1.92,0,0,0,0-.21c0-.23.11-.35.32-.35s.33.14.33.43c0,.05,0,.21,0,.48s-.06.57-.06.7a5.21,5.21,0,0,0,0,.55l.05.38v.1c0,.31-.12.46-.36.46s-.39-.15-.39-.43v-.36a1.44,1.44,0,0,0-.45-1.17,1.69,1.69,0,0,0-1.23-.45,1.81,1.81,0,0,0-1.56.76,4.28,4.28,0,0,0,0,4.27,2.05,2.05,0,0,0,2.62.5,1.46,1.46,0,0,0,.63-.72,2.06,2.06,0,0,0,.12-.78c0-.31.13-.47.39-.47s.41.16.41.47a2.3,2.3,0,0,1-.74,1.76,2.73,2.73,0,0,1-1.93.69,2.69,2.69,0,0,1-2.17-1,3.82,3.82,0,0,1-.81-2.55,4.06,4.06,0,0,1,.83-2.65A2.71,2.71,0,0,1,175.44,139Z"/>
            <path class="cls-13" d="M184.68,144.46c0,.39,0,.63.12.7a.38.38,0,0,0,.24.11c.09,0,.31,0,.66,0h.88a1.62,1.62,0,0,0,.93-.18,1,1,0,0,0,.23-.74c0-.1,0-.22,0-.35s0-.42,0-.47c0-.29.12-.44.35-.44s.43.14.43.41c0,.08,0,.14,0,.19l-.07.51a3.44,3.44,0,0,0,0,.46,3.57,3.57,0,0,0,0,.42q0,.28,0,.42c0,.3-.17.45-.52.45l-.46,0-.75,0h-2.36l-.81,0-.28,0H183c-.29,0-.43-.12-.43-.36a.29.29,0,0,1,.32-.32l.24,0,.24,0c.34,0,.51-.25.51-.76v-4c0-.49-.17-.74-.51-.74l-.21,0-.27,0a.29.29,0,0,1-.23-.1.32.32,0,0,1-.09-.23c0-.24.15-.36.44-.36h.15l.53.07c.3,0,.52.05.66.05a5.75,5.75,0,0,0,.64-.05l.46-.07h.14q.45,0,.45.36a.32.32,0,0,1-.09.23.28.28,0,0,1-.22.1l-.28,0-.21,0c-.34,0-.51.25-.51.74Z"/>
            <path class="cls-13" d="M195.89,146.16a2.6,2.6,0,0,1-2.12-1,4.07,4.07,0,0,1-.78-2.62,4,4,0,0,1,.79-2.62,2.63,2.63,0,0,1,2.16-1,2.6,2.6,0,0,1,2.1.93,3.77,3.77,0,0,1,.78,2.51,4.27,4.27,0,0,1-.79,2.72A2.59,2.59,0,0,1,195.89,146.16Zm0-6.44a1.76,1.76,0,0,0-1.5.74,3.55,3.55,0,0,0-.53,2.1,3.59,3.59,0,0,0,.53,2.12,1.83,1.83,0,0,0,3,0,3.68,3.68,0,0,0,.55-2.12,3.53,3.53,0,0,0-.53-2.08A1.73,1.73,0,0,0,195.91,139.72Z"/>
            <path class="cls-13" d="M206.17,139a2.15,2.15,0,0,1,1.61.64v-.14c0-.26.1-.4.31-.4s.34.15.34.44v.06l0,.3a6.45,6.45,0,0,0,0,.67s0,.15,0,.33l0,.4a.53.53,0,0,1,0,.14c0,.32-.12.48-.37.48a.35.35,0,0,1-.39-.4v0l0-.27c0-.09,0-.17,0-.22a1.18,1.18,0,0,0-.41-.95,1.68,1.68,0,0,0-1.12-.34,1.62,1.62,0,0,0-1,.32,1.09,1.09,0,0,0-.38.87,1,1,0,0,0,.57.93,4.34,4.34,0,0,0,1.13.3,3.9,3.9,0,0,1,1.64.52,1.66,1.66,0,0,1,.67,1.4,2,2,0,0,1-.68,1.54,2.57,2.57,0,0,1-1.76.6,2.67,2.67,0,0,1-1.9-.73v.15a1,1,0,0,1,0,.21.33.33,0,0,1-.37.37c-.27,0-.4-.14-.4-.43a.11.11,0,0,1,0-.08l0-.52c0-.26,0-.43,0-.51a4.54,4.54,0,0,0-.06-.6c0-.27,0-.47,0-.6,0-.31.13-.46.38-.46s.39.15.39.46v.41a1.55,1.55,0,0,0,.49,1.21,1.86,1.86,0,0,0,1.3.44,1.91,1.91,0,0,0,1.22-.36,1.2,1.2,0,0,0,.45-1c0-.64-.4-1-1.21-1.17l-.57-.1a6.53,6.53,0,0,1-1.33-.35,1.55,1.55,0,0,1-.69-.6,1.7,1.7,0,0,1-.26-.92,1.81,1.81,0,0,1,.64-1.44A2.49,2.49,0,0,1,206.17,139Z"/>
            <path class="cls-13" d="M214.69,140.55c0-.49-.17-.74-.52-.74l-.21,0-.27,0a.27.27,0,0,1-.22-.1.32.32,0,0,1-.09-.23q0-.36.42-.36H214l1.41.11h.1l2.42-.08.52,0h.29c.35,0,.52.16.52.47q0,.08,0,.51c0,.22,0,.41,0,.6a4.88,4.88,0,0,0,0,.49c0,.19,0,.34,0,.43q0,.39-.36.39c-.23,0-.35-.18-.35-.54V141c0-.57-.12-.9-.36-1a4.84,4.84,0,0,0-1.35-.11,6.22,6.22,0,0,0-.84,0,.55.55,0,0,0-.44.6v1c0,.27.06.43.18.47l.24,0h.41c.42,0,.63-.15.63-.44a2.11,2.11,0,0,0,0-.31,2.12,2.12,0,0,1,0-.34c0-.27.11-.41.35-.41s.36.15.36.44c0,0,0,.26-.06.62a6.46,6.46,0,0,0-.06.82c0,.13,0,.37,0,.71,0,.06,0,.17,0,.36a2.6,2.6,0,0,1,0,.35.32.32,0,0,1-.36.36c-.24,0-.35-.14-.35-.42a2.07,2.07,0,0,1,0-.32,2.63,2.63,0,0,0,0-.33c0-.29-.2-.43-.58-.43h-.45c-.2,0-.32,0-.36.1a1,1,0,0,0-.07.43v.63c0,.11,0,.25,0,.43s0,.37,0,.45a.6.6,0,0,0,.16.5,1.1,1.1,0,0,0,.52.07h1.37a1.36,1.36,0,0,0,.82-.18.81.81,0,0,0,.22-.66c0-.1,0-.25,0-.44s0-.35,0-.45c0-.31.12-.46.36-.46s.37.16.37.47c0,.12,0,.3,0,.55s0,.43,0,.56,0,.23,0,.41,0,.33,0,.42c0,.32-.15.47-.46.47a2.66,2.66,0,0,1-.35,0h-.45l-.78,0-1.48,0q-.94,0-1.86.06h-.15q-.42,0-.42-.36a.28.28,0,0,1,.31-.32l.27,0,.21,0c.35,0,.52-.25.52-.76Z"/>
            <path class="cls-13" d="M225.34,140.55c0-.5-.17-.75-.52-.75l-.21,0-.27,0a.28.28,0,0,1-.31-.32q0-.36.45-.36h.13l.54.08a6.28,6.28,0,0,0,.64,0,5.12,5.12,0,0,0,.56,0l.66-.07a3.34,3.34,0,0,1,.5,0,3.81,3.81,0,0,1,1.53.27,2.58,2.58,0,0,1,1.28,1.19,4,4,0,0,1,.47,2,4.11,4.11,0,0,1-.38,1.78,2.47,2.47,0,0,1-1,1.16,3.71,3.71,0,0,1-1.88.45,3.39,3.39,0,0,1-.45,0l-.7-.06c-.23,0-.48,0-.73,0a4.22,4.22,0,0,0-.55,0l-.48.07h-.15c-.29,0-.43-.11-.43-.35a.32.32,0,0,1,.09-.23.27.27,0,0,1,.22-.1l.27,0,.21,0c.35,0,.52-.25.52-.76Zm.84-.1v4.25a.52.52,0,0,0,.46.56,4.51,4.51,0,0,0,.84,0,2.19,2.19,0,0,0,1.76-.65,3.15,3.15,0,0,0,.65-2.07,3.32,3.32,0,0,0-.4-1.7,1.78,1.78,0,0,0-1.09-.9,3.73,3.73,0,0,0-1.07-.13,3,3,0,0,0-1,.09Q226.18,140,226.18,140.45Z"/>
            <path class="cls-13" d="M244.82,139a2.26,2.26,0,0,1,1.82.86v-.23l0-.07a1.92,1.92,0,0,0,0-.21c0-.23.11-.35.32-.35s.33.14.33.43c0,.05,0,.21,0,.48s-.06.57-.06.7a5.21,5.21,0,0,0,0,.55l.05.38v.1c0,.31-.12.46-.37.46s-.38-.15-.38-.43v-.36a1.47,1.47,0,0,0-.45-1.17,1.72,1.72,0,0,0-1.24-.45,1.81,1.81,0,0,0-1.55.76,3.49,3.49,0,0,0-.57,2.12,3.55,3.55,0,0,0,.58,2.15,1.93,1.93,0,0,0,1.62.77,1.91,1.91,0,0,0,1-.27,1.46,1.46,0,0,0,.63-.72,2.06,2.06,0,0,0,.12-.78c0-.31.13-.47.39-.47s.41.16.41.47a2.28,2.28,0,0,1-.75,1.76,3,3,0,0,1-4.09-.27,3.82,3.82,0,0,1-.81-2.55,4,4,0,0,1,.83-2.65A2.7,2.7,0,0,1,244.82,139Z"/>
            <path class="cls-13" d="M256.86,144.8l-.36-1c-.05-.11-.09-.18-.13-.2a.53.53,0,0,0-.27,0h-1.79a.39.39,0,0,0-.28.07,1.13,1.13,0,0,0-.19.38l-.3.78a.78.78,0,0,0,0,.21c0,.21.13.32.4.32l.28,0,.28,0c.28,0,.41.12.41.35s-.15.33-.45.33a1,1,0,0,1-.22,0l-.51-.06-.46,0-.49,0-.43.05-.41,0q-.39,0-.39-.33c0-.23.13-.35.38-.35.06,0,.1,0,.12,0h.13a.49.49,0,0,0,.42-.21,3.21,3.21,0,0,0,.2-.48l1.87-5.08a.63.63,0,0,1,.64-.43.6.6,0,0,1,.61.43l1.8,5a2,2,0,0,0,.32.63.51.51,0,0,0,.4.15h.12l.28,0c.26,0,.38.11.38.33s-.12.35-.38.35a1.68,1.68,0,0,1-.29,0,9.15,9.15,0,0,0-.95-.08c-.25,0-.65,0-1.21.08a2.07,2.07,0,0,1-.32,0c-.27,0-.4-.11-.4-.34s.15-.34.44-.34l.27,0,.27,0q.33,0,.33-.27A1.43,1.43,0,0,0,256.86,144.8Zm-.73-2.06-.9-2.78-.93,2.78,0,.07q0,.09.15.09H256c.08,0,.12,0,.12-.08A.17.17,0,0,0,256.13,142.74Z"/>
            <path class="cls-13" d="M264.47,144.6v-4c0-.49-.17-.74-.51-.74a.9.9,0,0,0-.21,0l-.27,0a.29.29,0,0,1-.32-.33q0-.36.45-.36h.15l.49.07a5,5,0,0,0,.6,0l.61,0c.55-.05,1-.08,1.24-.08a5.08,5.08,0,0,1,1.11.11,1.71,1.71,0,0,1,1,.62,1.85,1.85,0,0,1,.38,1.17,1.74,1.74,0,0,1-.65,1.45,3,3,0,0,1-1.88.5h-1.13a.28.28,0,0,0-.21.06.47.47,0,0,0,0,.25v.2a8.54,8.54,0,0,0,.08,1.55c.05.18.19.27.43.27a.66.66,0,0,0,.21,0l.28,0a.28.28,0,0,1,.31.32c0,.24-.15.36-.44.36l-.15,0-.5-.07a4.85,4.85,0,0,0-.63,0,4.51,4.51,0,0,0-.58,0l-.58.08h-.13c-.31,0-.46-.11-.46-.35a.32.32,0,0,1,.09-.23.29.29,0,0,1,.23-.1l.27,0,.21,0Q264.47,145.35,264.47,144.6Zm.92-4.57a1.23,1.23,0,0,0-.07.56v1.49c0,.18.13.28.38.31h.59a5.67,5.67,0,0,0,1.19-.11,1.09,1.09,0,0,0,.89-1.18c0-.85-.54-1.28-1.63-1.28Q265.52,139.82,265.39,140Z"/>
            <path class="cls-13" d="M276.85,144.6c0,.51.18.76.52.76l.24,0,.24,0a.3.3,0,0,1,.23.1.31.31,0,0,1,.09.22c0,.24-.15.35-.45.35h-.13l-.49-.07a5.92,5.92,0,0,0-.64,0,6.36,6.36,0,0,0-.67,0l-.51.07h-.14c-.29,0-.44-.11-.44-.35a.29.29,0,0,1,.32-.32l.24,0,.24,0c.34,0,.51-.25.51-.76v-4.09a.64.64,0,0,0-.74-.71H275a.63.63,0,0,0-.72.7v.35l.05.37c0,.06,0,.14,0,.25,0,.42-.14.64-.4.64s-.37-.16-.37-.47c0-.08,0-.24,0-.45s0-.53,0-.61,0-.35,0-.53c0-.35,0-.51,0-.45,0-.28.13-.43.38-.43l.66,0,.82.05h1.15l1.07,0,.66,0,.64,0c.34,0,.5.14.5.42v0c0,.07,0,.19,0,.37s0,.38-.06.58v.12c0,.1,0,.25,0,.47s0,.46,0,.52q0,.42-.39.42c-.26,0-.38-.17-.38-.51q0-.18,0-.54t0-.54c0-.47-.27-.7-.8-.7h-.28a.7.7,0,0,0-.53.16.75.75,0,0,0-.19.51l0,.71Z"/>
            <path class="cls-13" d="M285,140.55c0-.49-.17-.74-.51-.74l-.21,0-.27,0a.3.3,0,0,1-.23-.1.32.32,0,0,1-.09-.23q0-.36.45-.36h.14l.53.08a6.26,6.26,0,0,0,.63,0,5.89,5.89,0,0,0,.68-.05l.46-.07h.14c.29,0,.44.12.44.36a.32.32,0,0,1-.09.23.28.28,0,0,1-.22.1l-.27,0-.22,0c-.34,0-.51.25-.51.74v4c0,.51.17.76.51.76l.22,0,.27,0a.28.28,0,0,1,.31.32c0,.24-.15.36-.44.36h-.14l-.53-.08a4.74,4.74,0,0,0-.55,0,5.7,5.7,0,0,0-.76.05l-.46.07h-.15c-.29,0-.44-.12-.44-.36a.29.29,0,0,1,.32-.32l.27,0a.76.76,0,0,0,.21,0c.34,0,.51-.25.51-.76Z"/>
            <path class="cls-13" d="M294.54,146.16a2.6,2.6,0,0,1-2.12-1,4.07,4.07,0,0,1-.78-2.62,4,4,0,0,1,.79-2.62,2.63,2.63,0,0,1,2.16-1,2.6,2.6,0,0,1,2.1.93,3.77,3.77,0,0,1,.78,2.51,4.27,4.27,0,0,1-.79,2.72A2.57,2.57,0,0,1,294.54,146.16Zm0-6.44a1.76,1.76,0,0,0-1.5.74,3.62,3.62,0,0,0-.53,2.1,3.67,3.67,0,0,0,.53,2.12,1.83,1.83,0,0,0,3,0,3.6,3.6,0,0,0,.55-2.12,3.53,3.53,0,0,0-.53-2.08A1.7,1.7,0,0,0,294.56,139.72Z"/>
            <path class="cls-13" d="M304.71,139.63l2.71,5.63V141.2c0-.52,0-.81,0-.87-.06-.35-.23-.52-.51-.52l-.24,0-.24,0a.3.3,0,0,1-.23-.1.31.31,0,0,1-.09-.22c0-.24.15-.37.45-.37h.13l.46.07c.2,0,.39,0,.56,0a5.47,5.47,0,0,0,.7-.06l.35,0h.14c.29,0,.43.12.43.35s-.13.34-.41.34h-.21c-.21,0-.34,0-.4.13a1.2,1.2,0,0,0-.12.57v4.29a2.21,2.21,0,0,1-.15,1,.58.58,0,0,1-.54.29c-.34,0-.62-.24-.85-.71L304,139.91v4.68c0,.51.17.76.52.76h.24a1.25,1.25,0,0,1,.24,0,.29.29,0,0,1,.32.32c0,.23-.15.34-.45.34h-.13l-.41-.06a5.13,5.13,0,0,0-.65,0,6.61,6.61,0,0,0-.67,0l-.5.06h-.15c-.29,0-.43-.11-.43-.35s.1-.31.32-.31l.27,0,.21,0c.35,0,.52-.25.52-.76v-4.05c0-.5-.18-.75-.52-.75l-.2,0-.28,0c-.22,0-.32-.11-.32-.33s.14-.36.43-.36h.16a7,7,0,0,0,.78.06,3.15,3.15,0,0,0,.45,0l.45,0a.4.4,0,0,1,.41.22Z"/>
            <path class="cls-13" d="M314.79,140.55c0-.49-.17-.74-.51-.74l-.21,0-.28,0a.28.28,0,0,1-.22-.1.32.32,0,0,1-.09-.23q0-.36.45-.36h.14l.53.08c.2,0,.41,0,.62,0a5.89,5.89,0,0,0,.69-.05l.45-.07h.14q.45,0,.45.36a.32.32,0,0,1-.09.23.28.28,0,0,1-.22.1l-.28,0-.21,0c-.34,0-.51.25-.51.74v4c0,.51.17.76.51.76l.21,0,.28,0a.28.28,0,0,1,.31.32q0,.36-.45.36h-.14l-.52-.08a4.91,4.91,0,0,0-.55,0,5.58,5.58,0,0,0-.76.05l-.46.07h-.15c-.29,0-.44-.12-.44-.36a.28.28,0,0,1,.31-.32l.28,0a.76.76,0,0,0,.21,0c.34,0,.51-.25.51-.76Z"/>
            <path class="cls-13" d="M324,139.63l2.71,5.63V141.2c0-.52,0-.81,0-.87-.06-.35-.23-.52-.51-.52l-.24,0-.24,0a.3.3,0,0,1-.23-.1.31.31,0,0,1-.09-.22c0-.24.15-.37.45-.37H326l.46.07c.2,0,.39,0,.56,0a5.33,5.33,0,0,0,.7-.06l.35,0h.14c.29,0,.43.12.43.35s-.13.34-.41.34H328c-.21,0-.34,0-.4.13a1.34,1.34,0,0,0-.12.57v4.29a2.21,2.21,0,0,1-.15,1,.58.58,0,0,1-.54.29c-.33,0-.61-.24-.84-.71l-2.66-5.49v4.68c0,.51.17.76.52.76H324a1.25,1.25,0,0,1,.24,0,.28.28,0,0,1,.32.32c0,.23-.15.34-.45.34H324l-.41-.06a5.13,5.13,0,0,0-.65,0,6.61,6.61,0,0,0-.67,0l-.5.06h-.15c-.29,0-.43-.11-.43-.35a.28.28,0,0,1,.32-.31l.27,0,.21,0c.35,0,.52-.25.52-.76v-4.05c0-.5-.18-.75-.52-.75l-.2,0-.28,0c-.22,0-.32-.11-.32-.33s.14-.36.43-.36h.16a7.21,7.21,0,0,0,.78.06,3.15,3.15,0,0,0,.45,0l.45,0a.4.4,0,0,1,.41.22Z"/>
            <path class="cls-13" d="M335.69,139a2.67,2.67,0,0,1,1.83.76,1,1,0,0,1,0-.16,1.6,1.6,0,0,1,0-.22c0-.23.11-.34.33-.34s.36.15.36.44a1.22,1.22,0,0,1,0,.21l-.08.48a3.23,3.23,0,0,0,0,.46c0,.12,0,.4,0,.81v.09c0,.3-.12.46-.37.46s-.35-.17-.35-.5v-.3a1.42,1.42,0,0,0-.46-1.1,2,2,0,0,0-2.76.35,3.47,3.47,0,0,0-.55,2.08,3.7,3.7,0,0,0,.57,2.19,1.84,1.84,0,0,0,1.58.78,1.55,1.55,0,0,0,1.19-.45,1.82,1.82,0,0,0,.43-1.3.73.73,0,0,0-.12-.48.52.52,0,0,0-.41-.14h-.46c-.32,0-.48-.11-.48-.34s.13-.35.41-.35l.29,0a7.54,7.54,0,0,0,1,.09,6.57,6.57,0,0,0,1-.09l.27,0c.27,0,.4.11.4.33a.3.3,0,0,1-.1.24.36.36,0,0,1-.25.1h-.33c-.3,0-.45.33-.45,1v.8c0,.18,0,.34,0,.48a2.19,2.19,0,0,1,0,.33c0,.27-.12.41-.36.41a.32.32,0,0,1-.35-.36l0-.24c0-.06,0-.16,0-.31a4.55,4.55,0,0,1-.36.43,2.35,2.35,0,0,1-1.63.53,2.59,2.59,0,0,1-2.09-1,3.87,3.87,0,0,1-.8-2.53,4.08,4.08,0,0,1,.82-2.67A2.69,2.69,0,0,1,335.69,139Z"/>
            <path class="cls-13" d="M353.3,144.6c0,.51.17.76.52.76l.24,0,.24,0a.3.3,0,0,1,.23.1.31.31,0,0,1,.09.22c0,.24-.15.35-.45.35H354l-.49-.07a5.92,5.92,0,0,0-.64,0,6.36,6.36,0,0,0-.67,0l-.51.07h-.14c-.29,0-.44-.11-.44-.35a.29.29,0,0,1,.32-.32l.24,0,.24,0c.34,0,.51-.25.51-.76v-4.09a.64.64,0,0,0-.74-.71h-.31c-.48,0-.73.23-.73.7,0,.17,0,.29,0,.35l0,.37a1.7,1.7,0,0,1,0,.25c0,.42-.13.64-.39.64s-.37-.16-.37-.47c0-.08,0-.24,0-.45s0-.53,0-.61,0-.35,0-.53c0-.35,0-.51,0-.45,0-.28.13-.43.38-.43l.66,0,.82.05H353l1.07,0,.66,0,.64,0c.33,0,.5.14.5.42v0c0,.07,0,.19,0,.37s0,.38-.06.58v.12c0,.1,0,.25,0,.47s0,.46,0,.52q0,.42-.39.42c-.26,0-.38-.17-.38-.51q0-.18,0-.54t0-.54c0-.47-.27-.7-.8-.7h-.28a.7.7,0,0,0-.53.16.75.75,0,0,0-.19.51l0,.71Z"/>
            <path class="cls-13" d="M363.28,146.16a2.59,2.59,0,0,1-2.12-1,4.07,4.07,0,0,1-.78-2.62,4,4,0,0,1,.78-2.62,2.66,2.66,0,0,1,2.17-1,2.6,2.6,0,0,1,2.1.93,3.77,3.77,0,0,1,.78,2.51,4.33,4.33,0,0,1-.79,2.72A2.59,2.59,0,0,1,363.28,146.16Zm0-6.44a1.74,1.74,0,0,0-1.5.74,3.54,3.54,0,0,0-.54,2.1,3.59,3.59,0,0,0,.54,2.12,1.82,1.82,0,0,0,3,0,3.6,3.6,0,0,0,.55-2.12,3.53,3.53,0,0,0-.52-2.08A1.73,1.73,0,0,0,363.3,139.72Z"/>
            <path class="cls-13" d="M373.74,146.16a2.6,2.6,0,0,1-2.12-1,4.07,4.07,0,0,1-.78-2.62,4,4,0,0,1,.79-2.62,2.63,2.63,0,0,1,2.16-1,2.6,2.6,0,0,1,2.1.93,3.77,3.77,0,0,1,.79,2.51,4.27,4.27,0,0,1-.8,2.72A2.57,2.57,0,0,1,373.74,146.16Zm0-6.44a1.76,1.76,0,0,0-1.5.74,3.62,3.62,0,0,0-.53,2.1,3.67,3.67,0,0,0,.53,2.12,1.83,1.83,0,0,0,3,0,3.6,3.6,0,0,0,.55-2.12,3.53,3.53,0,0,0-.53-2.08A1.7,1.7,0,0,0,373.76,139.72Z"/>
            <path class="cls-13" d="M383.28,144.46c0,.39,0,.63.12.7a.38.38,0,0,0,.24.11c.1,0,.32,0,.66,0h.89a1.61,1.61,0,0,0,.92-.18.91.91,0,0,0,.24-.74c0-.1,0-.22,0-.35s0-.42,0-.47c0-.29.11-.44.35-.44a.37.37,0,0,1,.42.41,1,1,0,0,1,0,.19l-.07.51a3.44,3.44,0,0,0,0,.46,4.06,4.06,0,0,0,0,.42c0,.19,0,.33,0,.42q0,.45-.51.45l-.47,0-.74,0h-2.37l-.81,0-.27,0h-.31q-.42,0-.42-.36a.28.28,0,0,1,.31-.32l.24,0,.24,0c.35,0,.52-.25.52-.76v-4c0-.49-.17-.74-.52-.74l-.21,0-.27,0a.27.27,0,0,1-.22-.1.32.32,0,0,1-.09-.23c0-.24.14-.36.43-.36h.15l.54.07c.29,0,.51.05.65.05a5.75,5.75,0,0,0,.64-.05l.47-.07h.13q.45,0,.45.36a.32.32,0,0,1-.09.23.27.27,0,0,1-.22.1l-.27,0-.21,0c-.35,0-.52.25-.52.74Z"/>
            <path class="cls-13" d="M394.3,139a2.16,2.16,0,0,1,1.62.64v-.14c0-.26.1-.4.31-.4s.34.15.34.44v.06l0,.3a6.45,6.45,0,0,0,0,.67s0,.15,0,.33l0,.4a.53.53,0,0,1,0,.14c0,.32-.12.48-.37.48a.35.35,0,0,1-.4-.4v0l0-.27a1.94,1.94,0,0,0,0-.22,1.17,1.17,0,0,0-.4-.95,1.71,1.71,0,0,0-1.13-.34,1.61,1.61,0,0,0-1,.32,1.07,1.07,0,0,0-.39.87,1,1,0,0,0,.58.93,4.22,4.22,0,0,0,1.13.3,3.9,3.9,0,0,1,1.64.52,1.65,1.65,0,0,1,.66,1.4,1.92,1.92,0,0,1-.68,1.54,2.53,2.53,0,0,1-1.75.6,2.65,2.65,0,0,1-1.9-.73v.15a1,1,0,0,1,0,.21.33.33,0,0,1-.37.37c-.27,0-.4-.14-.4-.43a.11.11,0,0,1,0-.08l0-.52c0-.26,0-.43,0-.51a4.54,4.54,0,0,0-.06-.6,4.15,4.15,0,0,1-.05-.6c0-.31.12-.46.38-.46s.39.15.39.46v.41a1.57,1.57,0,0,0,.48,1.21,2.19,2.19,0,0,0,2.52.08,1.18,1.18,0,0,0,.46-1c0-.64-.41-1-1.21-1.17l-.58-.1a6.71,6.71,0,0,1-1.33-.35,1.6,1.6,0,0,1-.69-.6A1.69,1.69,0,0,1,392,141a1.81,1.81,0,0,1,.64-1.44A2.48,2.48,0,0,1,394.3,139Z"/>
          </g>
        </g>
      </g>
      <path class="cls-14" d="M110,105.51a12.65,12.65,0,0,0,7.73,6.6,24.48,24.48,0,0,1,.27,3.34,16.77,16.77,0,0,1-15.84,16.09c-.32,0-.65,0-1,0a16.84,16.84,0,0,1-16.81-16.82v-.21a5.62,5.62,0,0,1,2.88-5.36c3.14,2.27,6,3.38,8.81,3.38,4,0,6.91-2.25,9.5-4.23a18.89,18.89,0,0,1,4.44-2.82m1.21-2.35c-5.54.64-9,7.4-15.15,7.4-2.36,0-5.13-1-8.57-3.71a7.76,7.76,0,0,0-5.11,7.9,18.82,18.82,0,0,0,18.81,18.82c.36,0,.72,0,1.08,0a18.83,18.83,0,0,0,17.73-18,25.13,25.13,0,0,0-.54-5,10.78,10.78,0,0,1-8.25-7.33Z"/>
      <path class="cls-10" d="M133.85,160.77a2.23,2.23,0,1,0-1.85,1.85A2.23,2.23,0,0,0,133.85,160.77Z"/>
      <path class="cls-5" d="M134.21,103.75a3,3,0,0,0-1.28-2.48,4.62,4.62,0,0,0-2.26-.39h-2.62a2.64,2.64,0,0,0-2.66,2.28,2.56,2.56,0,0,0,2.54,2.81h1.18v1.44a2.63,2.63,0,0,0,2.29,2.65,2.55,2.55,0,0,0,2.81-2.53Z"/>
    </g>
  </g>
</svg>
