<svg id="Layer_1" data-name="Layer 1" xmlns="http://www.w3.org/2000/svg" viewBox="0 0 675.03 313.83">
  <defs>
    <style>
      .cls-1, .cls-5 {
        fill: #484848;
      }

      .cls-2 {
        fill: #333;
      }

      .cls-3 {
        opacity: 0.67;
      }

      .cls-4, .cls-5 {
        opacity: 0.63;
      }

      .cls-6, .cls-7 {
        fill: #fff;
      }

      .cls-7 {
        opacity: 0.36;
      }

      .cls-8 {
        fill: #774d04;
        opacity: 0.5;
      }

      .cls-13, .cls-9 {
        font-size: 27.12px;
        font-family: Eagle-Book, Eagle;
      }

      .cls-9 {
        fill: #12313f;
      }

      .cls-10 {
        letter-spacing: -0.02em;
      }

      .cls-11, .cls-12 {
        font-family: Eagle-Light, Eagle;
        font-weight: 300;
      }

      .cls-11 {
        letter-spacing: -0.03em;
      }

      .cls-13 {
        fill: #221e1f;
      }
    </style>
  </defs>
  <title>logo-v1</title>
  <g>
    <path class="cls-1" d="M187.37,300.7a56.53,56.53,0,0,1-6.88-.48A84.82,84.82,0,0,1,166,297.07c-9.54-2.91-18.07-5.82-25.87-12-2.45-1.92-5.24-4.93-5.83-6.94a5.36,5.36,0,0,0-5-4,5,5,0,0,0-2,.42,6.37,6.37,0,0,0-3.08,3.2,20.32,20.32,0,0,1-1.68,2.33l-.24.3a27.66,27.66,0,0,1-5.13,4.95,64.93,64.93,0,0,1-24.92,12.48c-5.16,1.38-9.81,2.53-14.56,2.7-1.09,0-2.17.07-3.25.07a36.69,36.69,0,0,1-4-.19,12,12,0,0,0,5.42-4.73,2.13,2.13,0,0,0-1.81-3.23,2.21,2.21,0,0,0-.84.17c-3.75,1.63-10.31,1.75-12.23,1.75H59.93c-11.23-.27-21.58-3.6-29.16-9.39a38.06,38.06,0,0,1-13.9-23,31.36,31.36,0,0,1-.57-6.1,18.42,18.42,0,0,0,1.14,3.38,18.1,18.1,0,0,0,9.89,9.31,40.93,40.93,0,0,0,15.58,3.26,29.76,29.76,0,0,0,16-4.43,45.45,45.45,0,0,0,11.26-10.48c1.2-1.5,2.32-3.08,3.41-4.6l1.2-1.68A35.82,35.82,0,0,1,80,245,52.23,52.23,0,0,1,93.12,236c1.28-.58,2.58-1.1,3.87-1.54l.51-.21h0a12.32,12.32,0,0,0,5.33,5.6,9.81,9.81,0,0,0,3.72,1.23l.35,0a5.25,5.25,0,0,0,2-.48,3.45,3.45,0,0,1,.88-.27,1.94,1.94,0,0,1,.33,0c1.25,0,2.47.74,4,2.42l.08.09a20.59,20.59,0,0,0,5,4.52,16,16,0,0,0,6.71,2.11c.39,0,.79.05,1.18.05a15.4,15.4,0,0,0,12.28-6.46c.23-.32.47-.68.71-1.06a5.71,5.71,0,0,1,1.29-1.64,1.69,1.69,0,0,1,1.29-.4,2.24,2.24,0,0,1,1.46.8l.37.58.68.1.35,0c1.6,0,4-1.49,4.42-1.78a5.57,5.57,0,0,0,2.64-4.88c-.16-3.69-4-6.91-6.18-8.23a35.49,35.49,0,0,0-3.71-1.84l-.6-.27a7,7,0,0,1-1.81-1c-.35-.3-.41-.66-.51-1.63,0-.2,0-.41-.06-.61a21.52,21.52,0,0,0-.87-4,29.72,29.72,0,0,0-2.36-5c-.5-.91-1-1.76-1.38-2.64a21.89,21.89,0,0,1-2-7.37,35.1,35.1,0,0,1,2-14.94,38.65,38.65,0,0,1,3.53-7.31c.13-.22.28-.44.43-.65a9.56,9.56,0,0,0,.83-1.32,2.28,2.28,0,0,0-.49-2.78l-.15-.16a22.32,22.32,0,0,0-2.65-2.67,12.55,12.55,0,0,0-7.46-3.07h-.42a15.15,15.15,0,0,0-7.48,2.24,33.88,33.88,0,0,0-6.33,4.51c-2.2,2-3,4.71-2.33,8.16.1.55.22,1.12.33,1.68a14.9,14.9,0,0,1,.45,6.2,10.59,10.59,0,0,1-2,3.65,21.23,21.23,0,0,0-1.7,2.66c-.36.72-.64,1.37-.88,2a13.31,13.31,0,0,1-.65,1.39l-.15.27,0,.4v.1a2,2,0,0,1-1.58,1.53l-.3,0a2,2,0,0,1-.68-.12,1.73,1.73,0,0,1-.25-.12l-.19-.12a28.12,28.12,0,0,1-2.44-2C100.28,200,96.23,199,91.39,199a34.7,34.7,0,0,0-6,.52c-1.89.35-3.74.82-5.53,1.27a41.36,41.36,0,0,1-10.14,1.69h-.43A21.87,21.87,0,0,1,61.7,201a28.72,28.72,0,0,1-6-3.49l.09-.14A30.79,30.79,0,0,1,58,194.7a25.81,25.81,0,0,1,5.15-4.3A21.76,21.76,0,0,1,74.67,187a20.64,20.64,0,0,1,2.22.12,28.83,28.83,0,0,1,7.28,2,15,15,0,0,0,5.37,1c.41,0,.83,0,1.24-.05,4.89-.38,8.69-3.15,9.93-7.21l.62-2-2.14.12h-.37c-3.44,0-5.86-2.69-8.25-5.68-2.57-3.24-5.55-6.4-9.87-7.61a41.92,41.92,0,0,0-11.17-1.57,34.18,34.18,0,0,0-24.85,10.27,13.47,13.47,0,0,1,3.07-7.22L50,166.71l-3.35-.07c-2.1,0-4-.16-5.66-.36a12.59,12.59,0,0,0,3.21-2.19,6.24,6.24,0,0,0,2-5.2,4.62,4.62,0,0,0-2.42-3.56c-.08,0-1.64-.83-2-1-1.52-.72-14.88-8.19-25.26-15.27l-.67-.45a36.92,36.92,0,0,1-7.07-5.7,18.13,18.13,0,0,1,5.48-28.21,18.5,18.5,0,0,1,8.18-1.89,18.27,18.27,0,0,1,8.12,1.88,28,28,0,0,1,3.85,2.42,139.88,139.88,0,0,0,94.33,36.53,140.15,140.15,0,0,0,33.81-4.12,3.37,3.37,0,0,0,1.49-.8,2.54,2.54,0,0,0,.78.12,2.82,2.82,0,0,0,.71-.09,2.76,2.76,0,0,0,1.39-.91c.21,0,.44,0,.68,0a6.33,6.33,0,0,0,1.88-.27l.28-.08a3.83,3.83,0,0,0,2.72-3.68v-.33a3.84,3.84,0,0,0-3.83-3.84,4,4,0,0,0-1.14.17l-.25.08a3.32,3.32,0,0,0-1.47,1,2.66,2.66,0,0,0-.94-.17,2.44,2.44,0,0,0-.71.1,2.71,2.71,0,0,0-1.2.69,3.27,3.27,0,0,0-.7-.08,3.06,3.06,0,0,0-.74.09,132.3,132.3,0,0,1-32.76,4.11c-1.51,0-3,0-4.56-.07A132,132,0,0,1,38,99.48a2.08,2.08,0,0,1-.64-1.59l.11-3.28a104.77,104.77,0,0,1,1-10.45C42.56,53,70,6.27,128.81,5.44h1.3A89.09,89.09,0,0,1,192.7,31.36c15.15,14.85,25,34.73,26.47,53.17,0,.08.5,5.71.7,10.1l.06,3.83a1.4,1.4,0,0,1-.44,1.05c-.94.89-1.9,1.78-2.87,2.64a5.79,5.79,0,0,0-1.94,4.3,3.6,3.6,0,0,0,1.13,2.65,3.76,3.76,0,0,0,2.52,1,3.59,3.59,0,0,0,2.37-.9l1.74-1.51c5.33-4.3,8.32-4.66,10.71-4.66h1.41c12.55,0,18.39,11,18.39,18.39,0,9.43-6.31,13.58-13,18l-2.09,1.38A207.75,207.75,0,0,1,215,154.22a21.29,21.29,0,0,0-2.29,1.41,5.19,5.19,0,0,0-2.12,3.62,5.13,5.13,0,0,0,1.23,3.95,12.53,12.53,0,0,0,4.05,3.07,55.06,55.06,0,0,1-6.29.38l-2.1,0,.7,2a10.92,10.92,0,0,0,6.14,6.08,7.23,7.23,0,0,0-1.51,3.58,7.42,7.42,0,0,0,1.26,5.2,13.94,13.94,0,0,0-1.26,1.55,18.27,18.27,0,0,0-.37,23.1,52.8,52.8,0,0,1-1.47,6c-3,10.13-12,19-23.41,23.21-.31.11-.64.2-1,.29a9.51,9.51,0,0,0-2.35.9,4.26,4.26,0,0,0-1.75,5.17,6,6,0,0,0,2.9,2.86l.31.18A35.49,35.49,0,0,1,189,249.1a56.61,56.61,0,0,1,6.75,6.12c1,1.11,2,2.28,2.93,3.52s1.84,2.34,2.87,3.46A27.84,27.84,0,0,0,233.85,268,18.78,18.78,0,0,0,243.76,256a39.33,39.33,0,0,1-3.89,17.17c-4.8,10.4-13.16,17.69-23.55,20.54a56.48,56.48,0,0,1-14.79,2h-1.22c-5.52-.12-9.88-1.2-13.33-3.3a1.87,1.87,0,0,0-1-.27,1.89,1.89,0,0,0-1.58.88,1.82,1.82,0,0,0-.09,1.78,12.36,12.36,0,0,0,6.11,5.77c-.58.05-1.13.08-1.63.1S187.86,300.7,187.37,300.7Zm-151.46-48a9.52,9.52,0,0,1-4.39-1.07A10.44,10.44,0,0,1,25.94,243a5,5,0,0,1,0-.55,4.62,4.62,0,0,0-.76-3.06,3,3,0,0,0-1.67-1.07,26.19,26.19,0,0,1,2.87-2.48,16.13,16.13,0,0,1,9.45-3.52,11.62,11.62,0,0,1,3.26.46,10.32,10.32,0,0,1,7.11,8.3,9.69,9.69,0,0,1-2.34,7.86A10.64,10.64,0,0,1,35.91,252.67Zm191.78-8.74a5.51,5.51,0,0,1-5.29-4,5.07,5.07,0,0,1,.88-4.46,5.9,5.9,0,0,1,4.63-2.24,5.57,5.57,0,0,1,1.62.23,15.61,15.61,0,0,1,5.4,3.3,3.31,3.31,0,0,0-2,2.51,5.54,5.54,0,0,1-3.9,4.52A5.33,5.33,0,0,1,227.69,243.93Z"/>
    <path class="cls-2" d="M130.1,3.93v3a87.62,87.62,0,0,1,61.54,25.5c14.9,14.61,24.62,34.13,26,52.25,0,.06.5,5.62.7,10l.06,3.8c-1,1-1.93,1.8-2.81,2.58a7.29,7.29,0,0,0-2.44,5.42,5.14,5.14,0,0,0,8.51,3.89l1.69-1.48c5.38-4.33,8-4.33,9.77-4.33h1.41c11,0,16.89,9.81,16.89,16.89,0,8.62-5.71,12.38-12.32,16.73-.71.46-1.41.92-2.1,1.39a206.31,206.31,0,0,1-22.72,13.31l-.07,0-.08,0a21.54,21.54,0,0,0-2.36,1.47,6.7,6.7,0,0,0-2.74,4.67,6.63,6.63,0,0,0,1.59,5.11c.27.3.56.61.88.91-.65,0-1.32,0-2,.05l-4.19,0,1.4,4a11.62,11.62,0,0,0,5.4,6.17,8.66,8.66,0,0,0-.84,2.8,8.93,8.93,0,0,0,.9,5.23c-.2.24-.4.5-.6.79a19.81,19.81,0,0,0-.79,24.41,52.92,52.92,0,0,1-1.31,5.15c-2.85,9.69-11.47,18.21-22.48,22.23l-.86.26a10.17,10.17,0,0,0-2.73,1.06,5.78,5.78,0,0,0-2.38,7,7.46,7.46,0,0,0,3.54,3.6l.3.18a34,34,0,0,1,3.18,2.26,56,56,0,0,1,6.57,6c1,1.05,1.89,2.2,2.84,3.42s1.88,2.38,2.94,3.54a29.33,29.33,0,0,0,34.11,6.11,21.36,21.36,0,0,0,7-5.6,42.78,42.78,0,0,1-3,8.86c-4.61,10-12.63,17-22.58,19.73a55.25,55.25,0,0,1-14.4,1.91h-1.18c-5.18-.12-9.42-1.15-12.59-3.08a3.36,3.36,0,0,0-4.6,1.09,3.32,3.32,0,0,0-.17,3.23,12.88,12.88,0,0,0,2.72,3.71c-1.53-.06-3.19-.2-5-.43a83.57,83.57,0,0,1-14.22-3.09c-9.4-2.87-17.79-5.73-25.39-11.72-2.54-2-4.88-4.73-5.32-6.2a6.83,6.83,0,0,0-6.46-5.08,6.7,6.7,0,0,0-2.59.53,7.85,7.85,0,0,0-3.82,3.91,23.48,23.48,0,0,1-1.53,2.09l-.24.3a26.41,26.41,0,0,1-4.89,4.71,63.7,63.7,0,0,1-24.37,12.2c-5.06,1.34-9.63,2.47-14.22,2.64-.73,0-1.64.06-2.57.07a13.22,13.22,0,0,0,2.11-2.65,3.63,3.63,0,0,0-3.1-5.5,3.57,3.57,0,0,0-1.44.3c-2.35,1-6.69,1.62-11.63,1.62H60c-10.91-.26-21-3.49-28.28-9.09A36.29,36.29,0,0,1,19,264.44,20.37,20.37,0,0,0,26.75,270a42.44,42.44,0,0,0,16.16,3.38,31.24,31.24,0,0,0,16.78-4.66,46.73,46.73,0,0,0,11.64-10.81c1.23-1.54,2.36-3.13,3.46-4.67l1.2-1.67a33.72,33.72,0,0,1,5-5.45,50.75,50.75,0,0,1,12.78-8.69c1-.46,2.05-.88,3.08-1.25a13.51,13.51,0,0,0,5.33,5.07,11.29,11.29,0,0,0,4.27,1.39l.49,0a6.71,6.71,0,0,0,2.57-.59,3.63,3.63,0,0,1,.48-.17h.17c.77,0,1.67.61,2.84,1.91l.08.1a21.75,21.75,0,0,0,5.41,4.82,17.69,17.69,0,0,0,7.33,2.31c.44,0,.88.05,1.31.05A16.89,16.89,0,0,0,140.58,244c.28-.38.53-.78.77-1.16a7.22,7.22,0,0,1,.87-1.2l.21-.13h.19a1.12,1.12,0,0,1,.29.19l.71,1.08L145,243a3.43,3.43,0,0,0,.56,0c2.31,0,5.27-2,5.3-2.06a7.13,7.13,0,0,0,3.26-6.16c-.17-4.05-3.83-7.63-6.91-9.46a36.56,36.56,0,0,0-3.87-1.92l-.09,0-.53-.23a8.65,8.65,0,0,1-1.33-.66c0-.17-.06-.47-.08-.7s0-.43-.07-.66a22.05,22.05,0,0,0-.94-4.3,30,30,0,0,0-2.46-5.26c-.49-.88-.95-1.71-1.35-2.55a20.69,20.69,0,0,1-1.85-6.87,33.55,33.55,0,0,1,1.93-14.3,37.8,37.8,0,0,1,3.39-7c.12-.19.26-.38.39-.57a11.84,11.84,0,0,0,.94-1.5,3.74,3.74,0,0,0-.72-4.47l-.12-.13a23.88,23.88,0,0,0-2.84-2.85,14,14,0,0,0-8.35-3.41h-.48a16.63,16.63,0,0,0-8.21,2.43,35.08,35.08,0,0,0-6.62,4.72c-2.57,2.38-3.5,5.59-2.79,9.52.11.58.22,1.15.34,1.72a13.84,13.84,0,0,1,.45,5.57,9.21,9.21,0,0,1-1.72,3.11,22.64,22.64,0,0,0-1.81,2.85c-.38.76-.67,1.44-.92,2s-.4.94-.58,1.25l-.3.55-.06.62s0,.07,0,.11a.44.44,0,0,1-.32.26h-.07a.45.45,0,0,1-.16,0h0l0,0,0,0h0l0,0a28.92,28.92,0,0,1-2.27-1.86l-.07-.06-.07-.06c-3.39-2.64-9-3-12-3a35.84,35.84,0,0,0-6.3.55c-1.93.35-3.81.83-5.63,1.28A40,40,0,0,1,69.69,201h-.4a20.42,20.42,0,0,1-7.05-1.38,23.42,23.42,0,0,1-4.42-2.43c.4-.5.82-1,1.23-1.43a24.05,24.05,0,0,1,4.85-4.05,19.89,19.89,0,0,1,12.83-3,27.44,27.44,0,0,1,6.91,2,16.5,16.5,0,0,0,5.9,1.07c.45,0,.91,0,1.36-.05,5.51-.44,9.82-3.61,11.24-8.27l1.25-4.1-4.28.23h-.29c-2.78,0-4.84-2.32-7.07-5.12-2.6-3.27-5.9-6.79-10.65-8.11a43.25,43.25,0,0,0-11.57-1.63,36.12,36.12,0,0,0-21.77,7.06,8,8,0,0,1,1.09-1.48l4.58-4.91-6.71-.14-1.37,0a7.71,7.71,0,0,0,2.34-6.41A6.16,6.16,0,0,0,44.51,154c-.17-.1-1.75-.89-2.1-1.05-1.5-.71-14.73-8.1-25.06-15.15l-.66-.45a35.88,35.88,0,0,1-6.79-5.45,16.63,16.63,0,0,1,5-25.88,17.07,17.07,0,0,1,7.51-1.73A16.74,16.74,0,0,1,29.88,106a25.64,25.64,0,0,1,3.57,2.25,141.4,141.4,0,0,0,95.28,36.86A142.12,142.12,0,0,0,162.9,141a4.88,4.88,0,0,0,1.51-.66l.4,0a4.5,4.5,0,0,0,1.13-.15,4.25,4.25,0,0,0,1.56-.82h.09a8,8,0,0,0,2.32-.33l.29-.09a5.32,5.32,0,0,0,3.77-5.11v-.33a5.34,5.34,0,0,0-5.33-5.34,5.26,5.26,0,0,0-1.58.24l-.26.08a4.43,4.43,0,0,0-1.46.77,4.07,4.07,0,0,0-.5,0,4.18,4.18,0,0,0-1.14.16,4.29,4.29,0,0,0-1.21.55h-.26a4.61,4.61,0,0,0-1.11.13,130.75,130.75,0,0,1-32.39,4.07c-1.49,0-3,0-4.51-.07A130.43,130.43,0,0,1,39.07,98.39.55.55,0,0,1,38.9,98L39,94.64A101.54,101.54,0,0,1,40,84.38v0c1.69-12.91,8.63-32.44,23-48.55C79.54,17.29,102.31,7.32,128.83,6.94h1.27v-3M35.83,233.81a10.1,10.1,0,0,1,2.84.4,8.78,8.78,0,0,1,6,7.09,8.21,8.21,0,0,1-2,6.66,9.19,9.19,0,0,1-6.82,3.21,8,8,0,0,1-3.7-.9,8.9,8.9,0,0,1-4.77-7.35,3.53,3.53,0,0,1,0-.46,6,6,0,0,0-1.08-4,4.59,4.59,0,0,0-.36-.41c.41-.35.84-.69,1.28-1a14.89,14.89,0,0,1,8.55-3.22m192.08.88a4.16,4.16,0,0,1,1.21.17,11.1,11.1,0,0,1,3.4,1.84,5.07,5.07,0,0,0-1,2.24,4,4,0,0,1-2.83,3.36,3.62,3.62,0,0,1-1,.13,4,4,0,0,1-3.84-2.91,3.55,3.55,0,0,1,.62-3.17,4.4,4.4,0,0,1,3.44-1.66M130.11,3.93h-1.32c-62.66.89-88.14,52-91.81,80a104.13,104.13,0,0,0-1,10.62l-.12,3.28A3.54,3.54,0,0,0,37,100.57a133.22,133.22,0,0,0,87.11,36.5c1.54.05,3.08.07,4.61.07A133.74,133.74,0,0,0,161.87,133a1.47,1.47,0,0,1,.36,0,1.42,1.42,0,0,1,1.42,1.42v-1a1.16,1.16,0,0,1,.85-1.12h0a1.1,1.1,0,0,1,.31,0,1.16,1.16,0,0,1,1.16,1.16s.68-1.73,1.67-2l.27-.08a2.17,2.17,0,0,1,.7-.11,2.34,2.34,0,0,1,2.33,2.34v.33a2.34,2.34,0,0,1-1.65,2.24l-.28.09a5.06,5.06,0,0,1-1.45.2,6,6,0,0,1-1.59-.21,1.17,1.17,0,0,1-.86,1.13h0a1.1,1.1,0,0,1-.31,0,1.17,1.17,0,0,1-1.16-1.17h0a2,2,0,0,1-1.47,1.9,138.72,138.72,0,0,1-33.45,4.07A138.31,138.31,0,0,1,35.34,106a29.17,29.17,0,0,0-4.12-2.61,19.74,19.74,0,0,0-8.79-2,20,20,0,0,0-8.84,2,19.64,19.64,0,0,0-5.94,30.56,42.28,42.28,0,0,0,8,6.39c10.32,7,23.72,14.56,25.47,15.38l1.94,1c2.34,1.28,2.08,4.52.14,6.35a11.9,11.9,0,0,1-8.47,3.12h-.27c2.92,1.56,8.46,1.95,12.19,2-3.07,3.29-3.74,8.18-3.85,12.8a32.56,32.56,0,0,1,26.72-13.33,40.23,40.23,0,0,1,10.77,1.52c3.88,1.08,6.67,4,9.1,7.09s5.23,6.25,9.42,6.25h.45c-1.16,3.81-4.81,5.85-8.61,6.15-.37,0-.75,0-1.12,0a13.54,13.54,0,0,1-4.83-.88,30,30,0,0,0-7.66-2.12,21.22,21.22,0,0,0-2.38-.13,23.25,23.25,0,0,0-12.37,3.61,27.34,27.34,0,0,0-5.45,4.55,30.45,30.45,0,0,0-2.29,2.78,12.13,12.13,0,0,0-.78,1.45s.78.62,1,.8a30.3,30.3,0,0,0,6.34,3.66A23.28,23.28,0,0,0,69.23,204h.46c5.5,0,10.58-2,15.94-3a32.33,32.33,0,0,1,5.76-.5c4,0,8,.73,10.19,2.4a28.19,28.19,0,0,0,2.57,2.1,5,5,0,0,0,.79.42,3.58,3.58,0,0,0,1.19.21,3.23,3.23,0,0,0,.53,0,3.46,3.46,0,0,0,2.85-2.85c0-.07,0-.13,0-.2.49-.9.86-2,1.55-3.39,1.17-2.31,3.21-4.08,3.78-6.67.63-2.84-.26-5.69-.77-8.47-.47-2.59-.12-4.94,1.88-6.79a32.54,32.54,0,0,1,6.05-4.3,13.84,13.84,0,0,1,6.74-2.05h.37a11,11,0,0,1,6.55,2.73,20,20,0,0,1,2.47,2.48c.41.48.75.69.44,1.3s-.82,1.24-1.2,1.85a40.33,40.33,0,0,0-3.67,7.6,36.42,36.42,0,0,0-2.08,15.59,23.3,23.3,0,0,0,2.12,7.85c1.18,2.52,2.8,4.82,3.67,7.47a19.2,19.2,0,0,1,.81,3.74c.15,1.21.08,2.35,1.1,3.21a11.29,11.29,0,0,0,2.66,1.41,33.54,33.54,0,0,1,3.66,1.8c3.49,2.08,8.17,7.22,3.43,10.6a9.32,9.32,0,0,1-3.55,1.5h-.14a3.65,3.65,0,0,0-2.68-1.49h0a3.11,3.11,0,0,0-2.13.66c-1,.68-1.65,2.09-2.36,3a14,14,0,0,1-11.08,5.86c-.35,0-.7,0-1.06,0a14.55,14.55,0,0,1-6.08-1.92,19.49,19.49,0,0,1-4.75-4.31c-1.34-1.51-3-2.92-5.08-2.92l-.48,0c-1,.11-1.75.75-2.74.75h-.21a9,9,0,0,1-3.17-1.07,10.93,10.93,0,0,1-4.83-5.28c-.17-.38-.15-.64-.58-.7H98a5.67,5.67,0,0,0-1.52.51c-1.37.46-2.7,1-4,1.59A54.63,54.63,0,0,0,79,243.84a37,37,0,0,0-5.4,5.93c-1.51,2.09-3,4.21-4.57,6.23A44.32,44.32,0,0,1,58.1,266.14a28.31,28.31,0,0,1-15.19,4.2,39.67,39.67,0,0,1-15-3.15,16.7,16.7,0,0,1-9.09-8.53,17.54,17.54,0,0,1-.51-12.88A19.38,19.38,0,0,1,20,242.35a6.76,6.76,0,0,1,1.76-2.3,1.89,1.89,0,0,1,1.05-.33,1.54,1.54,0,0,1,1.23.59c.59.76.4,1.87.44,2.76a12,12,0,0,0,6.39,9.87,11,11,0,0,0,5.08,1.23c6.69,0,12.85-6,11.77-13.32a11.77,11.77,0,0,0-8.17-9.52,13.08,13.08,0,0,0-3.68-.52,17.54,17.54,0,0,0-10.34,3.82,26.56,26.56,0,0,0-8.84,11.44,29.14,29.14,0,0,0-1.26,16.2,39.47,39.47,0,0,0,14.47,23.88c8.5,6.49,19.45,9.45,30,9.7H61c3.07,0,9.1-.25,12.82-1.87a.59.59,0,0,1,.25-.05.63.63,0,0,1,.53.95c-2,3.38-6,5.31-10.39,5.31H64a23.74,23.74,0,0,0,10.46,1.9c1.09,0,2.2,0,3.31-.07a67.52,67.52,0,0,0,14.88-2.75,66.28,66.28,0,0,0,25.48-12.76,29,29,0,0,0,5.37-5.19,25.23,25.23,0,0,0,2.08-2.87,5.13,5.13,0,0,1,2.32-2.51,3.7,3.7,0,0,1,1.42-.3,3.84,3.84,0,0,1,3.59,2.94c.72,2.43,3.76,5.66,6.34,7.69,8.09,6.39,17,9.37,26.36,12.24a86.37,86.37,0,0,0,14.73,3.2,57.62,57.62,0,0,0,7.06.49l1.5,0c2.59-.1,5.58-.45,7.75-2-.26,0-.53,0-.8,0a11.3,11.3,0,0,1-10.13-6.08.35.35,0,0,1,.32-.5.45.45,0,0,1,.19.05c4.19,2.55,9.23,3.41,14.08,3.52h1.25a58,58,0,0,0,15.19-2c11.09-3.05,19.73-11,24.51-21.36,4.64-10,6-22.33,0-32.1a26.08,26.08,0,0,0-4.75-5.67,18.06,18.06,0,0,0-6.52-4.1,7.53,7.53,0,0,0-2-.28,6.87,6.87,0,1,0-.22,13.74,6.41,6.41,0,0,0,1.78-.24,7,7,0,0,0,5-5.67A1.66,1.66,0,0,1,236,238l.34,0c1.07.21,2,1.61,2.62,2.41a17.77,17.77,0,0,1,3.43,14.89,17.33,17.33,0,0,1-9.21,11.29,26.34,26.34,0,0,1-30.56-5.46c-2-2.23-3.73-4.76-5.8-7a57.27,57.27,0,0,0-6.93-6.28,36.17,36.17,0,0,0-3.46-2.46c-1-.59-2.15-1.17-2.6-2.32a2.75,2.75,0,0,1,1.14-3.32,16.57,16.57,0,0,1,3.06-1.07c11.15-4.07,21-12.82,24.34-24.2a54.23,54.23,0,0,0,1.64-6.83A16.76,16.76,0,0,1,214,186a10.25,10.25,0,0,1,1.68-1.93.59.59,0,0,0,.07-.83,5.81,5.81,0,0,1,1-8.67s.27-.18.52-.37c-2.92-.77-6.46-2.64-7.65-6,3.69,0,9.76-.37,12.86-2h-.28a11.75,11.75,0,0,1-9.23-3.91,3.67,3.67,0,0,1,.64-5.37,20.3,20.3,0,0,1,2-1.27A203.77,203.77,0,0,0,238.7,142c7.46-5,15.75-9.34,15.75-20.61,0-8.15-6.57-19.89-19.89-19.89h-1.41c-2.61,0-5.92.37-11.7,5l-1.73,1.51a2.08,2.08,0,0,1-1.39.53,2.15,2.15,0,0,1-2.15-2.15,4.27,4.27,0,0,1,1.44-3.18c1-.87,1.95-1.77,2.9-2.67a2.92,2.92,0,0,0,.91-2.17l-.06-3.87c-.21-4.48-.71-10.14-.71-10.14-2.85-37-38.72-80.48-90.55-80.49Z"/>
  </g>
  <path d="M322.73,122.49c-2.16-5.56-7.22-9.21-14-9.21-9.22,0-15.27,6.64-15.27,15.77s6.05,15.76,15.27,15.76c6.8,0,11.86-3.65,14-9.21h14.19c-2.74,12.87-13.69,21.66-28.21,21.66-16.93,0-28.88-11.95-28.88-28.21s11.95-28.22,28.88-28.22c14.52,0,25.47,8.8,28.21,21.66Z"/>
  <path d="M384.57,156.18V140.75H363.32v15.43H350.21V124.65c0-14.78,8.38-23.82,23.82-23.82s24,9,24,23.82v31.53Zm0-31.53c0-7.47-3.24-11.37-10.63-11.37s-10.62,3.9-10.62,11.37v4.48h21.25Z"/>
  <path d="M414.53,156.18V101.91h21.33c14.77,0,21.33,8,21.33,19.09s-6.56,19.17-21.33,19.17H428v16Zm21.58-28.46c5.72,0,7.47-2.82,7.47-6.72s-1.75-6.64-7.47-6.64H428v13.36Z"/>
  <path d="M482.59,156.18V114.36H467.81V101.91h43.08v12.45H496v41.82Z"/>
  <path d="M525.33,156.18V101.91h13.45v54.27Z"/>
  <path d="M582.68,157.26c-16.93,0-28.88-11.95-28.88-28.21s12-28.22,28.88-28.22,28.88,12,28.88,28.22S599.61,157.26,582.68,157.26ZM598,129.05c0-9.13-6.06-15.77-15.27-15.77s-15.27,6.64-15.27,15.77,6.06,15.76,15.27,15.76S598,138.18,598,129.05Z"/>
  <path d="M658.38,156.18V123.65c0-6.64-3.16-10.37-9.8-10.37s-9.79,3.73-9.79,10.37v32.53H625.35V123.65c0-14,8.29-22.82,23.23-22.82s23.24,8.8,23.24,22.82v32.53Z"/>
  <path class="cls-3" d="M285.81,225.68V182h4.81v43.73Z"/>
  <path class="cls-3" d="M336.8,225.73V199.19c0-8.42-4.68-13.64-13.5-13.64s-13.57,5.22-13.57,13.64v26.54h-4.82V199.19c0-11,6.55-18.05,18.39-18.05s18.31,7,18.31,18.05v26.54Z"/>
  <path class="cls-3" d="M379.12,193.84c-.27-5-4.08-8.22-10.36-8.22S358.4,189,358.4,194.11c0,12.3,26.2,2,26.2,19.26,0,8.15-6.28,13.3-15.91,13.3s-15.77-5-16-13.17h4.75c.2,5.55,4.28,8.76,11.23,8.76s11.23-3.41,11.23-8.76c0-12.5-26.2-2-26.2-19.25,0-7.76,6-13,15-13,8.82,0,14.71,5,15,12.63Z"/>
  <path class="cls-3" d="M396.91,225.73V182h18.92c10.56,0,15.24,5.88,15.24,13.91s-4.75,14-15.24,14H401.72v15.84Zm19-20.25c7.56,0,10.3-4.15,10.3-9.56s-2.74-9.5-10.3-9.5H401.72v19.06Z"/>
  <path class="cls-3" d="M442.3,225.73V182h32.09v4.41H447.12v14.91h23.4v4.42h-23.4v15.57h27.27v4.41Z"/>
  <path class="cls-3" d="M525.47,196.65c-2.61-6.68-9-11.1-17.11-11.1-10.9,0-18.46,7.76-18.46,18.32s7.56,18.32,18.46,18.32c8.15,0,14.5-4.41,17.11-11.1h5.08c-2.81,9.3-11.23,15.51-22.19,15.51-13.64,0-23.27-9.62-23.27-22.73s9.63-22.73,23.27-22.73c11,0,19.38,6.22,22.19,15.51Z"/>
  <path class="cls-3" d="M551.68,225.73V186.42H536.84V182h34.5v4.41H556.49v39.31Z"/>
  <path class="cls-3" d="M600.69,226.6c-13.64,0-23.27-9.62-23.27-22.73s9.63-22.73,23.27-22.73S624,190.77,624,203.87,614.32,226.6,600.69,226.6Zm18.45-22.73c0-10.56-7.56-18.32-18.45-18.32s-18.46,7.76-18.46,18.32,7.56,18.32,18.46,18.32S619.14,214.44,619.14,203.87Z"/>
  <path class="cls-3" d="M666,225.73l-11.83-16.58h-13.3v16.58h-4.82V182h19.32c10.3,0,14.85,5.75,14.85,13.51,0,6.75-3.41,12-11,13.3V209l12.57,16.78Zm-10.56-21c7.29,0,9.9-4,9.9-9.22s-2.61-9.1-9.9-9.1H640.87v18.32Z"/>
  <g>
    <g class="cls-4">
      <path class="cls-1" d="M232.39,180a5.18,5.18,0,0,0-2.22-4.31c-1.2-.81-3.68-.68-3.93-.68h-5.77a4.44,4.44,0,0,0-4.4,4.85,4.59,4.59,0,0,0,4.64,4h1.23a1.59,1.59,0,0,1,1.59,1.59v.88a4.59,4.59,0,0,0,4,4.64,4.44,4.44,0,0,0,4.85-4.4Z"/>
      <path class="cls-1" d="M228.64,259a3.44,3.44,0,1,0-3.94-4A3.47,3.47,0,0,0,228.64,259Z"/>
      <path class="cls-1" d="M231.93,196.93a3.88,3.88,0,1,0-4.44,4.44A3.88,3.88,0,0,0,231.93,196.93Z"/>
      <path class="cls-1" d="M231.93,209.31a3.88,3.88,0,1,0-4.44,4.44A3.89,3.89,0,0,0,231.93,209.31Z"/>
      <path class="cls-1" d="M228.71,218.48a3.88,3.88,0,1,0,3.22,3.22A3.89,3.89,0,0,0,228.71,218.48Z"/>
    </g>
    <path class="cls-5" d="M228.1,298.84a2.74,2.74,0,1,0,2.74,2.74A2.74,2.74,0,0,0,228.1,298.84Z"/>
    <path class="cls-1" d="M214.8,192.76h0v0Z"/>
    <circle class="cls-6" cx="228.1" cy="278.88" r="2.65"/>
    <path class="cls-7" d="M204.56,199.72A31,31,0,1,1,145,187.65c4.71-11.12,29.73-2.79,48.92-11.32A30.94,30.94,0,0,1,204.56,199.72Z"/>
    <path class="cls-1" d="M142.28,225.71a3.44,3.44,0,1,0-3.94-3.94A3.45,3.45,0,0,0,142.28,225.71Z"/>
    <path class="cls-1" d="M110.41,245.62a3.44,3.44,0,1,0-3.94-3.94A3.45,3.45,0,0,0,110.41,245.62Z"/>
  </g>
  <g>
    <path class="cls-8" d="M293,263.78l-6.54-16.45h2L294,261.62H294l5.51-14.29h2l-6.56,16.45Z"/>
    <path class="cls-8" d="M308.42,263.78V247.33H320.5V249H310.23v5.61H319v1.66h-8.81v5.86H320.5v1.66Z"/>
    <path class="cls-8" d="M339,263.78l-4.46-6.24h-5v6.24h-1.81V247.33H335c3.88,0,5.59,2.16,5.59,5.08a4.68,4.68,0,0,1-4.13,5v.05l4.73,6.31Zm-4-7.9c2.74,0,3.72-1.51,3.72-3.47s-1-3.42-3.72-3.42h-5.49v6.89Z"/>
    <path class="cls-8" d="M357.41,251.78c-.1-1.89-1.53-3.09-3.9-3.09s-3.9,1.26-3.9,3.19c0,4.63,9.86.76,9.86,7.25,0,3.07-2.36,5-6,5s-5.94-1.89-6-5h1.79c.07,2.09,1.61,3.3,4.23,3.3s4.22-1.29,4.22-3.3c0-4.71-9.86-.76-9.86-7.25,0-2.92,2.26-4.9,5.66-4.9s5.54,1.88,5.64,4.75Z"/>
    <path class="cls-8" d="M367.2,263.78V247.33H369v16.45Z"/>
    <path class="cls-8" d="M385.33,264.11a8.56,8.56,0,1,1,8.76-8.55A8.35,8.35,0,0,1,385.33,264.11Zm6.95-8.55a6.95,6.95,0,1,0-6.95,6.89A6.66,6.66,0,0,0,392.28,255.56Z"/>
    <path class="cls-8" d="M413.36,263.78v-10c0-3.17-1.77-5.13-5.09-5.13s-5.1,2-5.1,5.13v10h-1.82v-10c0-4.15,2.47-6.79,6.92-6.79s6.9,2.64,6.9,6.79v10Z"/>
    <path class="cls-8" d="M440.09,263.78V248.84h-3.93v-1.51h5.61v16.45Z"/>
    <path class="cls-8" d="M451.5,262.83a1.28,1.28,0,1,1,1.29,1.28A1.29,1.29,0,0,1,451.5,262.83Z"/>
    <path class="cls-8" d="M472.86,258.27a5.82,5.82,0,1,1-11.63,0v-5.43a5.82,5.82,0,1,1,11.63,0Zm-1.69-5.43a4.13,4.13,0,1,0-8.25,0v5.43a4.13,4.13,0,1,0,8.25,0Z"/>
  </g>
  <g>
    <text class="cls-9" transform="translate(279.82 48.53)"><tspan class="cls-10">R</tspan><tspan x="18.31" y="0">ound Font Face </tspan><tspan class="cls-11" x="219.08" y="0">L</tspan><tspan class="cls-12" x="231.53" y="0">ogo</tspan></text>
    <text class="cls-13" transform="translate(279.82 48.53)"><tspan class="cls-10">R</tspan><tspan x="18.31" y="0">ound Font Face </tspan><tspan class="cls-11" x="219.08" y="0">L</tspan><tspan class="cls-12" x="231.53" y="0">ogo</tspan></text>
  </g>
</svg>
