<svg xmlns="http://www.w3.org/2000/svg" viewBox="0 0 432 432">
  <defs>
    <style>
      .cls-1 {
        isolation: isolate;
      }

      .cls-2, .cls-3, .cls-4 {
        fill: #f68b1e;
      }

      .cls-3 {
        mix-blend-mode: multiply;
      }

      .cls-4 {
        opacity: 0.5;
      }

      .cls-5 {
        fill: #fff;
        opacity: 0.1;
      }
    </style>
  </defs>
  <title>logo-icon-simple-orange</title>
  <g class="cls-1">
    <g id="Layer_1" data-name="Layer 1">
      <path class="cls-2" d="M117.38,157.05c30.15,16,65.68,23.74,101.09,23.22s70.69-9.31,100.35-26.36c1.76-1,3.51-2,5.23-3.12q5.7-3.54,11.07-7.52V143c0-64.39-51.11-118.31-115.5-119.12a116.95,116.95,0,0,0-118.54,117v6.32q4.62,3.15,9.47,6C112.8,154.55,115.07,155.82,117.38,157.05Z"/>
      <path class="cls-3" d="M218.1,27.88h1.47a111.07,111.07,0,0,1,79.06,34.49,115.66,115.66,0,0,1,32.48,78.87c-3,2.15-6.07,4.21-9.17,6.15-1.62,1-3.29,2-5.11,3-28.48,16.36-62.51,25.29-98.42,25.82l-3.31,0c-34.62,0-67.77-7.88-95.84-22.78-2.27-1.2-4.51-2.45-6.68-3.73-2.51-1.48-5-3.06-7.5-4.7v-4.19a113,113,0,0,1,113-113m0-4a116.95,116.95,0,0,0-117,117v6.32q4.62,3.15,9.47,6c2.25,1.32,4.52,2.59,6.83,3.82,29.2,15.49,63.44,23.24,97.72,23.24l3.37,0c35.41-.53,70.69-9.31,100.35-26.36,1.76-1,3.51-2,5.23-3.12q5.7-3.54,11.07-7.52V143c0-64.39-51.11-118.31-115.5-119.12Z"/>
      <g>
        <g>
          <path class="cls-2" d="M342.54,392.14a3.27,3.27,0,1,0-2.49,5.92,2.84,2.84,0,0,0,.66.07,3,3,0,0,0,.66-.07,3.46,3.46,0,0,0,1.17-.49,3.28,3.28,0,0,0,0-5.43Z"/>
          <path class="cls-2" d="M342.54,330.06a3.29,3.29,0,0,0-1.17-.5,3.68,3.68,0,0,0-.66-.06,3.52,3.52,0,0,0-.66.06,3.28,3.28,0,0,0,0,6.42,2.84,2.84,0,0,0,.66.07,3,3,0,0,0,.66-.07,3.1,3.1,0,0,0,1.17-.49,3.64,3.64,0,0,0,.48-.4,3.23,3.23,0,0,0,1-2.32h0a3.22,3.22,0,0,0-1-2.31A3,3,0,0,0,342.54,330.06Z"/>
          <path class="cls-2" d="M342.54,347.71a3.1,3.1,0,0,0-1.17-.49,3,3,0,0,0-.66-.07,2.84,2.84,0,0,0-.66.07,3.27,3.27,0,0,0,0,6.41,2.84,2.84,0,0,0,.66.07,3,3,0,0,0,.66-.07,3.1,3.1,0,0,0,1.17-.49,3.28,3.28,0,0,0,0-5.43Z"/>
          <path class="cls-2" d="M341.37,337.89a3.68,3.68,0,0,0-.66-.06,3.52,3.52,0,0,0-.66.06,3.28,3.28,0,0,0-2.62,3.21,3.27,3.27,0,0,0,5.59,2.32,3.32,3.32,0,0,0,1-2.32h0A3.28,3.28,0,0,0,341.37,337.89Z"/>
          <path class="cls-2" d="M343,304a3.28,3.28,0,1,0-3,5.53,3.52,3.52,0,0,0,.66.06,3.68,3.68,0,0,0,.66-.06,3.29,3.29,0,0,0,1.17-.5,3,3,0,0,0,.48-.4,3.22,3.22,0,0,0,1-2.31h0a3.32,3.32,0,0,0-1-2.32Z"/>
          <path class="cls-2" d="M338.87,267.4a3.29,3.29,0,0,0,3.67,0,3.07,3.07,0,0,0,.88-.88,3.29,3.29,0,0,0,.5-1.17,3.6,3.6,0,0,0,.06-.66,3.22,3.22,0,0,0-.26-1.28,3.18,3.18,0,0,0-.7-1,3.28,3.28,0,1,0-4.15,5Z"/>
          <path class="cls-2" d="M342.54,270.3a3.32,3.32,0,0,0-1.83-.56,3.28,3.28,0,0,0-.66,6.49,3.52,3.52,0,0,0,.66.06,3.68,3.68,0,0,0,.66-.06,3.29,3.29,0,0,0,1.17-.5,3.64,3.64,0,0,0,.48-.4,3.27,3.27,0,0,0,.9-1.65A3.68,3.68,0,0,0,344,273,3.28,3.28,0,0,0,342.54,270.3Z"/>
          <path class="cls-2" d="M342.54,287a3.29,3.29,0,0,0-1.17-.5,3.68,3.68,0,0,0-.66-.06,3.52,3.52,0,0,0-.66.06,3.28,3.28,0,0,0,0,6.42,3.51,3.51,0,0,0,.66.07,3.7,3.7,0,0,0,.66-.07,3.46,3.46,0,0,0,1.17-.49,3.28,3.28,0,0,0,0-5.43Z"/>
          <path class="cls-2" d="M340.71,278.07a3.27,3.27,0,0,0-.66,6.48,2.84,2.84,0,0,0,.66.07,3,3,0,0,0,.66-.07,3.1,3.1,0,0,0,1.17-.49,3.28,3.28,0,0,0,1.44-2.72,3.22,3.22,0,0,0-.56-1.83A3.26,3.26,0,0,0,340.71,278.07Z"/>
          <path class="cls-2" d="M343,295.68a3.28,3.28,0,1,0-3,5.53,3.51,3.51,0,0,0,.66.07,3.7,3.7,0,0,0,.66-.07,3.46,3.46,0,0,0,1.17-.49,3.29,3.29,0,0,0,1.18-4A3.18,3.18,0,0,0,343,295.68Z"/>
        </g>
        <g>
          <path class="cls-2" d="M342.54,392.14a3.27,3.27,0,1,0-2.49,5.92,2.84,2.84,0,0,0,.66.07,3,3,0,0,0,.66-.07,3.46,3.46,0,0,0,1.17-.49,3.28,3.28,0,0,0,0-5.43Z"/>
          <path class="cls-2" d="M342.54,330.06a3.29,3.29,0,0,0-1.17-.5,3.68,3.68,0,0,0-.66-.06,3.52,3.52,0,0,0-.66.06,3.28,3.28,0,0,0,0,6.42,2.84,2.84,0,0,0,.66.07,3,3,0,0,0,.66-.07,3.1,3.1,0,0,0,1.17-.49,3.64,3.64,0,0,0,.48-.4,3.23,3.23,0,0,0,1-2.32h0a3.22,3.22,0,0,0-1-2.31A3,3,0,0,0,342.54,330.06Z"/>
          <path class="cls-2" d="M342.54,347.71a3.1,3.1,0,0,0-1.17-.49,3,3,0,0,0-.66-.07,2.84,2.84,0,0,0-.66.07,3.27,3.27,0,0,0,0,6.41,2.84,2.84,0,0,0,.66.07,3,3,0,0,0,.66-.07,3.1,3.1,0,0,0,1.17-.49,3.28,3.28,0,0,0,0-5.43Z"/>
          <path class="cls-2" d="M341.37,337.89a3.68,3.68,0,0,0-.66-.06,3.52,3.52,0,0,0-.66.06,3.28,3.28,0,0,0-2.62,3.21,3.27,3.27,0,0,0,5.59,2.32,3.32,3.32,0,0,0,1-2.32h0A3.28,3.28,0,0,0,341.37,337.89Z"/>
          <path class="cls-2" d="M343,304a3.28,3.28,0,1,0-3,5.53,3.52,3.52,0,0,0,.66.06,3.68,3.68,0,0,0,.66-.06,3.29,3.29,0,0,0,1.17-.5,3,3,0,0,0,.48-.4,3.22,3.22,0,0,0,1-2.31h0a3.32,3.32,0,0,0-1-2.32Z"/>
          <path class="cls-2" d="M338.87,267.4a3.29,3.29,0,0,0,3.67,0,3.07,3.07,0,0,0,.88-.88,3.29,3.29,0,0,0,.5-1.17,3.6,3.6,0,0,0,.06-.66,3.22,3.22,0,0,0-.26-1.28,3.18,3.18,0,0,0-.7-1,3.28,3.28,0,1,0-4.15,5Z"/>
          <path class="cls-2" d="M342.54,270.3a3.32,3.32,0,0,0-1.83-.56,3.28,3.28,0,0,0-.66,6.49,3.52,3.52,0,0,0,.66.06,3.68,3.68,0,0,0,.66-.06,3.29,3.29,0,0,0,1.17-.5,3.64,3.64,0,0,0,.48-.4,3.27,3.27,0,0,0,.9-1.65A3.68,3.68,0,0,0,344,273,3.28,3.28,0,0,0,342.54,270.3Z"/>
          <path class="cls-2" d="M342.54,287a3.29,3.29,0,0,0-1.17-.5,3.68,3.68,0,0,0-.66-.06,3.52,3.52,0,0,0-.66.06,3.28,3.28,0,0,0,0,6.42,3.51,3.51,0,0,0,.66.07,3.7,3.7,0,0,0,.66-.07,3.46,3.46,0,0,0,1.17-.49,3.28,3.28,0,0,0,0-5.43Z"/>
          <path class="cls-2" d="M340.71,278.07a3.27,3.27,0,0,0-.66,6.48,2.84,2.84,0,0,0,.66.07,3,3,0,0,0,.66-.07,3.1,3.1,0,0,0,1.17-.49,3.28,3.28,0,0,0,1.44-2.72,3.22,3.22,0,0,0-.56-1.83A3.26,3.26,0,0,0,340.71,278.07Z"/>
          <path class="cls-2" d="M343,295.68a3.28,3.28,0,1,0-3,5.53,3.51,3.51,0,0,0,.66.07,3.7,3.7,0,0,0,.66-.07,3.46,3.46,0,0,0,1.17-.49,3.29,3.29,0,0,0,1.18-4A3.18,3.18,0,0,0,343,295.68Z"/>
        </g>
      </g>
      <path class="cls-2" d="M372.65,171.08a25.48,25.48,0,0,0-.75-4.77,25.14,25.14,0,0,0-4.24-8.7,25.27,25.27,0,0,0-3.32-3.6,24,24,0,0,0-3.9-2.84A24.92,24.92,0,0,0,351.3,148a26,26,0,0,0-4.9-.2,24.75,24.75,0,0,0-13.46,5q-5.87,4.42-12.19,8.36c-29.49,18.33-66.19,28.3-104.95,28.3h0c-44.27,0-85.68-13-116.62-36.6a24.59,24.59,0,0,0-13.58-5,25.12,25.12,0,0,0-4.75.18,24.8,24.8,0,0,0-15.33,40.93,25.36,25.36,0,0,0,3.59,3.34,211.16,211.16,0,0,0,31.82,20c6.2,3.18,12.63,6,19.19,8.67a51.64,51.64,0,0,0-4.58,2.45c-2.47,1.49-4.7,2.36-6.41,9.57,3.83,1.57,7.28.51,10.1-.06a96.4,96.4,0,0,1,22-1.42c27.71,1,34.52,13.59,34.1,16.53-.2,1.43-21.24-14.07-48.88,10.56-.09,4.76,5.35,15.39,32.84,12.48,31.68-3.36,32.25,8,34.37,9.45,4,2.78,7.53,1.29,8.92-.18,3.87-4.08,5.39-10.74,5.07-18.4a26.47,26.47,0,0,0-5.92-14.38c-2.27-2.52.13-10.64,13.75-10.64,13.79,0,18.63,4.07,17.33,5.91a51.17,51.17,0,0,0-9.45,29.66c0,11.59,4.52,21.81,10.34,30.89,3.24,5.06,2.26,7.24,8.42,14.45,0,0,8.71,7.73,7.71,13.44a9.06,9.06,0,0,1-7.08,7.24,11.49,11.49,0,0,0-3.19-1.65c-2.06-.75-5.49.08-7.48,1.52a25.55,25.55,0,0,1-15.05,5A24.41,24.41,0,0,1,202.86,339a11.14,11.14,0,0,0-7.11-1.35,6.15,6.15,0,0,0-3.19,1.83,9,9,0,0,1-3.48-16,3.94,3.94,0,0,0,.49-.45c4.34-4.75-.58-12.19-6.86-10.75-17.72,4.05-28.29,16.26-30.22,17.83-6.86,5.6-13.63,11.33-21.07,16a82.75,82.75,0,0,1-23.78,10.55,22,22,0,0,1-13.23,1.09,20.9,20.9,0,0,1-16.25-16.24c-1.31-6.5,2.49-13.79,6.31-18.31a3.88,3.88,0,0,1,6.46.89,8.77,8.77,0,0,0,7.78,4.73,8.55,8.55,0,0,0,8.46-6.69,8.8,8.8,0,0,0-8.56-10.82,15,15,0,0,0-4.82,1c-13,5.88-21.81,20.21-18.47,38.5,4.54,24.89,23.78,33.61,35.08,39.79,13.27,7.25,30.83,5.46,40.53-1.19-2,5.88-8.36,10.31-14.46,9,10.9,7.58,58.91-2.78,75.92-23,.85-1,1.65-2,2.41-3a7,7,0,0,1,11.16,0q1.11,1.49,2.37,3c16.84,20.23,64.41,30.59,75.22,23-6.05,1.35-12.31-3.08-14.33-9,9.6,6.65,26.21,6.75,40.15,1.19,12-4.8,30.25-14.9,34.76-39.79,3.11-17.19-4.49-30.8-16.09-37.26a14.21,14.21,0,0,0-3.91-1.32,11.13,11.13,0,0,0-4.23-.16c-4,.82-6.55,3.61-6.55,7.85,0,4,3,7.43,7.82,7.43,4.51,0,7.9-5.94,5.18-8.67-1.62-1.61.71-2.76,4.3-1a22.59,22.59,0,0,1,10.71,23.63c-1.53,8-8.07,14.94-16,16.42-19,3.54-29.65-7.05-36.79-11.61-7.37-4.69-14.07-10.42-20.87-16-.26-.21-.68-.62-1.26-1.18a3.86,3.86,0,0,1,1.67-6.51,51.6,51.6,0,0,0,37.56-59.93c.42,0,.84.07,1.27.07a12,12,0,1,0-4.69-23,7.74,7.74,0,0,1-9.26-2.43l-.2-.27a12,12,0,0,1,4.84-18.28l.12,0a218.25,218.25,0,0,0,45.13-26.15,25.27,25.27,0,0,0,3.6-3.32,24.59,24.59,0,0,0,4.86-8.29,25.24,25.24,0,0,0,1.34-9.65ZM285.88,306.91c-19.18,5.37-41.21-5.6-45.94-26.48-1.86-8.22-3-19.12,4-28.43,12.24,0,25.29-5.11,34.54-9.49,14.33-6.77,26.33,2.07,30.85,18.63.21.75.39,1.51.56,2.28C314,282.67,303.3,302,285.88,306.91Z"/>
      <path class="cls-3" d="M347.84,151.77a21.35,21.35,0,0,1,10.58,2.85,20,20,0,0,1,3.26,2.38,21,21,0,0,1,2.79,3,20.83,20.83,0,0,1,3.06,19.4,20.43,20.43,0,0,1-4.07,6.94,21.08,21.08,0,0,1-3,2.79,214.13,214.13,0,0,1-44.31,25.66l-.12.06a16,16,0,0,0-6.45,24.36l.2.26a11.76,11.76,0,0,0,14,3.7,7.94,7.94,0,0,1,3.12-.63,8.89,8.89,0,0,1,1.53.14,8,8,0,0,1-1.53,15.84,8.4,8.4,0,0,1-.85-.05l-5.4-.57,1,5.32a47.59,47.59,0,0,1-34.64,55.3,7.73,7.73,0,0,0-5.59,5.58,7.9,7.9,0,0,0,2.14,7.66l.05,0c.65.63,1.08,1.05,1.46,1.36l2.3,1.9a192.84,192.84,0,0,0,19,14.41c1,.62,2.11,1.42,3.3,2.27,6,4.25,15,10.67,28.2,10.67a45.29,45.29,0,0,0,8.17-.77A23.92,23.92,0,0,0,359.33,354c-4,15.23-14.28,26-31.45,32.85a52.56,52.56,0,0,1-19.07,3.72c-7,0-13.14-1.59-17.31-4.48l-10-6.93,3.95,11.51a17.79,17.79,0,0,0,3.58,6.09c-17.21-.86-45.82-9.82-57.62-24-.77-.92-1.52-1.88-2.24-2.83a10.94,10.94,0,0,0-17.55,0c-.73,1-1.5,1.93-2.29,2.86-11.91,14.18-40.84,23.15-58.22,24a18,18,0,0,0,3.61-6.07l4-11.48-10,6.87c-4.71,3.23-11.81,5.17-19,5.17a36.27,36.27,0,0,1-17.37-4.19l-2.38-1.29C99.36,380.1,85.12,372.46,80.14,354a25.49,25.49,0,0,0,13.41,7.64,27.19,27.19,0,0,0,5.8.64,25.69,25.69,0,0,0,9.54-1.83,87.52,87.52,0,0,0,24.67-11,195.71,195.71,0,0,0,19.16-14.42l2.3-1.89c.38-.31.8-.72,1.44-1.34,3.51-3.39,12.82-12.42,27.15-15.69a2.68,2.68,0,0,1,.68-.08,3.06,3.06,0,0,1,2.71,1.83,2.1,2.1,0,0,1-.39,2.41,13,13,0,0,0,5.11,23.07l2.09.45,1.54-1.48a2.51,2.51,0,0,1,1.48-.86h.27a8.22,8.22,0,0,1,3.45.78A28.28,28.28,0,0,0,217,347.36a29.47,29.47,0,0,0,17.39-5.75,6.47,6.47,0,0,1,3.32-1,1.84,1.84,0,0,1,.45,0h0a7.41,7.41,0,0,1,2.09,1.05l.28.18,1.36.9,1.61-.32A13,13,0,0,0,253.77,332c.67-3.83-1.07-8.26-5.18-13.14a30.31,30.31,0,0,0-3.58-3.76,26.79,26.79,0,0,1-5.16-8.33,32,32,0,0,0-2.79-5.51c-6.62-10.34-9.7-19.47-9.7-28.73a47.07,47.07,0,0,1,8.72-27.35,5.22,5.22,0,0,0,.3-5.48c-2.22-4.28-9.83-6.74-20.9-6.74-12.49,0-16.51,6-17.65,8.56a8.12,8.12,0,0,0,.93,8.76,22.77,22.77,0,0,1,4.9,11.87c.28,7-1.13,12.47-4,15.48a2.31,2.31,0,0,1-1.47.49,3.7,3.7,0,0,1-1.92-.62l-.24-.39c-3.23-5.25-8.84-10.62-26.06-10.62a108.12,108.12,0,0,0-11.12.64,79.13,79.13,0,0,1-8.38.48c-11.49,0-16.29-3.15-18.13-5a7,7,0,0,1-1.6-2.4c9.19-7.72,18.55-11.63,27.83-11.63A35.39,35.39,0,0,1,172,251.28a8.43,8.43,0,0,0,3.15.84,4.11,4.11,0,0,0,4.12-3.53c.35-2.43-.88-5.51-3.35-8.47-3.68-4.4-13.07-11.88-34.57-12.62-1.64-.06-3.27-.09-4.84-.09A93,93,0,0,0,118.41,229l-1.07.22a25.49,25.49,0,0,1-3,.53,5.79,5.79,0,0,1,2.67-2.6l.54-.32c1.22-.74,2.65-1.5,4.24-2.27l8.2-3.93-8.44-3.39c-7-2.81-13.17-5.59-18.86-8.51A208.25,208.25,0,0,1,71.49,189.1a21.1,21.1,0,0,1-3-2.81A20.78,20.78,0,0,1,81.34,152a20.27,20.27,0,0,1,2.8-.19c.39,0,.8,0,1.19,0A20.7,20.7,0,0,1,96.72,156c31.63,24.13,73.9,37.42,119.09,37.42,39.61,0,76.63-10,107.05-28.9,4.31-2.68,8.51-5.56,12.49-8.57a20.58,20.58,0,0,1,11.28-4.18c.4,0,.81,0,1.21,0M276,312.26a40.61,40.61,0,0,0,11-1.5,37.19,37.19,0,0,0,22.49-18.28,43.23,43.23,0,0,0,4.33-29.89c-.18-.84-.38-1.68-.61-2.5-4-14.72-13.69-23.87-25.25-23.87a26.05,26.05,0,0,0-11.17,2.68c-12.77,6-23.82,9.1-32.83,9.1h-2l-1.2,1.6c-8.16,10.87-6.57,23.31-4.67,31.71A38.49,38.49,0,0,0,251,304.06a42.3,42.3,0,0,0,25,8.2M98.66,315.31a4.79,4.79,0,0,1,4.6,5.94,4.56,4.56,0,0,1-4.55,3.57,4.75,4.75,0,0,1-4.2-2.52,8.07,8.07,0,0,0-3.76-3.7,27.93,27.93,0,0,1,4.69-2.67,11.14,11.14,0,0,1,3.22-.62m242.89.59a6.08,6.08,0,0,1,.61,0,5,5,0,0,0,1.15,5.33,2.71,2.71,0,0,1-.7,1.27,2.15,2.15,0,0,1-1.44.79c-2.82,0-3.82-1.85-3.82-3.43,0-1.38.34-3.28,3.28-3.92a5.88,5.88,0,0,1,.92-.07m6.29-168.13c-.48,0-1,0-1.44,0a24.75,24.75,0,0,0-13.46,5q-5.87,4.42-12.19,8.36c-29.49,18.33-66.19,28.3-104.95,28.3h0c-44.27,0-85.68-13-116.62-36.6a24.59,24.59,0,0,0-13.58-5c-.47,0-1,0-1.42,0a24.8,24.8,0,0,0-18.66,41.15,25.36,25.36,0,0,0,3.59,3.34,211.16,211.16,0,0,0,31.82,20c6.2,3.18,12.63,6,19.19,8.67a51.64,51.64,0,0,0-4.58,2.45c-2.47,1.49-4.7,2.36-6.41,9.57a11.06,11.06,0,0,0,4.27.82,28.47,28.47,0,0,0,5.83-.88,88.46,88.46,0,0,1,17.34-1.5c1.49,0,3.06,0,4.7.08,27.71,1,34.52,13.59,34.1,16.53,0,.07-.06.09-.16.09-1,0-7.17-3.6-16.58-3.6-8.48,0-19.63,2.93-32.14,14.07-.08,4.2,4.15,13,24,13a84.32,84.32,0,0,0,8.8-.5,101.89,101.89,0,0,1,10.7-.62c21.16,0,21.82,8.78,23.67,10.07a7.85,7.85,0,0,0,4.55,1.56,6.17,6.17,0,0,0,4.37-1.74c3.87-4.08,5.39-10.74,5.07-18.4a26.47,26.47,0,0,0-5.92-14.38c-2.27-2.52.13-10.64,13.75-10.64,13.79,0,18.63,4.07,17.33,5.91a51.17,51.17,0,0,0-9.45,29.66c0,11.59,4.52,21.81,10.34,30.89,3.24,5.06,2.26,7.24,8.42,14.45,0,0,8.71,7.73,7.71,13.44a9.06,9.06,0,0,1-7.08,7.24,11.49,11.49,0,0,0-3.19-1.65,5.23,5.23,0,0,0-1.82-.28,10.39,10.39,0,0,0-5.66,1.8,25.55,25.55,0,0,1-15.05,5A24.41,24.41,0,0,1,202.86,339a11.63,11.63,0,0,0-5.76-1.51,5,5,0,0,0-1.35.16,6.15,6.15,0,0,0-3.19,1.83,9,9,0,0,1-3.48-16,3.94,3.94,0,0,0,.49-.45c4-4.34.2-10.93-5.28-10.93a6.72,6.72,0,0,0-1.58.18c-17.72,4.05-28.29,16.26-30.22,17.83-6.86,5.6-13.63,11.33-21.07,16a82.75,82.75,0,0,1-23.78,10.55,21.73,21.73,0,0,1-8.29,1.64,22.94,22.94,0,0,1-4.94-.55,20.9,20.9,0,0,1-16.25-16.24c-1.31-6.5,2.49-13.79,6.31-18.31a3.72,3.72,0,0,1,2.89-1.36,4,4,0,0,1,3.57,2.25,8.77,8.77,0,0,0,7.78,4.73,8.55,8.55,0,0,0,8.46-6.69,8.8,8.8,0,0,0-8.56-10.82,15,15,0,0,0-4.82,1c-13,5.88-21.81,20.21-18.47,38.5,4.54,24.89,23.78,33.61,35.08,39.79a40.45,40.45,0,0,0,19.29,4.68c8.11,0,15.88-2.2,21.24-5.87-1.79,5.16-6.88,9.2-12.22,9.2a10.1,10.1,0,0,1-2.24-.24c2.42,1.69,6.69,2.48,12,2.48,18.7,0,50.67-9.76,63.89-25.49.85-1,1.65-2,2.41-3a6.95,6.95,0,0,1,11.16,0q1.11,1.49,2.37,3c13.1,15.73,44.77,25.49,63.29,25.49,5.3,0,9.52-.79,11.93-2.48a10,10,0,0,1-2.23.24c-5.29,0-10.33-4-12.1-9.2,5.06,3.5,12.06,5.19,19.59,5.19a56.47,56.47,0,0,0,20.56-4c12-4.8,30.25-14.9,34.76-39.79,3.11-17.19-4.49-30.8-16.09-37.26a14.21,14.21,0,0,0-3.91-1.32,13.76,13.76,0,0,0-2.58-.3,10.11,10.11,0,0,0-1.65.14c-4,.82-6.55,3.61-6.55,7.85,0,4,3,7.43,7.82,7.43,4.51,0,7.9-5.94,5.18-8.67-1-1-.45-1.88,1.06-1.88a7.52,7.52,0,0,1,3.24.9,22.59,22.59,0,0,1,10.71,23.63c-1.53,8-8.07,14.94-16,16.42a39.88,39.88,0,0,1-7.44.71c-14.44,0-23.2-8.4-29.35-12.32-7.37-4.69-14.07-10.42-20.87-16-.26-.21-.68-.62-1.26-1.18a3.86,3.86,0,0,1,1.67-6.51,51.6,51.6,0,0,0,37.56-59.93c.42,0,.84.07,1.27.07a12,12,0,0,0,2.24-23.78,13.31,13.31,0,0,0-2.24-.2,11.85,11.85,0,0,0-4.69,1,7.85,7.85,0,0,1-3.1.63,7.66,7.66,0,0,1-6.16-3.06l-.2-.27a12,12,0,0,1,4.84-18.28l.12,0a218.25,218.25,0,0,0,45.13-26.15,25.27,25.27,0,0,0,3.6-3.32,24.59,24.59,0,0,0,4.86-8.29,25.24,25.24,0,0,0,1.34-9.65,25.48,25.48,0,0,0-.75-4.77,25.14,25.14,0,0,0-4.24-8.7,25.27,25.27,0,0,0-3.32-3.6,24,24,0,0,0-3.9-2.84A24.92,24.92,0,0,0,351.3,148a25.37,25.37,0,0,0-3.46-.24ZM276,308.26c-16.24,0-32.09-10.5-36-27.83-1.86-8.22-3-19.12,4-28.43,12.24,0,25.29-5.11,34.54-9.49a22.13,22.13,0,0,1,9.46-2.29c10,0,17.91,8.18,21.39,20.92.21.75.39,1.51.56,2.28,4.1,19.25-6.56,38.61-24,43.49a37,37,0,0,1-9.93,1.35Z"/>
      <path class="cls-4" d="M309.3,261.14c-4.52-16.56-16.52-25.4-30.85-18.63-9.25,4.38-22.3,9.49-34.54,9.49-7,9.31-5.83,20.21-4,28.43,4.73,20.88,26.76,31.85,45.94,26.48,17.42-4.88,28.08-24.24,24-43.49C309.69,262.65,309.51,261.89,309.3,261.14Z"/>
      <path class="cls-5" d="M287.91,242.22c8.87,0,16.14,7.27,19.46,19.45.2.71.37,1.44.53,2.17a37.27,37.27,0,0,1-3.71,25.75A31.3,31.3,0,0,1,285.34,305a34.87,34.87,0,0,1-9.39,1.28,36.29,36.29,0,0,1-21.44-7A32.61,32.61,0,0,1,241.89,280c-1.59-7-3-17.28,3.05-26,9.7-.22,21.25-3.47,34.37-9.67a20.19,20.19,0,0,1,8.6-2.1m0-2a22.09,22.09,0,0,0-9.46,2.29c-9.25,4.38-22.3,9.49-34.54,9.49-7,9.31-5.83,20.21-4,28.43,3.92,17.33,19.77,27.83,36,27.83a37,37,0,0,0,9.93-1.35c17.42-4.88,28.08-24.24,24-43.49-.17-.77-.35-1.53-.56-2.28-3.48-12.74-11.39-20.92-21.39-20.92Z"/>
    </g>
  </g>
</svg>
