<svg id="Layer_1" data-name="Layer 1" xmlns="http://www.w3.org/2000/svg" viewBox="0 0 667.02 311">
  <defs>
    <style>
      .cls-1, .cls-2 {
        fill: #221e1f;
      }

      .cls-2 {
        opacity: 0.54;
      }

      .cls-3 {
        fill: #484848;
      }

      .cls-4 {
        fill: #d1ae00;
      }

      .cls-5 {
        fill: #4c6084;
        opacity: 0.62;
      }

      .cls-6 {
        fill: #fff;
      }

      .cls-7 {
        font-size: 65.81px;
        fill: #1a1928;
        font-family: AmericanTypewriter, American Typewriter;
        letter-spacing: 0.19em;
      }

      .cls-8 {
        letter-spacing: 0.2em;
      }

      .cls-9 {
        fill: #9e9e9e;
      }
    </style>
  </defs>
  <title>logo-w-dark-h</title>
  <g>
    <path class="cls-1" d="M217.44,155.19a19,19,0,0,1,2-1.26A239,239,0,0,0,242.58,141c7.48-4.82,15.75-9.93,15.75-21.2,0-8.16-6.57-19.89-19.89-19.89-2.9,0-5.63.1-13.47,5.25-28.35,18.62-58.87,28.48-92.2,28.48-50.69,0-85.74-23.77-88.87-25.89-2.92-2-5.63-4.46-8.8-6a20.07,20.07,0,0,0-17.63,0,19.64,19.64,0,0,0-5.94,30.56,44.54,44.54,0,0,0,8,6.88A220.71,220.71,0,0,0,45,153.54a15.42,15.42,0,0,1,1.78,1.15,5.6,5.6,0,0,1,1.7,2,3.38,3.38,0,0,1-.46,3.7,11.74,11.74,0,0,1-9.68,4.11c2.92,1.57,8.46,1.95,12.19,2-3.07,3.29-3.74,8.18-3.85,12.79,7.29-10.09,21-16.39,37.49-11.8,3.88,1.08,6.67,4,9.1,7.09s5.42,6.47,9.87,6.23c-1.16,3.82-4.81,5.85-8.61,6.15a13.69,13.69,0,0,1-6-.83A29.94,29.94,0,0,0,80.92,184a23.07,23.07,0,0,0-14.74,3.49A27,27,0,0,0,60.73,192a30.45,30.45,0,0,0-2.29,2.78,12.13,12.13,0,0,0-.78,1.45s.78.62,1,.79A30.23,30.23,0,0,0,65,200.73a23.23,23.23,0,0,0,8.08,1.58c5.68.12,10.89-2,16.4-3s12.76-.58,15.95,1.9a27.62,27.62,0,0,0,2.57,2.09c.09.06.18.13.27.18a2.1,2.1,0,0,0,.52.24,3.41,3.41,0,0,0,4.57-2.68,1.21,1.21,0,0,0,0-.19c.5-.9.87-2,1.56-3.4,1.17-2.3,3.21-4.08,3.78-6.66.63-2.84-.26-5.69-.77-8.48-.47-2.59-.12-4.93,1.88-6.78a32.6,32.6,0,0,1,6-4.31,13.65,13.65,0,0,1,7.1-2,11.11,11.11,0,0,1,6.56,2.73,20,20,0,0,1,2.47,2.49c.41.48.75.69.44,1.29s-.83,1.24-1.2,1.86a40.54,40.54,0,0,0-3.67,7.59,36.62,36.62,0,0,0-2.09,15.59,23.6,23.6,0,0,0,2.13,7.86c1.18,2.51,2.8,4.82,3.67,7.47a19.86,19.86,0,0,1,.81,3.73c0,.3.06.6.09.89a3.5,3.5,0,0,0,.34,1.44l.09.2a3.45,3.45,0,0,0,2.24,1.65l1,.44a37.61,37.61,0,0,1,3.66,1.8c3.49,2.08,8.17,7.22,3.43,10.61-.68.48-2.82,1.61-3.69,1.49a3.59,3.59,0,0,0-2.68-1.49,3.18,3.18,0,0,0-2.17.65c-1,.69-1.65,2.1-2.37,3.05a13.8,13.8,0,0,1-12.13,5.81,14.69,14.69,0,0,1-6.08-1.91,19.31,19.31,0,0,1-4.75-4.31,7.54,7.54,0,0,0-4.63-2.9,3.77,3.77,0,0,0-1.26-.06,3.36,3.36,0,0,0-1.5.64,2.74,2.74,0,0,1-1.12.15,8.93,8.93,0,0,1-3.17-1.06,11,11,0,0,1-4.83-5.29c-.17-.38-.15-.63-.58-.7a4.69,4.69,0,0,0-1.61.5c-1.37.47-2.71,1-4,1.6a54.45,54.45,0,0,0-13.53,9.17,36.65,36.65,0,0,0-5.4,5.94c-1.51,2.08-3,4.21-4.57,6.22A44.12,44.12,0,0,1,62,264.49c-9.25,5.77-20.42,5.09-30.2,1.05A16.6,16.6,0,0,1,22.69,257a17.54,17.54,0,0,1-.51-12.88,19.63,19.63,0,0,1,1.66-3.42,6.9,6.9,0,0,1,1.76-2.31,1.69,1.69,0,0,1,2.28.26c.59.76.4,1.88.44,2.76a11.94,11.94,0,0,0,6.39,9.87c8.2,4.22,18.21-3,16.85-12.08a11.77,11.77,0,0,0-8.17-9.52c-5-1.46-10,.29-14,3.29a26.71,26.71,0,0,0-8.85,11.44,29.24,29.24,0,0,0-1.25,16.2A39.42,39.42,0,0,0,33.74,284.5c8.5,6.49,19.45,9.45,30,9.71,2.42.05,9.68,0,13.93-1.87a.63.63,0,0,1,.78.91c-2.07,3.44-6.18,5.37-10.63,5.3,4.18,2,8.91,2,13.76,1.83,5-.19,10-1.46,14.89-2.75A66.56,66.56,0,0,0,122,284.87a29.39,29.39,0,0,0,5.37-5.2,25.12,25.12,0,0,0,2.08-2.86,5.16,5.16,0,0,1,2.32-2.52,3.7,3.7,0,0,1,5,2.64c.72,2.44,3.76,5.66,6.34,7.7,8.09,6.38,17,9.37,26.36,12.23a86.18,86.18,0,0,0,14.73,3.21,54.46,54.46,0,0,0,8.56.45c2.58-.09,5.58-.44,7.75-2a11.36,11.36,0,0,1-10.93-6.05.35.35,0,0,1,.51-.45c4.19,2.55,9.23,3.41,14.08,3.51a58.11,58.11,0,0,0,16.44-2c11.09-3.05,19.73-11,24.51-21.37,4.63-10.05,6-22.32,0-32.1a26.31,26.31,0,0,0-4.75-5.66,17.93,17.93,0,0,0-6.52-4.1c-5.11-1.47-10.4,2.9-9,8.3a6.89,6.89,0,0,0,13.49-.75,1.62,1.62,0,0,1,1.9-1.47c1.06.2,2,1.6,2.62,2.4a17.77,17.77,0,0,1,3.43,14.89A17.31,17.31,0,0,1,237.06,265c-10,5-23,2.81-30.56-5.45-2.05-2.24-3.73-4.77-5.8-7a59,59,0,0,0-6.93-6.29,36.07,36.07,0,0,0-3.46-2.45c-1-.6-2.15-1.18-2.6-2.32a2.77,2.77,0,0,1,1.14-3.33,17.06,17.06,0,0,1,3.06-1.07c11.15-4.07,21-12.82,24.34-24.19a52.37,52.37,0,0,0,1.63-6.83,16.76,16.76,0,0,1,0-21.74,10.25,10.25,0,0,1,1.68-1.93.59.59,0,0,0,.07-.83,5.81,5.81,0,0,1,1-8.67l.52-.37c-2.92-.77-6.46-2.64-7.66-6,3.7,0,9.76-.38,12.86-2a11.79,11.79,0,0,1-9.5-3.9A3.68,3.68,0,0,1,217.44,155.19Z"/>
    <g>
      <path class="cls-1" d="M132.66,127.69c48.59,0,83.34-22.88,91.13-28.49A4.38,4.38,0,0,0,225.33,96c0-4.3-.79-13.18-.79-13.18C221.66,45.43,185.22,1.55,132.67,2.3c-62.66.88-88.14,52-91.81,80a91.11,91.11,0,0,0-1,13.35,4.76,4.76,0,0,0,2,3.74C56.93,110,89.6,127.69,132.66,127.69Z"/>
      <path class="cls-2" d="M236.27,178.38a5.18,5.18,0,0,0-2.22-4.31c-1.2-.81-3.68-.69-3.93-.69h-5.77a4.45,4.45,0,0,0-4.41,4.86,4.6,4.6,0,0,0,4.65,4h1.23a1.59,1.59,0,0,1,1.59,1.59v.88a4.6,4.6,0,0,0,4,4.65,4.44,4.44,0,0,0,4.85-4.41Z"/>
      <path class="cls-2" d="M232.52,257.32a3.44,3.44,0,1,0-3.94-3.94A3.46,3.46,0,0,0,232.52,257.32Z"/>
      <path class="cls-2" d="M235.81,195.28a3.88,3.88,0,1,0-4.44,4.44A3.9,3.9,0,0,0,235.81,195.28Z"/>
      <path class="cls-2" d="M235.81,207.67a3.88,3.88,0,1,0-4.44,4.44A3.91,3.91,0,0,0,235.81,207.67Z"/>
      <path class="cls-2" d="M232.59,216.84a3.88,3.88,0,1,0,3.22,3.21A3.88,3.88,0,0,0,232.59,216.84Z"/>
    </g>
    <path class="cls-2" d="M232,297.2a2.74,2.74,0,1,0,2.74,2.74A2.74,2.74,0,0,0,232,297.2Z"/>
    <path class="cls-3" d="M218.68,191.11h0v0Z"/>
    <circle class="cls-4" cx="231.98" cy="277.24" r="2.65"/>
    <path class="cls-5" d="M208.44,198.08A31,31,0,1,1,148.87,186c4.71-11.13,29.73-2.79,48.92-11.32A30.9,30.9,0,0,1,208.44,198.08Z"/>
  </g>
  <rect class="cls-4" x="293.49" y="158.41" width="370.52" height="63.02" rx="4.15"/>
  <g>
    <path class="cls-6" d="M320,180.36c0-2.27-.78-3.4-2.34-3.4a3.86,3.86,0,0,0-1,.09,7.1,7.1,0,0,1-1.24.14,1.33,1.33,0,0,1-1-.44,1.49,1.49,0,0,1-.41-1.08c0-1.07.67-1.61,2-1.61a5.42,5.42,0,0,1,.64.05l2.44.32a20.12,20.12,0,0,0,2.84.19,24,24,0,0,0,3.13-.23l2.07-.28a5.42,5.42,0,0,1,.64-.05c1.35,0,2,.54,2,1.61a1.53,1.53,0,0,1-.41,1.08,1.36,1.36,0,0,1-1,.44,7.76,7.76,0,0,1-1.24-.14,3.91,3.91,0,0,0-1-.09c-1.56,0-2.34,1.13-2.34,3.4v18.42q0,3.45,2.34,3.45a6.8,6.8,0,0,0,1-.09,9.51,9.51,0,0,1,1.24-.14c.95,0,1.42.49,1.42,1.47s-.67,1.65-2,1.65h-.32a1.39,1.39,0,0,0-.32,0l-2.39-.37a17,17,0,0,0-2.53-.18,22.4,22.4,0,0,0-3.45.23l-2.11.32a1.78,1.78,0,0,0-.32,0H316c-1.32,0-2-.55-2-1.65s.47-1.47,1.42-1.47c.15,0,.57,0,1.24.09a3.79,3.79,0,0,0,1,.14q2.34,0,2.34-3.45Z"/>
    <path class="cls-6" d="M353.55,176.13l12.33,25.69V183.3c0-2.39,0-3.71,0-4-.28-1.59-1-2.39-2.3-2.39a8.66,8.66,0,0,0-1.1.11,7.53,7.53,0,0,1-1.11.12,1.42,1.42,0,0,1-1-.44,1.41,1.41,0,0,1-.44-1c0-1.1.69-1.66,2.07-1.66a2.7,2.7,0,0,1,.6.05l2.07.28a19.87,19.87,0,0,0,2.57.18,25.82,25.82,0,0,0,3.17-.25l1.61-.21.32-.05h.32q2,0,2,1.59c0,1-.63,1.54-1.87,1.54h-1c-.93,0-1.54.2-1.82.6a5.73,5.73,0,0,0-.52,2.61v19.54a9.82,9.82,0,0,1-.71,4.45,2.59,2.59,0,0,1-2.47,1.29c-1.51,0-2.79-1.08-3.83-3.22l-12.1-25v21.36q0,3.45,2.34,3.45c.25,0,.62,0,1.11-.07s.85-.07,1.1-.07a1.3,1.3,0,0,1,1.47,1.47c0,1.05-.69,1.56-2.07,1.56h-.27l-.32,0-1.89-.28a20.68,20.68,0,0,0-2.94-.23,27.23,27.23,0,0,0-3.08.23l-2.25.28a1.78,1.78,0,0,0-.32,0h-.37c-1.32,0-2-.53-2-1.6a1.28,1.28,0,0,1,1.47-1.43c.15,0,.56,0,1.24.09a3.33,3.33,0,0,0,1,.14c1.56,0,2.34-1.15,2.34-3.44V180.41q0-3.45-2.37-3.45a6.63,6.63,0,0,0-.91.09,9.48,9.48,0,0,1-1.27.14c-1,0-1.46-.51-1.46-1.52s.65-1.61,2-1.61c.18,0,.43,0,.73.05,1.53.15,2.71.23,3.53.23.46,0,1.15-.05,2.07-.14s1.6-.14,2.06-.14a1.87,1.87,0,0,1,1.88,1Z"/>
    <path class="cls-6" d="M398.32,173.24a9.86,9.86,0,0,1,7.35,2.89v-.64c0-1.2.48-1.79,1.43-1.79s1.56.66,1.56,2V176c0,.06-.05.52-.14,1.38a29.9,29.9,0,0,0-.14,3.08q0,.22.09,1.47l.14,1.83a3.56,3.56,0,0,1,.05.65c0,1.47-.57,2.2-1.7,2.2a1.6,1.6,0,0,1-1.79-1.84v-.23l.09-1.24c0-.42,0-.76,0-1a5.36,5.36,0,0,0-1.86-4.32,7.71,7.71,0,0,0-5.12-1.56,7.18,7.18,0,0,0-4.75,1.47,4.87,4.87,0,0,0-1.77,3.95,4.53,4.53,0,0,0,2.62,4.28,19.92,19.92,0,0,0,5.14,1.33c3.65.58,6.14,1.38,7.49,2.39a7.49,7.49,0,0,1,3,6.39,8.9,8.9,0,0,1-3.09,7,11.68,11.68,0,0,1-8,2.72,12,12,0,0,1-8.66-3.31v.68a5.13,5.13,0,0,1,.18.95,1.5,1.5,0,0,1-1.7,1.68c-1.22,0-1.84-.65-1.84-1.93a.5.5,0,0,1,.14-.37l.21-2.39c.1-1.2.16-2,.16-2.3a22.11,22.11,0,0,0-.26-2.75,24.05,24.05,0,0,1-.25-2.76c0-1.38.58-2.07,1.75-2.07s1.79.69,1.79,2.08v1.89a7.11,7.11,0,0,0,2.2,5.49,8.44,8.44,0,0,0,6,2,8.58,8.58,0,0,0,5.55-1.66,5.47,5.47,0,0,0,2.06-4.5q0-4.36-5.51-5.33l-2.62-.46a28.51,28.51,0,0,1-6.07-1.61,7,7,0,0,1-3.15-2.73,7.72,7.72,0,0,1-1.17-4.2,8.28,8.28,0,0,1,2.94-6.58A11.32,11.32,0,0,1,398.32,173.24Z"/>
    <path class="cls-6" d="M428.69,198.79V180.4c0-2.26-.77-3.39-2.32-3.39a7.69,7.69,0,0,0-1,.07,12.33,12.33,0,0,1-1.23.11c-1,0-1.46-.51-1.46-1.52s.67-1.61,2-1.61a5.59,5.59,0,0,1,.68.05l2.25.28a23.43,23.43,0,0,0,2.75.13c.77,0,1.69,0,2.76-.13,2.5-.22,4.4-.33,5.68-.33a24.5,24.5,0,0,1,5.05.46,7.88,7.88,0,0,1,4.75,2.85,8.45,8.45,0,0,1,1.72,5.33,7.87,7.87,0,0,1-3,6.62c-2,1.53-4.83,2.3-8.56,2.3H433.7c-.49,0-.81.08-.94.25a2.07,2.07,0,0,0-.21,1.16V194a39.67,39.67,0,0,0,.34,7.05c.23.82.9,1.23,2,1.23a3.45,3.45,0,0,0,1-.14c.67-.06,1.09-.09,1.24-.09.95,0,1.42.49,1.42,1.47s-.67,1.65-2,1.65l-.64-.09-2.3-.32a22.49,22.49,0,0,0-2.89-.14,20.28,20.28,0,0,0-2.62.14l-2.67.37a1.16,1.16,0,0,0-.27,0h-.32c-1.38,0-2.07-.53-2.07-1.6a1.53,1.53,0,0,1,.41-1.08,1.35,1.35,0,0,1,1-.44,7.1,7.1,0,0,1,1.24.14,3.91,3.91,0,0,0,1,.09C427.91,202.23,428.69,201.08,428.69,198.79ZM432.87,178a5.82,5.82,0,0,0-.32,2.53v6.8c0,.82.58,1.3,1.75,1.42H437a24.74,24.74,0,0,0,5.42-.5q4.1-1,4.09-5.38,0-5.84-7.44-5.83Q433.51,177,432.87,178Z"/>
    <path class="cls-6" d="M467.19,180.36c0-2.27-.78-3.4-2.34-3.4a3.77,3.77,0,0,0-1,.09,7.2,7.2,0,0,1-1.24.14,1.37,1.37,0,0,1-1-.44,1.53,1.53,0,0,1-.41-1.08c0-1.07.64-1.61,1.92-1.61l.69.05q6.87.46,6.41.46h.46l11-.32c.22,0,1-.05,2.39-.14.48,0,.93-.05,1.32-.05,1.59,0,2.38.71,2.38,2.12,0,.24,0,1-.13,2.34-.06,1-.1,1.89-.1,2.71a21.92,21.92,0,0,0,.08,2.25,19.62,19.62,0,0,1,.15,2c0,1.16-.54,1.75-1.63,1.75s-1.63-.82-1.63-2.44v-2.39c0-2.57-.53-4.09-1.61-4.55-.79-.33-2.85-.5-6.15-.5a29.27,29.27,0,0,0-3.86.13,2.52,2.52,0,0,0-2,2.76v4.6c0,1.22.27,1.93.82,2.11a4.49,4.49,0,0,0,1.09.09h1.85c1.91,0,2.86-.66,2.86-2a10.91,10.91,0,0,0-.12-1.43,13.24,13.24,0,0,1-.11-1.56c0-1.23.54-1.84,1.63-1.84s1.63.66,1.63,2q0,.36-.3,2.85a31.43,31.43,0,0,0-.25,3.72c0,.61.06,1.7.18,3.26,0,.25.11.78.23,1.61a12.93,12.93,0,0,1,.14,1.61A1.46,1.46,0,0,1,479,196.9c-1.08,0-1.61-.64-1.61-1.93,0-.34,0-.83.11-1.47a12.8,12.8,0,0,0,.12-1.47c0-1.32-.87-2-2.62-2h-2.07c-.89,0-1.43.16-1.63.46a4.21,4.21,0,0,0-.3,2v2.85c0,.49,0,1.15.05,2,0,1,0,1.69,0,2,0,1.22.28,2,.74,2.29a5.34,5.34,0,0,0,2.39.32h6.25a6.24,6.24,0,0,0,3.72-.8,3.69,3.69,0,0,0,1-3c0-.46,0-1.14-.07-2s-.07-1.59-.07-2c0-1.38.54-2.07,1.63-2.07s1.73.71,1.73,2.12c0,.55,0,1.39-.07,2.52s-.07,2-.07,2.53,0,1.07.07,1.91.07,1.48.07,1.91a1.89,1.89,0,0,1-2.12,2.15c-.34,0-.87,0-1.61-.09-.36,0-1,0-2,0l-3.58-.1q-3.92-.09-6.76-.09c-2.88,0-5.69.09-8.45.28a2.1,2.1,0,0,0-.41,0h-.28c-1.29,0-1.93-.55-1.93-1.65a1.28,1.28,0,0,1,1.43-1.47c.15,0,.56,0,1.24.09a3.65,3.65,0,0,0,1,.14q2.34,0,2.34-3.45Z"/>
    <path class="cls-6" d="M515.94,173.24a10.28,10.28,0,0,1,8.32,3.9v-1a2.13,2.13,0,0,1-.09-.33c-.06-.69-.09-1-.09-.94,0-1.07.47-1.6,1.42-1.6s1.52.64,1.52,1.93c0,.24,0,1-.1,2.2-.18,1.53-.27,2.59-.27,3.17a19.87,19.87,0,0,0,.16,2.53l.21,1.75v.46c0,1.37-.56,2.06-1.66,2.06s-1.77-.65-1.74-2v-1.64a6.76,6.76,0,0,0-2.07-5.33,7.84,7.84,0,0,0-5.63-2,8.35,8.35,0,0,0-7.11,3.49q-2.56,3.5-2.56,9.65t2.64,9.81a8.68,8.68,0,0,0,7.37,3.52,8.78,8.78,0,0,0,4.62-1.24,6.8,6.8,0,0,0,2.87-3.27,9.45,9.45,0,0,0,.56-3.58c0-1.41.58-2.11,1.74-2.11s1.89.7,1.89,2.11a10.41,10.41,0,0,1-3.41,8,12.46,12.46,0,0,1-8.77,3.13,12.3,12.3,0,0,1-9.9-4.37q-3.71-4.36-3.7-11.62c0-5,1.26-9,3.79-12.09A12.33,12.33,0,0,1,515.94,173.24Z"/>
    <path class="cls-6" d="M555.27,198.83c0,2.3.78,3.45,2.35,3.45a7.56,7.56,0,0,0,1.1-.12,8.83,8.83,0,0,1,1.1-.11,1.44,1.44,0,0,1,1,.43,1.42,1.42,0,0,1,.43,1c0,1.07-.69,1.6-2.07,1.6H559l-.32,0-2.25-.32a19.6,19.6,0,0,0-2.9-.19,21.62,21.62,0,0,0-3.08.19l-2.3.32a1.39,1.39,0,0,0-.32,0h-.32c-1.35,0-2-.53-2-1.6a1.3,1.3,0,0,1,1.47-1.47,8.66,8.66,0,0,1,1.1.11,7.53,7.53,0,0,0,1.11.12c1.53,0,2.29-1.15,2.29-3.45V180.18q0-3.27-3.35-3.27h-1.43c-2.2,0-3.3,1.08-3.3,3.22,0,.77,0,1.29,0,1.56l.19,1.7c0,.28,0,.66,0,1.15,0,1.93-.59,2.9-1.79,2.9s-1.7-.71-1.7-2.12c0-.4,0-1.08.09-2.07.09-1.47.14-2.4.14-2.8,0-.76,0-1.56-.08-2.39q-.15-2.43-.15-2.07c0-1.28.58-1.93,1.74-1.93.43,0,1.42.05,3,.14.15,0,1.4.06,3.76.19h5.22c.62,0,2.25,0,4.91-.08.58,0,1.58,0,3-.12s2.24-.13,2.94-.13c1.53,0,2.29.63,2.29,1.89V176c0,.31,0,.87-.11,1.7s-.16,1.72-.25,2.67v.5c0,.46,0,1.18.13,2.16.13,1.29.19,2.08.19,2.39,0,1.26-.6,1.88-1.79,1.88s-1.75-.77-1.75-2.3c0-.56,0-1.38.14-2.47s.14-1.92.14-2.47c0-2.12-1.21-3.19-3.63-3.19h-1.29a2.76,2.76,0,0,0-3.26,3.08l-.19,3.22Z"/>
    <path class="cls-6" d="M592.31,205.91a11.79,11.79,0,0,1-9.68-4.41q-3.55-4.42-3.56-11.95t3.59-12a12.09,12.09,0,0,1,9.87-4.34,11.89,11.89,0,0,1,9.58,4.22q3.57,4.23,3.57,11.45,0,7.8-3.61,12.4A11.78,11.78,0,0,1,592.31,205.91Zm.09-29.36a7.93,7.93,0,0,0-6.85,3.4c-1.62,2.26-2.43,5.45-2.43,9.55s.81,7.39,2.43,9.67a8.34,8.34,0,0,0,13.58-.13q2.5-3.57,2.5-9.67c0-4.11-.79-7.27-2.39-9.49A7.9,7.9,0,0,0,592.4,176.55Z"/>
    <path class="cls-6" d="M641.28,187.94a15.79,15.79,0,0,1-3.4,1.1,5.46,5.46,0,0,1,3.71,2c.69,1,1,2.67,1,5v2.65c0,2.2.69,3.3,2.09,3.3s2.13-1.3,2.13-3.91V195a5.74,5.74,0,0,1,.19-1.82,1.41,1.41,0,0,1,1.42-.78c1.1,0,1.66.64,1.66,1.93,0,0,0,.37-.05,1v3.36a5.36,5.36,0,0,0,0,.82,5.17,5.17,0,0,1-5.65,5.65q-5.42,0-5.42-5.46v-3.95c0-2.06-.39-3.41-1.17-4.07s-2.38-1-4.82-1h-4.26c-1,0-1.47.6-1.47,1.79V196a35.11,35.11,0,0,0,.1,3.86c.27,1.53,1,2.3,2.29,2.3a5.81,5.81,0,0,0,1-.06c.52-.05.92-.08,1.19-.08a1.32,1.32,0,0,1,1.47,1.52c0,1.07-.66,1.6-2,1.6l-.69-.09-2.48-.32a20.4,20.4,0,0,0-2.53-.18,25.15,25.15,0,0,0-3.22.23l-2.2.27-.69.09q-2,0-2-1.65a1.28,1.28,0,0,1,1.43-1.47c.15,0,.57,0,1.24.09a3.78,3.78,0,0,0,1,.14c1.57,0,2.35-1.15,2.35-3.45V180.36c0-2.3-.78-3.45-2.35-3.45a7.56,7.56,0,0,0-1.1.12,7.23,7.23,0,0,1-1.1.11,1.32,1.32,0,0,1-1-.43,1.45,1.45,0,0,1-.42-1c0-1.07.68-1.61,2-1.61l.64.05,2.34.23c.61.06,1.38.09,2.3.09s2,0,3.17-.09l3.49-.18c1.17-.06,2.24-.1,3.22-.1q10.11,0,10.11,7.7Q644.78,186.29,641.28,187.94Zm-12.72-.37h4.32a11.93,11.93,0,0,0,5.79-1.1A4.72,4.72,0,0,0,641,182q0-5.23-7.19-5.23a15.59,15.59,0,0,0-5.19.57,2.29,2.29,0,0,0-1.41,2.27v6.76c0,.52.1.85.28,1A2,2,0,0,0,628.56,187.57Z"/>
  </g>
  <text class="cls-7" transform="translate(291.37 144.18)">C<tspan class="cls-8" x="54.36" y="0">APTION</tspan></text>
  <g>
    <g>
      <path class="cls-9" d="M308.16,244.85a3.49,3.49,0,0,1,2.85,1.34v-.36a.62.62,0,0,1,0-.11c0-.24,0-.35,0-.32,0-.37.16-.55.49-.55s.51.22.51.66q0,.12,0,.75c-.06.53-.09.89-.09,1.09s0,.57.05.87l.07.59V249c0,.47-.18.71-.56.71s-.61-.22-.6-.67v-.56a2.3,2.3,0,0,0-.71-1.83,2.66,2.66,0,0,0-1.93-.7,2.87,2.87,0,0,0-2.43,1.19,6.66,6.66,0,0,0,0,6.67,3.22,3.22,0,0,0,4.1.78,2.37,2.37,0,0,0,1-1.12,3.37,3.37,0,0,0,.19-1.23c0-.48.2-.72.59-.72s.65.24.65.72A3.57,3.57,0,0,1,311.1,255a4.25,4.25,0,0,1-3,1.07,4.2,4.2,0,0,1-3.39-1.5,5.92,5.92,0,0,1-1.27-4,6.28,6.28,0,0,1,1.3-4.14A4.22,4.22,0,0,1,308.16,244.85Z"/>
      <path class="cls-9" d="M322.59,253.38c0,.62.06,1,.19,1.1a.67.67,0,0,0,.37.17c.15,0,.5,0,1,0h1.39a2.51,2.51,0,0,0,1.44-.28,1.42,1.42,0,0,0,.37-1.16c0-.16,0-.34,0-.54,0-.41,0-.65,0-.73,0-.46.18-.69.55-.69s.66.21.66.63a2.11,2.11,0,0,1,0,.3l-.11.81a5.58,5.58,0,0,0,0,.72,6.45,6.45,0,0,0,0,.65c0,.29,0,.51,0,.65,0,.48-.27.71-.81.71l-.72-.05-1.17-.06h-3.69c-.25,0-.67,0-1.26.07a4,4,0,0,0-.43,0,4.75,4.75,0,0,1-.48,0c-.45,0-.67-.19-.67-.56a.44.44,0,0,1,.49-.51,2.47,2.47,0,0,1,.38,0,2.47,2.47,0,0,0,.38.05c.53,0,.8-.4.8-1.18v-6.31c0-.78-.27-1.17-.8-1.17a1.31,1.31,0,0,0-.33,0,1.83,1.83,0,0,1-.43,0,.45.45,0,0,1-.34-.15.5.5,0,0,1-.15-.37c0-.36.23-.55.68-.55l.24,0,.83.09c.46,0,.8.08,1,.08a8.41,8.41,0,0,0,1-.08l.73-.09.2,0c.47,0,.71.19.71.55a.53.53,0,0,1-.14.37.47.47,0,0,1-.35.15,1.87,1.87,0,0,1-.42,0,1.46,1.46,0,0,0-.34,0c-.53,0-.8.39-.8,1.16Z"/>
      <path class="cls-9" d="M340.11,256a4.07,4.07,0,0,1-3.32-1.51,6.38,6.38,0,0,1-1.22-4.1,6.22,6.22,0,0,1,1.23-4.09,4.13,4.13,0,0,1,3.38-1.49,4.08,4.08,0,0,1,3.29,1.45,5.88,5.88,0,0,1,1.22,3.91,6.72,6.72,0,0,1-1.24,4.25A4,4,0,0,1,340.11,256Zm0-10.06a2.72,2.72,0,0,0-2.35,1.17,5.56,5.56,0,0,0-.83,3.27,5.68,5.68,0,0,0,.83,3.31,2.71,2.71,0,0,0,2.33,1.17,2.67,2.67,0,0,0,2.32-1.22,5.65,5.65,0,0,0,.86-3.31,5.5,5.5,0,0,0-.82-3.25A2.71,2.71,0,0,0,340.14,246Z"/>
      <path class="cls-9" d="M356.16,244.85a3.38,3.38,0,0,1,2.51,1v-.22c0-.41.17-.61.49-.61s.54.22.54.67v.1s0,.17-.05.47a10.26,10.26,0,0,0,0,1.05c0,.06,0,.22,0,.51l.05.63a1.09,1.09,0,0,1,0,.22c0,.5-.2.75-.58.75a.55.55,0,0,1-.62-.63v-.08l0-.42c0-.15,0-.26,0-.35a1.82,1.82,0,0,0-.64-1.48,2.67,2.67,0,0,0-1.75-.53,2.48,2.48,0,0,0-1.63.5,1.67,1.67,0,0,0-.61,1.36,1.55,1.55,0,0,0,.9,1.46,6.73,6.73,0,0,0,1.76.46,6.24,6.24,0,0,1,2.57.81,2.59,2.59,0,0,1,1,2.19,3.07,3.07,0,0,1-1.06,2.41,4,4,0,0,1-2.74.93,4.08,4.08,0,0,1-3-1.14v.24a1.73,1.73,0,0,1,.06.32.51.51,0,0,1-.58.58q-.63,0-.63-.66a.17.17,0,0,1,.05-.13l.07-.82c0-.41.05-.67.05-.79a9.23,9.23,0,0,0-.08-.94,7.27,7.27,0,0,1-.09-.94c0-.48.2-.71.6-.71s.61.24.61.71v.65a2.45,2.45,0,0,0,.75,1.88,2.93,2.93,0,0,0,2,.69,3,3,0,0,0,1.9-.56,1.9,1.9,0,0,0,.71-1.55c0-1-.63-1.6-1.89-1.82l-.9-.16a10,10,0,0,1-2.07-.55,2.4,2.4,0,0,1-1.08-.94,2.6,2.6,0,0,1-.4-1.44,2.83,2.83,0,0,1,1-2.25A3.94,3.94,0,0,1,356.16,244.85Z"/>
      <path class="cls-9" d="M369.47,247.29c0-.78-.27-1.17-.8-1.17a1.31,1.31,0,0,0-.33,0,1.83,1.83,0,0,1-.43,0,.43.43,0,0,1-.34-.15.5.5,0,0,1-.15-.37c0-.36.22-.55.66-.55l.24,0,2.19.15h.16l3.78-.11.81,0,.46,0c.54,0,.81.24.81.73,0,.08,0,.35,0,.8s0,.64,0,.93a7.45,7.45,0,0,0,0,.77,5.21,5.21,0,0,1,0,.67c0,.4-.18.6-.55.6s-.56-.28-.56-.83V248c0-.88-.19-1.4-.55-1.56a7.69,7.69,0,0,0-2.11-.17,8.05,8.05,0,0,0-1.32.05.86.86,0,0,0-.68.94v1.57c0,.42.09.66.28.73a1.58,1.58,0,0,0,.37,0h.64c.65,0,1-.23,1-.68,0-.12,0-.29,0-.49a3.4,3.4,0,0,1,0-.53c0-.42.18-.63.56-.63s.55.23.55.68c0,.08,0,.41-.1,1a10.3,10.3,0,0,0-.08,1.28q0,.32.06,1.11c0,.09,0,.27.08.55a4.53,4.53,0,0,1,0,.56.49.49,0,0,1-.56.56c-.37,0-.55-.22-.55-.66a3.86,3.86,0,0,1,0-.5c0-.22,0-.39,0-.51,0-.45-.3-.67-.9-.67h-.71c-.3,0-.49,0-.56.15a1.47,1.47,0,0,0-.1.68v1c0,.16,0,.39,0,.67s0,.58,0,.7c0,.42.1.68.25.78a1.78,1.78,0,0,0,.82.11H374a2.19,2.19,0,0,0,1.28-.27,1.28,1.28,0,0,0,.34-1c0-.16,0-.39,0-.7s0-.55,0-.7c0-.48.19-.71.56-.71s.59.24.59.72c0,.19,0,.48,0,.87s0,.67,0,.86,0,.37,0,.66,0,.5,0,.65a.65.65,0,0,1-.72.74l-.55,0-.69,0-1.23,0-2.31,0c-1,0-2,0-2.9.09l-.14,0h-.1q-.66,0-.66-.57a.44.44,0,0,1,.49-.5l.43,0a1.26,1.26,0,0,0,.33.05c.53,0,.8-.4.8-1.18Z"/>
      <path class="cls-9" d="M386.1,247.29c0-.79-.27-1.18-.8-1.18l-.33,0a3.14,3.14,0,0,1-.43.05q-.48,0-.48-.51c0-.36.23-.55.7-.55l.21,0,.83.11a8.07,8.07,0,0,0,1,.06,8.65,8.65,0,0,0,.88,0l1-.11c.2,0,.47,0,.79,0a6.14,6.14,0,0,1,2.39.41,4.07,4.07,0,0,1,2,1.86,6.2,6.2,0,0,1,.74,3.07,6.39,6.39,0,0,1-.59,2.77,4,4,0,0,1-1.59,1.82,5.69,5.69,0,0,1-2.92.71l-.71,0-1.09-.1c-.36,0-.75,0-1.15,0a6.71,6.71,0,0,0-.85,0l-.75.11-.11,0h-.13c-.45,0-.67-.18-.67-.55a.49.49,0,0,1,.14-.37.45.45,0,0,1,.34-.15,1.83,1.83,0,0,1,.43.05,1.31,1.31,0,0,0,.33,0c.53,0,.8-.4.8-1.18Zm1.32-.16v6.63a.82.82,0,0,0,.71.88,8,8,0,0,0,1.32.06,3.36,3.36,0,0,0,2.74-1,4.88,4.88,0,0,0,1-3.23,5.26,5.26,0,0,0-.62-2.66,2.85,2.85,0,0,0-1.7-1.4,5.88,5.88,0,0,0-1.67-.2,4.44,4.44,0,0,0-1.52.14C387.52,246.42,387.42,246.69,387.42,247.13Z"/>
      <path class="cls-9" d="M416.54,244.85a3.48,3.48,0,0,1,2.84,1.34v-.36a.62.62,0,0,1,0-.11c0-.24,0-.35,0-.32,0-.37.16-.55.49-.55s.52.22.52.66q0,.12,0,.75a9.57,9.57,0,0,0-.1,1.09,6.58,6.58,0,0,0,.06.87l.07.59V249c0,.47-.19.71-.57.71s-.61-.22-.6-.67v-.56a2.33,2.33,0,0,0-.7-1.83,2.68,2.68,0,0,0-1.93-.7,2.88,2.88,0,0,0-2.44,1.19,6.73,6.73,0,0,0,0,6.67,3,3,0,0,0,2.53,1.2,3,3,0,0,0,1.58-.42,2.4,2.4,0,0,0,1-1.12,3.17,3.17,0,0,0,.19-1.23q0-.72.6-.72c.43,0,.64.24.64.72a3.6,3.6,0,0,1-1.16,2.76,4.3,4.3,0,0,1-3,1.07,4.23,4.23,0,0,1-3.39-1.5,6,6,0,0,1-1.27-4,6.33,6.33,0,0,1,1.3-4.14A4.23,4.23,0,0,1,416.54,244.85Z"/>
      <path class="cls-9" d="M435.34,253.91l-.57-1.54a.56.56,0,0,0-.19-.31.81.81,0,0,0-.42-.07h-2.8a.64.64,0,0,0-.43.11,2.17,2.17,0,0,0-.31.6l-.46,1.21a1.05,1.05,0,0,0-.06.33c0,.34.2.51.61.51a2.93,2.93,0,0,0,.45,0l.44,0c.43,0,.64.19.64.55s-.24.52-.71.52l-.34,0-.79-.1-.72,0a7.57,7.57,0,0,0-.78,0l-.66.08a4.84,4.84,0,0,1-.64.05c-.41,0-.62-.17-.62-.52s.2-.55.6-.55a.22.22,0,0,1,.19.07H428a.71.71,0,0,0,.64-.34,4,4,0,0,0,.32-.74l2.92-7.94a1,1,0,0,1,1-.66.92.92,0,0,1,1,.66l2.82,7.8a3.07,3.07,0,0,0,.49,1,.82.82,0,0,0,.63.24l.19,0,.44,0c.4,0,.6.18.6.52s-.2.55-.6.55l-.46,0a13.46,13.46,0,0,0-1.48-.12q-.58,0-1.89.12l-.5,0c-.42,0-.63-.18-.63-.53s.23-.54.69-.54l.42,0a2.61,2.61,0,0,0,.42,0c.34,0,.52-.15.52-.43A2.86,2.86,0,0,0,435.34,253.91Zm-1.13-3.21-1.42-4.34-1.45,4.34a.62.62,0,0,0,0,.11c0,.1.08.14.24.14h2.5c.13,0,.19,0,.19-.12A.53.53,0,0,0,434.21,250.7Z"/>
      <path class="cls-9" d="M447.24,253.6v-6.3c0-.77-.27-1.16-.8-1.16l-.33,0a3.06,3.06,0,0,1-.42,0c-.33,0-.5-.17-.5-.52s.23-.55.69-.55l.24,0,.77.09a7.94,7.94,0,0,0,.94,0c.26,0,.58,0,.94,0,.86-.07,1.51-.11,2-.11a7.9,7.9,0,0,1,1.73.16,2.7,2.7,0,0,1,1.62,1,2.87,2.87,0,0,1,.59,1.83,2.69,2.69,0,0,1-1,2.27,4.77,4.77,0,0,1-2.94.78H449c-.17,0-.27,0-.32.09a.7.7,0,0,0-.07.4v.31a13.17,13.17,0,0,0,.12,2.41c.08.29.3.43.68.43a1.14,1.14,0,0,0,.33-.05l.43,0c.32,0,.48.17.48.5s-.23.57-.69.57l-.22,0-.79-.11a7.77,7.77,0,0,0-1,0,7,7,0,0,0-.89,0l-.92.12-.09,0h-.11c-.47,0-.71-.18-.71-.55a.53.53,0,0,1,.14-.37.47.47,0,0,1,.35-.15,1.75,1.75,0,0,1,.42.05,1.42,1.42,0,0,0,.33,0C447,254.78,447.24,254.38,447.24,253.6Zm1.43-7.13a2,2,0,0,0-.11.86v2.33c0,.29.2.45.6.49h.91a8.8,8.8,0,0,0,1.86-.17,1.7,1.7,0,0,0,1.4-1.84c0-1.34-.85-2-2.55-2C449.52,246.14,448.82,246.25,448.67,246.47Z"/>
      <path class="cls-9" d="M466.58,253.61c0,.79.26,1.18.8,1.18a2.31,2.31,0,0,0,.38,0l.37,0a.51.51,0,0,1,.51.51c0,.37-.24.55-.71.55h-.1l-.11,0-.77-.11a7.31,7.31,0,0,0-1-.06,8,8,0,0,0-1,.06l-.79.11-.11,0h-.11c-.46,0-.69-.18-.69-.55a.45.45,0,0,1,.5-.51l.38,0a2.21,2.21,0,0,0,.38,0c.52,0,.78-.39.78-1.18v-6.39a1,1,0,0,0-1.14-1.11h-.49c-.76,0-1.13.36-1.13,1.1,0,.26,0,.44,0,.53l.06.59a3.53,3.53,0,0,1,0,.39c0,.66-.21,1-.61,1s-.59-.24-.59-.72c0-.14,0-.38,0-.71,0-.5,0-.82,0-1s0-.54,0-.82a6.57,6.57,0,0,0-.06-.71q0-.66.6-.66l1,.05,1.29.06h1.79l1.68,0c.2,0,.54,0,1,0l1,0c.52,0,.78.22.78.65v0c0,.1,0,.3,0,.58s0,.59-.08.91v.18c0,.15,0,.4,0,.74s.07.71.07.81c0,.43-.21.65-.62.65s-.59-.26-.59-.79c0-.19,0-.47,0-.85s.05-.65.05-.84c0-.73-.41-1.09-1.24-1.09h-.44a1.2,1.2,0,0,0-.84.24,1.17,1.17,0,0,0-.28.81l-.06,1.1Z"/>
      <path class="cls-9" d="M479.37,247.29c0-.78-.27-1.17-.8-1.17a1.31,1.31,0,0,0-.33,0,1.83,1.83,0,0,1-.43,0,.47.47,0,0,1-.35-.15.53.53,0,0,1-.14-.37c0-.36.23-.55.7-.55l.22,0,.83.11a7.7,7.7,0,0,0,1,.06,8.58,8.58,0,0,0,1.07-.08l.7-.09.22,0c.47,0,.7.19.7.55a.5.5,0,0,1-.15.37.45.45,0,0,1-.34.15,2,2,0,0,1-.43,0,1.31,1.31,0,0,0-.33,0c-.53,0-.8.39-.8,1.17v6.31c0,.78.27,1.18.8,1.18l.33,0a2.23,2.23,0,0,1,.43-.05.44.44,0,0,1,.49.5c0,.38-.23.57-.7.57h-.11l-.11,0-.81-.12a6.13,6.13,0,0,0-.87-.07,8.32,8.32,0,0,0-1.18.08l-.72.11-.11,0H478c-.45,0-.68-.19-.68-.57a.44.44,0,0,1,.49-.5l.43,0a1.26,1.26,0,0,0,.33.05c.53,0,.8-.4.8-1.18Z"/>
      <path class="cls-9" d="M494.21,256a4,4,0,0,1-3.31-1.51,6.32,6.32,0,0,1-1.22-4.1,6.22,6.22,0,0,1,1.22-4.09,4.14,4.14,0,0,1,3.39-1.49,4.07,4.07,0,0,1,3.28,1.45,5.88,5.88,0,0,1,1.22,3.91,6.66,6.66,0,0,1-1.24,4.25A4,4,0,0,1,494.21,256Zm0-10.06a2.69,2.69,0,0,0-2.34,1.17,5.49,5.49,0,0,0-.84,3.27,5.6,5.6,0,0,0,.84,3.31,2.85,2.85,0,0,0,4.64,0,5.58,5.58,0,0,0,.86-3.31,5.5,5.5,0,0,0-.82-3.25A2.69,2.69,0,0,0,494.24,246Z"/>
      <path class="cls-9" d="M510.09,245.84l4.23,8.8v-6.35c0-.81,0-1.26,0-1.35-.09-.54-.35-.82-.78-.82l-.38,0a2.31,2.31,0,0,1-.38,0,.47.47,0,0,1-.35-.15.49.49,0,0,1-.15-.35c0-.38.23-.57.71-.57l.2,0,.71.09a7,7,0,0,0,.88.06,8.52,8.52,0,0,0,1.09-.08l.55-.07.11,0h.11c.45,0,.67.18.67.54s-.21.53-.64.53h-.33a.74.74,0,0,0-.63.21,2,2,0,0,0-.18.89V254a3.44,3.44,0,0,1-.24,1.53.9.9,0,0,1-.85.44c-.51,0-.95-.37-1.31-1.1L509,246.28v7.32c0,.78.27,1.18.8,1.18l.38,0,.38,0a.44.44,0,0,1,.5.5c0,.36-.24.54-.71.54h-.09l-.11,0-.65-.09a7.19,7.19,0,0,0-1-.08,9.66,9.66,0,0,0-1.06.08l-.77.09-.11,0h-.13c-.45,0-.67-.18-.67-.55s.16-.49.5-.49l.43,0a1.26,1.26,0,0,0,.33.05c.53,0,.8-.39.8-1.18V247.3c0-.78-.27-1.18-.81-1.18l-.32,0a2.15,2.15,0,0,1-.43,0c-.34,0-.5-.17-.5-.52s.22-.55.67-.55l.25,0c.53,0,.93.08,1.21.08s.4,0,.71,0,.55-.05.71-.05a.63.63,0,0,1,.64.33Z"/>
      <path class="cls-9" d="M525.84,247.29c0-.78-.27-1.17-.8-1.17a1.46,1.46,0,0,0-.34,0,1.7,1.7,0,0,1-.42,0,.47.47,0,0,1-.35-.15.53.53,0,0,1-.14-.37c0-.36.23-.55.69-.55l.22,0,.84.11a7.66,7.66,0,0,0,1,.06,8.32,8.32,0,0,0,1.07-.08l.71-.09.22,0c.46,0,.7.19.7.55a.5.5,0,0,1-.15.37.45.45,0,0,1-.34.15,2,2,0,0,1-.43,0,1.31,1.31,0,0,0-.33,0c-.53,0-.8.39-.8,1.17v6.31c0,.78.27,1.18.8,1.18l.33,0a2.23,2.23,0,0,1,.43-.05.44.44,0,0,1,.49.5c0,.38-.24.57-.7.57h-.11l-.11,0-.82-.12a5.87,5.87,0,0,0-.86-.07,8.32,8.32,0,0,0-1.18.08l-.73.11-.11,0h-.12c-.45,0-.68-.19-.68-.57a.44.44,0,0,1,.49-.5l.42,0a1.4,1.4,0,0,0,.34.05c.53,0,.8-.4.8-1.18Z"/>
      <path class="cls-9" d="M540.21,245.84l4.23,8.8v-6.35c0-.81,0-1.26,0-1.35-.09-.54-.36-.82-.79-.82l-.37,0a2.31,2.31,0,0,1-.38,0,.45.45,0,0,1-.35-.15.49.49,0,0,1-.15-.35c0-.38.23-.57.7-.57l.21,0,.71.09a7,7,0,0,0,.88.06,8.27,8.27,0,0,0,1.08-.08l.55-.07.11,0h.11c.46,0,.68.18.68.54s-.21.53-.64.53h-.34a.72.72,0,0,0-.62.21,1.82,1.82,0,0,0-.18.89V254a3.44,3.44,0,0,1-.24,1.53.91.91,0,0,1-.85.44c-.51,0-.95-.37-1.31-1.1l-4.14-8.58v7.32c0,.78.26,1.18.8,1.18l.38,0,.38,0a.44.44,0,0,1,.5.5c0,.36-.24.54-.71.54h-.09l-.11,0-.65-.09a7.33,7.33,0,0,0-1-.08,9.68,9.68,0,0,0-1.05.08l-.77.09-.11,0h-.13c-.45,0-.67-.18-.67-.55s.16-.49.5-.49l.42,0a1.39,1.39,0,0,0,.33.05c.54,0,.81-.39.81-1.18V247.3c0-.78-.27-1.18-.82-1.18l-.31,0a2.23,2.23,0,0,1-.44,0c-.33,0-.49-.17-.49-.52s.22-.55.67-.55l.25,0c.53,0,.93.08,1.21.08s.39,0,.71,0,.55-.05.71-.05a.64.64,0,0,1,.64.33Z"/>
      <path class="cls-9" d="M558.48,244.85a4.12,4.12,0,0,1,2.86,1.18c0-.15-.07-.23-.07-.25,0-.21,0-.33,0-.35a.46.46,0,0,1,.52-.52c.38,0,.57.23.57.68a2.63,2.63,0,0,1,0,.33l-.12.75a5.27,5.27,0,0,0-.05.71c0,.2,0,.63.06,1.28v.14c0,.47-.19.71-.58.71s-.55-.26-.55-.77v-.48a2.18,2.18,0,0,0-.71-1.71,2.82,2.82,0,0,0-1.93-.63,2.77,2.77,0,0,0-2.38,1.18,5.35,5.35,0,0,0-.87,3.24,5.71,5.71,0,0,0,.89,3.41,2.89,2.89,0,0,0,2.47,1.23,2.45,2.45,0,0,0,1.87-.71,2.86,2.86,0,0,0,.66-2,1.18,1.18,0,0,0-.18-.75.81.81,0,0,0-.64-.22l-.36,0-.36,0c-.51,0-.76-.18-.76-.54s.22-.55.65-.55l.45,0a11,11,0,0,0,1.59.14,9.56,9.56,0,0,0,1.64-.14,2.81,2.81,0,0,1,.43,0c.41,0,.62.17.62.52a.51.51,0,0,1-.16.38.56.56,0,0,1-.39.15h-.52c-.46,0-.69.52-.69,1.54v1.25c0,.27,0,.51,0,.73s0,.39,0,.52c0,.42-.19.64-.57.64a.49.49,0,0,1-.55-.55l0-.38c0-.09,0-.26,0-.49a4.9,4.9,0,0,1-.57.68,3.67,3.67,0,0,1-2.53.82,4.05,4.05,0,0,1-3.27-1.51,6,6,0,0,1-1.25-3.95,6.35,6.35,0,0,1,1.28-4.17A4.16,4.16,0,0,1,558.48,244.85Z"/>
      <path class="cls-9" d="M586,253.61c0,.79.26,1.18.8,1.18a2.31,2.31,0,0,0,.38,0l.37,0a.51.51,0,0,1,.51.51c0,.37-.24.55-.71.55h-.1l-.11,0-.77-.11a7.31,7.31,0,0,0-1-.06,8,8,0,0,0-1,.06l-.79.11-.11,0h-.11c-.46,0-.69-.18-.69-.55a.45.45,0,0,1,.5-.51l.38,0a2.21,2.21,0,0,0,.38,0c.52,0,.78-.39.78-1.18v-6.39a1,1,0,0,0-1.14-1.11H583c-.76,0-1.14.36-1.14,1.1,0,.26,0,.44,0,.53l.06.59a3.53,3.53,0,0,1,0,.39c0,.66-.21,1-.62,1s-.58-.24-.58-.72c0-.14,0-.38,0-.71,0-.5,0-.82,0-1s0-.54,0-.82a6.57,6.57,0,0,0-.06-.71q0-.66.6-.66l1,.05,1.29.06h1.79l1.68,0c.2,0,.54,0,1,0l1,0c.52,0,.78.22.78.65v0c0,.1,0,.3,0,.58s-.05.59-.08.91v.18c0,.15,0,.4,0,.74s.07.71.07.81c0,.43-.21.65-.62.65s-.59-.26-.59-.79c0-.19,0-.47,0-.85s.05-.65.05-.84c0-.73-.41-1.09-1.24-1.09h-.44a1.2,1.2,0,0,0-.84.24,1.17,1.17,0,0,0-.28.81l-.06,1.1Z"/>
      <path class="cls-9" d="M601.57,256a4,4,0,0,1-3.31-1.51,6.38,6.38,0,0,1-1.22-4.1,6.22,6.22,0,0,1,1.23-4.09,4.13,4.13,0,0,1,3.38-1.49,4,4,0,0,1,3.28,1.45,5.83,5.83,0,0,1,1.22,3.91,6.71,6.71,0,0,1-1.23,4.25A4,4,0,0,1,601.57,256Zm0-10.06a2.72,2.72,0,0,0-2.35,1.17,5.56,5.56,0,0,0-.83,3.27,5.68,5.68,0,0,0,.83,3.31,2.7,2.7,0,0,0,2.33,1.17,2.67,2.67,0,0,0,2.32-1.22,5.65,5.65,0,0,0,.86-3.31,5.5,5.5,0,0,0-.82-3.25A2.72,2.72,0,0,0,601.61,246Z"/>
      <path class="cls-9" d="M617.92,256a4,4,0,0,1-3.31-1.51,6.38,6.38,0,0,1-1.22-4.1,6.22,6.22,0,0,1,1.23-4.09,4.13,4.13,0,0,1,3.38-1.49,4,4,0,0,1,3.28,1.45,5.83,5.83,0,0,1,1.22,3.91,6.71,6.71,0,0,1-1.23,4.25A4,4,0,0,1,617.92,256ZM618,246a2.72,2.72,0,0,0-2.35,1.17,5.56,5.56,0,0,0-.83,3.27,5.68,5.68,0,0,0,.83,3.31,2.7,2.7,0,0,0,2.33,1.17,2.67,2.67,0,0,0,2.32-1.22,5.65,5.65,0,0,0,.86-3.31,5.5,5.5,0,0,0-.82-3.25A2.72,2.72,0,0,0,618,246Z"/>
      <path class="cls-9" d="M632.83,253.38c0,.62.06,1,.19,1.1a.61.61,0,0,0,.36.17c.16,0,.5,0,1,0h1.38a2.55,2.55,0,0,0,1.45-.28,1.46,1.46,0,0,0,.36-1.16c0-.16,0-.34,0-.54,0-.41,0-.65,0-.73,0-.46.19-.69.55-.69s.66.21.66.63a2.45,2.45,0,0,1,0,.3l-.11.81a5.55,5.55,0,0,0,0,.72,6.45,6.45,0,0,0,0,.65c0,.29,0,.51,0,.65,0,.48-.27.71-.8.71l-.73-.05-1.16-.06h-3.7c-.25,0-.67,0-1.26.07a4.1,4.1,0,0,0-.43,0,4.55,4.55,0,0,1-.48,0c-.44,0-.66-.19-.66-.56s.16-.51.49-.51a2.38,2.38,0,0,1,.37,0,2.63,2.63,0,0,0,.38.05c.54,0,.8-.4.8-1.18v-6.31c0-.78-.26-1.17-.8-1.17a1.31,1.31,0,0,0-.33,0,1.81,1.81,0,0,1-.42,0,.45.45,0,0,1-.35-.15.53.53,0,0,1-.14-.37c0-.36.22-.55.68-.55l.23,0,.84.09c.46,0,.8.08,1,.08a8.57,8.57,0,0,0,1-.08l.72-.09.2,0c.48,0,.71.19.71.55a.53.53,0,0,1-.14.37.45.45,0,0,1-.35.15,1.93,1.93,0,0,1-.42,0,1.31,1.31,0,0,0-.33,0c-.54,0-.8.39-.8,1.16Z"/>
      <path class="cls-9" d="M650,244.85a3.38,3.38,0,0,1,2.52,1v-.22c0-.41.16-.61.49-.61s.53.22.53.67v.1s0,.17,0,.47a8,8,0,0,0,0,1.05c0,.06,0,.22,0,.51l.05.63a1.28,1.28,0,0,1,0,.22c0,.5-.19.75-.58.75s-.61-.21-.61-.63v-.08l0-.42c0-.15,0-.26,0-.35a1.84,1.84,0,0,0-.63-1.48,2.7,2.7,0,0,0-1.76-.53,2.52,2.52,0,0,0-1.63.5,1.69,1.69,0,0,0-.6,1.36,1.56,1.56,0,0,0,.89,1.46,7,7,0,0,0,1.77.46,6.19,6.19,0,0,1,2.56.81,2.59,2.59,0,0,1,1,2.19,3,3,0,0,1-1.06,2.41,4,4,0,0,1-2.74.93,4.11,4.11,0,0,1-3-1.14v.24a1.31,1.31,0,0,1,.07.32.52.52,0,0,1-.58.58.58.58,0,0,1-.64-.66.17.17,0,0,1,.05-.13l.07-.82c0-.41.06-.67.06-.79a7.43,7.43,0,0,0-.09-.94,7.27,7.27,0,0,1-.09-.94c0-.48.2-.71.6-.71s.62.24.62.71v.65a2.45,2.45,0,0,0,.75,1.88,2.9,2.9,0,0,0,2,.69,3,3,0,0,0,1.9-.56,1.89,1.89,0,0,0,.7-1.55c0-1-.63-1.6-1.88-1.82l-.9-.16a10.1,10.1,0,0,1-2.08-.55,2.4,2.4,0,0,1-1.08-.94,2.69,2.69,0,0,1-.4-1.44,2.84,2.84,0,0,1,1-2.25A3.89,3.89,0,0,1,650,244.85Z"/>
    </g>
    <g>
      <path class="cls-9" d="M308.16,244.85a3.49,3.49,0,0,1,2.85,1.34v-.36a.62.62,0,0,1,0-.11c0-.24,0-.35,0-.32,0-.37.16-.55.49-.55s.51.22.51.66q0,.12,0,.75c-.06.53-.09.89-.09,1.09s0,.57.05.87l.07.59V249c0,.47-.18.71-.56.71s-.61-.22-.6-.67v-.56a2.3,2.3,0,0,0-.71-1.83,2.66,2.66,0,0,0-1.93-.7,2.87,2.87,0,0,0-2.43,1.19,6.66,6.66,0,0,0,0,6.67,3.22,3.22,0,0,0,4.1.78,2.37,2.37,0,0,0,1-1.12,3.37,3.37,0,0,0,.19-1.23c0-.48.2-.72.59-.72s.65.24.65.72A3.57,3.57,0,0,1,311.1,255a4.25,4.25,0,0,1-3,1.07,4.2,4.2,0,0,1-3.39-1.5,5.92,5.92,0,0,1-1.27-4,6.28,6.28,0,0,1,1.3-4.14A4.22,4.22,0,0,1,308.16,244.85Z"/>
      <path class="cls-9" d="M322.59,253.38c0,.62.06,1,.19,1.1a.67.67,0,0,0,.37.17c.15,0,.5,0,1,0h1.39a2.51,2.51,0,0,0,1.44-.28,1.42,1.42,0,0,0,.37-1.16c0-.16,0-.34,0-.54,0-.41,0-.65,0-.73,0-.46.18-.69.55-.69s.66.21.66.63a2.11,2.11,0,0,1,0,.3l-.11.81a5.58,5.58,0,0,0,0,.72,6.45,6.45,0,0,0,0,.65c0,.29,0,.51,0,.65,0,.48-.27.71-.81.71l-.72-.05-1.17-.06h-3.69c-.25,0-.67,0-1.26.07a4,4,0,0,0-.43,0,4.75,4.75,0,0,1-.48,0c-.45,0-.67-.19-.67-.56a.44.44,0,0,1,.49-.51,2.47,2.47,0,0,1,.38,0,2.47,2.47,0,0,0,.38.05c.53,0,.8-.4.8-1.18v-6.31c0-.78-.27-1.17-.8-1.17a1.31,1.31,0,0,0-.33,0,1.83,1.83,0,0,1-.43,0,.45.45,0,0,1-.34-.15.5.5,0,0,1-.15-.37c0-.36.23-.55.68-.55l.24,0,.83.09c.46,0,.8.08,1,.08a8.41,8.41,0,0,0,1-.08l.73-.09.2,0c.47,0,.71.19.71.55a.53.53,0,0,1-.14.37.47.47,0,0,1-.35.15,1.87,1.87,0,0,1-.42,0,1.46,1.46,0,0,0-.34,0c-.53,0-.8.39-.8,1.16Z"/>
      <path class="cls-9" d="M340.11,256a4.07,4.07,0,0,1-3.32-1.51,6.38,6.38,0,0,1-1.22-4.1,6.22,6.22,0,0,1,1.23-4.09,4.13,4.13,0,0,1,3.38-1.49,4.08,4.08,0,0,1,3.29,1.45,5.88,5.88,0,0,1,1.22,3.91,6.72,6.72,0,0,1-1.24,4.25A4,4,0,0,1,340.11,256Zm0-10.06a2.72,2.72,0,0,0-2.35,1.17,5.56,5.56,0,0,0-.83,3.27,5.68,5.68,0,0,0,.83,3.31,2.71,2.71,0,0,0,2.33,1.17,2.67,2.67,0,0,0,2.32-1.22,5.65,5.65,0,0,0,.86-3.31,5.5,5.5,0,0,0-.82-3.25A2.71,2.71,0,0,0,340.14,246Z"/>
      <path class="cls-9" d="M356.16,244.85a3.38,3.38,0,0,1,2.51,1v-.22c0-.41.17-.61.49-.61s.54.22.54.67v.1s0,.17-.05.47a10.26,10.26,0,0,0,0,1.05c0,.06,0,.22,0,.51l.05.63a1.09,1.09,0,0,1,0,.22c0,.5-.2.75-.58.75a.55.55,0,0,1-.62-.63v-.08l0-.42c0-.15,0-.26,0-.35a1.82,1.82,0,0,0-.64-1.48,2.67,2.67,0,0,0-1.75-.53,2.48,2.48,0,0,0-1.63.5,1.67,1.67,0,0,0-.61,1.36,1.55,1.55,0,0,0,.9,1.46,6.73,6.73,0,0,0,1.76.46,6.24,6.24,0,0,1,2.57.81,2.59,2.59,0,0,1,1,2.19,3.07,3.07,0,0,1-1.06,2.41,4,4,0,0,1-2.74.93,4.08,4.08,0,0,1-3-1.14v.24a1.73,1.73,0,0,1,.06.32.51.51,0,0,1-.58.58q-.63,0-.63-.66a.17.17,0,0,1,.05-.13l.07-.82c0-.41.05-.67.05-.79a9.23,9.23,0,0,0-.08-.94,7.27,7.27,0,0,1-.09-.94c0-.48.2-.71.6-.71s.61.24.61.71v.65a2.45,2.45,0,0,0,.75,1.88,2.93,2.93,0,0,0,2,.69,3,3,0,0,0,1.9-.56,1.9,1.9,0,0,0,.71-1.55c0-1-.63-1.6-1.89-1.82l-.9-.16a10,10,0,0,1-2.07-.55,2.4,2.4,0,0,1-1.08-.94,2.6,2.6,0,0,1-.4-1.44,2.83,2.83,0,0,1,1-2.25A3.94,3.94,0,0,1,356.16,244.85Z"/>
      <path class="cls-9" d="M369.47,247.29c0-.78-.27-1.17-.8-1.17a1.31,1.31,0,0,0-.33,0,1.83,1.83,0,0,1-.43,0,.43.43,0,0,1-.34-.15.5.5,0,0,1-.15-.37c0-.36.22-.55.66-.55l.24,0,2.19.15h.16l3.78-.11.81,0,.46,0c.54,0,.81.24.81.73,0,.08,0,.35,0,.8s0,.64,0,.93a7.45,7.45,0,0,0,0,.77,5.21,5.21,0,0,1,0,.67c0,.4-.18.6-.55.6s-.56-.28-.56-.83V248c0-.88-.19-1.4-.55-1.56a7.69,7.69,0,0,0-2.11-.17,8.05,8.05,0,0,0-1.32.05.86.86,0,0,0-.68.94v1.57c0,.42.09.66.28.73a1.58,1.58,0,0,0,.37,0h.64c.65,0,1-.23,1-.68,0-.12,0-.29,0-.49a3.4,3.4,0,0,1,0-.53c0-.42.18-.63.56-.63s.55.23.55.68c0,.08,0,.41-.1,1a10.3,10.3,0,0,0-.08,1.28q0,.32.06,1.11c0,.09,0,.27.08.55a4.53,4.53,0,0,1,0,.56.49.49,0,0,1-.56.56c-.37,0-.55-.22-.55-.66a3.86,3.86,0,0,1,0-.5c0-.22,0-.39,0-.51,0-.45-.3-.67-.9-.67h-.71c-.3,0-.49,0-.56.15a1.47,1.47,0,0,0-.1.68v1c0,.16,0,.39,0,.67s0,.58,0,.7c0,.42.1.68.25.78a1.78,1.78,0,0,0,.82.11H374a2.19,2.19,0,0,0,1.28-.27,1.28,1.28,0,0,0,.34-1c0-.16,0-.39,0-.7s0-.55,0-.7c0-.48.19-.71.56-.71s.59.24.59.72c0,.19,0,.48,0,.87s0,.67,0,.86,0,.37,0,.66,0,.5,0,.65a.65.65,0,0,1-.72.74l-.55,0-.69,0-1.23,0-2.31,0c-1,0-2,0-2.9.09l-.14,0h-.1q-.66,0-.66-.57a.44.44,0,0,1,.49-.5l.43,0a1.26,1.26,0,0,0,.33.05c.53,0,.8-.4.8-1.18Z"/>
      <path class="cls-9" d="M386.1,247.29c0-.79-.27-1.18-.8-1.18l-.33,0a3.14,3.14,0,0,1-.43.05q-.48,0-.48-.51c0-.36.23-.55.7-.55l.21,0,.83.11a8.07,8.07,0,0,0,1,.06,8.65,8.65,0,0,0,.88,0l1-.11c.2,0,.47,0,.79,0a6.14,6.14,0,0,1,2.39.41,4.07,4.07,0,0,1,2,1.86,6.2,6.2,0,0,1,.74,3.07,6.39,6.39,0,0,1-.59,2.77,4,4,0,0,1-1.59,1.82,5.69,5.69,0,0,1-2.92.71l-.71,0-1.09-.1c-.36,0-.75,0-1.15,0a6.71,6.71,0,0,0-.85,0l-.75.11-.11,0h-.13c-.45,0-.67-.18-.67-.55a.49.49,0,0,1,.14-.37.45.45,0,0,1,.34-.15,1.83,1.83,0,0,1,.43.05,1.31,1.31,0,0,0,.33,0c.53,0,.8-.4.8-1.18Zm1.32-.16v6.63a.82.82,0,0,0,.71.88,8,8,0,0,0,1.32.06,3.36,3.36,0,0,0,2.74-1,4.88,4.88,0,0,0,1-3.23,5.26,5.26,0,0,0-.62-2.66,2.85,2.85,0,0,0-1.7-1.4,5.88,5.88,0,0,0-1.67-.2,4.44,4.44,0,0,0-1.52.14C387.52,246.42,387.42,246.69,387.42,247.13Z"/>
      <path class="cls-9" d="M416.54,244.85a3.48,3.48,0,0,1,2.84,1.34v-.36a.62.62,0,0,1,0-.11c0-.24,0-.35,0-.32,0-.37.16-.55.49-.55s.52.22.52.66q0,.12,0,.75a9.57,9.57,0,0,0-.1,1.09,6.58,6.58,0,0,0,.06.87l.07.59V249c0,.47-.19.71-.57.71s-.61-.22-.6-.67v-.56a2.33,2.33,0,0,0-.7-1.83,2.68,2.68,0,0,0-1.93-.7,2.88,2.88,0,0,0-2.44,1.19,6.73,6.73,0,0,0,0,6.67,3,3,0,0,0,2.53,1.2,3,3,0,0,0,1.58-.42,2.4,2.4,0,0,0,1-1.12,3.17,3.17,0,0,0,.19-1.23q0-.72.6-.72c.43,0,.64.24.64.72a3.6,3.6,0,0,1-1.16,2.76,4.3,4.3,0,0,1-3,1.07,4.23,4.23,0,0,1-3.39-1.5,6,6,0,0,1-1.27-4,6.33,6.33,0,0,1,1.3-4.14A4.23,4.23,0,0,1,416.54,244.85Z"/>
      <path class="cls-9" d="M435.34,253.91l-.57-1.54a.56.56,0,0,0-.19-.31.81.81,0,0,0-.42-.07h-2.8a.64.64,0,0,0-.43.11,2.17,2.17,0,0,0-.31.6l-.46,1.21a1.05,1.05,0,0,0-.06.33c0,.34.2.51.61.51a2.93,2.93,0,0,0,.45,0l.44,0c.43,0,.64.19.64.55s-.24.52-.71.52l-.34,0-.79-.1-.72,0a7.57,7.57,0,0,0-.78,0l-.66.08a4.84,4.84,0,0,1-.64.05c-.41,0-.62-.17-.62-.52s.2-.55.6-.55a.22.22,0,0,1,.19.07H428a.71.71,0,0,0,.64-.34,4,4,0,0,0,.32-.74l2.92-7.94a1,1,0,0,1,1-.66.92.92,0,0,1,1,.66l2.82,7.8a3.07,3.07,0,0,0,.49,1,.82.82,0,0,0,.63.24l.19,0,.44,0c.4,0,.6.18.6.52s-.2.55-.6.55l-.46,0a13.46,13.46,0,0,0-1.48-.12q-.58,0-1.89.12l-.5,0c-.42,0-.63-.18-.63-.53s.23-.54.69-.54l.42,0a2.61,2.61,0,0,0,.42,0c.34,0,.52-.15.52-.43A2.86,2.86,0,0,0,435.34,253.91Zm-1.13-3.21-1.42-4.34-1.45,4.34a.62.62,0,0,0,0,.11c0,.1.08.14.24.14h2.5c.13,0,.19,0,.19-.12A.53.53,0,0,0,434.21,250.7Z"/>
      <path class="cls-9" d="M447.24,253.6v-6.3c0-.77-.27-1.16-.8-1.16l-.33,0a3.06,3.06,0,0,1-.42,0c-.33,0-.5-.17-.5-.52s.23-.55.69-.55l.24,0,.77.09a7.94,7.94,0,0,0,.94,0c.26,0,.58,0,.94,0,.86-.07,1.51-.11,2-.11a7.9,7.9,0,0,1,1.73.16,2.7,2.7,0,0,1,1.62,1,2.87,2.87,0,0,1,.59,1.83,2.69,2.69,0,0,1-1,2.27,4.77,4.77,0,0,1-2.94.78H449c-.17,0-.27,0-.32.09a.7.7,0,0,0-.07.4v.31a13.17,13.17,0,0,0,.12,2.41c.08.29.3.43.68.43a1.14,1.14,0,0,0,.33-.05l.43,0c.32,0,.48.17.48.5s-.23.57-.69.57l-.22,0-.79-.11a7.77,7.77,0,0,0-1,0,7,7,0,0,0-.89,0l-.92.12-.09,0h-.11c-.47,0-.71-.18-.71-.55a.53.53,0,0,1,.14-.37.47.47,0,0,1,.35-.15,1.75,1.75,0,0,1,.42.05,1.42,1.42,0,0,0,.33,0C447,254.78,447.24,254.38,447.24,253.6Zm1.43-7.13a2,2,0,0,0-.11.86v2.33c0,.29.2.45.6.49h.91a8.8,8.8,0,0,0,1.86-.17,1.7,1.7,0,0,0,1.4-1.84c0-1.34-.85-2-2.55-2C449.52,246.14,448.82,246.25,448.67,246.47Z"/>
      <path class="cls-9" d="M466.58,253.61c0,.79.26,1.18.8,1.18a2.31,2.31,0,0,0,.38,0l.37,0a.51.51,0,0,1,.51.51c0,.37-.24.55-.71.55h-.1l-.11,0-.77-.11a7.31,7.31,0,0,0-1-.06,8,8,0,0,0-1,.06l-.79.11-.11,0h-.11c-.46,0-.69-.18-.69-.55a.45.45,0,0,1,.5-.51l.38,0a2.21,2.21,0,0,0,.38,0c.52,0,.78-.39.78-1.18v-6.39a1,1,0,0,0-1.14-1.11h-.49c-.76,0-1.13.36-1.13,1.1,0,.26,0,.44,0,.53l.06.59a3.53,3.53,0,0,1,0,.39c0,.66-.21,1-.61,1s-.59-.24-.59-.72c0-.14,0-.38,0-.71,0-.5,0-.82,0-1s0-.54,0-.82a6.57,6.57,0,0,0-.06-.71q0-.66.6-.66l1,.05,1.29.06h1.79l1.68,0c.2,0,.54,0,1,0l1,0c.52,0,.78.22.78.65v0c0,.1,0,.3,0,.58s0,.59-.08.91v.18c0,.15,0,.4,0,.74s.07.71.07.81c0,.43-.21.65-.62.65s-.59-.26-.59-.79c0-.19,0-.47,0-.85s.05-.65.05-.84c0-.73-.41-1.09-1.24-1.09h-.44a1.2,1.2,0,0,0-.84.24,1.17,1.17,0,0,0-.28.81l-.06,1.1Z"/>
      <path class="cls-9" d="M479.37,247.29c0-.78-.27-1.17-.8-1.17a1.31,1.31,0,0,0-.33,0,1.83,1.83,0,0,1-.43,0,.47.47,0,0,1-.35-.15.53.53,0,0,1-.14-.37c0-.36.23-.55.7-.55l.22,0,.83.11a7.7,7.7,0,0,0,1,.06,8.58,8.58,0,0,0,1.07-.08l.7-.09.22,0c.47,0,.7.19.7.55a.5.5,0,0,1-.15.37.45.45,0,0,1-.34.15,2,2,0,0,1-.43,0,1.31,1.31,0,0,0-.33,0c-.53,0-.8.39-.8,1.17v6.31c0,.78.27,1.18.8,1.18l.33,0a2.23,2.23,0,0,1,.43-.05.44.44,0,0,1,.49.5c0,.38-.23.57-.7.57h-.11l-.11,0-.81-.12a6.13,6.13,0,0,0-.87-.07,8.32,8.32,0,0,0-1.18.08l-.72.11-.11,0H478c-.45,0-.68-.19-.68-.57a.44.44,0,0,1,.49-.5l.43,0a1.26,1.26,0,0,0,.33.05c.53,0,.8-.4.8-1.18Z"/>
      <path class="cls-9" d="M494.21,256a4,4,0,0,1-3.31-1.51,6.32,6.32,0,0,1-1.22-4.1,6.22,6.22,0,0,1,1.22-4.09,4.14,4.14,0,0,1,3.39-1.49,4.07,4.07,0,0,1,3.28,1.45,5.88,5.88,0,0,1,1.22,3.91,6.66,6.66,0,0,1-1.24,4.25A4,4,0,0,1,494.21,256Zm0-10.06a2.69,2.69,0,0,0-2.34,1.17,5.49,5.49,0,0,0-.84,3.27,5.6,5.6,0,0,0,.84,3.31,2.85,2.85,0,0,0,4.64,0,5.58,5.58,0,0,0,.86-3.31,5.5,5.5,0,0,0-.82-3.25A2.69,2.69,0,0,0,494.24,246Z"/>
      <path class="cls-9" d="M510.09,245.84l4.23,8.8v-6.35c0-.81,0-1.26,0-1.35-.09-.54-.35-.82-.78-.82l-.38,0a2.31,2.31,0,0,1-.38,0,.47.47,0,0,1-.35-.15.49.49,0,0,1-.15-.35c0-.38.23-.57.71-.57l.2,0,.71.09a7,7,0,0,0,.88.06,8.52,8.52,0,0,0,1.09-.08l.55-.07.11,0h.11c.45,0,.67.18.67.54s-.21.53-.64.53h-.33a.74.74,0,0,0-.63.21,2,2,0,0,0-.18.89V254a3.44,3.44,0,0,1-.24,1.53.9.9,0,0,1-.85.44c-.51,0-.95-.37-1.31-1.1L509,246.28v7.32c0,.78.27,1.18.8,1.18l.38,0,.38,0a.44.44,0,0,1,.5.5c0,.36-.24.54-.71.54h-.09l-.11,0-.65-.09a7.19,7.19,0,0,0-1-.08,9.66,9.66,0,0,0-1.06.08l-.77.09-.11,0h-.13c-.45,0-.67-.18-.67-.55s.16-.49.5-.49l.43,0a1.26,1.26,0,0,0,.33.05c.53,0,.8-.39.8-1.18V247.3c0-.78-.27-1.18-.81-1.18l-.32,0a2.15,2.15,0,0,1-.43,0c-.34,0-.5-.17-.5-.52s.22-.55.67-.55l.25,0c.53,0,.93.08,1.21.08s.4,0,.71,0,.55-.05.71-.05a.63.63,0,0,1,.64.33Z"/>
      <path class="cls-9" d="M525.84,247.29c0-.78-.27-1.17-.8-1.17a1.46,1.46,0,0,0-.34,0,1.7,1.7,0,0,1-.42,0,.47.47,0,0,1-.35-.15.53.53,0,0,1-.14-.37c0-.36.23-.55.69-.55l.22,0,.84.11a7.66,7.66,0,0,0,1,.06,8.32,8.32,0,0,0,1.07-.08l.71-.09.22,0c.46,0,.7.19.7.55a.5.5,0,0,1-.15.37.45.45,0,0,1-.34.15,2,2,0,0,1-.43,0,1.31,1.31,0,0,0-.33,0c-.53,0-.8.39-.8,1.17v6.31c0,.78.27,1.18.8,1.18l.33,0a2.23,2.23,0,0,1,.43-.05.44.44,0,0,1,.49.5c0,.38-.24.57-.7.57h-.11l-.11,0-.82-.12a5.87,5.87,0,0,0-.86-.07,8.32,8.32,0,0,0-1.18.08l-.73.11-.11,0h-.12c-.45,0-.68-.19-.68-.57a.44.44,0,0,1,.49-.5l.42,0a1.4,1.4,0,0,0,.34.05c.53,0,.8-.4.8-1.18Z"/>
      <path class="cls-9" d="M540.21,245.84l4.23,8.8v-6.35c0-.81,0-1.26,0-1.35-.09-.54-.36-.82-.79-.82l-.37,0a2.31,2.31,0,0,1-.38,0,.45.45,0,0,1-.35-.15.49.49,0,0,1-.15-.35c0-.38.23-.57.7-.57l.21,0,.71.09a7,7,0,0,0,.88.06,8.27,8.27,0,0,0,1.08-.08l.55-.07.11,0h.11c.46,0,.68.18.68.54s-.21.53-.64.53h-.34a.72.72,0,0,0-.62.21,1.82,1.82,0,0,0-.18.89V254a3.44,3.44,0,0,1-.24,1.53.91.91,0,0,1-.85.44c-.51,0-.95-.37-1.31-1.1l-4.14-8.58v7.32c0,.78.26,1.18.8,1.18l.38,0,.38,0a.44.44,0,0,1,.5.5c0,.36-.24.54-.71.54h-.09l-.11,0-.65-.09a7.33,7.33,0,0,0-1-.08,9.68,9.68,0,0,0-1.05.08l-.77.09-.11,0h-.13c-.45,0-.67-.18-.67-.55s.16-.49.5-.49l.42,0a1.39,1.39,0,0,0,.33.05c.54,0,.81-.39.81-1.18V247.3c0-.78-.27-1.18-.82-1.18l-.31,0a2.23,2.23,0,0,1-.44,0c-.33,0-.49-.17-.49-.52s.22-.55.67-.55l.25,0c.53,0,.93.08,1.21.08s.39,0,.71,0,.55-.05.71-.05a.64.64,0,0,1,.64.33Z"/>
      <path class="cls-9" d="M558.48,244.85a4.12,4.12,0,0,1,2.86,1.18c0-.15-.07-.23-.07-.25,0-.21,0-.33,0-.35a.46.46,0,0,1,.52-.52c.38,0,.57.23.57.68a2.63,2.63,0,0,1,0,.33l-.12.75a5.27,5.27,0,0,0-.05.71c0,.2,0,.63.06,1.28v.14c0,.47-.19.71-.58.71s-.55-.26-.55-.77v-.48a2.18,2.18,0,0,0-.71-1.71,2.82,2.82,0,0,0-1.93-.63,2.77,2.77,0,0,0-2.38,1.18,5.35,5.35,0,0,0-.87,3.24,5.71,5.71,0,0,0,.89,3.41,2.89,2.89,0,0,0,2.47,1.23,2.45,2.45,0,0,0,1.87-.71,2.86,2.86,0,0,0,.66-2,1.18,1.18,0,0,0-.18-.75.81.81,0,0,0-.64-.22l-.36,0-.36,0c-.51,0-.76-.18-.76-.54s.22-.55.65-.55l.45,0a11,11,0,0,0,1.59.14,9.56,9.56,0,0,0,1.64-.14,2.81,2.81,0,0,1,.43,0c.41,0,.62.17.62.52a.51.51,0,0,1-.16.38.56.56,0,0,1-.39.15h-.52c-.46,0-.69.52-.69,1.54v1.25c0,.27,0,.51,0,.73s0,.39,0,.52c0,.42-.19.64-.57.64a.49.49,0,0,1-.55-.55l0-.38c0-.09,0-.26,0-.49a4.9,4.9,0,0,1-.57.68,3.67,3.67,0,0,1-2.53.82,4.05,4.05,0,0,1-3.27-1.51,6,6,0,0,1-1.25-3.95,6.35,6.35,0,0,1,1.28-4.17A4.16,4.16,0,0,1,558.48,244.85Z"/>
      <path class="cls-9" d="M586,253.61c0,.79.26,1.18.8,1.18a2.31,2.31,0,0,0,.38,0l.37,0a.51.51,0,0,1,.51.51c0,.37-.24.55-.71.55h-.1l-.11,0-.77-.11a7.31,7.31,0,0,0-1-.06,8,8,0,0,0-1,.06l-.79.11-.11,0h-.11c-.46,0-.69-.18-.69-.55a.45.45,0,0,1,.5-.51l.38,0a2.21,2.21,0,0,0,.38,0c.52,0,.78-.39.78-1.18v-6.39a1,1,0,0,0-1.14-1.11H583c-.76,0-1.14.36-1.14,1.1,0,.26,0,.44,0,.53l.06.59a3.53,3.53,0,0,1,0,.39c0,.66-.21,1-.62,1s-.58-.24-.58-.72c0-.14,0-.38,0-.71,0-.5,0-.82,0-1s0-.54,0-.82a6.57,6.57,0,0,0-.06-.71q0-.66.6-.66l1,.05,1.29.06h1.79l1.68,0c.2,0,.54,0,1,0l1,0c.52,0,.78.22.78.65v0c0,.1,0,.3,0,.58s-.05.59-.08.91v.18c0,.15,0,.4,0,.74s.07.71.07.81c0,.43-.21.65-.62.65s-.59-.26-.59-.79c0-.19,0-.47,0-.85s.05-.65.05-.84c0-.73-.41-1.09-1.24-1.09h-.44a1.2,1.2,0,0,0-.84.24,1.17,1.17,0,0,0-.28.81l-.06,1.1Z"/>
      <path class="cls-9" d="M601.57,256a4,4,0,0,1-3.31-1.51,6.38,6.38,0,0,1-1.22-4.1,6.22,6.22,0,0,1,1.23-4.09,4.13,4.13,0,0,1,3.38-1.49,4,4,0,0,1,3.28,1.45,5.83,5.83,0,0,1,1.22,3.91,6.71,6.71,0,0,1-1.23,4.25A4,4,0,0,1,601.57,256Zm0-10.06a2.72,2.72,0,0,0-2.35,1.17,5.56,5.56,0,0,0-.83,3.27,5.68,5.68,0,0,0,.83,3.31,2.7,2.7,0,0,0,2.33,1.17,2.67,2.67,0,0,0,2.32-1.22,5.65,5.65,0,0,0,.86-3.31,5.5,5.5,0,0,0-.82-3.25A2.72,2.72,0,0,0,601.61,246Z"/>
      <path class="cls-9" d="M617.92,256a4,4,0,0,1-3.31-1.51,6.38,6.38,0,0,1-1.22-4.1,6.22,6.22,0,0,1,1.23-4.09,4.13,4.13,0,0,1,3.38-1.49,4,4,0,0,1,3.28,1.45,5.83,5.83,0,0,1,1.22,3.91,6.71,6.71,0,0,1-1.23,4.25A4,4,0,0,1,617.92,256ZM618,246a2.72,2.72,0,0,0-2.35,1.17,5.56,5.56,0,0,0-.83,3.27,5.68,5.68,0,0,0,.83,3.31,2.7,2.7,0,0,0,2.33,1.17,2.67,2.67,0,0,0,2.32-1.22,5.65,5.65,0,0,0,.86-3.31,5.5,5.5,0,0,0-.82-3.25A2.72,2.72,0,0,0,618,246Z"/>
      <path class="cls-9" d="M632.83,253.38c0,.62.06,1,.19,1.1a.61.61,0,0,0,.36.17c.16,0,.5,0,1,0h1.38a2.55,2.55,0,0,0,1.45-.28,1.46,1.46,0,0,0,.36-1.16c0-.16,0-.34,0-.54,0-.41,0-.65,0-.73,0-.46.19-.69.55-.69s.66.21.66.63a2.45,2.45,0,0,1,0,.3l-.11.81a5.55,5.55,0,0,0,0,.72,6.45,6.45,0,0,0,0,.65c0,.29,0,.51,0,.65,0,.48-.27.71-.8.71l-.73-.05-1.16-.06h-3.7c-.25,0-.67,0-1.26.07a4.1,4.1,0,0,0-.43,0,4.55,4.55,0,0,1-.48,0c-.44,0-.66-.19-.66-.56s.16-.51.49-.51a2.38,2.38,0,0,1,.37,0,2.63,2.63,0,0,0,.38.05c.54,0,.8-.4.8-1.18v-6.31c0-.78-.26-1.17-.8-1.17a1.31,1.31,0,0,0-.33,0,1.81,1.81,0,0,1-.42,0,.45.45,0,0,1-.35-.15.53.53,0,0,1-.14-.37c0-.36.22-.55.68-.55l.23,0,.84.09c.46,0,.8.08,1,.08a8.57,8.57,0,0,0,1-.08l.72-.09.2,0c.48,0,.71.19.71.55a.53.53,0,0,1-.14.37.45.45,0,0,1-.35.15,1.93,1.93,0,0,1-.42,0,1.31,1.31,0,0,0-.33,0c-.54,0-.8.39-.8,1.16Z"/>
      <path class="cls-9" d="M650,244.85a3.38,3.38,0,0,1,2.52,1v-.22c0-.41.16-.61.49-.61s.53.22.53.67v.1s0,.17,0,.47a8,8,0,0,0,0,1.05c0,.06,0,.22,0,.51l.05.63a1.28,1.28,0,0,1,0,.22c0,.5-.19.75-.58.75s-.61-.21-.61-.63v-.08l0-.42c0-.15,0-.26,0-.35a1.84,1.84,0,0,0-.63-1.48,2.7,2.7,0,0,0-1.76-.53,2.52,2.52,0,0,0-1.63.5,1.69,1.69,0,0,0-.6,1.36,1.56,1.56,0,0,0,.89,1.46,7,7,0,0,0,1.77.46,6.19,6.19,0,0,1,2.56.81,2.59,2.59,0,0,1,1,2.19,3,3,0,0,1-1.06,2.41,4,4,0,0,1-2.74.93,4.11,4.11,0,0,1-3-1.14v.24a1.31,1.31,0,0,1,.07.32.52.52,0,0,1-.58.58.58.58,0,0,1-.64-.66.17.17,0,0,1,.05-.13l.07-.82c0-.41.06-.67.06-.79a7.43,7.43,0,0,0-.09-.94,7.27,7.27,0,0,1-.09-.94c0-.48.2-.71.6-.71s.62.24.62.71v.65a2.45,2.45,0,0,0,.75,1.88,2.9,2.9,0,0,0,2,.69,3,3,0,0,0,1.9-.56,1.89,1.89,0,0,0,.7-1.55c0-1-.63-1.6-1.88-1.82l-.9-.16a10.1,10.1,0,0,1-2.08-.55,2.4,2.4,0,0,1-1.08-.94,2.69,2.69,0,0,1-.4-1.44,2.84,2.84,0,0,1,1-2.25A3.89,3.89,0,0,1,650,244.85Z"/>
    </g>
  </g>
</svg>
