<svg id="Layer_1" data-name="Layer 1" xmlns="http://www.w3.org/2000/svg" viewBox="0 0 381.52 130">
  <defs>
    <style>
      .cls-1 {
        fill: none;
      }

      .cls-2 {
        fill: #484848;
      }

      .cls-3, .cls-4 {
        fill: #fff;
      }

      .cls-3 {
        opacity: 0.63;
      }

      .cls-5 {
        fill: #d1ae00;
      }

      .cls-6 {
        font-size: 41.35px;
        fill: #1a1928;
        font-family: AmericanTypewriter, American Typewriter;
        letter-spacing: 0.19em;
      }

      .cls-7 {
        letter-spacing: 0.2em;
      }

      .cls-8 {
        fill: #9e9e9e;
      }
    </style>
  </defs>
  <title>logo-bw copy 4</title>
  <g>
    <path class="cls-1" d="M110.64,106.66a.73.73,0,1,0,.72.72A.72.72,0,0,0,110.64,106.66Z"/>
    <circle class="cls-2" cx="64.71" cy="63.78" r="59.75"/>
    <path class="cls-1" d="M84.53,72.21l.12.51c.91,4.26-1.45,8.56-5.32,9.64a8.18,8.18,0,0,1-10.18-5.87c-.41-1.82-.67-4.24.88-6.3a19.13,19.13,0,0,0,7.66-2.11C80.86,66.58,83.52,68.54,84.53,72.21Z"/>
    <path class="cls-3" d="M77.69,68.08A19.13,19.13,0,0,1,70,70.19c-1.55,2.06-1.29,4.48-.88,6.3a8.18,8.18,0,0,0,10.18,5.87c3.87-1.08,6.23-5.38,5.32-9.64l-.12-.51C83.52,68.54,80.86,66.58,77.69,68.08Z"/>
    <path class="cls-4" d="M118.54,61.44a53.93,53.93,0,1,0-56.4,56.4A54.08,54.08,0,0,0,118.54,61.44ZM38.38,45.56A25.93,25.93,0,0,1,46,27.22a26.45,26.45,0,0,1,3.84-3.16,25.8,25.8,0,0,1,14.84-4.43c14.27.18,25.6,12.13,25.6,26.4v.06c-.8.59-1.61,1.14-2.46,1.67l-1.15.69a46.39,46.39,0,0,1-22.25,5.84A46.73,46.73,0,0,1,42,49.14c-.51-.27-1-.55-1.51-.84-.72-.43-1.42-.87-2.1-1.34Zm51.85,59.23a.73.73,0,1,1,0-1.45.73.73,0,0,1,0,1.45Zm0-1.91a.73.73,0,0,1-.73-.72.73.73,0,0,1,.73-.73.73.73,0,0,1,.72.73A.72.72,0,0,1,90.23,102.88Zm8.29-49.54a5.35,5.35,0,0,1-.25,1,5.51,5.51,0,0,1-1.08,1.84,5.07,5.07,0,0,1-.8.73,48,48,0,0,1-10,5.8h0a2.67,2.67,0,0,0-1.07,4l0,.06a1.71,1.71,0,0,0,2,.54,2.62,2.62,0,0,1,1.53-.17,2.69,2.69,0,0,1,2.15,2.28,2.66,2.66,0,0,1-2.64,3h-.28a11.61,11.61,0,0,1,.21,2.22,11.46,11.46,0,0,1-8.54,11.06.85.85,0,0,0-.37,1.44l.28.27a47.76,47.76,0,0,0,4.63,3.55c1.58,1,3.94,3.35,8.15,2.57A4.6,4.6,0,0,0,96.06,90a5,5,0,0,0-2.37-5.24c-.8-.39-1.31-.14-1,.22.6.6-.15,1.92-1.15,1.92a1.63,1.63,0,0,1-1.73-1.65,1.69,1.69,0,0,1,1.45-1.74,2.47,2.47,0,0,1,.93,0,3.18,3.18,0,0,1,.87.29,7.57,7.57,0,0,1,3.57,8.26c-1,5.52-5,7.76-7.71,8.82-3.09,1.23-6.77,1.21-8.9-.26a2.9,2.9,0,0,0,3.18,2c-2.4,1.68-12.94-.61-16.67-5.1-.19-.22-.36-.44-.53-.66a1.54,1.54,0,0,0-2.47,0c-.17.22-.34.45-.53.67-3.77,4.49-14.41,6.78-16.83,5.1a2.92,2.92,0,0,0,3.2-2,9.23,9.23,0,0,1-9,.26c-2.5-1.37-6.77-3.3-7.77-8.82a7.51,7.51,0,0,1,4.09-8.53,3.32,3.32,0,0,1,1.07-.22,2,2,0,0,1,1.89,2.4,1.88,1.88,0,0,1-1.87,1.48,1.94,1.94,0,0,1-1.72-1,.86.86,0,0,0-1.44-.2A5.29,5.29,0,0,0,33.3,90a4.64,4.64,0,0,0,3.6,3.6,4.82,4.82,0,0,0,2.93-.25,18.16,18.16,0,0,0,5.27-2.33,48.26,48.26,0,0,0,4.67-3.55,14.19,14.19,0,0,1,6.7-4A1.49,1.49,0,0,1,58,85.93l-.11.1a2,2,0,0,0-.75,2,2,2,0,0,0,1.52,1.54,1.38,1.38,0,0,1,.71-.41,2.49,2.49,0,0,1,1.57.3,5.41,5.41,0,0,0,3.14,1,5.67,5.67,0,0,0,3.34-1.11A2.1,2.1,0,0,1,69.07,89a2.6,2.6,0,0,1,.71.37,2,2,0,0,0,1.56-1.6c.23-1.27-1.7-3-1.7-3-1.37-1.6-1.15-2.09-1.87-3.21a12.67,12.67,0,0,1-2.29-6.84,11.4,11.4,0,0,1,2.09-6.58c.29-.4-.78-1.31-3.84-1.31s-3.55,1.8-3,2.36A5.87,5.87,0,0,1,62,72.39a5.56,5.56,0,0,1-1.13,4.08,1.52,1.52,0,0,1-2,0c-.46-.33-.59-2.84-7.61-2.1-6.1.65-7.3-1.71-7.28-2.76,6.13-5.46,10.79-2,10.83-2.34.1-.66-1.41-3.45-7.55-3.67a21.15,21.15,0,0,0-4.89.32,3.62,3.62,0,0,1-2.24,0c.38-1.6.88-1.79,1.42-2.12a10.28,10.28,0,0,1,1-.55c-1.46-.58-2.88-1.21-4.26-1.92a46.76,46.76,0,0,1-7-4.43,5.05,5.05,0,0,1-.79-.74,5.34,5.34,0,0,1-1.32-2.9,5.49,5.49,0,0,1,4.71-6.17,5.35,5.35,0,0,1,1.06,0,5.56,5.56,0,0,1,3,1.11c6.85,5.24,16,8.12,25.84,8.12h0a44.12,44.12,0,0,0,23.26-6.28,32.13,32.13,0,0,0,2.7-1.85,5.59,5.59,0,0,1,1.93-.94,5.43,5.43,0,0,1,1.06-.16,5.58,5.58,0,0,1,1.08,0,5.45,5.45,0,0,1,2,.7,4.87,4.87,0,0,1,.86.63,5.13,5.13,0,0,1,.74.8,5.86,5.86,0,0,1,.57.92,5.62,5.62,0,0,1,.54,2.06A5.73,5.73,0,0,1,98.52,53.34ZM90.23,90.66a.73.73,0,1,1,.72-.72A.72.72,0,0,1,90.23,90.66ZM91,92a.73.73,0,0,1-.72.73A.73.73,0,0,1,89.5,92a.73.73,0,0,1,.73-.72A.72.72,0,0,1,91,92Zm-.72-3.18a.73.73,0,1,1,0-1.46.73.73,0,0,1,0,1.46Zm-.73-6.59a.73.73,0,0,1,.73-.73.73.73,0,0,1,.72.73.72.72,0,0,1-.72.72A.73.73,0,0,1,89.5,82.23Zm.73-1.12a.73.73,0,0,1-.73-.73.73.73,0,0,1,.73-.72.72.72,0,0,1,.72.72A.73.73,0,0,1,90.23,81.11Zm0-1.85a.73.73,0,0,1-.73-.72.73.73,0,0,1,.73-.73.73.73,0,0,1,.72.73A.72.72,0,0,1,90.23,79.26Zm0-1.84a.73.73,0,0,1-.73-.73.73.73,0,0,1,.73-.72.72.72,0,0,1,.72.72A.73.73,0,0,1,90.23,77.42Zm0-1.85a.73.73,0,1,1,.72-.72A.72.72,0,0,1,90.23,75.57Zm0-1.84a.73.73,0,0,1,0-1.46.73.73,0,0,1,0,1.46Z"/>
  </g>
  <g>
    <rect class="cls-5" x="135.89" y="52.34" width="232.79" height="39.59" rx="2.61"/>
    <g>
      <path class="cls-4" d="M152.57,66.13c0-1.42-.5-2.14-1.48-2.14a2.2,2.2,0,0,0-.6.06,4.23,4.23,0,0,1-.78.09.84.84,0,0,1-.64-.28.94.94,0,0,1-.26-.67c0-.68.43-1,1.27-1l.41,0,1.53.21a14.71,14.71,0,0,0,1.79.11,15.82,15.82,0,0,0,2-.14l1.3-.18.4,0c.85,0,1.27.33,1.27,1a.9.9,0,0,1-.26.67.81.81,0,0,1-.63.28,4.63,4.63,0,0,1-.78-.09,2.34,2.34,0,0,0-.61-.06c-1,0-1.47.72-1.47,2.14V77.71q0,2.16,1.47,2.16a4,4,0,0,0,.61-.06,6.73,6.73,0,0,1,.78-.08c.59,0,.89.3.89.92s-.42,1-1.27,1h-.2l-.2,0-1.5-.23a10.06,10.06,0,0,0-1.59-.12,14.12,14.12,0,0,0-2.17.15l-1.32.2-.21,0h-.23c-.82,0-1.24-.35-1.24-1a.8.8,0,0,1,.9-.92l.78,0a2.18,2.18,0,0,0,.6.09c1,0,1.48-.72,1.48-2.16Z"/>
      <path class="cls-4" d="M173.62,63.48l7.75,16.13V68c0-1.5,0-2.33,0-2.48-.18-1-.66-1.51-1.45-1.51a5,5,0,0,0-.69.08,6.57,6.57,0,0,1-.69.07.86.86,0,0,1-.65-.28.84.84,0,0,1-.28-.64c0-.7.44-1,1.3-1l.38,0,1.3.18a11.57,11.57,0,0,0,1.61.11,15.59,15.59,0,0,0,2-.16c.29,0,.63-.07,1-.13l.21,0h.2c.83,0,1.24.33,1.24,1s-.39,1-1.18,1H185c-.59,0-1,.12-1.15.37a3.56,3.56,0,0,0-.32,1.65V78.43a6.21,6.21,0,0,1-.45,2.8,1.63,1.63,0,0,1-1.55.81c-.95,0-1.75-.68-2.41-2l-7.6-15.74V77.71q0,2.16,1.47,2.16c.16,0,.39,0,.69,0s.54,0,.7,0a.82.82,0,0,1,.92.93c0,.65-.43,1-1.3,1h-.17l-.2,0-1.19-.17a12.2,12.2,0,0,0-1.84-.15,16,16,0,0,0-1.94.15l-1.41.17-.2,0h-.24c-.82,0-1.24-.34-1.24-1a.81.81,0,0,1,.93-.9l.78.06a2.18,2.18,0,0,0,.6.09c1,0,1.47-.72,1.47-2.17V66.16c0-1.44-.49-2.17-1.49-2.17a3.92,3.92,0,0,0-.57.06,5.45,5.45,0,0,1-.8.09.83.83,0,0,1-.92-1c0-.68.42-1,1.24-1l.46,0q1.44.15,2.22.15c.29,0,.72,0,1.3-.09a12.9,12.9,0,0,1,1.29-.08,1.19,1.19,0,0,1,1.19.6Z"/>
      <path class="cls-4" d="M201.75,61.66a6.16,6.16,0,0,1,4.62,1.82v-.41c0-.75.3-1.13.9-1.13s1,.42,1,1.25v.17s0,.33-.09.87a17.89,17.89,0,0,0-.08,1.93c0,.1,0,.4,0,.92l.09,1.16a2,2,0,0,1,0,.4c0,.93-.36,1.39-1.07,1.39a1,1,0,0,1-1.13-1.16v-.14l.06-.78c0-.27,0-.48,0-.64A3.36,3.36,0,0,0,205,64.6a4.88,4.88,0,0,0-3.22-1,4.54,4.54,0,0,0-3,.92A3.06,3.06,0,0,0,197.65,67a2.84,2.84,0,0,0,1.65,2.68,12.38,12.38,0,0,0,3.23.84,11.27,11.27,0,0,1,4.71,1.5,4.69,4.69,0,0,1,1.9,4,5.63,5.63,0,0,1-1.94,4.42,7.38,7.38,0,0,1-5,1.7,7.51,7.51,0,0,1-5.44-2.08v.43a3,3,0,0,1,.12.6.94.94,0,0,1-1.07,1.05c-.77,0-1.16-.4-1.16-1.21a.29.29,0,0,1,.09-.23l.13-1.5c.07-.75.1-1.24.1-1.45a13.28,13.28,0,0,0-.16-1.73,15.35,15.35,0,0,1-.16-1.73c0-.87.37-1.3,1.1-1.3s1.13.43,1.13,1.3v1.19A4.47,4.47,0,0,0,198.23,79,5.3,5.3,0,0,0,202,80.25a5.41,5.41,0,0,0,3.48-1,3.43,3.43,0,0,0,1.3-2.83q0-2.75-3.47-3.35l-1.64-.29a17.83,17.83,0,0,1-3.81-1,4.35,4.35,0,0,1-2-1.72,4.86,4.86,0,0,1-.74-2.64A5.2,5.2,0,0,1,197,63.24,7.13,7.13,0,0,1,201.75,61.66Z"/>
      <path class="cls-4" d="M220.83,77.71V66.16c0-1.43-.48-2.14-1.46-2.14a5.51,5.51,0,0,0-.6,0,6.2,6.2,0,0,1-.77.07.83.83,0,0,1-.92-1c0-.68.42-1,1.27-1l.43,0,1.41.18a14,14,0,0,0,1.73.08c.48,0,1.06,0,1.73-.08,1.58-.14,2.77-.2,3.58-.2a15.35,15.35,0,0,1,3.17.28,5,5,0,0,1,3,1.79,5.3,5.3,0,0,1,1.08,3.35,5,5,0,0,1-1.86,4.16,8.67,8.67,0,0,1-5.39,1.44H224a.8.8,0,0,0-.59.16,1.29,1.29,0,0,0-.13.73v.58a24.1,24.1,0,0,0,.22,4.43c.14.51.56.77,1.25.77a2.1,2.1,0,0,0,.61-.09l.78,0c.59,0,.89.3.89.92s-.42,1-1.27,1l-.4-.06-1.45-.2a13.37,13.37,0,0,0-1.81-.09,12.14,12.14,0,0,0-1.65.09l-1.67.23-.18,0h-.2c-.87,0-1.3-.34-1.3-1a1,1,0,0,1,.26-.68.85.85,0,0,1,.64-.27,5.14,5.14,0,0,1,.78.08,2.2,2.2,0,0,0,.6.06Q220.83,79.87,220.83,77.71Zm2.63-13.08a3.67,3.67,0,0,0-.2,1.59v4.27c0,.52.36.82,1.1.89H226a15.49,15.49,0,0,0,3.41-.31A3.11,3.11,0,0,0,232,67.69c0-2.44-1.56-3.67-4.68-3.67C225,64,223.73,64.23,223.46,64.63Z"/>
      <path class="cls-4" d="M245,66.13c0-1.42-.49-2.14-1.47-2.14a2.2,2.2,0,0,0-.6.06,4.23,4.23,0,0,1-.78.09.83.83,0,0,1-.64-.28.94.94,0,0,1-.26-.67c0-.68.4-1,1.21-1l.43,0c2.88.2,4.22.29,4,.29h.29l6.93-.2,1.5-.09.83,0q1.5,0,1.5,1.32c0,.16,0,.65-.09,1.48,0,.61-.06,1.18-.06,1.7s0,1.14.05,1.41c.06.56.1,1,.1,1.24,0,.74-.35,1.1-1,1.1s-1-.51-1-1.53V67.4c0-1.62-.34-2.57-1-2.86a13.74,13.74,0,0,0-3.87-.31,18,18,0,0,0-2.43.08A1.59,1.59,0,0,0,247.39,66v2.89c0,.77.17,1.21.51,1.33a2.74,2.74,0,0,0,.69.06h1.16c1.2,0,1.8-.42,1.8-1.24a9,9,0,0,0-.07-.9,7.42,7.42,0,0,1-.08-1c0-.77.35-1.16,1-1.16s1,.42,1,1.25c0,.15-.06.75-.18,1.79a19,19,0,0,0-.16,2.33c0,.39,0,1.07.11,2,0,.16.07.49.15,1a9.43,9.43,0,0,1,.08,1,.91.91,0,0,1-1,1c-.67,0-1-.4-1-1.21a8.32,8.32,0,0,1,.08-.92c0-.41.07-.72.07-.93,0-.82-.55-1.24-1.65-1.24h-1.3c-.55,0-.9.1-1,.29a2.56,2.56,0,0,0-.19,1.24v1.79c0,.31,0,.72,0,1.24s0,1.06,0,1.27c0,.77.17,1.25.46,1.45a3.48,3.48,0,0,0,1.5.2h3.93a3.92,3.92,0,0,0,2.34-.51,2.3,2.3,0,0,0,.63-1.89c0-.29,0-.71,0-1.28s0-1,0-1.29c0-.86.35-1.3,1-1.3s1.08.45,1.08,1.33c0,.35,0,.88,0,1.59s0,1.24,0,1.59,0,.67,0,1.19,0,.93,0,1.2A1.19,1.19,0,0,1,257,81.69c-.21,0-.54,0-1-.06-.23,0-.65,0-1.27,0l-2.25,0c-1.63,0-3.05-.06-4.24-.06-1.81,0-3.58.06-5.31.17l-.26,0h-.18c-.8,0-1.21-.35-1.21-1a.8.8,0,0,1,.9-.92l.78,0a2.18,2.18,0,0,0,.6.09q1.47,0,1.47-2.16Z"/>
      <path class="cls-4" d="M275.65,61.66a6.45,6.45,0,0,1,5.23,2.45v-.65a1.25,1.25,0,0,1-.06-.21c0-.43-.06-.63-.06-.59,0-.67.3-1,.9-1s.95.4.95,1.21q0,.23-.06,1.38c-.11,1-.17,1.63-.17,2a12.08,12.08,0,0,0,.1,1.58l.13,1.1v.29c0,.87-.35,1.3-1,1.3s-1.12-.41-1.1-1.23v-1a4.23,4.23,0,0,0-1.29-3.35,4.94,4.94,0,0,0-3.54-1.29,5.25,5.25,0,0,0-4.47,2.19,10.12,10.12,0,0,0-1.61,6.06A10.06,10.06,0,0,0,271.22,78a5.89,5.89,0,0,0,7.53,1.43,4.3,4.3,0,0,0,1.81-2,6,6,0,0,0,.35-2.25c0-.89.36-1.33,1.09-1.33s1.19.44,1.19,1.33a6.56,6.56,0,0,1-2.14,5,7.81,7.81,0,0,1-5.51,2,7.72,7.72,0,0,1-6.22-2.74A10.92,10.92,0,0,1,267,72.13a11.61,11.61,0,0,1,2.38-7.59A7.75,7.75,0,0,1,275.65,61.66Z"/>
      <path class="cls-4" d="M300.36,77.74q0,2.16,1.47,2.16a4.62,4.62,0,0,0,.7-.07,4.4,4.4,0,0,1,.69-.07.92.92,0,0,1,.92.92c0,.67-.43,1-1.3,1h-.17l-.2,0-1.42-.2a12.39,12.39,0,0,0-1.81-.12,13.8,13.8,0,0,0-1.94.12l-1.44.2-.2,0h-.21c-.84,0-1.27-.34-1.27-1a.81.81,0,0,1,.93-.92,4.63,4.63,0,0,1,.69.07,4.63,4.63,0,0,0,.69.07c1,0,1.45-.72,1.45-2.16V66a1.84,1.84,0,0,0-2.11-2h-.9a1.81,1.81,0,0,0-2.07,2c0,.48,0,.8,0,1L293,68a6.57,6.57,0,0,1,0,.72c0,1.21-.38,1.82-1.13,1.82s-1.06-.45-1.06-1.33c0-.25,0-.68.05-1.3.06-.92.09-1.51.09-1.76,0-.48,0-1-.05-1.5-.06-1-.09-1.46-.09-1.3,0-.81.36-1.21,1.09-1.21.27,0,.89,0,1.87.08l2.37.12h3.28l3.09-.05c.36,0,1,0,1.87-.08s1.4-.07,1.84-.07c1,0,1.44.39,1.44,1.18v.06c0,.19,0,.55-.07,1.07s-.1,1.07-.16,1.67v.32q0,.43.09,1.35c.08.81.11,1.31.11,1.5,0,.79-.37,1.19-1.12,1.19s-1.1-.48-1.1-1.45c0-.35,0-.87.09-1.55s.09-1.21.09-1.55c0-1.34-.77-2-2.29-2h-.8a2.12,2.12,0,0,0-1.53.44,2.15,2.15,0,0,0-.52,1.49l-.12,2Z"/>
      <path class="cls-4" d="M323.63,82.18a7.39,7.39,0,0,1-6.08-2.77,11.63,11.63,0,0,1-2.24-7.51,11.44,11.44,0,0,1,2.26-7.52,7.61,7.61,0,0,1,6.2-2.72,7.46,7.46,0,0,1,6,2.65A10.82,10.82,0,0,1,332,71.5a12.28,12.28,0,0,1-2.27,7.79A7.36,7.36,0,0,1,323.63,82.18Zm.06-18.45a5,5,0,0,0-4.31,2.14,10.2,10.2,0,0,0-1.53,6A10.37,10.37,0,0,0,319.38,78a5.24,5.24,0,0,0,8.53-.09,10.36,10.36,0,0,0,1.58-6.07,10.11,10.11,0,0,0-1.5-6A5,5,0,0,0,323.69,63.73Z"/>
      <path class="cls-4" d="M354.4,70.89a9.79,9.79,0,0,1-2.14.69,3.46,3.46,0,0,1,2.33,1.27,5.77,5.77,0,0,1,.65,3.14v1.67c0,1.38.43,2.07,1.31,2.07s1.34-.82,1.34-2.46v-2a3.65,3.65,0,0,1,.12-1.14.89.89,0,0,1,.89-.49c.7,0,1,.41,1,1.22t0,.63v2.11a3.36,3.36,0,0,0,0,.52,3.25,3.25,0,0,1-3.55,3.55q-3.4,0-3.4-3.44V75.77a3.3,3.3,0,0,0-.74-2.55,5,5,0,0,0-3-.62h-2.67c-.62,0-.92.37-.92,1.12V76c0,1.42,0,2.23.05,2.42.18,1,.66,1.44,1.45,1.44a4.33,4.33,0,0,0,.6,0,6.27,6.27,0,0,1,.75,0,.83.83,0,0,1,.93,1c0,.67-.42,1-1.24,1l-.44-.06-1.56-.2a11.93,11.93,0,0,0-1.58-.12,15.9,15.9,0,0,0-2,.15l-1.39.17-.43.06c-.83,0-1.24-.35-1.24-1s.29-.92.89-.92l.78,0a2.2,2.2,0,0,0,.61.09q1.47,0,1.47-2.16V66.13q0-2.16-1.47-2.16a4.62,4.62,0,0,0-.7.07,4.51,4.51,0,0,1-.69.07.83.83,0,0,1-.63-.27.9.9,0,0,1-.26-.65c0-.68.42-1,1.27-1l.4,0,1.47.15c.39,0,.87.06,1.45.06s1.26,0,2-.06l2.19-.12c.73,0,1.41,0,2,0,4.24,0,6.35,1.61,6.35,4.83A3.89,3.89,0,0,1,354.4,70.89Zm-8-.23h2.72a7.51,7.51,0,0,0,3.63-.69,3,3,0,0,0,1.48-2.8q0-3.28-4.52-3.29a9.7,9.7,0,0,0-3.26.36,1.43,1.43,0,0,0-.88,1.43v4.24c0,.33.05.54.17.62A1.14,1.14,0,0,0,346.4,70.66Z"/>
    </g>
    <text class="cls-6" transform="translate(134.56 43.4)">C<tspan class="cls-7" x="34.15" y="0">APTION</tspan></text>
    <g>
      <g>
        <path class="cls-8" d="M145.11,106.65a2.21,2.21,0,0,1,1.79.84v-.23s0-.06,0-.07a1.45,1.45,0,0,0,0-.2c0-.23.1-.34.31-.34s.32.14.32.41c0,0,0,.21,0,.48a6.63,6.63,0,0,0-.06.68,3.27,3.27,0,0,0,0,.54l0,.38v.1c0,.29-.12.44-.35.44s-.39-.14-.38-.42v-.35a1.46,1.46,0,0,0-.44-1.15,1.72,1.72,0,0,0-1.22-.44,1.77,1.77,0,0,0-1.52.75,4.17,4.17,0,0,0,0,4.19,1.88,1.88,0,0,0,1.59.75,1.92,1.92,0,0,0,1-.26,1.46,1.46,0,0,0,.62-.71,2,2,0,0,0,.12-.77c0-.3.12-.45.37-.45s.41.15.41.45A2.22,2.22,0,0,1,147,113a2.92,2.92,0,0,1-4-.26,3.75,3.75,0,0,1-.8-2.5,4,4,0,0,1,.82-2.6A2.64,2.64,0,0,1,145.11,106.65Z"/>
        <path class="cls-8" d="M154.18,112a1.24,1.24,0,0,0,.11.69.45.45,0,0,0,.24.11c.09,0,.31,0,.64,0H156a1.57,1.57,0,0,0,.91-.18.9.9,0,0,0,.23-.73c0-.1,0-.21,0-.34s0-.41,0-.46c0-.29.12-.43.35-.43a.36.36,0,0,1,.41.4.92.92,0,0,1,0,.18l-.07.51a3.19,3.19,0,0,0,0,.45,4.1,4.1,0,0,0,0,.41,3.51,3.51,0,0,1,0,.41c0,.3-.16.45-.5.45l-.46,0-.73,0h-2.32c-.16,0-.42,0-.79,0h-.27l-.3,0q-.42,0-.42-.36a.27.27,0,0,1,.31-.31l.23,0a1.25,1.25,0,0,0,.24,0c.34,0,.51-.24.51-.74v-4c0-.49-.17-.73-.51-.73a.62.62,0,0,0-.21,0l-.26,0a.27.27,0,0,1-.22-.1.32.32,0,0,1-.09-.23c0-.23.14-.35.43-.35h.14l.53.06a4.72,4.72,0,0,0,.64,0,3.94,3.94,0,0,0,.63,0l.46-.06H155c.29,0,.44.12.44.35a.32.32,0,0,1-.09.23.27.27,0,0,1-.22.1l-.26,0a.62.62,0,0,0-.21,0c-.34,0-.5.24-.5.72Z"/>
        <path class="cls-8" d="M165.18,113.68a2.53,2.53,0,0,1-2.08-1,4,4,0,0,1-.77-2.57,4,4,0,0,1,.77-2.58,2.63,2.63,0,0,1,2.13-.93,2.55,2.55,0,0,1,2.06.91,3.68,3.68,0,0,1,.77,2.46,4.2,4.2,0,0,1-.78,2.67A2.53,2.53,0,0,1,165.18,113.68Zm0-6.32a1.7,1.7,0,0,0-1.47.73,3.48,3.48,0,0,0-.53,2.06,3.55,3.55,0,0,0,.53,2.08,1.8,1.8,0,0,0,2.92,0,3.56,3.56,0,0,0,.54-2.08,3.45,3.45,0,0,0-.52-2A1.69,1.69,0,0,0,165.2,107.36Z"/>
        <path class="cls-8" d="M175.26,106.65a2.12,2.12,0,0,1,1.59.62v-.14c0-.26.1-.38.3-.38s.34.14.34.42v.06l0,.3a6.12,6.12,0,0,0,0,.66,2.83,2.83,0,0,0,0,.32l0,.39s0,.08,0,.14c0,.32-.12.47-.37.47s-.38-.13-.38-.39v-.05l0-.27c0-.09,0-.16,0-.22a1.15,1.15,0,0,0-.4-.92,1.66,1.66,0,0,0-1.11-.34,1.49,1.49,0,0,0-1,.32,1.05,1.05,0,0,0-.38.85,1,1,0,0,0,.56.91,3.86,3.86,0,0,0,1.11.29,3.93,3.93,0,0,1,1.61.52,1.59,1.59,0,0,1,.65,1.37,1.92,1.92,0,0,1-.66,1.51,2.53,2.53,0,0,1-1.72.59,2.59,2.59,0,0,1-1.87-.72v.15a.8.8,0,0,1,0,.21.32.32,0,0,1-.36.36c-.27,0-.4-.14-.4-.42a.11.11,0,0,1,0-.08l.05-.51c0-.26,0-.42,0-.5s0-.33-.05-.59a4.28,4.28,0,0,1-.06-.59c0-.3.13-.45.38-.45s.38.15.38.45v.41a1.52,1.52,0,0,0,.48,1.18,1.8,1.8,0,0,0,1.28.43,1.89,1.89,0,0,0,1.19-.35,1.17,1.17,0,0,0,.44-1c0-.63-.39-1-1.18-1.15l-.57-.1a6.43,6.43,0,0,1-1.3-.34,1.55,1.55,0,0,1-.68-.59,1.66,1.66,0,0,1-.25-.91,1.77,1.77,0,0,1,.63-1.41A2.44,2.44,0,0,1,175.26,106.65Z"/>
        <path class="cls-8" d="M183.63,108.18c0-.49-.17-.73-.51-.73a.53.53,0,0,0-.2,0l-.27,0a.27.27,0,0,1-.22-.1.32.32,0,0,1-.09-.23c0-.23.14-.35.42-.35h.14l1.38.1h.1l2.38-.07.51,0h.28c.35,0,.52.16.52.46,0,0,0,.22,0,.5s0,.41,0,.59,0,.39,0,.48a2.82,2.82,0,0,1,0,.43c0,.25-.12.37-.35.37s-.36-.17-.36-.52v-.52c0-.55-.11-.88-.34-1a4.34,4.34,0,0,0-1.33-.11,6.14,6.14,0,0,0-.83,0,.54.54,0,0,0-.42.59v1c0,.26.06.41.17.45a.76.76,0,0,0,.24,0h.4c.41,0,.61-.14.61-.42,0-.08,0-.18,0-.31a2.14,2.14,0,0,1,0-.34c0-.26.12-.39.35-.39s.35.14.35.42c0,.06,0,.26-.06.62a6,6,0,0,0,0,.8c0,.13,0,.36,0,.7,0,0,0,.17,0,.35a2.61,2.61,0,0,1,0,.34c0,.24-.11.36-.35.36s-.35-.14-.35-.42a2.24,2.24,0,0,1,0-.31c0-.14,0-.25,0-.32,0-.28-.19-.43-.56-.43h-.45c-.19,0-.31,0-.35.1a1,1,0,0,0-.06.43v.61c0,.11,0,.25,0,.43s0,.36,0,.43c0,.27.06.43.16.5a1.23,1.23,0,0,0,.51.07h1.34a1.34,1.34,0,0,0,.81-.18.79.79,0,0,0,.21-.64c0-.1,0-.25,0-.44s0-.35,0-.44c0-.3.12-.45.35-.45s.37.15.37.45c0,.12,0,.3,0,.55s0,.42,0,.54,0,.23,0,.41,0,.32,0,.41c0,.31-.15.47-.45.47l-.35,0H187l-.77,0-1.46,0c-.62,0-1.22,0-1.81.06h-.15q-.42,0-.42-.36a.27.27,0,0,1,.31-.31l.27,0a.71.71,0,0,0,.2,0c.34,0,.51-.24.51-.74Z"/>
        <path class="cls-8" d="M194.08,108.18c0-.5-.17-.74-.51-.74a.71.71,0,0,0-.2,0l-.27,0a.28.28,0,0,1-.31-.32c0-.23.15-.35.45-.35h.13l.52.07a4.26,4.26,0,0,0,.63,0,5.25,5.25,0,0,0,.56,0l.64-.07.49,0a3.84,3.84,0,0,1,1.5.26,2.59,2.59,0,0,1,1.26,1.17,4,4,0,0,1,.46,1.93,4.11,4.11,0,0,1-.37,1.74,2.45,2.45,0,0,1-1,1.14,3.56,3.56,0,0,1-1.84.45l-.44,0-.68-.06c-.24,0-.48,0-.73,0a3.89,3.89,0,0,0-.53,0l-.47.07h-.15c-.29,0-.43-.12-.43-.35a.32.32,0,0,1,.09-.23.29.29,0,0,1,.22-.09l.27,0h.2c.34,0,.51-.24.51-.74Zm.83-.1v4.16a.52.52,0,0,0,.44.56,5.64,5.64,0,0,0,.83,0,2.13,2.13,0,0,0,1.72-.64,3.07,3.07,0,0,0,.65-2,3.2,3.2,0,0,0-.4-1.67,1.75,1.75,0,0,0-1.07-.88,3.58,3.58,0,0,0-1.05-.13,2.84,2.84,0,0,0-.95.09C195,107.63,194.91,107.8,194.91,108.08Z"/>
        <path class="cls-8" d="M213.2,106.65a2.21,2.21,0,0,1,1.79.84v-.23a.14.14,0,0,1,0-.07c0-.15,0-.21,0-.2,0-.23.1-.34.3-.34s.33.14.33.41c0,0,0,.21,0,.48a6.63,6.63,0,0,0-.06.68,4.89,4.89,0,0,0,0,.54l.05.38v.1c0,.29-.12.44-.36.44s-.38-.14-.37-.42v-.35a1.47,1.47,0,0,0-.45-1.15,1.68,1.68,0,0,0-1.21-.44,1.8,1.8,0,0,0-1.53.75,3.5,3.5,0,0,0-.55,2.08,3.46,3.46,0,0,0,.57,2.11,1.88,1.88,0,0,0,1.59.75,1.92,1.92,0,0,0,1-.26,1.51,1.51,0,0,0,.62-.71,2,2,0,0,0,.12-.77c0-.3.12-.45.37-.45s.41.15.41.45a2.25,2.25,0,0,1-.73,1.73,2.92,2.92,0,0,1-4-.26,3.75,3.75,0,0,1-.8-2.5,3.9,3.9,0,0,1,.82-2.6A2.64,2.64,0,0,1,213.2,106.65Z"/>
        <path class="cls-8" d="M225,112.34l-.35-1a.49.49,0,0,0-.13-.2.66.66,0,0,0-.26,0h-1.76a.44.44,0,0,0-.27.07,1.16,1.16,0,0,0-.19.38l-.29.76a.52.52,0,0,0,0,.21c0,.21.13.32.39.32l.28,0a1.53,1.53,0,0,1,.27,0c.27,0,.4.11.4.34s-.14.33-.44.33l-.22,0-.49-.06a2.77,2.77,0,0,0-.46,0,2.85,2.85,0,0,0-.48,0l-.42,0-.4,0q-.39,0-.39-.33c0-.23.13-.34.38-.34a.16.16,0,0,1,.12,0h.12a.46.46,0,0,0,.41-.21,2.46,2.46,0,0,0,.2-.47l1.84-5a.59.59,0,0,1,.62-.41.58.58,0,0,1,.6.41l1.77,4.9a2,2,0,0,0,.31.62.5.5,0,0,0,.39.15.29.29,0,0,0,.12,0l.28,0c.25,0,.38.1.38.32s-.13.35-.38.35l-.29,0a6.64,6.64,0,0,0-.93-.08c-.24,0-.64,0-1.18.08l-.32,0c-.26,0-.39-.11-.39-.34s.14-.33.43-.33a1.38,1.38,0,0,1,.26,0l.26,0q.33,0,.33-.27A1.73,1.73,0,0,0,225,112.34Zm-.71-2-.89-2.72-.91,2.72,0,.07q0,.09.15.09h1.57c.08,0,.12,0,.12-.08S224.31,110.36,224.3,110.32Z"/>
        <path class="cls-8" d="M232.49,112.14v-4c0-.49-.17-.73-.5-.73h-.21l-.27,0c-.21,0-.31-.11-.31-.33s.15-.35.43-.35h.15l.49.06a4.68,4.68,0,0,0,.59,0l.59,0c.54,0,1-.07,1.22-.07a5.55,5.55,0,0,1,1.09.1,1.74,1.74,0,0,1,1,.62,1.77,1.77,0,0,1,.37,1.14,1.69,1.69,0,0,1-.64,1.43,2.94,2.94,0,0,1-1.84.49h-1.11a.25.25,0,0,0-.2.06.44.44,0,0,0,0,.25v.19a8.62,8.62,0,0,0,.07,1.52c.05.18.19.26.43.26a.75.75,0,0,0,.21,0l.26,0a.27.27,0,0,1,.31.31c0,.24-.14.36-.43.36l-.14,0-.5-.07a4.57,4.57,0,0,0-.62,0,4.17,4.17,0,0,0-.56,0l-.58.08h-.12c-.3,0-.45-.12-.45-.35a.32.32,0,0,1,.09-.23.29.29,0,0,1,.22-.09l.26,0H232C232.32,112.88,232.49,112.64,232.49,112.14Zm.9-4.47a1.12,1.12,0,0,0-.07.54v1.46c0,.18.12.28.37.31h.58a5.37,5.37,0,0,0,1.16-.11,1.06,1.06,0,0,0,.88-1.16c0-.83-.53-1.25-1.6-1.25Q233.52,107.46,233.39,107.67Z"/>
        <path class="cls-8" d="M244.64,112.15c0,.5.16.74.5.74a1.25,1.25,0,0,0,.24,0,1.11,1.11,0,0,1,.23,0,.33.33,0,0,1,.23.09.31.31,0,0,1,.09.22c0,.23-.15.35-.44.35h-.13l-.49-.07a3.87,3.87,0,0,0-.62,0,4.33,4.33,0,0,0-.66,0l-.5.07H243c-.29,0-.44-.12-.44-.35a.28.28,0,0,1,.32-.31,1.11,1.11,0,0,1,.23,0,1.25,1.25,0,0,0,.24,0c.33,0,.5-.24.5-.74v-4c0-.47-.24-.7-.73-.7h-.3c-.48,0-.71.23-.71.69a2.84,2.84,0,0,0,0,.34l0,.36v.25c0,.41-.12.62-.38.62s-.37-.15-.37-.45c0-.09,0-.24,0-.45s0-.52,0-.6,0-.34,0-.52c0-.34,0-.49,0-.44,0-.28.13-.42.38-.42l.64,0,.81,0h2.18l.64,0,.63,0c.33,0,.5.14.5.41v0c0,.07,0,.19,0,.37s0,.36-.05.57v.11c0,.1,0,.25,0,.46s0,.45,0,.52a.35.35,0,0,1-.39.4c-.25,0-.37-.16-.37-.49q0-.18,0-.54c0-.23,0-.41,0-.53,0-.45-.27-.68-.79-.68h-.27a.76.76,0,0,0-.53.15.75.75,0,0,0-.17.51l0,.69Z"/>
        <path class="cls-8" d="M252.67,108.18c0-.49-.16-.73-.5-.73a.62.62,0,0,0-.21,0l-.27,0a.26.26,0,0,1-.21-.1.32.32,0,0,1-.09-.23c0-.23.14-.35.43-.35H252l.53.07a4,4,0,0,0,.61,0,4.07,4.07,0,0,0,.67,0l.45-.06h.13c.29,0,.44.12.44.35a.32.32,0,0,1-.09.23.27.27,0,0,1-.22.1l-.26,0a.62.62,0,0,0-.21,0c-.34,0-.51.24-.51.73v4c0,.5.17.74.51.74h.21l.26,0a.27.27,0,0,1,.31.31c0,.24-.15.36-.44.36h-.13l-.52-.08a3.12,3.12,0,0,0-.54,0,5.27,5.27,0,0,0-.74.05l-.46.07h-.15q-.42,0-.42-.36c0-.21.1-.31.3-.31l.27,0a.75.75,0,0,0,.21,0c.34,0,.5-.24.5-.74Z"/>
        <path class="cls-8" d="M262,113.68a2.53,2.53,0,0,1-2.08-1,4.69,4.69,0,0,1,0-5.15,2.61,2.61,0,0,1,2.13-.93,2.55,2.55,0,0,1,2.06.91,3.68,3.68,0,0,1,.76,2.46,4.26,4.26,0,0,1-.77,2.67A2.53,2.53,0,0,1,262,113.68Zm0-6.32a1.7,1.7,0,0,0-1.48.73,3.49,3.49,0,0,0-.52,2.06,3.55,3.55,0,0,0,.52,2.08A1.7,1.7,0,0,0,262,113a1.68,1.68,0,0,0,1.45-.76,3.56,3.56,0,0,0,.54-2.08,3.45,3.45,0,0,0-.51-2A1.69,1.69,0,0,0,262,107.36Z"/>
        <path class="cls-8" d="M272,107.27l2.65,5.53v-4c0-.51,0-.8,0-.85-.06-.34-.22-.51-.49-.51l-.24,0-.24,0a.28.28,0,0,1-.22-.1.29.29,0,0,1-.09-.22c0-.24.14-.36.44-.36h.13l.44.06a3.78,3.78,0,0,0,.56,0,4.8,4.8,0,0,0,.68-.05l.35,0h.13c.29,0,.43.12.43.35s-.13.33-.4.33h-.21c-.21,0-.34,0-.4.13a1.29,1.29,0,0,0-.11.56v4.2a2.15,2.15,0,0,1-.15,1,.56.56,0,0,1-.53.28c-.33,0-.6-.23-.83-.7l-2.6-5.38v4.59c0,.5.17.74.5.74h.48a.28.28,0,0,1,.32.31c0,.23-.15.34-.45.34H272l-.4-.06a5,5,0,0,0-.64,0,6.45,6.45,0,0,0-.66,0l-.48.06h-.15c-.29,0-.43-.12-.43-.35s.11-.3.32-.3l.27,0,.2,0c.34,0,.51-.24.51-.74v-4c0-.5-.17-.74-.51-.74a.83.83,0,0,0-.2,0l-.27,0a.29.29,0,0,1-.32-.33c0-.23.14-.35.43-.35h.16a6.18,6.18,0,0,0,.76,0l.44,0,.44,0a.41.41,0,0,1,.41.21Z"/>
        <path class="cls-8" d="M281.87,108.18c0-.49-.17-.73-.51-.73a.53.53,0,0,0-.2,0l-.27,0a.27.27,0,0,1-.22-.1.32.32,0,0,1-.09-.23c0-.23.15-.35.44-.35h.14l.52.07a4.08,4.08,0,0,0,.61,0,4.19,4.19,0,0,0,.68,0l.44-.06h.14c.29,0,.43.12.43.35a.32.32,0,0,1-.09.23.25.25,0,0,1-.21.1l-.27,0a.62.62,0,0,0-.21,0c-.33,0-.5.24-.5.73v4c0,.5.17.74.5.74h.21l.27,0c.2,0,.3.1.3.31s-.14.36-.43.36h-.14l-.51-.08a3.31,3.31,0,0,0-.55,0,5.5,5.5,0,0,0-.74.05l-.45.07H281c-.29,0-.43-.12-.43-.36a.28.28,0,0,1,.31-.31l.27,0a.71.71,0,0,0,.2,0c.34,0,.51-.24.51-.74Z"/>
        <path class="cls-8" d="M290.9,107.27l2.65,5.53v-4c0-.51,0-.8,0-.85-.06-.34-.22-.51-.49-.51l-.24,0-.24,0a.28.28,0,0,1-.22-.1.29.29,0,0,1-.09-.22c0-.24.15-.36.44-.36h.13l.45.06a3.56,3.56,0,0,0,.55,0,4.8,4.8,0,0,0,.68-.05l.35,0H295c.28,0,.42.12.42.35s-.13.33-.4.33h-.21c-.2,0-.33,0-.39.13a1.12,1.12,0,0,0-.12.56v4.2a2.15,2.15,0,0,1-.15,1,.56.56,0,0,1-.53.28c-.33,0-.6-.23-.83-.7l-2.6-5.38v4.59c0,.5.17.74.51.74h.47a.28.28,0,0,1,.32.31c0,.23-.15.34-.45.34h-.13l-.4-.06a5,5,0,0,0-.63,0,6.42,6.42,0,0,0-.67,0l-.48.06h-.15c-.28,0-.42-.12-.42-.35s.1-.3.31-.3l.27,0,.21,0c.33,0,.5-.24.5-.74v-4c0-.5-.17-.74-.51-.74a.83.83,0,0,0-.2,0l-.27,0c-.21,0-.31-.11-.31-.33s.14-.35.42-.35h.16a6.29,6.29,0,0,0,.76,0l.44,0,.45,0a.4.4,0,0,1,.4.21Z"/>
        <path class="cls-8" d="M302.37,106.65a2.54,2.54,0,0,1,1.8.74l0-.16c0-.13,0-.2,0-.22a.29.29,0,0,1,.33-.32c.24,0,.35.14.35.42a1.22,1.22,0,0,1,0,.21l-.07.47a3.19,3.19,0,0,0,0,.45c0,.12,0,.39,0,.8v.09c0,.29-.13.44-.37.44s-.35-.16-.35-.48v-.3a1.41,1.41,0,0,0-.44-1.08,1.8,1.8,0,0,0-1.21-.39,1.76,1.76,0,0,0-1.5.74,3.39,3.39,0,0,0-.54,2,3.61,3.61,0,0,0,.55,2.14,1.8,1.8,0,0,0,1.55.77,1.56,1.56,0,0,0,1.18-.44,1.83,1.83,0,0,0,.41-1.27.74.74,0,0,0-.11-.48.51.51,0,0,0-.4-.13H303c-.31,0-.47-.11-.47-.34s.14-.34.41-.34l.28,0a7.43,7.43,0,0,0,1,.09,6.33,6.33,0,0,0,1-.09,1.14,1.14,0,0,1,.27,0c.26,0,.39.11.39.32a.3.3,0,0,1-.1.24.33.33,0,0,1-.24.1h-.33c-.29,0-.44.32-.44,1v.79c0,.17,0,.32,0,.46a2.14,2.14,0,0,1,0,.32c0,.27-.12.41-.35.41a.31.31,0,0,1-.35-.35l0-.24c0-.06,0-.16,0-.3a4.18,4.18,0,0,1-.35.42,2.35,2.35,0,0,1-1.6.52,2.53,2.53,0,0,1-2.05-1,3.8,3.8,0,0,1-.78-2.48,4,4,0,0,1,.8-2.62A2.59,2.59,0,0,1,302.37,106.65Z"/>
        <path class="cls-8" d="M319.66,112.15c0,.5.17.74.51.74a1.11,1.11,0,0,0,.23,0,1.25,1.25,0,0,1,.24,0,.29.29,0,0,1,.22.09.28.28,0,0,1,.1.22c0,.23-.15.35-.45.35h-.13l-.48-.07a3.87,3.87,0,0,0-.62,0,4.33,4.33,0,0,0-.66,0l-.5.07H318c-.29,0-.43-.12-.43-.35a.27.27,0,0,1,.31-.31,1.15,1.15,0,0,1,.24,0,1.25,1.25,0,0,0,.24,0c.33,0,.49-.24.49-.74v-4a.63.63,0,0,0-.72-.7h-.31a.62.62,0,0,0-.71.69c0,.16,0,.28,0,.34l0,.36a1.7,1.7,0,0,1,0,.25c0,.41-.13.62-.38.62s-.37-.15-.37-.45c0-.09,0-.24,0-.45s0-.52,0-.6,0-.34,0-.52c0-.34,0-.49,0-.44,0-.28.13-.42.38-.42l.64,0,.81,0h2.18l.64,0,.63,0c.33,0,.49.14.49.41v0a3.1,3.1,0,0,1,0,.37c0,.17,0,.36,0,.57v.11c0,.1,0,.25,0,.46s0,.45,0,.52c0,.27-.12.4-.38.4s-.38-.16-.38-.49q0-.18,0-.54c0-.23,0-.41,0-.53,0-.45-.26-.68-.78-.68h-.28a.75.75,0,0,0-.52.15.81.81,0,0,0-.18.51l0,.69Z"/>
        <path class="cls-8" d="M329.45,113.68a2.53,2.53,0,0,1-2.08-1,4,4,0,0,1-.77-2.57,4,4,0,0,1,.77-2.58,2.63,2.63,0,0,1,2.13-.93,2.55,2.55,0,0,1,2.06.91,3.68,3.68,0,0,1,.77,2.46,4.2,4.2,0,0,1-.78,2.67A2.53,2.53,0,0,1,329.45,113.68Zm0-6.32a1.7,1.7,0,0,0-1.47.73,3.48,3.48,0,0,0-.53,2.06,3.55,3.55,0,0,0,.53,2.08,1.8,1.8,0,0,0,2.92,0,3.56,3.56,0,0,0,.54-2.08,3.38,3.38,0,0,0-.52-2A1.69,1.69,0,0,0,329.47,107.36Z"/>
        <path class="cls-8" d="M339.72,113.68a2.55,2.55,0,0,1-2.08-1,4,4,0,0,1-.76-2.57,3.89,3.89,0,0,1,.77-2.58,2.6,2.6,0,0,1,2.12-.93,2.53,2.53,0,0,1,2.06.91,3.68,3.68,0,0,1,.77,2.46,4.2,4.2,0,0,1-.78,2.67A2.51,2.51,0,0,1,339.72,113.68Zm0-6.32a1.7,1.7,0,0,0-1.47.73,3.49,3.49,0,0,0-.52,2.06,3.55,3.55,0,0,0,.52,2.08,1.8,1.8,0,0,0,2.92,0,3.56,3.56,0,0,0,.54-2.08,3.45,3.45,0,0,0-.51-2A1.72,1.72,0,0,0,339.74,107.36Z"/>
        <path class="cls-8" d="M349.09,112c0,.39,0,.62.11.69a.45.45,0,0,0,.24.11c.09,0,.31,0,.64,0H351a1.57,1.57,0,0,0,.91-.18.9.9,0,0,0,.23-.73c0-.1,0-.21,0-.34s0-.41,0-.46c0-.29.12-.43.35-.43a.36.36,0,0,1,.41.4.92.92,0,0,1,0,.18l-.07.51a3.19,3.19,0,0,0,0,.45,4.1,4.1,0,0,0,0,.41c0,.18,0,.32,0,.41,0,.3-.16.45-.5.45l-.46,0-.73,0h-2.32c-.16,0-.42,0-.79,0h-.27l-.31,0c-.27,0-.41-.12-.41-.36a.27.27,0,0,1,.31-.31l.23,0a1.25,1.25,0,0,0,.24,0c.34,0,.5-.24.5-.74v-4c0-.49-.16-.73-.5-.73a.62.62,0,0,0-.21,0l-.26,0a.27.27,0,0,1-.22-.1.32.32,0,0,1-.09-.23c0-.23.14-.35.42-.35h.15l.53.06a4.72,4.72,0,0,0,.64,0,3.94,3.94,0,0,0,.63,0l.46-.06h.13c.29,0,.44.12.44.35a.32.32,0,0,1-.09.23.27.27,0,0,1-.22.1l-.26,0a.62.62,0,0,0-.21,0c-.34,0-.5.24-.5.72Z"/>
        <path class="cls-8" d="M359.9,106.65a2.09,2.09,0,0,1,1.58.62v-.14c0-.26.1-.38.31-.38s.34.14.34.42v.06s0,.11,0,.3a6.12,6.12,0,0,0,0,.66,2.83,2.83,0,0,0,0,.32l0,.39s0,.08,0,.14c0,.32-.13.47-.37.47a.34.34,0,0,1-.39-.39v-.05l0-.27a1.86,1.86,0,0,0,0-.22,1.12,1.12,0,0,0-.4-.92,1.61,1.61,0,0,0-1.1-.34,1.49,1.49,0,0,0-1,.32,1,1,0,0,0-.38.85,1,1,0,0,0,.56.91,3.86,3.86,0,0,0,1.11.29,3.93,3.93,0,0,1,1.61.52,1.61,1.61,0,0,1,.65,1.37,1.92,1.92,0,0,1-.66,1.51,2.54,2.54,0,0,1-1.73.59,2.56,2.56,0,0,1-1.86-.72v.15a.8.8,0,0,1,0,.21.32.32,0,0,1-.36.36c-.27,0-.4-.14-.4-.42a.11.11,0,0,1,0-.08l0-.51a5,5,0,0,0,0-.5,4.28,4.28,0,0,0-.06-.59c0-.26-.05-.46-.05-.59,0-.3.12-.45.37-.45s.39.15.39.45v.41a1.55,1.55,0,0,0,.47,1.18A1.85,1.85,0,0,0,360,113a1.91,1.91,0,0,0,1.19-.35,1.19,1.19,0,0,0,.44-1c0-.63-.39-1-1.18-1.15l-.57-.1a6.43,6.43,0,0,1-1.3-.34,1.5,1.5,0,0,1-.68-.59,1.66,1.66,0,0,1-.25-.91,1.77,1.77,0,0,1,.63-1.41A2.44,2.44,0,0,1,359.9,106.65Z"/>
      </g>
      <g>
        <path class="cls-8" d="M145.11,106.65a2.21,2.21,0,0,1,1.79.84v-.23s0-.06,0-.07a1.45,1.45,0,0,0,0-.2c0-.23.1-.34.31-.34s.32.14.32.41c0,0,0,.21,0,.48a6.63,6.63,0,0,0-.06.68,3.27,3.27,0,0,0,0,.54l0,.38v.1c0,.29-.12.44-.35.44s-.39-.14-.38-.42v-.35a1.46,1.46,0,0,0-.44-1.15,1.72,1.72,0,0,0-1.22-.44,1.77,1.77,0,0,0-1.52.75,4.17,4.17,0,0,0,0,4.19,1.88,1.88,0,0,0,1.59.75,1.92,1.92,0,0,0,1-.26,1.46,1.46,0,0,0,.62-.71,2,2,0,0,0,.12-.77c0-.3.12-.45.37-.45s.41.15.41.45A2.22,2.22,0,0,1,147,113a2.92,2.92,0,0,1-4-.26,3.75,3.75,0,0,1-.8-2.5,4,4,0,0,1,.82-2.6A2.64,2.64,0,0,1,145.11,106.65Z"/>
        <path class="cls-8" d="M154.18,112a1.24,1.24,0,0,0,.11.69.45.45,0,0,0,.24.11c.09,0,.31,0,.64,0H156a1.57,1.57,0,0,0,.91-.18.9.9,0,0,0,.23-.73c0-.1,0-.21,0-.34s0-.41,0-.46c0-.29.12-.43.35-.43a.36.36,0,0,1,.41.4.92.92,0,0,1,0,.18l-.07.51a3.19,3.19,0,0,0,0,.45,4.1,4.1,0,0,0,0,.41,3.51,3.51,0,0,1,0,.41c0,.3-.16.45-.5.45l-.46,0-.73,0h-2.32c-.16,0-.42,0-.79,0h-.27l-.3,0q-.42,0-.42-.36a.27.27,0,0,1,.31-.31l.23,0a1.25,1.25,0,0,0,.24,0c.34,0,.51-.24.51-.74v-4c0-.49-.17-.73-.51-.73a.62.62,0,0,0-.21,0l-.26,0a.27.27,0,0,1-.22-.1.32.32,0,0,1-.09-.23c0-.23.14-.35.43-.35h.14l.53.06a4.72,4.72,0,0,0,.64,0,3.94,3.94,0,0,0,.63,0l.46-.06H155c.29,0,.44.12.44.35a.32.32,0,0,1-.09.23.27.27,0,0,1-.22.1l-.26,0a.62.62,0,0,0-.21,0c-.34,0-.5.24-.5.72Z"/>
        <path class="cls-8" d="M165.18,113.68a2.53,2.53,0,0,1-2.08-1,4,4,0,0,1-.77-2.57,4,4,0,0,1,.77-2.58,2.63,2.63,0,0,1,2.13-.93,2.55,2.55,0,0,1,2.06.91,3.68,3.68,0,0,1,.77,2.46,4.2,4.2,0,0,1-.78,2.67A2.53,2.53,0,0,1,165.18,113.68Zm0-6.32a1.7,1.7,0,0,0-1.47.73,3.48,3.48,0,0,0-.53,2.06,3.55,3.55,0,0,0,.53,2.08,1.8,1.8,0,0,0,2.92,0,3.56,3.56,0,0,0,.54-2.08,3.45,3.45,0,0,0-.52-2A1.69,1.69,0,0,0,165.2,107.36Z"/>
        <path class="cls-8" d="M175.26,106.65a2.12,2.12,0,0,1,1.59.62v-.14c0-.26.1-.38.3-.38s.34.14.34.42v.06l0,.3a6.12,6.12,0,0,0,0,.66,2.83,2.83,0,0,0,0,.32l0,.39s0,.08,0,.14c0,.32-.12.47-.37.47s-.38-.13-.38-.39v-.05l0-.27c0-.09,0-.16,0-.22a1.15,1.15,0,0,0-.4-.92,1.66,1.66,0,0,0-1.11-.34,1.49,1.49,0,0,0-1,.32,1.05,1.05,0,0,0-.38.85,1,1,0,0,0,.56.91,3.86,3.86,0,0,0,1.11.29,3.93,3.93,0,0,1,1.61.52,1.59,1.59,0,0,1,.65,1.37,1.92,1.92,0,0,1-.66,1.51,2.53,2.53,0,0,1-1.72.59,2.59,2.59,0,0,1-1.87-.72v.15a.8.8,0,0,1,0,.21.32.32,0,0,1-.36.36c-.27,0-.4-.14-.4-.42a.11.11,0,0,1,0-.08l.05-.51c0-.26,0-.42,0-.5s0-.33-.05-.59a4.28,4.28,0,0,1-.06-.59c0-.3.13-.45.38-.45s.38.15.38.45v.41a1.52,1.52,0,0,0,.48,1.18,1.8,1.8,0,0,0,1.28.43,1.89,1.89,0,0,0,1.19-.35,1.17,1.17,0,0,0,.44-1c0-.63-.39-1-1.18-1.15l-.57-.1a6.43,6.43,0,0,1-1.3-.34,1.55,1.55,0,0,1-.68-.59,1.66,1.66,0,0,1-.25-.91,1.77,1.77,0,0,1,.63-1.41A2.44,2.44,0,0,1,175.26,106.65Z"/>
        <path class="cls-8" d="M183.63,108.18c0-.49-.17-.73-.51-.73a.53.53,0,0,0-.2,0l-.27,0a.27.27,0,0,1-.22-.1.32.32,0,0,1-.09-.23c0-.23.14-.35.42-.35h.14l1.38.1h.1l2.38-.07.51,0h.28c.35,0,.52.16.52.46,0,0,0,.22,0,.5s0,.41,0,.59,0,.39,0,.48a2.82,2.82,0,0,1,0,.43c0,.25-.12.37-.35.37s-.36-.17-.36-.52v-.52c0-.55-.11-.88-.34-1a4.34,4.34,0,0,0-1.33-.11,6.14,6.14,0,0,0-.83,0,.54.54,0,0,0-.42.59v1c0,.26.06.41.17.45a.76.76,0,0,0,.24,0h.4c.41,0,.61-.14.61-.42,0-.08,0-.18,0-.31a2.14,2.14,0,0,1,0-.34c0-.26.12-.39.35-.39s.35.14.35.42c0,.06,0,.26-.06.62a6,6,0,0,0,0,.8c0,.13,0,.36,0,.7,0,0,0,.17,0,.35a2.61,2.61,0,0,1,0,.34c0,.24-.11.36-.35.36s-.35-.14-.35-.42a2.24,2.24,0,0,1,0-.31c0-.14,0-.25,0-.32,0-.28-.19-.43-.56-.43h-.45c-.19,0-.31,0-.35.1a1,1,0,0,0-.06.43v.61c0,.11,0,.25,0,.43s0,.36,0,.43c0,.27.06.43.16.5a1.23,1.23,0,0,0,.51.07h1.34a1.34,1.34,0,0,0,.81-.18.79.79,0,0,0,.21-.64c0-.1,0-.25,0-.44s0-.35,0-.44c0-.3.12-.45.35-.45s.37.15.37.45c0,.12,0,.3,0,.55s0,.42,0,.54,0,.23,0,.41,0,.32,0,.41c0,.31-.15.47-.45.47l-.35,0H187l-.77,0-1.46,0c-.62,0-1.22,0-1.81.06h-.15q-.42,0-.42-.36a.27.27,0,0,1,.31-.31l.27,0a.71.71,0,0,0,.2,0c.34,0,.51-.24.51-.74Z"/>
        <path class="cls-8" d="M194.08,108.18c0-.5-.17-.74-.51-.74a.71.71,0,0,0-.2,0l-.27,0a.28.28,0,0,1-.31-.32c0-.23.15-.35.45-.35h.13l.52.07a4.26,4.26,0,0,0,.63,0,5.25,5.25,0,0,0,.56,0l.64-.07.49,0a3.84,3.84,0,0,1,1.5.26,2.59,2.59,0,0,1,1.26,1.17,4,4,0,0,1,.46,1.93,4.11,4.11,0,0,1-.37,1.74,2.45,2.45,0,0,1-1,1.14,3.56,3.56,0,0,1-1.84.45l-.44,0-.68-.06c-.24,0-.48,0-.73,0a3.89,3.89,0,0,0-.53,0l-.47.07h-.15c-.29,0-.43-.12-.43-.35a.32.32,0,0,1,.09-.23.29.29,0,0,1,.22-.09l.27,0h.2c.34,0,.51-.24.51-.74Zm.83-.1v4.16a.52.52,0,0,0,.44.56,5.64,5.64,0,0,0,.83,0,2.13,2.13,0,0,0,1.72-.64,3.07,3.07,0,0,0,.65-2,3.2,3.2,0,0,0-.4-1.67,1.75,1.75,0,0,0-1.07-.88,3.58,3.58,0,0,0-1.05-.13,2.84,2.84,0,0,0-.95.09C195,107.63,194.91,107.8,194.91,108.08Z"/>
        <path class="cls-8" d="M213.2,106.65a2.21,2.21,0,0,1,1.79.84v-.23a.14.14,0,0,1,0-.07c0-.15,0-.21,0-.2,0-.23.1-.34.3-.34s.33.14.33.41c0,0,0,.21,0,.48a6.63,6.63,0,0,0-.06.68,4.89,4.89,0,0,0,0,.54l.05.38v.1c0,.29-.12.44-.36.44s-.38-.14-.37-.42v-.35a1.47,1.47,0,0,0-.45-1.15,1.68,1.68,0,0,0-1.21-.44,1.8,1.8,0,0,0-1.53.75,3.5,3.5,0,0,0-.55,2.08,3.46,3.46,0,0,0,.57,2.11,1.88,1.88,0,0,0,1.59.75,1.92,1.92,0,0,0,1-.26,1.51,1.51,0,0,0,.62-.71,2,2,0,0,0,.12-.77c0-.3.12-.45.37-.45s.41.15.41.45a2.25,2.25,0,0,1-.73,1.73,2.92,2.92,0,0,1-4-.26,3.75,3.75,0,0,1-.8-2.5,3.9,3.9,0,0,1,.82-2.6A2.64,2.64,0,0,1,213.2,106.65Z"/>
        <path class="cls-8" d="M225,112.34l-.35-1a.49.49,0,0,0-.13-.2.66.66,0,0,0-.26,0h-1.76a.44.44,0,0,0-.27.07,1.16,1.16,0,0,0-.19.38l-.29.76a.52.52,0,0,0,0,.21c0,.21.13.32.39.32l.28,0a1.53,1.53,0,0,1,.27,0c.27,0,.4.11.4.34s-.14.33-.44.33l-.22,0-.49-.06a2.77,2.77,0,0,0-.46,0,2.85,2.85,0,0,0-.48,0l-.42,0-.4,0q-.39,0-.39-.33c0-.23.13-.34.38-.34a.16.16,0,0,1,.12,0h.12a.46.46,0,0,0,.41-.21,2.46,2.46,0,0,0,.2-.47l1.84-5a.59.59,0,0,1,.62-.41.58.58,0,0,1,.6.41l1.77,4.9a2,2,0,0,0,.31.62.5.5,0,0,0,.39.15.29.29,0,0,0,.12,0l.28,0c.25,0,.38.1.38.32s-.13.35-.38.35l-.29,0a6.64,6.64,0,0,0-.93-.08c-.24,0-.64,0-1.18.08l-.32,0c-.26,0-.39-.11-.39-.34s.14-.33.43-.33a1.38,1.38,0,0,1,.26,0l.26,0q.33,0,.33-.27A1.73,1.73,0,0,0,225,112.34Zm-.71-2-.89-2.72-.91,2.72,0,.07q0,.09.15.09h1.57c.08,0,.12,0,.12-.08S224.31,110.36,224.3,110.32Z"/>
        <path class="cls-8" d="M232.49,112.14v-4c0-.49-.17-.73-.5-.73h-.21l-.27,0c-.21,0-.31-.11-.31-.33s.15-.35.43-.35h.15l.49.06a4.68,4.68,0,0,0,.59,0l.59,0c.54,0,1-.07,1.22-.07a5.55,5.55,0,0,1,1.09.1,1.74,1.74,0,0,1,1,.62,1.77,1.77,0,0,1,.37,1.14,1.69,1.69,0,0,1-.64,1.43,2.94,2.94,0,0,1-1.84.49h-1.11a.25.25,0,0,0-.2.06.44.44,0,0,0,0,.25v.19a8.62,8.62,0,0,0,.07,1.52c.05.18.19.26.43.26a.75.75,0,0,0,.21,0l.26,0a.27.27,0,0,1,.31.31c0,.24-.14.36-.43.36l-.14,0-.5-.07a4.57,4.57,0,0,0-.62,0,4.17,4.17,0,0,0-.56,0l-.58.08h-.12c-.3,0-.45-.12-.45-.35a.32.32,0,0,1,.09-.23.29.29,0,0,1,.22-.09l.26,0H232C232.32,112.88,232.49,112.64,232.49,112.14Zm.9-4.47a1.12,1.12,0,0,0-.07.54v1.46c0,.18.12.28.37.31h.58a5.37,5.37,0,0,0,1.16-.11,1.06,1.06,0,0,0,.88-1.16c0-.83-.53-1.25-1.6-1.25Q233.52,107.46,233.39,107.67Z"/>
        <path class="cls-8" d="M244.64,112.15c0,.5.16.74.5.74a1.25,1.25,0,0,0,.24,0,1.11,1.11,0,0,1,.23,0,.33.33,0,0,1,.23.09.31.31,0,0,1,.09.22c0,.23-.15.35-.44.35h-.13l-.49-.07a3.87,3.87,0,0,0-.62,0,4.33,4.33,0,0,0-.66,0l-.5.07H243c-.29,0-.44-.12-.44-.35a.28.28,0,0,1,.32-.31,1.11,1.11,0,0,1,.23,0,1.25,1.25,0,0,0,.24,0c.33,0,.5-.24.5-.74v-4c0-.47-.24-.7-.73-.7h-.3c-.48,0-.71.23-.71.69a2.84,2.84,0,0,0,0,.34l0,.36v.25c0,.41-.12.62-.38.62s-.37-.15-.37-.45c0-.09,0-.24,0-.45s0-.52,0-.6,0-.34,0-.52c0-.34,0-.49,0-.44,0-.28.13-.42.38-.42l.64,0,.81,0h2.18l.64,0,.63,0c.33,0,.5.14.5.41v0c0,.07,0,.19,0,.37s0,.36-.05.57v.11c0,.1,0,.25,0,.46s0,.45,0,.52a.35.35,0,0,1-.39.4c-.25,0-.37-.16-.37-.49q0-.18,0-.54c0-.23,0-.41,0-.53,0-.45-.27-.68-.79-.68h-.27a.76.76,0,0,0-.53.15.75.75,0,0,0-.17.51l0,.69Z"/>
        <path class="cls-8" d="M252.67,108.18c0-.49-.16-.73-.5-.73a.62.62,0,0,0-.21,0l-.27,0a.26.26,0,0,1-.21-.1.32.32,0,0,1-.09-.23c0-.23.14-.35.43-.35H252l.53.07a4,4,0,0,0,.61,0,4.07,4.07,0,0,0,.67,0l.45-.06h.13c.29,0,.44.12.44.35a.32.32,0,0,1-.09.23.27.27,0,0,1-.22.1l-.26,0a.62.62,0,0,0-.21,0c-.34,0-.51.24-.51.73v4c0,.5.17.74.51.74h.21l.26,0a.27.27,0,0,1,.31.31c0,.24-.15.36-.44.36h-.13l-.52-.08a3.12,3.12,0,0,0-.54,0,5.27,5.27,0,0,0-.74.05l-.46.07h-.15q-.42,0-.42-.36c0-.21.1-.31.3-.31l.27,0a.75.75,0,0,0,.21,0c.34,0,.5-.24.5-.74Z"/>
        <path class="cls-8" d="M262,113.68a2.53,2.53,0,0,1-2.08-1,4.69,4.69,0,0,1,0-5.15,2.61,2.61,0,0,1,2.13-.93,2.55,2.55,0,0,1,2.06.91,3.68,3.68,0,0,1,.76,2.46,4.26,4.26,0,0,1-.77,2.67A2.53,2.53,0,0,1,262,113.68Zm0-6.32a1.7,1.7,0,0,0-1.48.73,3.49,3.49,0,0,0-.52,2.06,3.55,3.55,0,0,0,.52,2.08A1.7,1.7,0,0,0,262,113a1.68,1.68,0,0,0,1.45-.76,3.56,3.56,0,0,0,.54-2.08,3.45,3.45,0,0,0-.51-2A1.69,1.69,0,0,0,262,107.36Z"/>
        <path class="cls-8" d="M272,107.27l2.65,5.53v-4c0-.51,0-.8,0-.85-.06-.34-.22-.51-.49-.51l-.24,0-.24,0a.28.28,0,0,1-.22-.1.29.29,0,0,1-.09-.22c0-.24.14-.36.44-.36h.13l.44.06a3.78,3.78,0,0,0,.56,0,4.8,4.8,0,0,0,.68-.05l.35,0h.13c.29,0,.43.12.43.35s-.13.33-.4.33h-.21c-.21,0-.34,0-.4.13a1.29,1.29,0,0,0-.11.56v4.2a2.15,2.15,0,0,1-.15,1,.56.56,0,0,1-.53.28c-.33,0-.6-.23-.83-.7l-2.6-5.38v4.59c0,.5.17.74.5.74h.48a.28.28,0,0,1,.32.31c0,.23-.15.34-.45.34H272l-.4-.06a5,5,0,0,0-.64,0,6.45,6.45,0,0,0-.66,0l-.48.06h-.15c-.29,0-.43-.12-.43-.35s.11-.3.32-.3l.27,0,.2,0c.34,0,.51-.24.51-.74v-4c0-.5-.17-.74-.51-.74a.83.83,0,0,0-.2,0l-.27,0a.29.29,0,0,1-.32-.33c0-.23.14-.35.43-.35h.16a6.18,6.18,0,0,0,.76,0l.44,0,.44,0a.41.41,0,0,1,.41.21Z"/>
        <path class="cls-8" d="M281.87,108.18c0-.49-.17-.73-.51-.73a.53.53,0,0,0-.2,0l-.27,0a.27.27,0,0,1-.22-.1.32.32,0,0,1-.09-.23c0-.23.15-.35.44-.35h.14l.52.07a4.08,4.08,0,0,0,.61,0,4.19,4.19,0,0,0,.68,0l.44-.06h.14c.29,0,.43.12.43.35a.32.32,0,0,1-.09.23.25.25,0,0,1-.21.1l-.27,0a.62.62,0,0,0-.21,0c-.33,0-.5.24-.5.73v4c0,.5.17.74.5.74h.21l.27,0c.2,0,.3.1.3.31s-.14.36-.43.36h-.14l-.51-.08a3.31,3.31,0,0,0-.55,0,5.5,5.5,0,0,0-.74.05l-.45.07H281c-.29,0-.43-.12-.43-.36a.28.28,0,0,1,.31-.31l.27,0a.71.71,0,0,0,.2,0c.34,0,.51-.24.51-.74Z"/>
        <path class="cls-8" d="M290.9,107.27l2.65,5.53v-4c0-.51,0-.8,0-.85-.06-.34-.22-.51-.49-.51l-.24,0-.24,0a.28.28,0,0,1-.22-.1.29.29,0,0,1-.09-.22c0-.24.15-.36.44-.36h.13l.45.06a3.56,3.56,0,0,0,.55,0,4.8,4.8,0,0,0,.68-.05l.35,0H295c.28,0,.42.12.42.35s-.13.33-.4.33h-.21c-.2,0-.33,0-.39.13a1.12,1.12,0,0,0-.12.56v4.2a2.15,2.15,0,0,1-.15,1,.56.56,0,0,1-.53.28c-.33,0-.6-.23-.83-.7l-2.6-5.38v4.59c0,.5.17.74.51.74h.47a.28.28,0,0,1,.32.31c0,.23-.15.34-.45.34h-.13l-.4-.06a5,5,0,0,0-.63,0,6.42,6.42,0,0,0-.67,0l-.48.06h-.15c-.28,0-.42-.12-.42-.35s.1-.3.31-.3l.27,0,.21,0c.33,0,.5-.24.5-.74v-4c0-.5-.17-.74-.51-.74a.83.83,0,0,0-.2,0l-.27,0c-.21,0-.31-.11-.31-.33s.14-.35.42-.35h.16a6.29,6.29,0,0,0,.76,0l.44,0,.45,0a.4.4,0,0,1,.4.21Z"/>
        <path class="cls-8" d="M302.37,106.65a2.54,2.54,0,0,1,1.8.74l0-.16c0-.13,0-.2,0-.22a.29.29,0,0,1,.33-.32c.24,0,.35.14.35.42a1.22,1.22,0,0,1,0,.21l-.07.47a3.19,3.19,0,0,0,0,.45c0,.12,0,.39,0,.8v.09c0,.29-.13.44-.37.44s-.35-.16-.35-.48v-.3a1.41,1.41,0,0,0-.44-1.08,1.8,1.8,0,0,0-1.21-.39,1.76,1.76,0,0,0-1.5.74,3.39,3.39,0,0,0-.54,2,3.61,3.61,0,0,0,.55,2.14,1.8,1.8,0,0,0,1.55.77,1.56,1.56,0,0,0,1.18-.44,1.83,1.83,0,0,0,.41-1.27.74.74,0,0,0-.11-.48.51.51,0,0,0-.4-.13H303c-.31,0-.47-.11-.47-.34s.14-.34.41-.34l.28,0a7.43,7.43,0,0,0,1,.09,6.33,6.33,0,0,0,1-.09,1.14,1.14,0,0,1,.27,0c.26,0,.39.11.39.32a.3.3,0,0,1-.1.24.33.33,0,0,1-.24.1h-.33c-.29,0-.44.32-.44,1v.79c0,.17,0,.32,0,.46a2.14,2.14,0,0,1,0,.32c0,.27-.12.41-.35.41a.31.31,0,0,1-.35-.35l0-.24c0-.06,0-.16,0-.3a4.18,4.18,0,0,1-.35.42,2.35,2.35,0,0,1-1.6.52,2.53,2.53,0,0,1-2.05-1,3.8,3.8,0,0,1-.78-2.48,4,4,0,0,1,.8-2.62A2.59,2.59,0,0,1,302.37,106.65Z"/>
        <path class="cls-8" d="M319.66,112.15c0,.5.17.74.51.74a1.11,1.11,0,0,0,.23,0,1.25,1.25,0,0,1,.24,0,.29.29,0,0,1,.22.09.28.28,0,0,1,.1.22c0,.23-.15.35-.45.35h-.13l-.48-.07a3.87,3.87,0,0,0-.62,0,4.33,4.33,0,0,0-.66,0l-.5.07H318c-.29,0-.43-.12-.43-.35a.27.27,0,0,1,.31-.31,1.15,1.15,0,0,1,.24,0,1.25,1.25,0,0,0,.24,0c.33,0,.49-.24.49-.74v-4a.63.63,0,0,0-.72-.7h-.31a.62.62,0,0,0-.71.69c0,.16,0,.28,0,.34l0,.36a1.7,1.7,0,0,1,0,.25c0,.41-.13.62-.38.62s-.37-.15-.37-.45c0-.09,0-.24,0-.45s0-.52,0-.6,0-.34,0-.52c0-.34,0-.49,0-.44,0-.28.13-.42.38-.42l.64,0,.81,0h2.18l.64,0,.63,0c.33,0,.49.14.49.41v0a3.1,3.1,0,0,1,0,.37c0,.17,0,.36,0,.57v.11c0,.1,0,.25,0,.46s0,.45,0,.52c0,.27-.12.4-.38.4s-.38-.16-.38-.49q0-.18,0-.54c0-.23,0-.41,0-.53,0-.45-.26-.68-.78-.68h-.28a.75.75,0,0,0-.52.15.81.81,0,0,0-.18.51l0,.69Z"/>
        <path class="cls-8" d="M329.45,113.68a2.53,2.53,0,0,1-2.08-1,4,4,0,0,1-.77-2.57,4,4,0,0,1,.77-2.58,2.63,2.63,0,0,1,2.13-.93,2.55,2.55,0,0,1,2.06.91,3.68,3.68,0,0,1,.77,2.46,4.2,4.2,0,0,1-.78,2.67A2.53,2.53,0,0,1,329.45,113.68Zm0-6.32a1.7,1.7,0,0,0-1.47.73,3.48,3.48,0,0,0-.53,2.06,3.55,3.55,0,0,0,.53,2.08,1.8,1.8,0,0,0,2.92,0,3.56,3.56,0,0,0,.54-2.08,3.38,3.38,0,0,0-.52-2A1.69,1.69,0,0,0,329.47,107.36Z"/>
        <path class="cls-8" d="M339.72,113.68a2.55,2.55,0,0,1-2.08-1,4,4,0,0,1-.76-2.57,3.89,3.89,0,0,1,.77-2.58,2.6,2.6,0,0,1,2.12-.93,2.53,2.53,0,0,1,2.06.91,3.68,3.68,0,0,1,.77,2.46,4.2,4.2,0,0,1-.78,2.67A2.51,2.51,0,0,1,339.72,113.68Zm0-6.32a1.7,1.7,0,0,0-1.47.73,3.49,3.49,0,0,0-.52,2.06,3.55,3.55,0,0,0,.52,2.08,1.8,1.8,0,0,0,2.92,0,3.56,3.56,0,0,0,.54-2.08,3.45,3.45,0,0,0-.51-2A1.72,1.72,0,0,0,339.74,107.36Z"/>
        <path class="cls-8" d="M349.09,112c0,.39,0,.62.11.69a.45.45,0,0,0,.24.11c.09,0,.31,0,.64,0H351a1.57,1.57,0,0,0,.91-.18.9.9,0,0,0,.23-.73c0-.1,0-.21,0-.34s0-.41,0-.46c0-.29.12-.43.35-.43a.36.36,0,0,1,.41.4.92.92,0,0,1,0,.18l-.07.51a3.19,3.19,0,0,0,0,.45,4.1,4.1,0,0,0,0,.41c0,.18,0,.32,0,.41,0,.3-.16.45-.5.45l-.46,0-.73,0h-2.32c-.16,0-.42,0-.79,0h-.27l-.31,0c-.27,0-.41-.12-.41-.36a.27.27,0,0,1,.31-.31l.23,0a1.25,1.25,0,0,0,.24,0c.34,0,.5-.24.5-.74v-4c0-.49-.16-.73-.5-.73a.62.62,0,0,0-.21,0l-.26,0a.27.27,0,0,1-.22-.1.32.32,0,0,1-.09-.23c0-.23.14-.35.42-.35h.15l.53.06a4.72,4.72,0,0,0,.64,0,3.94,3.94,0,0,0,.63,0l.46-.06h.13c.29,0,.44.12.44.35a.32.32,0,0,1-.09.23.27.27,0,0,1-.22.1l-.26,0a.62.62,0,0,0-.21,0c-.34,0-.5.24-.5.72Z"/>
        <path class="cls-8" d="M359.9,106.65a2.09,2.09,0,0,1,1.58.62v-.14c0-.26.1-.38.31-.38s.34.14.34.42v.06s0,.11,0,.3a6.12,6.12,0,0,0,0,.66,2.83,2.83,0,0,0,0,.32l0,.39s0,.08,0,.14c0,.32-.13.47-.37.47a.34.34,0,0,1-.39-.39v-.05l0-.27a1.86,1.86,0,0,0,0-.22,1.12,1.12,0,0,0-.4-.92,1.61,1.61,0,0,0-1.1-.34,1.49,1.49,0,0,0-1,.32,1,1,0,0,0-.38.85,1,1,0,0,0,.56.91,3.86,3.86,0,0,0,1.11.29,3.93,3.93,0,0,1,1.61.52,1.61,1.61,0,0,1,.65,1.37,1.92,1.92,0,0,1-.66,1.51,2.54,2.54,0,0,1-1.73.59,2.56,2.56,0,0,1-1.86-.72v.15a.8.8,0,0,1,0,.21.32.32,0,0,1-.36.36c-.27,0-.4-.14-.4-.42a.11.11,0,0,1,0-.08l0-.51a5,5,0,0,0,0-.5,4.28,4.28,0,0,0-.06-.59c0-.26-.05-.46-.05-.59,0-.3.12-.45.37-.45s.39.15.39.45v.41a1.55,1.55,0,0,0,.47,1.18A1.85,1.85,0,0,0,360,113a1.91,1.91,0,0,0,1.19-.35,1.19,1.19,0,0,0,.44-1c0-.63-.39-1-1.18-1.15l-.57-.1a6.43,6.43,0,0,1-1.3-.34,1.5,1.5,0,0,1-.68-.59,1.66,1.66,0,0,1-.25-.91,1.77,1.77,0,0,1,.63-1.41A2.44,2.44,0,0,1,359.9,106.65Z"/>
      </g>
    </g>
  </g>
</svg>
