<svg id="Layer_1" data-name="Layer 1" xmlns="http://www.w3.org/2000/svg" viewBox="0 0 245.74 312.54">
  <defs>
    <style>
      .cls-1 {
        fill: #5e5e5e;
      }

      .cls-2 {
        fill: #545454;
      }

      .cls-3, .cls-4 {
        fill: #484848;
      }

      .cls-4 {
        opacity: 0.65;
      }

      .cls-5, .cls-7 {
        fill: #fff;
      }

      .cls-5 {
        opacity: 0.64;
      }

      .cls-6 {
        opacity: 0.49;
      }

      .cls-7 {
        opacity: 0.47;
        font-size: 31.17px;
        font-family: AmericanTypewriter, American Typewriter;
      }

      .cls-8 {
        letter-spacing: -0.05em;
      }
    </style>
  </defs>
  <title>logo-hairy-bw</title>
  <g>
    <path class="cls-1" d="M72.46,274.49c-.66,0-1.28,0-1.88-.06a11.56,11.56,0,0,0,5-6.11l1.49-4.3-3.75,2.57c-3.63,2.49-8.83,3.92-14.27,3.92a30,30,0,0,1-3.16-.17,29.53,29.53,0,0,0,4.25-3l6-5.1-7.48,2.54a30.81,30.81,0,0,1-9.86,1.87,21.08,21.08,0,0,1-3-.21,16.25,16.25,0,0,0,8.07-3.68L59,258.32l-6.48,1.83a25.73,25.73,0,0,1-7,1.06,28.75,28.75,0,0,1-7.65-1.16,30.46,30.46,0,0,1-7.64-3.39,31.1,31.1,0,0,1-8.41-16.6,27.77,27.77,0,0,1-.45-4.2,19.55,19.55,0,0,0,.95,2.42,15.2,15.2,0,0,0,7.53,7.23,18.67,18.67,0,0,0,7.62,1.68A16.92,16.92,0,0,0,43.81,246a60.7,60.7,0,0,0,17.28-7.68A121.1,121.1,0,0,0,73,229.45a29.88,29.88,0,0,0-.84,3.8l-.52,3.37,2.83-1.89a22.79,22.79,0,0,0,8.8-10.3,19.35,19.35,0,0,0,.6,4.06l2,7.41,1-7.6c.7-5.36,2.49-8,5.14-10.45a12.17,12.17,0,0,1,2.86-2,8.85,8.85,0,0,0,8.38,5.43h.5l.4-.3a2.46,2.46,0,0,1,1.25-.32c1.17,0,2.43.8,3.65,2.33l.18.2a14.09,14.09,0,0,0,23.36-.75l.37-.57-.09-.29c.44-1.36,2.32-2,4-2a6.58,6.58,0,0,1,2.06.32l.8.28.65-.55a4.6,4.6,0,0,0,1.7-3.49,5.84,5.84,0,0,0-.79-2.9l.64-.09L139.36,211C131,203.7,126,193.63,126,184.11a27.58,27.58,0,0,1,2.44-12.57,5.6,5.6,0,0,0-.44-5.43c-1.78-2.62-5.62-3.49-7.1-3.49-2.31,0-3.82,1.18-5.28,2.3a10.1,10.1,0,0,1-6.56,2.64l-2.27.06.94,2.06c1.25,2.74,1.2,11.21-.09,14.86a14.71,14.71,0,0,1-2.27,4.26,15.33,15.33,0,0,0-1.12,1.71c-4.27-5-9.24-7.38-15.44-7.38a46,46,0,0,0-12.07,2.09,28.26,28.26,0,0,1-7.64,1.14A19.37,19.37,0,0,1,56.67,182c4.39-5.93,10.29-9.19,16.75-9.19a20.38,20.38,0,0,1,8.69,2l.09,0,.09,0a15.6,15.6,0,0,0,4.75.79c4.46,0,8.17-2.26,9.68-5.88a2,2,0,0,0-.18-1.85,2,2,0,0,0-1.63-.86c-4,0-6.65-2.36-9.71-5.08-3.47-3.08-7.41-6.57-14-7.21-1.77-.17-3.54-.26-5.26-.26-12.55,0-20.76,4.49-25,7.61a23.51,23.51,0,0,1,4.83-7.74l3.93-4.22L44.22,152a17.77,17.77,0,0,1-3.91.8c-.53.05-1.07.08-1.6.08a18,18,0,0,1-4-.46,21.17,21.17,0,0,0,7.2-6.6l2.38-3.52L40.2,143.5a13.89,13.89,0,0,1-2.69.52,11.81,11.81,0,0,1-1.18.06,13.53,13.53,0,0,1-2-.16,16.67,16.67,0,0,0,3-2.45L38.67,140l-1.75-.93A149.51,149.51,0,0,1,16.77,126.2,16.63,16.63,0,0,1,14.43,124a16.31,16.31,0,0,1-3.81-13.56,12.13,12.13,0,0,1,.59-2.28A16.23,16.23,0,0,1,24.42,97.34a17.57,17.57,0,0,1,2.17-.14l.94,0a16.1,16.1,0,0,1,8.85,3.28l.84.62.56.4,2.39,1.77v-.22a137.45,137.45,0,0,0,80.54,25.82,137.51,137.51,0,0,0,57.59-12.52,133.28,133.28,0,0,0,32.2-20.5,11.86,11.86,0,0,1,6.41-2.1c3,0,6.07,1.5,9,4.47a17.35,17.35,0,0,1,3.64,9.36c.18,4.33-2.86,11.75-11.9,19.56a115.39,115.39,0,0,1-16.56,12l-2.89,1.74,3.23,1a20.87,20.87,0,0,0,6.08.9,21.36,21.36,0,0,0,3.58-.3l-.23.28A17.8,17.8,0,0,1,197,149.32a18.36,18.36,0,0,1-2.22-.13l-7.41-.92,6.49,3.71a20.92,20.92,0,0,0,9.57,2.74,3.11,3.11,0,0,1-.28.23,17.84,17.84,0,0,1-6.33,3.26l-5.65,1.59,5.72,1.32a6.91,6.91,0,0,1,1.6.56A6.63,6.63,0,0,0,201.69,172a7.48,7.48,0,0,1-3.1,3l-.87.43.05,1c.1,2.13.1,4.56.1,7.39v.76a35.23,35.23,0,0,1-31.4,35.06l-5.4.59,4.94,2.26c1.32.6,2.63,1.28,4,2.07a13.24,13.24,0,0,1,3.88,3.79c1.69,2.69,2.61,5.3,2,10l-1,7.62,3.79-6.69a15.66,15.66,0,0,0,2.06-6.68l.11.17a19.69,19.69,0,0,1,2.76,7.09l1.39,6.86,1.61-7.11a23.5,23.5,0,0,0,18.18,8.35,30.86,30.86,0,0,0,8.3-1.21,17.47,17.47,0,0,0,12-10.88,31,31,0,0,1-.45,4.22,39.79,39.79,0,0,1-5.63,14.6,18.1,18.1,0,0,1-11.28,5.19,13.73,13.73,0,0,1-1.56.09h0A23.75,23.75,0,0,1,198,258.1l-4.61-1.67,2.88,4a15.42,15.42,0,0,0,9,6.27A24.66,24.66,0,0,1,202,267.9a52.71,52.71,0,0,1-14.37,2.1c-6,0-10.8-1.17-14-3.4l-3.75-2.6,1.48,4.32a11.58,11.58,0,0,0,5,6.11c-.58,0-1.19.05-1.83.05a46.49,46.49,0,0,1-5.43-.34c-3.28-1.33-5.93-3.42-9.83-7.72l-3.32-3.66.73,4.89a22,22,0,0,0,1,4,17.84,17.84,0,0,1-8-4.37c-2.05-1.81-3.49-4.08-5.28-8.37l-1.91-4.56-1,4.85a17.36,17.36,0,0,0-.15,6.08,38.08,38.08,0,0,1-10.78-8.43c-1.11-1.33-2.12-2.68-3.1-4.12a4.49,4.49,0,0,0-7.43,0,50.47,50.47,0,0,1-3.13,4.14c-4.45,5.29-12.57,10.12-22.6,13.52a29.4,29.4,0,0,0,2.36-8.82l.87-7.85-3.69,7c-4.18,7.92-8.39,10.84-13.83,13L79,274A50.75,50.75,0,0,1,72.46,274.49Zm-33.56-43a9.79,9.79,0,0,1-3.18-.54,8.53,8.53,0,0,1-5.22-5.13,9.11,9.11,0,0,1,.82-8.16l1.85-2.89.95-.48a11.31,11.31,0,0,1,4.78-.79,9,9,0,0,1,0,18Zm170.85-5.54a5.58,5.58,0,0,1-.7,0,5.89,5.89,0,0,1,.33-11.72h.12l.06,0h.25a8.76,8.76,0,0,1,4.06,1l.68.39.61,1.8a5.56,5.56,0,0,1,.21,1l0,.1,0,.1a5.74,5.74,0,0,1,.23,1.57A5.9,5.9,0,0,1,209.75,225.91Z"/>
    <path class="cls-2" d="M216.91,95.27h0c2.63,0,5.3,1.35,7.92,4a16.06,16.06,0,0,1,3.22,8.38c.06,1.38-.23,8.73-11.38,18.37a114.29,114.29,0,0,1-16.35,11.86l-5.8,3.48,6.47,2a22.11,22.11,0,0,0,6.2,1A16.3,16.3,0,0,1,197,147.82a17.15,17.15,0,0,1-2-.12l-14.83-1.83,13,7.41a22.44,22.44,0,0,0,6.14,2.39,16.43,16.43,0,0,1-2.83,1.1l-11.31,3.17,11.16,2.57a8.12,8.12,0,0,0,3.09,10.08,6,6,0,0,1-1.47,1.06l-1.73.88.09,1.93c.1,2.09.1,4.5.1,7.3v.78a33.75,33.75,0,0,1-30.06,33.57l-10.82,1.19,9.9,4.52c1.26.57,2.51,1.21,3.82,2a11.69,11.69,0,0,1,3.42,3.33c1.55,2.47,2.34,4.74,1.78,9l-2,15.25L180,240a18.2,18.2,0,0,0,1.34-2.92,22.51,22.51,0,0,1,.82,3.05l2.77,13.74,2.55-11.23a24.75,24.75,0,0,0,17.33,6.8,32.69,32.69,0,0,0,8.71-1.26,20,20,0,0,0,9-5.33,37.13,37.13,0,0,1-4.65,10.84,16.48,16.48,0,0,1-10.29,4.68,13.1,13.1,0,0,1-1.39.08,22.65,22.65,0,0,1-7.66-1.75l-9.23-3.34,5.78,7.93a18.28,18.28,0,0,0,5.92,5.34,51,51,0,0,1-13.37,1.88c-5.56,0-10.24-1.11-13.16-3.14l-7.51-5.19,3,8.63a13.06,13.06,0,0,0,2.35,4.12c-.91-.06-1.86-.14-2.84-.25-2.95-1.22-5.35-3.14-9.09-7.26l-6.64-7.32,1.46,9.78c.07.5.16,1,.26,1.48a17.89,17.89,0,0,1-4.82-3.19c-1.9-1.66-3.18-3.71-4.9-7.82l-3.81-9.12-1.9,9.7a20.71,20.71,0,0,0-.38,3.62,33.22,33.22,0,0,1-7.93-6.64c-1.07-1.29-2.06-2.6-3-4a6,6,0,0,0-9.91,0,48.12,48.12,0,0,1-3,4c-3.82,4.55-10.52,8.77-18.89,12a32.1,32.1,0,0,0,1.29-6.15L99.82,246l-7.37,14c-4,7.55-7.81,10.22-13.06,12.29-.24.1-.5.19-.74.27-1.4.18-2.74.31-4,.37A12.76,12.76,0,0,0,77,268.81l3-8.61-7.51,5.16a24,24,0,0,1-12,3.61l.62-.51,12-10.21-15,5.08a41.34,41.34,0,0,1-4.07,1.16c.26-.2.52-.41.77-.63L65.08,255l-12.94,3.67a24.08,24.08,0,0,1-6.65,1,27.14,27.14,0,0,1-7.26-1.11,28.46,28.46,0,0,1-7.09-3.14,29,29,0,0,1-7-12.06,17,17,0,0,0,5.09,3.47,20,20,0,0,0,8.23,1.82,18.37,18.37,0,0,0,6.84-1.31,62.42,62.42,0,0,0,17.61-7.84,102,102,0,0,0,8.7-6.26l-1,6.47L75.25,236A24.83,24.83,0,0,0,82.42,229l3.84,14.67,2-15.21c.64-4.93,2.2-7.23,4.68-9.55a9.7,9.7,0,0,1,1.21-1,10.49,10.49,0,0,0,9,4.83h1l.8-.6.35,0c.68,0,1.58.64,2.48,1.76a2.36,2.36,0,0,0,.2.23,15.58,15.58,0,0,0,25.78-.91l.21-.33.1-.14v0l.4-.64-.09-.33a3.64,3.64,0,0,1,2.36-.69,5,5,0,0,1,1.58.25l1.61.54,1.29-1.1a6.11,6.11,0,0,0,2.23-4.61,7.51,7.51,0,0,0-.15-1.48l2.29-.21-5.23-4.59c-8-7.06-12.85-16.7-12.85-25.8,0-5.35.47-7.26,2.34-12a7.16,7.16,0,0,0-.6-6.82c-2.06-3-6.21-4.14-8.34-4.14h-.06c-2.77,0-4.64,1.46-6.14,2.61a8.64,8.64,0,0,1-5.68,2.33l-4.54.11,1.89,4.14c1.09,2.39,1,10.47-.14,13.73a13.35,13.35,0,0,1-2.08,3.88l-.11.16a20.5,20.5,0,0,0-15.23-6.45,47.64,47.64,0,0,0-12.47,2.14,27,27,0,0,1-7.24,1.09,17.82,17.82,0,0,1-10.3-3.16c4-4.79,9.09-7.4,14.62-7.4a19,19,0,0,1,8,1.86l.18.08.18.06a16.74,16.74,0,0,0,5.21.87c5.08,0,9.32-2.61,11.06-6.81a3.44,3.44,0,0,0-3.19-4.78c-3.43,0-5.76-2.08-8.72-4.7-3.46-3.07-7.77-6.9-14.89-7.59-1.82-.17-3.64-.26-5.4-.26A44.6,44.6,0,0,0,44.83,158a21.62,21.62,0,0,1,2-2.54L54.73,147l-11,3.53a16.66,16.66,0,0,1-3.58.74c-.44,0-.89.06-1.33.06a22.27,22.27,0,0,0,4.27-4.71l4.75-7-8.11,2.48a10.86,10.86,0,0,1-1.25.31l2.61-2.72-3.49-1.87a147.12,147.12,0,0,1-20-12.77,15.38,15.38,0,0,1-2.13-2,14.82,14.82,0,0,1-3.44-12.33,9.86,9.86,0,0,1,.51-2,14.76,14.76,0,0,1,12-9.88,14.59,14.59,0,0,1,2-.13c.29,0,.57,0,.85,0a14.58,14.58,0,0,1,8,3l.88.64q.27.18.54.39l4.78,3.53V106a138.89,138.89,0,0,0,79,24.44,138.9,138.9,0,0,0,58.2-12.65A135,135,0,0,0,211.4,97.07a10.35,10.35,0,0,1,5.51-1.8M38.9,215a7.5,7.5,0,0,1,0,15,8.56,8.56,0,0,1-2.7-.46,7,7,0,0,1-4.29-4.22,7.67,7.67,0,0,1,.67-6.85l1.63-2.54.55-.27A9.94,9.94,0,0,1,38.9,215m170.91.67a7.2,7.2,0,0,1,3.3.74l0,0h0l.14.09.42,1.25a3.76,3.76,0,0,1,.16.71l0,.2.06.2a4.35,4.35,0,0,1-4.22,5.56,4.71,4.71,0,0,1-.53,0,4.44,4.44,0,0,1-3.83-3.78,4.38,4.38,0,0,1,4.08-4.95h.34m7.1-123.36a13.46,13.46,0,0,0-7.31,2.39A131.59,131.59,0,0,1,177.68,115a136.54,136.54,0,0,1-57,12.39,136.61,136.61,0,0,1-82-27.27v.19c-.46-.34-.93-.66-1.38-1a17.55,17.55,0,0,0-9.68-3.58q-.51,0-1,0a16.91,16.91,0,0,0-2.36.16A17.76,17.76,0,0,0,9.8,107.68a14.05,14.05,0,0,0-.66,2.55A17.9,17.9,0,0,0,13.31,125a17.42,17.42,0,0,0,2.55,2.37,150.23,150.23,0,0,0,20.35,13,14.55,14.55,0,0,1-6,3.79,14.59,14.59,0,0,0,6.14,1.36c.44,0,.87,0,1.31-.06a15.47,15.47,0,0,0,3-.59,19.43,19.43,0,0,1-10.06,7.6,19.3,19.3,0,0,0,8.13,1.8c.57,0,1.15,0,1.73-.08a19.57,19.57,0,0,0,4.24-.87c-4.78,5.12-6.36,11-6,12.7,0,0,8.78-10.05,27.17-10.05,1.63,0,3.33.08,5.11.25,11.93,1.15,14.48,12.29,23.9,12.3a.45.45,0,0,1,.42.63c-1.17,2.83-4.2,5-8.29,5a14,14,0,0,1-4.28-.72,21.77,21.77,0,0,0-9.34-2.15c-6.71,0-13.61,3.27-18.78,11a21.19,21.19,0,0,0,14.46,5.6,29.82,29.82,0,0,0,8.05-1.2,44.14,44.14,0,0,1,11.66-2c5.82,0,11.12,2.2,15.92,9,.78-3.71,2.62-3.72,4.33-8.54,1.38-3.91,1.51-12.75,0-16,6.63-.16,7.76-4.91,11.77-4.94h0c1.89,0,8.14,1.77,6.14,6.87a29.13,29.13,0,0,0-2.54,13.12c0,11,6.18,21.31,13.87,28h0c2.11,1.91,2.94,4.63.91,6.35a8.23,8.23,0,0,0-2.54-.4c-2.57,0-5.11,1.16-5.51,3.52h0v0a12.59,12.59,0,0,1-20.94.58l-.16-.17c-1.84-2.31-3.56-2.89-4.82-2.89a3.88,3.88,0,0,0-2.15.62,7.19,7.19,0,0,1-7.39-6,15.49,15.49,0,0,0-4.87,3c-3,2.83-4.88,5.78-5.61,11.36a14.86,14.86,0,0,1,.56-9.79,17.68,17.68,0,0,0-1.37,1.17c-3,2.83-2.44,8.39-10.87,14a21.24,21.24,0,0,1,3.89-9.84c-1.11,1-1.85,1.68-2.18,2a156.65,156.65,0,0,1-15,11.42,59.41,59.41,0,0,1-16.94,7.51,15.5,15.5,0,0,1-5.91,1.17,17.26,17.26,0,0,1-7-1.55,13.6,13.6,0,0,1-6.78-6.51,15.93,15.93,0,0,1,6.41-20.82,10.58,10.58,0,0,0-1,9.48,10,10,0,0,0,6.15,6,11.39,11.39,0,0,0,3.66.62,10.5,10.5,0,0,0,0-21,13.75,13.75,0,0,0-5.43.94c-9.17,4.35-15.54,14.4-13.16,27.43a32.71,32.71,0,0,0,9,17.52,32.1,32.1,0,0,0,8.17,3.64,29.91,29.91,0,0,0,8.05,1.22A26.87,26.87,0,0,0,53,261.59a15.33,15.33,0,0,1-10.09,3.56,18.41,18.41,0,0,1-5.23-.77c1.76,1.09,3.49,2,5.09,2.9a22.84,22.84,0,0,0,6.12.84,32,32,0,0,0,10.35-1.95A27.39,27.39,0,0,1,51.12,271a30.76,30.76,0,0,0,8,1c5.77,0,11.3-1.56,15.11-4.18a9.69,9.69,0,0,1-8.7,6.56,8,8,0,0,1-1.6-.17c1.73,1.2,4.77,1.77,8.58,1.77a52.26,52.26,0,0,0,6.86-.5c.39-.13.78-.26,1.17-.42,6-2.37,10.38-5.67,14.61-13.68a26.24,26.24,0,0,1-4,11.55c10.47-3.07,21.13-8.3,26.86-15.12a51.86,51.86,0,0,0,3.22-4.26,3,3,0,0,1,5,0,51.18,51.18,0,0,0,3.19,4.25c3.39,4.08,8.55,7.6,14.36,10.42a14.39,14.39,0,0,1-.8-8.75c1.74,4.16,3.24,6.78,5.67,8.92a19.63,19.63,0,0,0,11.48,5.22,19.84,19.84,0,0,1-2-6.2c3.77,4.16,6.63,6.6,10.37,8.1l.2.08a50.9,50.9,0,0,0,5.8.37c3.77,0,6.77-.56,8.48-1.76a7.81,7.81,0,0,1-1.59.17c-3.77,0-7.36-2.88-8.62-6.56,3.71,2.57,9.09,3.67,14.87,3.67a54,54,0,0,0,14.79-2.16,30.17,30.17,0,0,0,8.81-4.34,11.59,11.59,0,0,1-3.21.47l-.58,0c-3.92-.2-7.39-2.44-9.93-5.94a25.29,25.29,0,0,0,8.68,1.93,14.46,14.46,0,0,0,1.73-.1,19.65,19.65,0,0,0,12.27-5.71,40.91,40.91,0,0,0,5.94-15.3c2.22-12.25-3.2-21.94-11.46-26.55a10.18,10.18,0,0,0-4.82-1.15h-.47l-.05,0a7.38,7.38,0,0,0-.41,14.7,6.35,6.35,0,0,0,.87,0,7.39,7.39,0,0,0,7.39-7.39,7.63,7.63,0,0,0-.28-2,7.32,7.32,0,0,0-.28-1.25,16.1,16.1,0,0,1,7.54,16.79c-1.09,5.71-5.86,10.14-11.42,11.7a29.23,29.23,0,0,1-7.9,1.15A22.24,22.24,0,0,1,186.49,237c-.33-.45-.69-.92-1.07-1.39a14,14,0,0,1-.33,3.91,20.91,20.91,0,0,0-3-7.61,23.92,23.92,0,0,0-3.56-4.19c-.06-.06-.12-.1-.17-.16a10.69,10.69,0,0,1,.51,1.37,12.63,12.63,0,0,1-1.52,9.57c.65-4.95-.26-7.89-2.21-11a14.83,14.83,0,0,0-4.34-4.26c-1.34-.77-2.73-1.5-4.19-2.16a36.83,36.83,0,0,0,32.73-36.55c0-3.19,0-5.87-.1-8.22a9,9,0,0,0,4.55-5.47h-.09a5.11,5.11,0,0,1-2.8-9.39,9,9,0,0,0-3.68-1.82,19.26,19.26,0,0,0,6.86-3.53,19.69,19.69,0,0,0,3.09-3.1,20.53,20.53,0,0,1-2.93.22,19.49,19.49,0,0,1-9.65-2.56,21.46,21.46,0,0,0,2.4.14,19.31,19.31,0,0,0,15-7.09,19.73,19.73,0,0,0,2.38-3.68,19.58,19.58,0,0,1-6.89,1.25,19.37,19.37,0,0,1-5.64-.84,117.4,117.4,0,0,0,16.76-12.16c10-8.64,12.6-16.45,12.42-20.76A18.75,18.75,0,0,0,227,97.18c-3.51-3.56-6.93-4.91-10.06-4.91Z"/>
  </g>
  <path class="cls-3" d="M206.73,96.92c-.38.34-.76.68-1.15,1,1.33-1.05,2.65-2.11,3.94-3.21A21.62,21.62,0,0,0,206.73,96.92Z"/>
  <g>
    <path class="cls-1" d="M124,124.69A129.75,129.75,0,0,1,40.17,93.91V82.75c0-8,1.43-28.67,14.7-46.22C68.87,18,91.47,8.61,122.05,8.61c54.33,0,81.88,27.54,81.88,81.87V97a135.93,135.93,0,0,1-26.88,16.32A128.48,128.48,0,0,1,124,124.69Z"/>
    <path class="cls-2" d="M122.05,10.11c32.63,0,55.64,10.2,68.39,30.33,8.06,12.74,12,29.1,12,50v5.81a134.73,134.73,0,0,1-26,15.68A127.14,127.14,0,0,1,124,123.19a128.23,128.23,0,0,1-82.32-30V82.75c0-7.9,1.4-28.13,14.39-45.32C69.77,19.3,92,10.11,122.05,10.11m0-3c-71.17,0-83.38,50.83-83.38,75.64V94.6A130.74,130.74,0,0,0,124,126.19a130.5,130.5,0,0,0,53.69-11.49,137.19,137.19,0,0,0,27.74-17V90.48c0-26.56-5.41-83.37-83.37-83.37Z"/>
  </g>
  <path class="cls-3" d="M205.58,97.93l-.16.12v0A1.07,1.07,0,0,0,205.58,97.93Z"/>
  <path class="cls-4" d="M209.79,272a3.48,3.48,0,1,0,3.47,3.48A3.48,3.48,0,0,0,209.79,272Z"/>
  <path class="cls-4" d="M213.2,234.57a3.48,3.48,0,0,0-6.83,0,3.52,3.52,0,0,0-.06.66,3.48,3.48,0,1,0,6.95,0A3.52,3.52,0,0,0,213.2,234.57Z"/>
  <path class="cls-4" d="M213.78,165.82a4,4,0,0,0-4-4,3.66,3.66,0,0,0-.88.11,3.7,3.7,0,0,0-.66-.07H204a4,4,0,0,0,0,8h1.85v2.43a4,4,0,1,0,7.95,0Z"/>
  <circle class="cls-4" cx="209.79" cy="182.09" r="3.48"/>
  <path class="cls-4" d="M213.24,192.06a3.46,3.46,0,0,0-6.91,0c0,.08,0,.15,0,.23a3.48,3.48,0,0,0,6.95,0C213.26,192.21,213.24,192.14,213.24,192.06Z"/>
  <path class="cls-4" d="M213.21,202.11a3.46,3.46,0,0,0-6.85,0,3,3,0,0,0-.05.52,3.48,3.48,0,1,0,6.95,0A3,3,0,0,0,213.21,202.11Z"/>
  <path class="cls-5" d="M190.77,176.89a38.7,38.7,0,0,1,.84,7.82c-.4,15-12.71,27.3-27.66,28.14a29.36,29.36,0,0,1-31-29.31,12.11,12.11,0,0,1,8-12.33c17.76,6.86,25.06-4.39,37-5.75A16.79,16.79,0,0,0,190.77,176.89Z"/>
  <g class="cls-6">
    <path class="cls-3" d="M176,168.84a19.61,19.61,0,0,0,12.18,10.48,37.83,37.83,0,0,1,.43,5.31,26.26,26.26,0,0,1-24.82,25.22c-.51,0-1,.05-1.52.05a26.39,26.39,0,0,1-26.36-26.36v-.16l0-.15a9,9,0,0,1,5.1-8.78,31.75,31.75,0,0,0,10.69,2c6.5,0,11.63-2.36,16.16-4.45a43.92,43.92,0,0,1,8.16-3.12m1.9-3.38c-9.2,1-15.65,7.95-26.22,7.95a29.73,29.73,0,0,1-10.8-2.2,12.11,12.11,0,0,0-8,12.33,29.36,29.36,0,0,0,29.36,29.36c.56,0,1.12,0,1.68-.05,15-.84,27.26-13.17,27.66-28.14a38.7,38.7,0,0,0-.84-7.82,16.79,16.79,0,0,1-12.87-11.43Z"/>
  </g>
  <text class="cls-7" transform="translate(91.22 96.52)">v<tspan class="cls-8" x="18.73" y="0">1</tspan><tspan x="36.91" y="0">.0</tspan></text>
</svg>
