<svg id="Layer_1" data-name="Layer 1" xmlns="http://www.w3.org/2000/svg" viewBox="0 0 291.99 498.73">
  <defs>
    <style>
      .cls-1 {
        fill: #454559;
      }

      .cls-2 {
        fill: #2c2c38;
      }

      .cls-3 {
        fill: #55555b;
      }

      .cls-4 {
        fill: #33333a;
      }

      .cls-5 {
        fill: #343442;
      }

      .cls-6 {
        opacity: 0.48;
      }

      .cls-7 {
        fill: #d1ae00;
      }

      .cls-8 {
        fill: #fff;
      }

      .cls-9 {
        font-size: 41.47px;
        fill: #1a1928;
        font-family: AmericanTypewriter, American Typewriter;
        letter-spacing: 0.19em;
      }

      .cls-10 {
        letter-spacing: 0.2em;
      }

      .cls-11 {
        fill: #9e9e9e;
      }
    </style>
  </defs>
  <title>logo-w-dark-w</title>
  <g>
    <g>
      <g>
        <path class="cls-1" d="M144.5,153.87c-31.23,0-61.13-7.11-86.47-20.56-2-1.08-4.06-2.21-6-3.37-2.51-1.49-5-3.07-7.48-4.73v-4.58A102.65,102.65,0,0,1,147.18,18h1.34c55.62.71,100.91,47.19,101.33,103.78-2.91,2.12-5.92,4.15-9,6-1.44.89-2.95,1.8-4.62,2.75-25.7,14.77-56.4,22.83-88.79,23.31l-3,0Z"/>
        <path class="cls-2" d="M147.18,20h1.31A99,99,0,0,1,218.91,50.7a103,103,0,0,1,28.92,70c-2.6,1.87-5.29,3.66-8,5.35-1.44.89-2.93,1.78-4.56,2.72-25.41,14.6-55.78,22.56-87.83,23l-2.95,0c-30.9,0-60.48-7-85.53-20.32-2-1.08-4-2.2-5.95-3.34-2.18-1.28-4.36-2.65-6.5-4.06v-3.52A100.34,100.34,0,0,1,76,49.45a102,102,0,0,1,14.9-12.3A100.21,100.21,0,0,1,147.18,20m0-4A104.61,104.61,0,0,0,42.52,120.63v5.65q4.13,2.82,8.47,5.38,3,1.77,6.11,3.42c26.11,13.86,56.73,20.79,87.4,20.79l3,0c31.67-.47,63.23-8.33,89.76-23.57q2.37-1.36,4.68-2.8c3.39-2.11,6.7-4.35,9.9-6.72v-.23c0-57.6-45.72-105.82-103.31-106.56Z"/>
      </g>
      <g>
        <path class="cls-3" d="M256.85,270.53a1.93,1.93,0,1,1,1.93-1.93A1.94,1.94,0,0,1,256.85,270.53Z"/>
        <path class="cls-4" d="M256.85,267.67a.93.93,0,1,1-.94.93.93.93,0,0,1,.94-.93m0-2a2.93,2.93,0,1,0,2.93,2.93,2.94,2.94,0,0,0-2.93-2.93Z"/>
      </g>
      <g>
        <path class="cls-3" d="M256.85,294.19a1.94,1.94,0,1,1,1.93-1.94A1.94,1.94,0,0,1,256.85,294.19Z"/>
        <path class="cls-4" d="M256.85,291.32a.94.94,0,1,1-.94.93.93.93,0,0,1,.94-.93m0-2a2.94,2.94,0,1,0,2.93,2.93,2.94,2.94,0,0,0-2.93-2.93Z"/>
      </g>
      <g>
        <path class="cls-3" d="M256.85,310a1.93,1.93,0,1,1,1.93-1.93A1.93,1.93,0,0,1,256.85,310Z"/>
        <path class="cls-4" d="M256.85,307.11a.93.93,0,1,1-.94.93.93.93,0,0,1,.94-.93m0-2a2.93,2.93,0,1,0,2.93,2.93,2.94,2.94,0,0,0-2.93-2.93Z"/>
      </g>
      <path class="cls-3" d="M256.85,344.85a2.93,2.93,0,1,0,2.93,2.93A2.94,2.94,0,0,0,256.85,344.85Z"/>
      <g>
        <path class="cls-3" d="M256.85,301.63a1.93,1.93,0,1,1,1.93-1.93A1.93,1.93,0,0,1,256.85,301.63Z"/>
        <path class="cls-4" d="M256.85,298.77a.93.93,0,1,1-.94.93.93.93,0,0,1,.94-.93m0-2a2.93,2.93,0,1,0,2.93,2.93,2.94,2.94,0,0,0-2.93-2.93Z"/>
      </g>
      <g>
        <path class="cls-3" d="M256.85,233.29a1.93,1.93,0,1,1,1.93-1.93A1.94,1.94,0,0,1,256.85,233.29Z"/>
        <path class="cls-4" d="M256.85,230.43a.93.93,0,1,1-.94.93.93.93,0,0,1,.94-.93m0-2a2.93,2.93,0,1,0,2.93,2.93,2.94,2.94,0,0,0-2.93-2.93Z"/>
      </g>
      <g>
        <path class="cls-3" d="M256.85,240.74a1.94,1.94,0,1,1,1.93-1.93A1.94,1.94,0,0,1,256.85,240.74Z"/>
        <path class="cls-4" d="M256.85,237.88a.93.93,0,1,1-.94.93.93.93,0,0,1,.94-.93m0-2a2.93,2.93,0,1,0,2.93,2.93,2.94,2.94,0,0,0-2.93-2.93Z"/>
      </g>
      <g>
        <path class="cls-3" d="M256.85,255.63a1.93,1.93,0,1,1,1.93-1.93A1.93,1.93,0,0,1,256.85,255.63Z"/>
        <path class="cls-4" d="M256.85,252.77a.93.93,0,1,1-.94.93.93.93,0,0,1,.94-.93m0-2a2.93,2.93,0,1,0,2.93,2.93,2.94,2.94,0,0,0-2.93-2.93Z"/>
      </g>
      <g>
        <path class="cls-3" d="M256.85,248.18a1.93,1.93,0,1,1,1.93-1.93A1.93,1.93,0,0,1,256.85,248.18Z"/>
        <path class="cls-4" d="M256.85,245.32a.93.93,0,1,1-.94.93.93.93,0,0,1,.94-.93m0-2a2.93,2.93,0,1,0,2.93,2.93,2.94,2.94,0,0,0-2.93-2.93Z"/>
      </g>
      <g>
        <path class="cls-3" d="M256.85,263.08a1.93,1.93,0,1,1,1.93-1.93A1.93,1.93,0,0,1,256.85,263.08Z"/>
        <path class="cls-4" d="M256.85,260.22a.93.93,0,1,1-.94.93.93.93,0,0,1,.94-.93m0-2a2.93,2.93,0,1,0,2.93,2.93,2.94,2.94,0,0,0-2.93-2.93Z"/>
      </g>
      <g>
        <path class="cls-1" d="M212.94,351.12c-8.31,0-19.31-2.24-29.43-6-11.43-4.24-20.54-9.95-25.64-16.08-.71-.85-1.41-1.73-2.06-2.6a8.22,8.22,0,0,0-13.18,0c-.66.88-1.36,1.76-2.09,2.63-5.15,6.12-14.34,11.83-25.89,16.08-10.22,3.76-21.33,6-29.72,6-.68,0-1.34,0-2,0a14.64,14.64,0,0,0,6-7.54l2-5.74-5,3.43c-4.54,3.12-11,4.9-17.87,4.9a34.12,34.12,0,0,1-16.29-3.93c-.68-.38-1.39-.76-2.12-1.15-10.4-5.58-24.63-13.22-28.25-33.05a37.87,37.87,0,0,1-.56-4.55,20.69,20.69,0,0,0,15.24,13.1,22.87,22.87,0,0,0,4.85.53,21.24,21.24,0,0,0,8-1.56,77,77,0,0,0,21.7-9.64c4.35-2.7,8.12-6.72,12.12-11,7.94-8.46,16.94-18,32.82-19H116a5.32,5.32,0,0,1,4.86,2.82,3,3,0,0,1-.71,3.46.61.61,0,0,1-.16.16,10.08,10.08,0,0,0,3.9,17.88l1,.22.77-.74a3.62,3.62,0,0,1,2.06-1.16,2.48,2.48,0,0,1,.61,0,8.58,8.58,0,0,1,4,1,23.75,23.75,0,0,0,13.84,4.26,24.81,24.81,0,0,0,14.63-4.84,7.4,7.4,0,0,1,3.89-1.23,2.76,2.76,0,0,1,.94.13,8,8,0,0,1,2.21,1.11l.92.6.8-.15a10.06,10.06,0,0,0,7.91-8.09c.52-2.95-.92-6.47-4.28-10.47a24.11,24.11,0,0,0-3.14-3.29,25.61,25.61,0,0,1-4.93-7.93,26.94,26.94,0,0,0-2.36-4.68c-6.1-9.52-8.94-17.95-8.94-26.56A43.72,43.72,0,0,1,162,213a3.08,3.08,0,0,0,.16-3.26c-1.65-3.19-8.28-5.18-17.29-5.18-10.25,0-13.45,4.7-14.35,6.72a5.71,5.71,0,0,0,.56,6.14,21.89,21.89,0,0,1,4.79,11.6c.28,6.78-1.1,12-4,15a11.77,11.77,0,0,1-3.76,2.27l-1-1.75-.09-.15-.11-.13c0-.07-.21-.37-.32-.59-1.43-2.73-4.77-9.14-22.06-9.14a96.12,96.12,0,0,0-10.09.59,72.79,72.79,0,0,1-7.66.43c-10.31,0-15.12-2.7-17.35-5a7.29,7.29,0,0,1-2.09-3.8C76,219.15,85,215.31,94,215.31a33.28,33.28,0,0,1,12.59,2.58,6.3,6.3,0,0,0,2.25.64h0a2.11,2.11,0,0,0,2.12-1.8c.24-1.7-.75-4.07-2.65-6.34-3.13-3.73-11.14-10.08-29.76-10.72-1.45,0-2.89-.08-4.28-.08A82.42,82.42,0,0,0,58.32,201l-.93.2a18.52,18.52,0,0,1-3.89.55,8.77,8.77,0,0,1-1.38-.11c1.09-3.55,2.29-4.26,3.86-5.2l.47-.27a42.3,42.3,0,0,1,3.93-2.1l4.1-2-4.22-1.7c-6.32-2.53-11.88-5-17-7.67A188.1,188.1,0,0,1,15.09,165a20.91,20.91,0,0,1-2.92-2.72A20.16,20.16,0,0,1,24.65,129a20.56,20.56,0,0,1,2.71-.18c.39,0,.77,0,1.16,0a20.1,20.1,0,0,1,11.05,4.09c28,21.38,65.49,33.15,105.52,33.15,35.17,0,68-8.86,95-25.61,3.81-2.37,7.53-4.92,11-7.59a20.26,20.26,0,0,1,7.08-3.44,19.48,19.48,0,0,1,3.88-.61c.39,0,.77,0,1.17,0a20.42,20.42,0,0,1,2.81.2,20.15,20.15,0,0,1,7.45,2.57,19.92,19.92,0,0,1,3.17,2.31,20.9,20.9,0,0,1,2.7,2.93,19.95,19.95,0,0,1,4.06,11,20.48,20.48,0,0,1-1.09,7.87,20,20,0,0,1-3.95,6.74,21.47,21.47,0,0,1-2.93,2.7,193.67,193.67,0,0,1-40,23.15l-.1,0a12.77,12.77,0,0,0-5.14,19.4l.17.23a9,9,0,0,0,10.68,2.81,8.62,8.62,0,0,1,3.41-.69,9.18,9.18,0,0,1,1.64.15,8.8,8.8,0,0,1,7,7.46,8.72,8.72,0,0,1-8.65,9.83c-.32,0-.63,0-.93-.05l-2.7-.29.52,2.67a44.16,44.16,0,0,1-32.13,51.29,5.44,5.44,0,0,0-2.38,9.18c.6.59,1,1,1.24,1.17l2.06,1.7A170.78,170.78,0,0,0,227,305.87c.92.59,1.94,1.31,3,2.08,5.49,3.91,13,9.26,24.3,9.26a38.86,38.86,0,0,0,7-.67,20.51,20.51,0,0,0,15-13,38.76,38.76,0,0,1-.53,4.45c-2.91,16.07-12.68,27.22-29.87,34.08a48,48,0,0,1-17.65,3.44c-6.57,0-12.39-1.53-16.38-4.29l-5-3.47,2,5.76a14.72,14.72,0,0,0,6,7.55C214.27,351.11,213.62,351.12,212.94,351.12ZM168.66,218.81c-6.9,9.2-5.53,19.86-3.89,27.07,3.52,15.57,17.57,26.45,34.15,26.45a35,35,0,0,0,9.42-1.28c16.47-4.62,26.73-23.12,22.87-41.24-.16-.73-.33-1.44-.52-2.15-3.45-12.64-11.33-20.19-21.06-20.19a21.87,21.87,0,0,0-9.32,2.24c-11.64,5.51-21.75,8.3-30.05,8.3h-1ZM40.39,286.72a5.89,5.89,0,0,1-5.17-3.13,5.56,5.56,0,0,0-5-3.12l-.54,0a27,27,0,0,1,7.12-4.75,11.33,11.33,0,0,1,3.52-.69A5.87,5.87,0,0,1,46,282.3,5.65,5.65,0,0,1,40.39,286.72Zm216.87-1.35a4.61,4.61,0,0,1-5-4.64c0-3.46,2.31-4.66,4.26-5.06a7.12,7.12,0,0,1,1.07-.09,10,10,0,0,1,1.85.22,13.45,13.45,0,0,1,1.73.45,2.8,2.8,0,0,0-1.56,1.5,3,3,0,0,0,.86,3.29c.54.54.17,1.56,0,1.86A3.88,3.88,0,0,1,257.26,285.37Z"/>
        <path class="cls-5" d="M263.22,130.78a18.26,18.26,0,0,1,16.43,10.28,18,18,0,0,1,1.77,6.8,18.34,18.34,0,0,1-1,7.1,17.85,17.85,0,0,1-3.55,6,19.17,19.17,0,0,1-2.65,2.44,191.32,191.32,0,0,1-39.54,22.91l-.11,0a14.76,14.76,0,0,0-5.94,22.43l.18.24a11,11,0,0,0,13,3.44,6.75,6.75,0,0,1,2.63-.53,8.22,8.22,0,0,1,1.29.11,6.79,6.79,0,0,1,5.38,5.74,6.74,6.74,0,0,1-6.67,7.59,6,6,0,0,1-.72,0l-5.4-.57,1.05,5.33a42.16,42.16,0,0,1-30.68,49,7.45,7.45,0,0,0-3.26,12.56l0,0c.59.57,1,.94,1.33,1.23l2.06,1.7a172.39,172.39,0,0,0,17,12.92c.87.56,1.87,1.27,2.93,2,5.38,3.83,13.52,9.63,25.46,9.63a40.17,40.17,0,0,0,7.39-.71,21.37,21.37,0,0,0,10.93-5.76c-3.8,12.64-12.82,21.66-27.42,27.49a46.59,46.59,0,0,1-16.91,3.3c-6.17,0-11.58-1.4-15.24-3.93l-10-6.94L207,344.18a16.7,16.7,0,0,0,2.65,4.83c-15.39-1-40-8.93-50.25-21.25-.69-.82-1.36-1.67-2-2.52a10.21,10.21,0,0,0-16.37,0c-.65.86-1.33,1.72-2,2.55C128.64,340.08,103.76,348,88.21,349a16.35,16.35,0,0,0,2.67-4.82l4-11.48-10,6.88c-4.16,2.84-10.41,4.54-16.74,4.54a32,32,0,0,1-15.33-3.69c-.68-.37-1.39-.76-2.14-1.15-9.09-4.89-21.24-11.4-26-26.65a23.35,23.35,0,0,0,11.06,5.86,24.26,24.26,0,0,0,5.28.58,23.27,23.27,0,0,0,8.66-1.65,79.25,79.25,0,0,0,22.14-9.85c4.57-2.83,8.43-6.95,12.52-11.31,8.06-8.59,16.39-17.46,31.48-18.37H116a3.31,3.31,0,0,1,3,1.63c.13.29.22.66-.33,1.28a12.07,12.07,0,0,0,4.77,21.36l2.09.46,1.53-1.49a4.18,4.18,0,0,1,.44-.4,3.76,3.76,0,0,1,.68-.25h.16a7.25,7.25,0,0,1,2.84.61,25.7,25.7,0,0,0,15,4.63A26.76,26.76,0,0,0,162,300.5a5.42,5.42,0,0,1,2.72-.85H165a6.06,6.06,0,0,1,1.78.9l.25.16,1.36.9,1.61-.32a12,12,0,0,0,9.49-9.71c.63-3.56-1-7.63-4.72-12.1a28.94,28.94,0,0,0-3.24-3.41,23.32,23.32,0,0,1-4.51-7.29,30,30,0,0,0-2.53-5c-5.88-9.18-8.62-17.28-8.62-25.48a41.65,41.65,0,0,1,7.73-24.21,5.08,5.08,0,0,0,.3-5.34c-2.06-4-9-6.26-19.07-6.26-11.43,0-15.12,5.53-16.18,7.91a7.7,7.7,0,0,0,.91,8.29,19.86,19.86,0,0,1,4.27,10.35c.25,6.13-1,10.93-3.44,13.53a6.43,6.43,0,0,1-1.53,1.07l-.1-.18-.18-.3-.11-.13-.19-.36c-1.59-3.05-5.33-10.21-23.83-10.21a97.38,97.38,0,0,0-10.3.6,71.52,71.52,0,0,1-7.45.42c-10.13,0-14.32-2.73-15.92-4.36a6.21,6.21,0,0,1-1.22-1.73c8.07-6.71,16.26-10.1,24.38-10.1a31.18,31.18,0,0,1,11.86,2.45,8.06,8.06,0,0,0,3,.77,4.1,4.1,0,0,0,4.1-3.52c.32-2.28-.8-5.16-3.1-7.9-3.33-4-11.83-10.77-31.22-11.44-1.48,0-2.94-.08-4.35-.08A84.06,84.06,0,0,0,57.93,199l-1,.2c-.6.13-1.18.26-1.75.35A5.51,5.51,0,0,1,57,198.13l.48-.28c1.08-.66,2.35-1.33,3.76-2l8.2-3.93L61,188.52c-6.25-2.51-11.76-5-16.83-7.6a185.31,185.31,0,0,1-27.86-17.51A18.61,18.61,0,0,1,13.67,161a18.17,18.17,0,0,1,11.24-30,18.44,18.44,0,0,1,2.45-.16q.53,0,1.05,0a18,18,0,0,1,10,3.68c28.36,21.65,66.26,33.56,106.77,33.56,35.51,0,68.7-9,96-25.91,3.86-2.4,7.63-5,11.2-7.69a18,18,0,0,1,6.38-3.11,18.42,18.42,0,0,1,3.48-.55q.52,0,1.05,0m-64.3,143.55a37,37,0,0,0,10-1.36,33.7,33.7,0,0,0,20.37-16.55,39.06,39.06,0,0,0,3.91-27c-.16-.75-.34-1.51-.54-2.26-3.65-13.36-12.46-21.66-23-21.66a23.73,23.73,0,0,0-10.18,2.44c-11.37,5.37-21.19,8.1-29.19,8.1h-2l-1.2,1.6c-7.4,9.87-6,21.11-4.25,28.71a34.89,34.89,0,0,0,13.5,20.59,38.23,38.23,0,0,0,22.61,7.42M40.36,277.06a3.82,3.82,0,0,1,3,1.45,3.87,3.87,0,0,1,.74,3.35,3.67,3.67,0,0,1-3.67,2.86,3.84,3.84,0,0,1-3.38-2,7.6,7.6,0,0,0-2.92-3.17,26.42,26.42,0,0,1,3.55-2,9.37,9.37,0,0,1,2.72-.51m217.22.52a5,5,0,0,0,1.13,4.49c-.19.52-.86,1.3-1.45,1.3-2.21,0-3-1.42-3-2.64s.29-2.59,2.59-3.09a4.56,4.56,0,0,1,.72-.06m5.64-150.8c-.43,0-.85,0-1.28,0a22.51,22.51,0,0,0-4.26.67,22.17,22.17,0,0,0-7.78,3.79q-5.25,4-10.9,7.48c-26.39,16.39-59.21,25.31-93.87,25.31h0c-39.59,0-76.64-11.62-104.31-32.74a22.07,22.07,0,0,0-12.14-4.5c-.43,0-.85,0-1.28,0a21.21,21.21,0,0,0-3,.2,22.18,22.18,0,0,0-13.71,36.61,22.76,22.76,0,0,0,3.21,3,189.83,189.83,0,0,0,28.46,17.89c5.55,2.85,11.3,5.4,17.17,7.75-1.58.76-2.94,1.49-4.1,2.2-2.2,1.33-4.2,2.11-5.73,8.56a10,10,0,0,0,3.82.73,25.8,25.8,0,0,0,5.22-.79,79.86,79.86,0,0,1,15.5-1.34c1.34,0,2.74,0,4.21.08,24.78.85,30.87,12.15,30.5,14.78,0,.06-.06.08-.14.08-.94,0-6.42-3.22-14.84-3.22-7.59,0-17.56,2.62-28.74,12.58-.08,3.76,3.71,11.61,21.5,11.61a76.41,76.41,0,0,0,7.87-.44,93.82,93.82,0,0,1,9.88-.58c18.71,0,19.56,7.5,20.86,9,.88,1.49,1.92,3.17,1.92,3.17s4.08-1.25,6.06-3.33c3.46-3.64,4.82-9.61,4.54-16.46a23.76,23.76,0,0,0-5.3-12.86c-2-2.26.11-9.52,12.3-9.52s16.66,3.64,15.5,5.29a45.79,45.79,0,0,0-8.46,26.52c0,10.37,4.05,19.51,9.25,27.63,2.9,4.53,2,6.48,7.54,12.93,0,0,7.79,6.91,6.89,12a8.13,8.13,0,0,1-6.33,6.47,10.16,10.16,0,0,0-2.85-1.48,4.94,4.94,0,0,0-1.63-.25,9.3,9.3,0,0,0-5.07,1.61,22.84,22.84,0,0,1-13.45,4.46,21.85,21.85,0,0,1-12.68-3.89,10.29,10.29,0,0,0-5.15-1.35,4,4,0,0,0-1.2.14,5.47,5.47,0,0,0-2.86,1.63,8.08,8.08,0,0,1-3.11-14.33,3.09,3.09,0,0,0,.43-.4c3.77-4.12-.14-9.63-5.63-9.63h-.5c-24.65,1.49-33.13,22.37-45.87,30.29a76.07,76.07,0,0,1-21.27,9.43A19.48,19.48,0,0,1,41,315.08a20.54,20.54,0,0,1-4.42-.48A18.71,18.71,0,0,1,22,300.07c-1.17-5.81,2.24-12.33,5.65-16.38a3.32,3.32,0,0,1,2.58-1.22,3.6,3.6,0,0,1,3.2,2,7.83,7.83,0,0,0,7,4.23,7.64,7.64,0,0,0,7.57-6,7.87,7.87,0,0,0-7.65-9.68,13.47,13.47,0,0,0-4.32.87c-11.61,5.25-19.5,18.07-16.52,34.43,4.07,22.26,21.27,30.06,31.38,35.59a36.15,36.15,0,0,0,17.25,4.18c7.26,0,14.21-2,19-5.25-1.6,4.62-6.15,8.24-10.92,8.24a9.17,9.17,0,0,1-2-.22c2.17,1.51,6,2.22,10.76,2.22,16.72,0,45.32-8.73,57.14-22.8.77-.91,1.48-1.81,2.16-2.71a6.21,6.21,0,0,1,10,0c.67.88,1.37,1.78,2.12,2.68,11.72,14.07,40,22.8,56.61,22.8,4.74,0,8.52-.71,10.67-2.22a9.06,9.06,0,0,1-2,.22c-4.74,0-9.24-3.62-10.83-8.24,4.53,3.14,10.79,4.65,17.52,4.65A50.28,50.28,0,0,0,246.7,344c10.75-4.29,27.07-13.33,31.09-35.59,2.79-15.38-4-27.54-14.39-33.32a12.3,12.3,0,0,0-3.5-1.19,11.71,11.71,0,0,0-2.3-.27,8.88,8.88,0,0,0-1.47.13,6.8,6.8,0,0,0-5.86,7,6.61,6.61,0,0,0,7,6.64c4,0,7.07-5.31,4.63-7.74-.93-.93-.4-1.69.95-1.69a6.77,6.77,0,0,1,2.9.8,20.22,20.22,0,0,1,9.58,21.14c-1.37,7.18-7.22,13.36-14.34,14.69a36.24,36.24,0,0,1-6.66.64c-12.91,0-20.74-7.52-26.24-11-6.59-4.2-12.59-9.32-18.67-14.33-.23-.19-.61-.56-1.13-1.07a3.44,3.44,0,0,1,1.5-5.81,46.2,46.2,0,0,0,33.59-53.61,10.6,10.6,0,0,0,1.14.06,10.72,10.72,0,0,0,2-21.26,11.52,11.52,0,0,0-2-.18,10.68,10.68,0,0,0-4.2.85,7,7,0,0,1-8.29-2.17l-.17-.24a10.76,10.76,0,0,1,4.32-16.35l.11-.05a195.14,195.14,0,0,0,40.37-23.39,22.1,22.1,0,0,0,7.57-10.38,22.35,22.35,0,0,0,1.19-8.63,21.86,21.86,0,0,0-2.16-8.31,22.19,22.19,0,0,0-2.29-3.74,23.34,23.34,0,0,0-3-3.22A21.93,21.93,0,0,0,266.32,127a21.65,21.65,0,0,0-3.1-.22Zm-64.3,143.55c-14.52,0-28.69-9.39-32.2-24.89-1.67-7.36-2.7-17.11,3.54-25.43,11,0,22.62-4.57,30.9-8.49a19.85,19.85,0,0,1,8.47-2.05c8.94,0,16,7.31,19.13,18.72.18.67.34,1.35.49,2,3.67,17.21-5.86,34.53-21.45,38.89a32.73,32.73,0,0,1-8.88,1.21Z"/>
      </g>
    </g>
    <g class="cls-6">
      <path class="cls-3" d="M198.92,269.33c-15.17,0-28-9.91-31.23-24.11-1.48-6.53-2.74-16.09,3.08-24.22,8.64-.11,19-3,30.82-8.57a18.76,18.76,0,0,1,8-2c8.3,0,15.09,6.72,18.16,18,.18.65.34,1.31.48,2,3.54,16.6-5.76,33.52-20.74,37.72a31.88,31.88,0,0,1-8.61,1.17Z"/>
      <path class="cls-4" d="M209.63,211.47c7.82,0,14.25,6.45,17.2,17.24.17.64.33,1.29.47,1.93,3.43,16.1-5.56,32.5-20,36.56a31.07,31.07,0,0,1-8.34,1.13,32.19,32.19,0,0,1-19-6.24A29,29,0,0,1,168.67,245c-1.41-6.23-2.63-15.29,2.63-23,8.68-.21,19-3.12,30.72-8.66a17.83,17.83,0,0,1,7.61-1.86m0-2a19.85,19.85,0,0,0-8.47,2.05c-8.28,3.92-19.95,8.49-30.9,8.49-6.24,8.32-5.21,18.07-3.54,25.43,3.51,15.5,17.68,24.89,32.2,24.89a32.73,32.73,0,0,0,8.88-1.21c15.59-4.36,25.12-21.68,21.45-38.89-.15-.69-.31-1.37-.49-2-3.11-11.4-10.2-18.72-19.13-18.72Z"/>
    </g>
  </g>
  <g>
    <rect class="cls-7" x="27.38" y="419.17" width="233.47" height="39.71" rx="2.61"/>
    <g>
      <path class="cls-8" d="M44.1,433c0-1.43-.49-2.14-1.48-2.14a2.2,2.2,0,0,0-.6.06,4.11,4.11,0,0,1-.78.08.84.84,0,0,1-.64-.27.92.92,0,0,1-.26-.68c0-.68.42-1,1.27-1l.41,0,1.53.2a13.19,13.19,0,0,0,1.8.11,14.34,14.34,0,0,0,2-.14l1.3-.17.4,0c.85,0,1.28.33,1.28,1a1,1,0,0,1-.26.68.87.87,0,0,1-.64.27,4.44,4.44,0,0,1-.78-.08,2.34,2.34,0,0,0-.61-.06c-1,0-1.48.71-1.48,2.14v11.61c0,1.45.5,2.17,1.48,2.17a5.66,5.66,0,0,0,.61,0,5.39,5.39,0,0,1,.78-.09.81.81,0,0,1,.9.93c0,.69-.43,1-1.28,1h-.2l-.2,0-1.51-.23a10.06,10.06,0,0,0-1.59-.12,14.12,14.12,0,0,0-2.17.15l-1.33.2-.21,0h-.23c-.83,0-1.24-.35-1.24-1a.81.81,0,0,1,.9-.93l.78.06a2.61,2.61,0,0,0,.6.08c1,0,1.48-.72,1.48-2.17Z"/>
      <path class="cls-8" d="M65.22,430.34,73,446.52V434.86c0-1.51,0-2.34,0-2.49-.18-1-.66-1.51-1.45-1.51a4.62,4.62,0,0,0-.7.07,4.63,4.63,0,0,1-.69.07.89.89,0,0,1-.65-.27.86.86,0,0,1-.28-.65c0-.7.44-1,1.3-1a1.68,1.68,0,0,1,.38,0l1.3.17a11.81,11.81,0,0,0,1.62.11,17.44,17.44,0,0,0,2-.15l1-.14.2,0h.2c.83,0,1.25.33,1.25,1s-.4,1-1.18,1h-.62a1.36,1.36,0,0,0-1.15.38,3.52,3.52,0,0,0-.33,1.65v12.31a6.26,6.26,0,0,1-.45,2.81,1.64,1.64,0,0,1-1.55.8c-1,0-1.76-.67-2.42-2l-7.62-15.78v13.46c0,1.45.49,2.17,1.48,2.17.15,0,.38,0,.69,0s.54,0,.7,0a.82.82,0,0,1,.92.92c0,.66-.43,1-1.3,1h-.17l-.21,0-1.18-.18a13.85,13.85,0,0,0-1.86-.14,18.25,18.25,0,0,0-1.94.14l-1.41.18-.21,0h-.23c-.83,0-1.24-.34-1.24-1a.8.8,0,0,1,.92-.89l.79.05a2.18,2.18,0,0,0,.6.09c1,0,1.48-.72,1.48-2.17V433c0-1.45-.5-2.17-1.49-2.17a3.9,3.9,0,0,0-.58.06,5.11,5.11,0,0,1-.8.08c-.62,0-.92-.31-.92-.95s.41-1,1.24-1l.46,0c1,.09,1.71.14,2.23.14.29,0,.72,0,1.3-.09s1-.08,1.3-.08a1.17,1.17,0,0,1,1.18.6Z"/>
      <path class="cls-8" d="M93.43,428.52a6.22,6.22,0,0,1,4.64,1.82v-.41c0-.75.29-1.13.89-1.13s1,.42,1,1.25v.17s0,.33-.09.87a17.94,17.94,0,0,0-.09,1.94q0,.15.06.93l.09,1.16a2,2,0,0,1,0,.4c0,.93-.36,1.39-1.07,1.39s-1.13-.38-1.13-1.16v-.14l0-.78c0-.27,0-.49,0-.64a3.35,3.35,0,0,0-1.17-2.72,4.85,4.85,0,0,0-3.23-1,4.51,4.51,0,0,0-3,.93,3.06,3.06,0,0,0-1.12,2.49A2.85,2.85,0,0,0,91,436.59a12.48,12.48,0,0,0,3.24.84,11.4,11.4,0,0,1,4.72,1.51,4.69,4.69,0,0,1,1.92,4,5.64,5.64,0,0,1-1.95,4.43,7.36,7.36,0,0,1-5,1.71A7.55,7.55,0,0,1,88.4,447v.43a3.92,3.92,0,0,1,.11.6.94.94,0,0,1-1.07,1.06c-.77,0-1.16-.41-1.16-1.22a.32.32,0,0,1,.09-.23l.13-1.5c.07-.76.1-1.24.1-1.45a13.25,13.25,0,0,0-.16-1.74,15.29,15.29,0,0,1-.16-1.74c0-.86.37-1.3,1.1-1.3s1.13.44,1.13,1.31v1.19a4.45,4.45,0,0,0,1.39,3.46,5.31,5.31,0,0,0,3.75,1.28,5.44,5.44,0,0,0,3.49-1,3.44,3.44,0,0,0,1.3-2.84q0-2.75-3.47-3.36l-1.65-.29a18,18,0,0,1-3.82-1,4.43,4.43,0,0,1-2-1.72,4.92,4.92,0,0,1-.74-2.65,5.19,5.19,0,0,1,1.86-4.14A7.09,7.09,0,0,1,93.43,428.52Z"/>
      <path class="cls-8" d="M112.57,444.62V433c0-1.43-.49-2.14-1.47-2.14a3.77,3.77,0,0,0-.6.05c-.36,0-.62.06-.77.06-.62,0-.92-.31-.92-.95s.42-1,1.27-1l.43,0,1.42.17a13.8,13.8,0,0,0,1.73.09q.72,0,1.74-.09c1.58-.14,2.77-.2,3.58-.2a14.73,14.73,0,0,1,3.18.29,4.92,4.92,0,0,1,3,1.79,5.32,5.32,0,0,1,1.08,3.36,5,5,0,0,1-1.86,4.17,8.73,8.73,0,0,1-5.4,1.45h-3.24a.83.83,0,0,0-.6.15,1.43,1.43,0,0,0-.13.74v.58a24.17,24.17,0,0,0,.22,4.44c.14.51.56.77,1.26.77a2.49,2.49,0,0,0,.61-.08l.78-.06a.81.81,0,0,1,.9.93c0,.69-.43,1-1.28,1l-.4-.06-1.45-.2a13.6,13.6,0,0,0-1.83-.09,12.34,12.34,0,0,0-1.65.09l-1.67.23-.18,0h-.2c-.87,0-1.3-.34-1.3-1a.93.93,0,0,1,.26-.68.83.83,0,0,1,.63-.27,4.24,4.24,0,0,1,.79.09,2.83,2.83,0,0,0,.6,0C112.08,446.78,112.57,446.06,112.57,444.62Zm2.63-13.12a3.67,3.67,0,0,0-.2,1.59v4.28c0,.53.37.82,1.1.9h1.68a14.93,14.93,0,0,0,3.42-.32,3.1,3.1,0,0,0,2.57-3.38c0-2.46-1.56-3.68-4.69-3.68C116.77,430.89,115.47,431.09,115.2,431.5Z"/>
      <path class="cls-8" d="M136.83,433c0-1.43-.49-2.14-1.48-2.14a2.2,2.2,0,0,0-.6.06,4.13,4.13,0,0,1-.79.08.83.83,0,0,1-.63-.27.92.92,0,0,1-.26-.68c0-.68.4-1,1.21-1l.43,0c2.89.19,4.23.28,4,.28H139l7-.2,1.5-.08.84,0c1,0,1.5.44,1.5,1.33,0,.15,0,.64-.08,1.47q-.06.93-.06,1.71c0,.68,0,1.15,0,1.42a10.9,10.9,0,0,1,.1,1.25c0,.73-.34,1.1-1,1.1s-1-.52-1-1.54v-1.5c0-1.62-.33-2.58-1-2.87a13.58,13.58,0,0,0-3.88-.32,17.15,17.15,0,0,0-2.43.09,1.58,1.58,0,0,0-1.24,1.74v2.89c0,.77.17,1.22.51,1.33a2.64,2.64,0,0,0,.68.06h1.17c1.2,0,1.8-.41,1.8-1.24a6.75,6.75,0,0,0-.07-.9,7.4,7.4,0,0,1-.07-1c0-.77.34-1.15,1-1.15s1,.41,1,1.24c0,.16-.06.75-.18,1.8a19.14,19.14,0,0,0-.16,2.34c0,.39,0,1.07.11,2.06,0,.15.07.49.15,1a7.26,7.26,0,0,1,.08,1,.91.91,0,0,1-1,1c-.67,0-1-.4-1-1.21a8.1,8.1,0,0,1,.07-.93,7.82,7.82,0,0,0,.07-.92c0-.83-.55-1.25-1.65-1.25h-1.3c-.56,0-.9.1-1,.29a2.76,2.76,0,0,0-.18,1.25v1.79c0,.31,0,.72,0,1.25s0,1.06,0,1.27c0,.77.18,1.25.47,1.45a3.48,3.48,0,0,0,1.5.2h3.94a3.88,3.88,0,0,0,2.34-.51,2.29,2.29,0,0,0,.64-1.89c0-.29,0-.72,0-1.29s-.05-1-.05-1.29c0-.87.35-1.3,1-1.3s1.09.44,1.09,1.33c0,.35,0,.88-.05,1.59s0,1.25,0,1.59,0,.67,0,1.2.05.94.05,1.21a1.19,1.19,0,0,1-1.33,1.36c-.22,0-.55,0-1-.06-.23,0-.65,0-1.27,0l-2.26-.06q-2.46-.06-4.26-.06c-1.81,0-3.59.06-5.32.18l-.26,0h-.18c-.81,0-1.21-.35-1.21-1s.3-.93.89-.93l.79.06a2.61,2.61,0,0,0,.6.08c1,0,1.48-.72,1.48-2.17Z"/>
      <path class="cls-8" d="M167.55,428.52a6.48,6.48,0,0,1,5.24,2.46v-.66a1,1,0,0,1-.06-.2q-.06-.66-.06-.6c0-.67.3-1,.9-1s1,.4,1,1.21c0,.16,0,.62-.06,1.39a19.41,19.41,0,0,0-.18,2,14.44,14.44,0,0,0,.1,1.59l.14,1.1v.29c0,.87-.35,1.3-1.05,1.3s-1.12-.41-1.1-1.23v-1a4.22,4.22,0,0,0-1.3-3.35,4.9,4.9,0,0,0-3.55-1.3,5.25,5.25,0,0,0-4.47,2.2,12.28,12.28,0,0,0,0,12.26,5.92,5.92,0,0,0,7.56,1.44,4.28,4.28,0,0,0,1.81-2.06,6.05,6.05,0,0,0,.35-2.26c0-.88.36-1.33,1.1-1.33s1.18.45,1.18,1.33a6.56,6.56,0,0,1-2.14,5.07,8.59,8.59,0,0,1-11.77-.78,11,11,0,0,1-2.33-7.33,11.59,11.59,0,0,1,2.39-7.61A7.76,7.76,0,0,1,167.55,428.52Z"/>
      <path class="cls-8" d="M192.33,444.64c0,1.45.49,2.17,1.48,2.17a4.63,4.63,0,0,0,.69-.07,4.62,4.62,0,0,1,.7-.07.92.92,0,0,1,.92.92c0,.68-.43,1-1.3,1h-.17l-.21,0-1.41-.2a12.68,12.68,0,0,0-1.83-.12,13.9,13.9,0,0,0-1.94.12l-1.45.2-.2,0h-.2c-.85,0-1.28-.34-1.28-1a.82.82,0,0,1,.93-.92,4.62,4.62,0,0,1,.7.07,4.51,4.51,0,0,0,.69.07c1,0,1.45-.72,1.45-2.17V432.89a1.85,1.85,0,0,0-2.12-2.06h-.89a1.82,1.82,0,0,0-2.09,2c0,.48,0,.81,0,1l.12,1.07a6.91,6.91,0,0,1,0,.73c0,1.21-.38,1.82-1.13,1.82s-1.07-.44-1.07-1.33c0-.25,0-.69.05-1.3q.09-1.4.09-1.77c0-.48,0-1,0-1.51-.06-1-.09-1.45-.09-1.3,0-.81.36-1.21,1.09-1.21.27,0,.9,0,1.88.08l2.37.12h3.3l3.09-.05c.37,0,1,0,1.88-.08s1.41-.07,1.85-.07c1,0,1.44.39,1.44,1.18v.06c0,.19,0,.55-.07,1.07s-.1,1.08-.16,1.68v.32c0,.29,0,.74.09,1.36.08.81.11,1.31.11,1.51,0,.79-.37,1.18-1.12,1.18s-1.1-.48-1.1-1.45c0-.35,0-.87.08-1.56s.09-1.2.09-1.55c0-1.34-.76-2-2.29-2h-.81a1.74,1.74,0,0,0-2.05,1.94l-.12,2Z"/>
      <path class="cls-8" d="M215.66,449.1a7.43,7.43,0,0,1-6.09-2.78,13.77,13.77,0,0,1,0-15.07,7.65,7.65,0,0,1,6.23-2.73,7.48,7.48,0,0,1,6,2.66,10.86,10.86,0,0,1,2.24,7.21,12.34,12.34,0,0,1-2.27,7.81A7.43,7.43,0,0,1,215.66,449.1Zm.06-18.5a5,5,0,0,0-4.31,2.14,10.24,10.24,0,0,0-1.54,6,10.43,10.43,0,0,0,1.54,6.1,5.26,5.26,0,0,0,8.55-.09,10.35,10.35,0,0,0,1.58-6.09,10.18,10.18,0,0,0-1.5-6A5,5,0,0,0,215.72,430.6Z"/>
      <path class="cls-8" d="M246.53,437.78a9.9,9.9,0,0,1-2.15.69,3.45,3.45,0,0,1,2.34,1.27,5.8,5.8,0,0,1,.65,3.15v1.67c0,1.39.44,2.08,1.31,2.08s1.35-.82,1.35-2.47v-2a4.09,4.09,0,0,1,.11-1.14.9.9,0,0,1,.9-.49c.7,0,1,.4,1,1.21,0,0,0,.24,0,.64v2.11a3.42,3.42,0,0,0,0,.53,3.26,3.26,0,0,1-3.56,3.56q-3.42,0-3.42-3.45v-2.49a3.34,3.34,0,0,0-.74-2.56,5,5,0,0,0-3-.62h-2.68c-.62,0-.92.37-.92,1.13v2.23a24,24,0,0,0,.06,2.43c.17,1,.65,1.45,1.44,1.45a4.16,4.16,0,0,0,.61,0c.33,0,.58-.05.75-.05a.83.83,0,0,1,.93.95c0,.68-.42,1-1.25,1l-.43-.06-1.56-.2a12.2,12.2,0,0,0-1.59-.12,16,16,0,0,0-2,.15l-1.39.17-.44.06c-.83,0-1.24-.35-1.24-1a.81.81,0,0,1,.9-.93l.78.06a2.62,2.62,0,0,0,.61.08c1,0,1.47-.72,1.47-2.17V433c0-1.45-.49-2.17-1.47-2.17a6.46,6.46,0,0,0-.7.07,5,5,0,0,1-.69.08.86.86,0,0,1-.64-.28.92.92,0,0,1-.26-.65c0-.68.42-1,1.27-1l.41,0,1.47.14c.39,0,.87.06,1.45.06s1.27,0,2-.06l2.2-.12c.73,0,1.41,0,2,0,4.24,0,6.37,1.61,6.37,4.84A3.91,3.91,0,0,1,246.53,437.78Zm-8-.23h2.72a7.46,7.46,0,0,0,3.65-.7,3,3,0,0,0,1.47-2.81q0-3.3-4.53-3.3a9.44,9.44,0,0,0-3.27.37,1.45,1.45,0,0,0-.88,1.43v4.26a.82.82,0,0,0,.17.62A1.28,1.28,0,0,0,238.51,437.55Z"/>
    </g>
    <text class="cls-9" transform="translate(26.04 410.2)">C<tspan class="cls-10" x="34.25" y="0">APTION</tspan></text>
    <g>
      <g>
        <path class="cls-11" d="M30.55,468.84a2.35,2.35,0,0,1,1.89.89v-.24l0-.07a2,2,0,0,0,0-.22c0-.24.11-.36.32-.36s.35.15.35.44c0,.06,0,.22,0,.5s-.06.59-.06.73a5.59,5.59,0,0,0,0,.57l0,.4v.1c0,.32-.13.48-.38.48s-.4-.15-.39-.45v-.38a1.58,1.58,0,0,0-.47-1.21,1.81,1.81,0,0,0-1.29-.47,1.9,1.9,0,0,0-1.62.8,4.45,4.45,0,0,0,0,4.43,2.14,2.14,0,0,0,2.73.52,1.57,1.57,0,0,0,.66-.74,2.29,2.29,0,0,0,.12-.82c0-.32.14-.48.4-.48s.43.16.43.48a2.35,2.35,0,0,1-.78,1.83,3.08,3.08,0,0,1-4.25-.28,4,4,0,0,1-.85-2.65,4.16,4.16,0,0,1,.87-2.75A2.79,2.79,0,0,1,30.55,468.84Z"/>
        <path class="cls-11" d="M40.15,474.52c0,.41,0,.65.13.73a.38.38,0,0,0,.24.11,4.69,4.69,0,0,0,.69,0h.92a1.62,1.62,0,0,0,1-.2.93.93,0,0,0,.24-.76c0-.11,0-.23,0-.37s0-.43,0-.48c0-.3.12-.46.37-.46s.44.14.44.42c0,.09,0,.15,0,.2l-.08.54a3.64,3.64,0,0,0,0,.48c0,.1,0,.24,0,.43s0,.34,0,.44c0,.31-.18.47-.54.47l-.48,0-.78,0H39.79l-.83.05h-.29l-.32,0c-.29,0-.44-.13-.44-.38a.29.29,0,0,1,.32-.33l.25,0,.26,0c.35,0,.53-.26.53-.79v-4.2c0-.51-.18-.77-.53-.77l-.22,0-.29,0a.3.3,0,0,1-.23-.1.36.36,0,0,1-.09-.24c0-.25.15-.37.45-.37h.16l.55.06a5.45,5.45,0,0,0,.68,0,4.4,4.4,0,0,0,.67,0l.48-.06H41c.31,0,.47.12.47.37a.36.36,0,0,1-.09.24.3.3,0,0,1-.23.1l-.29,0-.22,0c-.35,0-.53.26-.53.77Z"/>
        <path class="cls-11" d="M51.81,476.29a2.69,2.69,0,0,1-2.21-1,4.22,4.22,0,0,1-.81-2.72,4.14,4.14,0,0,1,.82-2.73,2.75,2.75,0,0,1,2.25-1,2.71,2.71,0,0,1,2.18,1,4,4,0,0,1,.81,2.61,4.45,4.45,0,0,1-.82,2.83A2.68,2.68,0,0,1,51.81,476.29Zm0-6.7a1.8,1.8,0,0,0-1.56.78,3.7,3.7,0,0,0-.56,2.18,3.74,3.74,0,0,0,.56,2.2,1.9,1.9,0,0,0,3.09,0,3.78,3.78,0,0,0,.57-2.2,3.72,3.72,0,0,0-.54-2.17A1.84,1.84,0,0,0,51.83,469.59Z"/>
        <path class="cls-11" d="M62.49,468.84a2.24,2.24,0,0,1,1.67.66v-.15c0-.27.11-.41.33-.41s.35.16.35.46v.06s0,.12,0,.31,0,.43,0,.7c0,0,0,.15,0,.34l0,.42a.53.53,0,0,1,0,.14c0,.34-.13.51-.38.51s-.41-.14-.41-.42v0l0-.29a2,2,0,0,0,0-.23,1.21,1.21,0,0,0-.42-1,1.78,1.78,0,0,0-1.17-.36,1.62,1.62,0,0,0-1.09.34,1.12,1.12,0,0,0-.4.9,1,1,0,0,0,.6,1,4.43,4.43,0,0,0,1.17.31,4.14,4.14,0,0,1,1.71.54,1.71,1.71,0,0,1,.69,1.46,2,2,0,0,1-.71,1.6,2.66,2.66,0,0,1-1.82.62,2.74,2.74,0,0,1-2-.76v.16c0,.11,0,.18,0,.21a.34.34,0,0,1-.39.39c-.28,0-.42-.15-.42-.44a.12.12,0,0,1,0-.09l0-.54c0-.27,0-.45,0-.53a4.93,4.93,0,0,0-.06-.62,4.89,4.89,0,0,1-.06-.63c0-.32.13-.47.4-.47s.41.15.41.47v.43a1.59,1.59,0,0,0,.5,1.25,1.92,1.92,0,0,0,1.36.46,2,2,0,0,0,1.26-.37,1.26,1.26,0,0,0,.47-1c0-.66-.42-1.07-1.26-1.21l-.59-.11a7,7,0,0,1-1.39-.36,1.61,1.61,0,0,1-.71-.63,1.74,1.74,0,0,1-.27-1,1.86,1.86,0,0,1,.67-1.49A2.56,2.56,0,0,1,62.49,468.84Z"/>
        <path class="cls-11" d="M71.35,470.46c0-.51-.18-.77-.54-.77l-.22,0-.28,0a.29.29,0,0,1-.23-.1.36.36,0,0,1-.09-.24c0-.25.14-.37.43-.37h.16l1.46.1h.11l2.51-.07.54,0h.31q.54,0,.54.48c0,.06,0,.23,0,.53s0,.43,0,.62a3.35,3.35,0,0,0,0,.52q0,.3,0,.45c0,.26-.12.39-.37.39s-.37-.18-.37-.55v-.55c0-.58-.13-.93-.37-1a4.7,4.7,0,0,0-1.4-.12,6.69,6.69,0,0,0-.88,0,.58.58,0,0,0-.45.63v1.05q0,.42.18.48a.79.79,0,0,0,.25,0h.42c.44,0,.65-.15.65-.45a2,2,0,0,0,0-.32,2.49,2.49,0,0,1,0-.36c0-.28.13-.42.37-.42s.38.15.38.45c0,.06,0,.27-.07.65a7,7,0,0,0-.06.85c0,.14,0,.39,0,.74,0,.06,0,.18.05.37a2,2,0,0,1,0,.37.33.33,0,0,1-.38.37c-.25,0-.37-.14-.37-.44a2.79,2.79,0,0,1,0-.33,2.38,2.38,0,0,0,0-.34c0-.3-.19-.45-.59-.45h-.47c-.21,0-.33,0-.38.11a1.07,1.07,0,0,0-.06.45v.65c0,.11,0,.26,0,.45s0,.38,0,.46c0,.28.06.45.17.52a1.13,1.13,0,0,0,.54.08h1.42a1.41,1.41,0,0,0,.85-.19.81.81,0,0,0,.23-.68c0-.11,0-.26,0-.47s0-.36,0-.47c0-.31.13-.47.37-.47s.4.16.4.48c0,.13,0,.32,0,.58s0,.45,0,.58,0,.24,0,.43,0,.34,0,.44a.43.43,0,0,1-.49.49l-.36,0h-.46l-.82,0-1.54,0c-.66,0-1.3,0-1.93.07h-.15c-.3,0-.44-.13-.44-.38s.1-.33.32-.33l.28,0,.22,0c.36,0,.54-.26.54-.79Z"/>
        <path class="cls-11" d="M82.42,470.46q0-.78-.54-.78a.94.94,0,0,0-.22,0l-.28,0c-.22,0-.32-.11-.32-.33s.15-.37.47-.37h.13l.56.07a4.73,4.73,0,0,0,.67,0,5.63,5.63,0,0,0,.58,0l.69-.07.52,0a4.09,4.09,0,0,1,1.59.27,2.74,2.74,0,0,1,1.33,1.24,4.16,4.16,0,0,1,.48,2,4.43,4.43,0,0,1-.38,1.85,2.7,2.7,0,0,1-1.06,1.21,3.86,3.86,0,0,1-2,.47l-.47,0L83.5,476c-.25,0-.5,0-.77,0a4.17,4.17,0,0,0-.56,0l-.51.08h-.15c-.3,0-.45-.12-.45-.37a.32.32,0,0,1,.09-.24.29.29,0,0,1,.23-.1l.28,0,.22,0c.36,0,.54-.26.54-.79Zm.88-.1v4.41a.53.53,0,0,0,.47.58,4.52,4.52,0,0,0,.88,0,2.25,2.25,0,0,0,1.82-.68,3.26,3.26,0,0,0,.68-2.15,3.56,3.56,0,0,0-.41-1.77,1.92,1.92,0,0,0-1.14-.93,4,4,0,0,0-1.11-.14,3.18,3.18,0,0,0-1,.09C83.36,469.89,83.3,470.06,83.3,470.36Z"/>
        <path class="cls-11" d="M102.67,468.84a2.36,2.36,0,0,1,1.9.89v-.24a.14.14,0,0,1,0-.07c0-.16,0-.23,0-.22,0-.24.1-.36.32-.36s.35.15.35.44c0,.06,0,.22,0,.5s-.06.59-.06.73a3.73,3.73,0,0,0,0,.57l0,.4v.1c0,.32-.13.48-.38.48s-.41-.15-.4-.45v-.38A1.54,1.54,0,0,0,104,470a1.79,1.79,0,0,0-1.28-.47,1.9,1.9,0,0,0-1.62.8,4.42,4.42,0,0,0,0,4.43,2,2,0,0,0,1.69.8,2,2,0,0,0,1-.28,1.5,1.5,0,0,0,.65-.74,2.07,2.07,0,0,0,.13-.82c0-.32.13-.48.4-.48s.43.16.43.48a2.35,2.35,0,0,1-.78,1.83,3.09,3.09,0,0,1-4.26-.28,4,4,0,0,1-.84-2.65,4.21,4.21,0,0,1,.86-2.75A2.82,2.82,0,0,1,102.67,468.84Z"/>
        <path class="cls-11" d="M115.19,474.87l-.38-1a.37.37,0,0,0-.13-.21.58.58,0,0,0-.28-.05h-1.86a.42.42,0,0,0-.29.08,1.45,1.45,0,0,0-.21.4l-.3.8a.6.6,0,0,0,0,.22c0,.23.14.34.41.34l.3,0a1.69,1.69,0,0,1,.28,0c.29,0,.43.12.43.36s-.15.35-.47.35l-.23,0-.52-.07-.48,0-.52,0-.44.05a2.93,2.93,0,0,1-.43,0c-.27,0-.4-.12-.4-.35s.13-.36.39-.36a.17.17,0,0,1,.13,0h.14a.48.48,0,0,0,.42-.22,1.86,1.86,0,0,0,.21-.5l2-5.28a.63.63,0,0,1,.66-.44.61.61,0,0,1,.64.44l1.88,5.19a1.82,1.82,0,0,0,.32.65.54.54,0,0,0,.42.16l.12,0,.3,0c.26,0,.4.11.4.34s-.14.37-.4.37l-.31,0a9.8,9.8,0,0,0-1-.08q-.39,0-1.26.09l-.33,0q-.42,0-.42-.36c0-.24.15-.35.46-.35a1.69,1.69,0,0,1,.28,0l.27,0c.24,0,.35-.1.35-.28A2,2,0,0,0,115.19,474.87Zm-.76-2.13-.94-2.89-1,2.89a.14.14,0,0,0,0,.07q0,.09.15.09h1.67c.08,0,.12,0,.12-.08A.17.17,0,0,0,114.43,472.74Z"/>
        <path class="cls-11" d="M123.1,474.66v-4.19c0-.51-.17-.77-.53-.77a.9.9,0,0,0-.21,0l-.29,0c-.22,0-.33-.11-.33-.34s.16-.37.46-.37h.16l.51.06a5.53,5.53,0,0,0,.63,0l.63,0c.57-.05,1-.07,1.29-.07a5.46,5.46,0,0,1,1.15.1,1.82,1.82,0,0,1,1.08.65,1.89,1.89,0,0,1,.4,1.22,1.81,1.81,0,0,1-.68,1.51,3.12,3.12,0,0,1-2,.52h-1.17c-.12,0-.19,0-.22.06a.46.46,0,0,0,0,.26v.21a9.26,9.26,0,0,0,.08,1.61c0,.18.21.28.46.28a.83.83,0,0,0,.22,0l.28,0a.29.29,0,0,1,.33.33c0,.25-.16.38-.47.38l-.14,0-.53-.08a5.17,5.17,0,0,0-.66,0,4.68,4.68,0,0,0-.59,0l-.61.09h-.14c-.31,0-.47-.12-.47-.37a.3.3,0,0,1,.1-.24.29.29,0,0,1,.23-.1l.28,0,.22,0C122.93,475.45,123.1,475.19,123.1,474.66Zm1-4.74a1.25,1.25,0,0,0-.08.58V472c0,.19.14.3.4.33H125a5.26,5.26,0,0,0,1.23-.12,1.12,1.12,0,0,0,.94-1.22c0-.89-.57-1.33-1.7-1.33C124.62,469.7,124.15,469.77,124.06,469.92Z"/>
        <path class="cls-11" d="M136,474.67c0,.53.17.79.53.79l.25,0,.25,0a.34.34,0,0,1,.34.33c0,.25-.16.37-.47.37h-.14l-.51-.08a6.5,6.5,0,0,0-.66,0c-.27,0-.5,0-.71,0l-.52.08h-.15c-.3,0-.46-.12-.46-.37a.3.3,0,0,1,.34-.33l.25,0,.25,0c.35,0,.53-.26.53-.79v-4.25a.67.67,0,0,0-.77-.74H134c-.51,0-.76.24-.76.73,0,.18,0,.29,0,.36l0,.38a2,2,0,0,1,0,.27c0,.44-.13.66-.4.66s-.39-.16-.39-.49c0-.09,0-.24,0-.47s0-.54,0-.64a5.06,5.06,0,0,0,0-.54c0-.37,0-.53,0-.47,0-.29.13-.44.4-.44l.68,0,.85,0h1.19l1.12,0,.68,0,.67,0c.35,0,.53.14.53.43v0q0,.11,0,.39c0,.18,0,.39-.06.6v.12c0,.1,0,.27,0,.49s0,.48,0,.55c0,.28-.13.43-.4.43s-.4-.18-.4-.53c0-.13,0-.31,0-.56s0-.44,0-.57c0-.48-.27-.72-.83-.72h-.29a.75.75,0,0,0-.55.16.74.74,0,0,0-.19.54l0,.73Z"/>
        <path class="cls-11" d="M144.49,470.46c0-.51-.18-.77-.54-.77l-.22,0-.28,0a.29.29,0,0,1-.23-.1.36.36,0,0,1-.09-.24c0-.25.15-.37.46-.37h.14l.56.07a4.63,4.63,0,0,0,.65,0,4.55,4.55,0,0,0,.71,0l.47-.06h.15c.31,0,.46.12.46.37a.36.36,0,0,1-.09.24.3.3,0,0,1-.23.1l-.29,0-.22,0c-.35,0-.53.26-.53.77v4.2c0,.53.18.79.53.79l.22,0,.29,0a.29.29,0,0,1,.32.33c0,.25-.15.38-.46.38h-.15l-.54-.09a5.28,5.28,0,0,0-.58,0,6,6,0,0,0-.78,0l-.49.08h-.15c-.3,0-.45-.13-.45-.38a.29.29,0,0,1,.32-.33l.28,0,.22,0c.36,0,.54-.26.54-.79Z"/>
        <path class="cls-11" d="M154.36,476.29a2.69,2.69,0,0,1-2.2-1,4.22,4.22,0,0,1-.81-2.72,4.14,4.14,0,0,1,.82-2.73,2.75,2.75,0,0,1,2.25-1,2.71,2.71,0,0,1,2.18,1,4,4,0,0,1,.81,2.61,4.45,4.45,0,0,1-.82,2.83A2.68,2.68,0,0,1,154.36,476.29Zm0-6.7a1.8,1.8,0,0,0-1.56.78,3.7,3.7,0,0,0-.56,2.18,3.74,3.74,0,0,0,.56,2.2,1.9,1.9,0,0,0,3.09,0,3.78,3.78,0,0,0,.57-2.2,3.72,3.72,0,0,0-.54-2.17A1.84,1.84,0,0,0,154.39,469.59Z"/>
        <path class="cls-11" d="M164.94,469.5l2.81,5.85v-4.22c0-.54,0-.84,0-.9-.06-.36-.24-.54-.53-.54l-.25,0-.25,0a.29.29,0,0,1-.23-.1.3.3,0,0,1-.1-.23c0-.26.15-.38.47-.38H167l.48.06a4,4,0,0,0,.58,0c.18,0,.42,0,.72-.05l.37,0h.15q.45,0,.45.36c0,.23-.14.35-.43.35h-.22a.5.5,0,0,0-.42.14,1.42,1.42,0,0,0-.12.59v4.46a2.21,2.21,0,0,1-.16,1,.57.57,0,0,1-.56.29c-.35,0-.64-.24-.87-.73l-2.76-5.71v4.87c0,.53.18.79.53.79l.25,0h.26a.29.29,0,0,1,.33.33c0,.24-.16.36-.47.36H165l-.43-.07a5.29,5.29,0,0,0-.67,0c-.18,0-.41,0-.7,0l-.51.07h-.16c-.3,0-.45-.12-.45-.37s.11-.32.34-.32l.28,0,.22,0c.35,0,.53-.26.53-.79v-4.21q0-.78-.54-.78l-.21,0-.29,0c-.22,0-.33-.11-.33-.34s.15-.37.45-.37h.17c.35,0,.61,0,.8,0l.47,0,.47,0a.42.42,0,0,1,.43.22Z"/>
        <path class="cls-11" d="M175.41,470.46c0-.51-.17-.77-.53-.77l-.22,0-.28,0a.29.29,0,0,1-.23-.1.33.33,0,0,1-.1-.24c0-.25.16-.37.46-.37h.15l.56.07a4.54,4.54,0,0,0,.65,0,4.63,4.63,0,0,0,.71,0l.47-.06h.15c.3,0,.46.12.46.37a.37.37,0,0,1-.1.24.29.29,0,0,1-.23.1l-.28,0-.22,0c-.36,0-.54.26-.54.77v4.2c0,.53.18.79.54.79l.22,0,.28,0a.29.29,0,0,1,.33.33c0,.25-.16.38-.46.38h-.15l-.55-.09a5.1,5.1,0,0,0-.57,0,6.06,6.06,0,0,0-.79,0l-.48.08h-.16c-.3,0-.45-.13-.45-.38a.29.29,0,0,1,.33-.33l.28,0,.22,0c.36,0,.53-.26.53-.79Z"/>
        <path class="cls-11" d="M185,469.5l2.81,5.85v-4.22c0-.54,0-.84,0-.9-.06-.36-.23-.54-.52-.54l-.25,0-.25,0a.33.33,0,0,1-.24-.1.3.3,0,0,1-.1-.23c0-.26.16-.38.47-.38H187l.47.06a4.18,4.18,0,0,0,.59,0c.18,0,.42,0,.72-.05l.37,0h.14q.45,0,.45.36c0,.23-.14.35-.42.35h-.23a.48.48,0,0,0-.41.14,1.15,1.15,0,0,0-.12.59v4.46a2.35,2.35,0,0,1-.16,1,.59.59,0,0,1-.57.29c-.34,0-.63-.24-.87-.73l-2.76-5.71v4.87c0,.53.18.79.54.79l.25,0h.25a.29.29,0,0,1,.33.33c0,.24-.15.36-.47.36H185l-.43-.07a5.43,5.43,0,0,0-.67,0c-.18,0-.42,0-.7,0l-.52.07h-.15c-.3,0-.45-.12-.45-.37a.29.29,0,0,1,.33-.32l.28,0,.22,0c.36,0,.54-.26.54-.79v-4.21q0-.78-.54-.78l-.21,0-.29,0c-.22,0-.33-.11-.33-.34s.15-.37.44-.37h.17c.35,0,.62,0,.81,0l.47,0,.47,0a.43.43,0,0,1,.43.22Z"/>
        <path class="cls-11" d="M197.14,468.84a2.72,2.72,0,0,1,1.9.79,1,1,0,0,1,0-.17c0-.14,0-.22,0-.23a.31.31,0,0,1,.34-.35c.25,0,.38.15.38.45a1.28,1.28,0,0,1,0,.22l-.08.5a3.58,3.58,0,0,0,0,.48c0,.13,0,.41.05.84v.1c0,.31-.13.47-.39.47s-.37-.17-.37-.51v-.32a1.46,1.46,0,0,0-.47-1.14,1.88,1.88,0,0,0-1.28-.42,1.84,1.84,0,0,0-1.59.79,3.6,3.6,0,0,0-.57,2.16,3.78,3.78,0,0,0,.59,2.27,1.91,1.91,0,0,0,1.64.81,1.59,1.59,0,0,0,1.24-.47,1.85,1.85,0,0,0,.44-1.34.78.78,0,0,0-.12-.5.51.51,0,0,0-.42-.15h-.48c-.34,0-.51-.11-.51-.35s.15-.37.43-.37l.31,0a8.2,8.2,0,0,0,1.05.09,6,6,0,0,0,1.09-.1l.29,0c.28,0,.42.12.42.35a.34.34,0,0,1-.11.25.37.37,0,0,1-.26.1h-.35c-.3,0-.46.34-.46,1V475c0,.18,0,.34,0,.48a2.44,2.44,0,0,1,0,.35c0,.28-.12.42-.37.42a.32.32,0,0,1-.37-.36l0-.25a2.38,2.38,0,0,0,0-.33,3.13,3.13,0,0,1-.37.45,2.47,2.47,0,0,1-1.69.55,2.69,2.69,0,0,1-2.18-1,4,4,0,0,1-.83-2.63,4.26,4.26,0,0,1,.85-2.77A2.8,2.8,0,0,1,197.14,468.84Z"/>
        <path class="cls-11" d="M215.45,474.67c0,.53.18.79.54.79l.25,0,.25,0a.34.34,0,0,1,.33.33c0,.25-.15.37-.47.37h-.13l-.52-.08a6.15,6.15,0,0,0-.66,0,7,7,0,0,0-.7,0l-.52.08h-.15c-.31,0-.46-.12-.46-.37s.11-.33.34-.33l.25,0,.25,0c.35,0,.52-.26.52-.79v-4.25a.66.66,0,0,0-.76-.74h-.33a.65.65,0,0,0-.75.73,3.14,3.14,0,0,0,0,.36l0,.38a2,2,0,0,1,0,.27c0,.44-.13.66-.41.66s-.38-.16-.38-.49c0-.09,0-.24,0-.47s0-.54,0-.64,0-.35,0-.54c0-.37,0-.53,0-.47,0-.29.13-.44.39-.44l.68,0,.86,0h1.19l1.12,0,.68,0,.67,0c.35,0,.52.14.52.43v0c0,.07,0,.2,0,.39s0,.39-.06.6v.12c0,.1,0,.27,0,.49s0,.48,0,.55a.38.38,0,0,1-.41.43c-.26,0-.4-.18-.4-.53,0-.13,0-.31,0-.56s0-.44,0-.57c0-.48-.28-.72-.83-.72h-.29a.78.78,0,0,0-.56.16.84.84,0,0,0-.19.54l0,.73Z"/>
        <path class="cls-11" d="M225.82,476.29a2.71,2.71,0,0,1-2.21-1,5,5,0,0,1,0-5.45,2.77,2.77,0,0,1,2.25-1,2.73,2.73,0,0,1,2.19,1,4,4,0,0,1,.81,2.61,4.51,4.51,0,0,1-.82,2.83A2.7,2.7,0,0,1,225.82,476.29Zm0-6.7a1.8,1.8,0,0,0-1.56.78,3.7,3.7,0,0,0-.56,2.18,3.74,3.74,0,0,0,.56,2.2,1.9,1.9,0,0,0,3.09,0,4.51,4.51,0,0,0,0-4.37A1.81,1.81,0,0,0,225.84,469.59Z"/>
        <path class="cls-11" d="M236.7,476.29a2.67,2.67,0,0,1-2.2-1,4.94,4.94,0,0,1,0-5.45,2.77,2.77,0,0,1,2.25-1,2.72,2.72,0,0,1,2.19,1,4,4,0,0,1,.81,2.61,4.51,4.51,0,0,1-.82,2.83A2.68,2.68,0,0,1,236.7,476.29Zm0-6.7a1.8,1.8,0,0,0-1.56.78,3.7,3.7,0,0,0-.55,2.18,3.75,3.75,0,0,0,.55,2.2,1.91,1.91,0,0,0,3.1,0,3.78,3.78,0,0,0,.57-2.2,3.64,3.64,0,0,0-.55-2.17A1.81,1.81,0,0,0,236.72,469.59Z"/>
        <path class="cls-11" d="M246.62,474.52c0,.41,0,.65.12.73a.44.44,0,0,0,.25.11,4.69,4.69,0,0,0,.69,0h.92a1.62,1.62,0,0,0,1-.2.93.93,0,0,0,.24-.76c0-.11,0-.23,0-.37s0-.43,0-.48c0-.3.12-.46.37-.46s.44.14.44.42c0,.09,0,.15,0,.2l-.08.54a3.64,3.64,0,0,0,0,.48c0,.1,0,.24,0,.43a4,4,0,0,1,0,.44c0,.31-.17.47-.53.47l-.48,0-.78,0h-2.46c-.17,0-.44,0-.84.05h-.28l-.32,0c-.3,0-.44-.13-.44-.38a.29.29,0,0,1,.32-.33l.25,0,.25,0c.36,0,.54-.26.54-.79v-4.2c0-.51-.18-.77-.54-.77l-.22,0-.28,0a.29.29,0,0,1-.23-.1.36.36,0,0,1-.09-.24c0-.25.15-.37.45-.37H245l.56.06a5.33,5.33,0,0,0,.68,0,4.4,4.4,0,0,0,.67,0l.48-.06h.14c.31,0,.47.12.47.37a.36.36,0,0,1-.09.24.3.3,0,0,1-.23.1l-.29,0-.22,0c-.35,0-.53.26-.53.77Z"/>
        <path class="cls-11" d="M258.08,468.84a2.24,2.24,0,0,1,1.67.66v-.15c0-.27.11-.41.33-.41s.35.16.35.46v.06s0,.12,0,.31,0,.43,0,.7c0,0,0,.15,0,.34l0,.42a.53.53,0,0,1,0,.14q0,.51-.39.51c-.27,0-.4-.14-.4-.42v0l0-.29c0-.09,0-.17,0-.23a1.19,1.19,0,0,0-.43-1,1.73,1.73,0,0,0-1.16-.36,1.62,1.62,0,0,0-1.09.34,1.1,1.1,0,0,0-.4.9,1,1,0,0,0,.6,1,4.43,4.43,0,0,0,1.17.31,4.14,4.14,0,0,1,1.71.54,1.71,1.71,0,0,1,.69,1.46,2,2,0,0,1-.71,1.6,2.68,2.68,0,0,1-1.82.62,2.76,2.76,0,0,1-2-.76v.16a1,1,0,0,1,0,.21c0,.26-.12.39-.38.39s-.42-.15-.42-.44a.12.12,0,0,1,0-.09l0-.54c0-.27,0-.45,0-.53s0-.34,0-.62a4.89,4.89,0,0,1-.06-.63c0-.32.13-.47.4-.47s.4.15.4.47v.43a1.6,1.6,0,0,0,.51,1.25,1.89,1.89,0,0,0,1.35.46,2,2,0,0,0,1.27-.37,1.26,1.26,0,0,0,.47-1c0-.66-.42-1.07-1.26-1.21l-.6-.11a7.06,7.06,0,0,1-1.38-.36,1.69,1.69,0,0,1-.72-.63,1.82,1.82,0,0,1-.26-1,1.86,1.86,0,0,1,.67-1.49A2.52,2.52,0,0,1,258.08,468.84Z"/>
      </g>
      <g>
        <path class="cls-11" d="M30.55,468.84a2.35,2.35,0,0,1,1.89.89v-.24l0-.07a2,2,0,0,0,0-.22c0-.24.11-.36.32-.36s.35.15.35.44c0,.06,0,.22,0,.5s-.06.59-.06.73a5.59,5.59,0,0,0,0,.57l0,.4v.1c0,.32-.13.48-.38.48s-.4-.15-.39-.45v-.38a1.58,1.58,0,0,0-.47-1.21,1.81,1.81,0,0,0-1.29-.47,1.9,1.9,0,0,0-1.62.8,4.45,4.45,0,0,0,0,4.43,2.14,2.14,0,0,0,2.73.52,1.57,1.57,0,0,0,.66-.74,2.29,2.29,0,0,0,.12-.82c0-.32.14-.48.4-.48s.43.16.43.48a2.35,2.35,0,0,1-.78,1.83,3.08,3.08,0,0,1-4.25-.28,4,4,0,0,1-.85-2.65,4.16,4.16,0,0,1,.87-2.75A2.79,2.79,0,0,1,30.55,468.84Z"/>
        <path class="cls-11" d="M40.15,474.52c0,.41,0,.65.13.73a.38.38,0,0,0,.24.11,4.69,4.69,0,0,0,.69,0h.92a1.62,1.62,0,0,0,1-.2.93.93,0,0,0,.24-.76c0-.11,0-.23,0-.37s0-.43,0-.48c0-.3.12-.46.37-.46s.44.14.44.42c0,.09,0,.15,0,.2l-.08.54a3.64,3.64,0,0,0,0,.48c0,.1,0,.24,0,.43s0,.34,0,.44c0,.31-.18.47-.54.47l-.48,0-.78,0H39.79l-.83.05h-.29l-.32,0c-.29,0-.44-.13-.44-.38a.29.29,0,0,1,.32-.33l.25,0,.26,0c.35,0,.53-.26.53-.79v-4.2c0-.51-.18-.77-.53-.77l-.22,0-.29,0a.3.3,0,0,1-.23-.1.36.36,0,0,1-.09-.24c0-.25.15-.37.45-.37h.16l.55.06a5.45,5.45,0,0,0,.68,0,4.4,4.4,0,0,0,.67,0l.48-.06H41c.31,0,.47.12.47.37a.36.36,0,0,1-.09.24.3.3,0,0,1-.23.1l-.29,0-.22,0c-.35,0-.53.26-.53.77Z"/>
        <path class="cls-11" d="M51.81,476.29a2.69,2.69,0,0,1-2.21-1,4.22,4.22,0,0,1-.81-2.72,4.14,4.14,0,0,1,.82-2.73,2.75,2.75,0,0,1,2.25-1,2.71,2.71,0,0,1,2.18,1,4,4,0,0,1,.81,2.61,4.45,4.45,0,0,1-.82,2.83A2.68,2.68,0,0,1,51.81,476.29Zm0-6.7a1.8,1.8,0,0,0-1.56.78,3.7,3.7,0,0,0-.56,2.18,3.74,3.74,0,0,0,.56,2.2,1.9,1.9,0,0,0,3.09,0,3.78,3.78,0,0,0,.57-2.2,3.72,3.72,0,0,0-.54-2.17A1.84,1.84,0,0,0,51.83,469.59Z"/>
        <path class="cls-11" d="M62.49,468.84a2.24,2.24,0,0,1,1.67.66v-.15c0-.27.11-.41.33-.41s.35.16.35.46v.06s0,.12,0,.31,0,.43,0,.7c0,0,0,.15,0,.34l0,.42a.53.53,0,0,1,0,.14c0,.34-.13.51-.38.51s-.41-.14-.41-.42v0l0-.29a2,2,0,0,0,0-.23,1.21,1.21,0,0,0-.42-1,1.78,1.78,0,0,0-1.17-.36,1.62,1.62,0,0,0-1.09.34,1.12,1.12,0,0,0-.4.9,1,1,0,0,0,.6,1,4.43,4.43,0,0,0,1.17.31,4.14,4.14,0,0,1,1.71.54,1.71,1.71,0,0,1,.69,1.46,2,2,0,0,1-.71,1.6,2.66,2.66,0,0,1-1.82.62,2.74,2.74,0,0,1-2-.76v.16c0,.11,0,.18,0,.21a.34.34,0,0,1-.39.39c-.28,0-.42-.15-.42-.44a.12.12,0,0,1,0-.09l0-.54c0-.27,0-.45,0-.53a4.93,4.93,0,0,0-.06-.62,4.89,4.89,0,0,1-.06-.63c0-.32.13-.47.4-.47s.41.15.41.47v.43a1.59,1.59,0,0,0,.5,1.25,1.92,1.92,0,0,0,1.36.46,2,2,0,0,0,1.26-.37,1.26,1.26,0,0,0,.47-1c0-.66-.42-1.07-1.26-1.21l-.59-.11a7,7,0,0,1-1.39-.36,1.61,1.61,0,0,1-.71-.63,1.74,1.74,0,0,1-.27-1,1.86,1.86,0,0,1,.67-1.49A2.56,2.56,0,0,1,62.49,468.84Z"/>
        <path class="cls-11" d="M71.35,470.46c0-.51-.18-.77-.54-.77l-.22,0-.28,0a.29.29,0,0,1-.23-.1.36.36,0,0,1-.09-.24c0-.25.14-.37.43-.37h.16l1.46.1h.11l2.51-.07.54,0h.31q.54,0,.54.48c0,.06,0,.23,0,.53s0,.43,0,.62a3.35,3.35,0,0,0,0,.52q0,.3,0,.45c0,.26-.12.39-.37.39s-.37-.18-.37-.55v-.55c0-.58-.13-.93-.37-1a4.7,4.7,0,0,0-1.4-.12,6.69,6.69,0,0,0-.88,0,.58.58,0,0,0-.45.63v1.05q0,.42.18.48a.79.79,0,0,0,.25,0h.42c.44,0,.65-.15.65-.45a2,2,0,0,0,0-.32,2.49,2.49,0,0,1,0-.36c0-.28.13-.42.37-.42s.38.15.38.45c0,.06,0,.27-.07.65a7,7,0,0,0-.06.85c0,.14,0,.39,0,.74,0,.06,0,.18.05.37a2,2,0,0,1,0,.37.33.33,0,0,1-.38.37c-.25,0-.37-.14-.37-.44a2.79,2.79,0,0,1,0-.33,2.38,2.38,0,0,0,0-.34c0-.3-.19-.45-.59-.45h-.47c-.21,0-.33,0-.38.11a1.07,1.07,0,0,0-.06.45v.65c0,.11,0,.26,0,.45s0,.38,0,.46c0,.28.06.45.17.52a1.13,1.13,0,0,0,.54.08h1.42a1.41,1.41,0,0,0,.85-.19.81.81,0,0,0,.23-.68c0-.11,0-.26,0-.47s0-.36,0-.47c0-.31.13-.47.37-.47s.4.16.4.48c0,.13,0,.32,0,.58s0,.45,0,.58,0,.24,0,.43,0,.34,0,.44a.43.43,0,0,1-.49.49l-.36,0h-.46l-.82,0-1.54,0c-.66,0-1.3,0-1.93.07h-.15c-.3,0-.44-.13-.44-.38s.1-.33.32-.33l.28,0,.22,0c.36,0,.54-.26.54-.79Z"/>
        <path class="cls-11" d="M82.42,470.46q0-.78-.54-.78a.94.94,0,0,0-.22,0l-.28,0c-.22,0-.32-.11-.32-.33s.15-.37.47-.37h.13l.56.07a4.73,4.73,0,0,0,.67,0,5.63,5.63,0,0,0,.58,0l.69-.07.52,0a4.09,4.09,0,0,1,1.59.27,2.74,2.74,0,0,1,1.33,1.24,4.16,4.16,0,0,1,.48,2,4.43,4.43,0,0,1-.38,1.85,2.7,2.7,0,0,1-1.06,1.21,3.86,3.86,0,0,1-2,.47l-.47,0L83.5,476c-.25,0-.5,0-.77,0a4.17,4.17,0,0,0-.56,0l-.51.08h-.15c-.3,0-.45-.12-.45-.37a.32.32,0,0,1,.09-.24.29.29,0,0,1,.23-.1l.28,0,.22,0c.36,0,.54-.26.54-.79Zm.88-.1v4.41a.53.53,0,0,0,.47.58,4.52,4.52,0,0,0,.88,0,2.25,2.25,0,0,0,1.82-.68,3.26,3.26,0,0,0,.68-2.15,3.56,3.56,0,0,0-.41-1.77,1.92,1.92,0,0,0-1.14-.93,4,4,0,0,0-1.11-.14,3.18,3.18,0,0,0-1,.09C83.36,469.89,83.3,470.06,83.3,470.36Z"/>
        <path class="cls-11" d="M102.67,468.84a2.36,2.36,0,0,1,1.9.89v-.24a.14.14,0,0,1,0-.07c0-.16,0-.23,0-.22,0-.24.1-.36.32-.36s.35.15.35.44c0,.06,0,.22,0,.5s-.06.59-.06.73a3.73,3.73,0,0,0,0,.57l0,.4v.1c0,.32-.13.48-.38.48s-.41-.15-.4-.45v-.38A1.54,1.54,0,0,0,104,470a1.79,1.79,0,0,0-1.28-.47,1.9,1.9,0,0,0-1.62.8,4.42,4.42,0,0,0,0,4.43,2,2,0,0,0,1.69.8,2,2,0,0,0,1-.28,1.5,1.5,0,0,0,.65-.74,2.07,2.07,0,0,0,.13-.82c0-.32.13-.48.4-.48s.43.16.43.48a2.35,2.35,0,0,1-.78,1.83,3.09,3.09,0,0,1-4.26-.28,4,4,0,0,1-.84-2.65,4.21,4.21,0,0,1,.86-2.75A2.82,2.82,0,0,1,102.67,468.84Z"/>
        <path class="cls-11" d="M115.19,474.87l-.38-1a.37.37,0,0,0-.13-.21.58.58,0,0,0-.28-.05h-1.86a.42.42,0,0,0-.29.08,1.45,1.45,0,0,0-.21.4l-.3.8a.6.6,0,0,0,0,.22c0,.23.14.34.41.34l.3,0a1.69,1.69,0,0,1,.28,0c.29,0,.43.12.43.36s-.15.35-.47.35l-.23,0-.52-.07-.48,0-.52,0-.44.05a2.93,2.93,0,0,1-.43,0c-.27,0-.4-.12-.4-.35s.13-.36.39-.36a.17.17,0,0,1,.13,0h.14a.48.48,0,0,0,.42-.22,1.86,1.86,0,0,0,.21-.5l2-5.28a.63.63,0,0,1,.66-.44.61.61,0,0,1,.64.44l1.88,5.19a1.82,1.82,0,0,0,.32.65.54.54,0,0,0,.42.16l.12,0,.3,0c.26,0,.4.11.4.34s-.14.37-.4.37l-.31,0a9.8,9.8,0,0,0-1-.08q-.39,0-1.26.09l-.33,0q-.42,0-.42-.36c0-.24.15-.35.46-.35a1.69,1.69,0,0,1,.28,0l.27,0c.24,0,.35-.1.35-.28A2,2,0,0,0,115.19,474.87Zm-.76-2.13-.94-2.89-1,2.89a.14.14,0,0,0,0,.07q0,.09.15.09h1.67c.08,0,.12,0,.12-.08A.17.17,0,0,0,114.43,472.74Z"/>
        <path class="cls-11" d="M123.1,474.66v-4.19c0-.51-.17-.77-.53-.77a.9.9,0,0,0-.21,0l-.29,0c-.22,0-.33-.11-.33-.34s.16-.37.46-.37h.16l.51.06a5.53,5.53,0,0,0,.63,0l.63,0c.57-.05,1-.07,1.29-.07a5.46,5.46,0,0,1,1.15.1,1.82,1.82,0,0,1,1.08.65,1.89,1.89,0,0,1,.4,1.22,1.81,1.81,0,0,1-.68,1.51,3.12,3.12,0,0,1-2,.52h-1.17c-.12,0-.19,0-.22.06a.46.46,0,0,0,0,.26v.21a9.26,9.26,0,0,0,.08,1.61c0,.18.21.28.46.28a.83.83,0,0,0,.22,0l.28,0a.29.29,0,0,1,.33.33c0,.25-.16.38-.47.38l-.14,0-.53-.08a5.17,5.17,0,0,0-.66,0,4.68,4.68,0,0,0-.59,0l-.61.09h-.14c-.31,0-.47-.12-.47-.37a.3.3,0,0,1,.1-.24.29.29,0,0,1,.23-.1l.28,0,.22,0C122.93,475.45,123.1,475.19,123.1,474.66Zm1-4.74a1.25,1.25,0,0,0-.08.58V472c0,.19.14.3.4.33H125a5.26,5.26,0,0,0,1.23-.12,1.12,1.12,0,0,0,.94-1.22c0-.89-.57-1.33-1.7-1.33C124.62,469.7,124.15,469.77,124.06,469.92Z"/>
        <path class="cls-11" d="M136,474.67c0,.53.17.79.53.79l.25,0,.25,0a.34.34,0,0,1,.34.33c0,.25-.16.37-.47.37h-.14l-.51-.08a6.5,6.5,0,0,0-.66,0c-.27,0-.5,0-.71,0l-.52.08h-.15c-.3,0-.46-.12-.46-.37a.3.3,0,0,1,.34-.33l.25,0,.25,0c.35,0,.53-.26.53-.79v-4.25a.67.67,0,0,0-.77-.74H134c-.51,0-.76.24-.76.73,0,.18,0,.29,0,.36l0,.38a2,2,0,0,1,0,.27c0,.44-.13.66-.4.66s-.39-.16-.39-.49c0-.09,0-.24,0-.47s0-.54,0-.64a5.06,5.06,0,0,0,0-.54c0-.37,0-.53,0-.47,0-.29.13-.44.4-.44l.68,0,.85,0h1.19l1.12,0,.68,0,.67,0c.35,0,.53.14.53.43v0q0,.11,0,.39c0,.18,0,.39-.06.6v.12c0,.1,0,.27,0,.49s0,.48,0,.55c0,.28-.13.43-.4.43s-.4-.18-.4-.53c0-.13,0-.31,0-.56s0-.44,0-.57c0-.48-.27-.72-.83-.72h-.29a.75.75,0,0,0-.55.16.74.74,0,0,0-.19.54l0,.73Z"/>
        <path class="cls-11" d="M144.49,470.46c0-.51-.18-.77-.54-.77l-.22,0-.28,0a.29.29,0,0,1-.23-.1.36.36,0,0,1-.09-.24c0-.25.15-.37.46-.37h.14l.56.07a4.63,4.63,0,0,0,.65,0,4.55,4.55,0,0,0,.71,0l.47-.06h.15c.31,0,.46.12.46.37a.36.36,0,0,1-.09.24.3.3,0,0,1-.23.1l-.29,0-.22,0c-.35,0-.53.26-.53.77v4.2c0,.53.18.79.53.79l.22,0,.29,0a.29.29,0,0,1,.32.33c0,.25-.15.38-.46.38h-.15l-.54-.09a5.28,5.28,0,0,0-.58,0,6,6,0,0,0-.78,0l-.49.08h-.15c-.3,0-.45-.13-.45-.38a.29.29,0,0,1,.32-.33l.28,0,.22,0c.36,0,.54-.26.54-.79Z"/>
        <path class="cls-11" d="M154.36,476.29a2.69,2.69,0,0,1-2.2-1,4.22,4.22,0,0,1-.81-2.72,4.14,4.14,0,0,1,.82-2.73,2.75,2.75,0,0,1,2.25-1,2.71,2.71,0,0,1,2.18,1,4,4,0,0,1,.81,2.61,4.45,4.45,0,0,1-.82,2.83A2.68,2.68,0,0,1,154.36,476.29Zm0-6.7a1.8,1.8,0,0,0-1.56.78,3.7,3.7,0,0,0-.56,2.18,3.74,3.74,0,0,0,.56,2.2,1.9,1.9,0,0,0,3.09,0,3.78,3.78,0,0,0,.57-2.2,3.72,3.72,0,0,0-.54-2.17A1.84,1.84,0,0,0,154.39,469.59Z"/>
        <path class="cls-11" d="M164.94,469.5l2.81,5.85v-4.22c0-.54,0-.84,0-.9-.06-.36-.24-.54-.53-.54l-.25,0-.25,0a.29.29,0,0,1-.23-.1.3.3,0,0,1-.1-.23c0-.26.15-.38.47-.38H167l.48.06a4,4,0,0,0,.58,0c.18,0,.42,0,.72-.05l.37,0h.15q.45,0,.45.36c0,.23-.14.35-.43.35h-.22a.5.5,0,0,0-.42.14,1.42,1.42,0,0,0-.12.59v4.46a2.21,2.21,0,0,1-.16,1,.57.57,0,0,1-.56.29c-.35,0-.64-.24-.87-.73l-2.76-5.71v4.87c0,.53.18.79.53.79l.25,0h.26a.29.29,0,0,1,.33.33c0,.24-.16.36-.47.36H165l-.43-.07a5.29,5.29,0,0,0-.67,0c-.18,0-.41,0-.7,0l-.51.07h-.16c-.3,0-.45-.12-.45-.37s.11-.32.34-.32l.28,0,.22,0c.35,0,.53-.26.53-.79v-4.21q0-.78-.54-.78l-.21,0-.29,0c-.22,0-.33-.11-.33-.34s.15-.37.45-.37h.17c.35,0,.61,0,.8,0l.47,0,.47,0a.42.42,0,0,1,.43.22Z"/>
        <path class="cls-11" d="M175.41,470.46c0-.51-.17-.77-.53-.77l-.22,0-.28,0a.29.29,0,0,1-.23-.1.33.33,0,0,1-.1-.24c0-.25.16-.37.46-.37h.15l.56.07a4.54,4.54,0,0,0,.65,0,4.63,4.63,0,0,0,.71,0l.47-.06h.15c.3,0,.46.12.46.37a.37.37,0,0,1-.1.24.29.29,0,0,1-.23.1l-.28,0-.22,0c-.36,0-.54.26-.54.77v4.2c0,.53.18.79.54.79l.22,0,.28,0a.29.29,0,0,1,.33.33c0,.25-.16.38-.46.38h-.15l-.55-.09a5.1,5.1,0,0,0-.57,0,6.06,6.06,0,0,0-.79,0l-.48.08h-.16c-.3,0-.45-.13-.45-.38a.29.29,0,0,1,.33-.33l.28,0,.22,0c.36,0,.53-.26.53-.79Z"/>
        <path class="cls-11" d="M185,469.5l2.81,5.85v-4.22c0-.54,0-.84,0-.9-.06-.36-.23-.54-.52-.54l-.25,0-.25,0a.33.33,0,0,1-.24-.1.3.3,0,0,1-.1-.23c0-.26.16-.38.47-.38H187l.47.06a4.18,4.18,0,0,0,.59,0c.18,0,.42,0,.72-.05l.37,0h.14q.45,0,.45.36c0,.23-.14.35-.42.35h-.23a.48.48,0,0,0-.41.14,1.15,1.15,0,0,0-.12.59v4.46a2.35,2.35,0,0,1-.16,1,.59.59,0,0,1-.57.29c-.34,0-.63-.24-.87-.73l-2.76-5.71v4.87c0,.53.18.79.54.79l.25,0h.25a.29.29,0,0,1,.33.33c0,.24-.15.36-.47.36H185l-.43-.07a5.43,5.43,0,0,0-.67,0c-.18,0-.42,0-.7,0l-.52.07h-.15c-.3,0-.45-.12-.45-.37a.29.29,0,0,1,.33-.32l.28,0,.22,0c.36,0,.54-.26.54-.79v-4.21q0-.78-.54-.78l-.21,0-.29,0c-.22,0-.33-.11-.33-.34s.15-.37.44-.37h.17c.35,0,.62,0,.81,0l.47,0,.47,0a.43.43,0,0,1,.43.22Z"/>
        <path class="cls-11" d="M197.14,468.84a2.72,2.72,0,0,1,1.9.79,1,1,0,0,1,0-.17c0-.14,0-.22,0-.23a.31.31,0,0,1,.34-.35c.25,0,.38.15.38.45a1.28,1.28,0,0,1,0,.22l-.08.5a3.58,3.58,0,0,0,0,.48c0,.13,0,.41.05.84v.1c0,.31-.13.47-.39.47s-.37-.17-.37-.51v-.32a1.46,1.46,0,0,0-.47-1.14,1.88,1.88,0,0,0-1.28-.42,1.84,1.84,0,0,0-1.59.79,3.6,3.6,0,0,0-.57,2.16,3.78,3.78,0,0,0,.59,2.27,1.91,1.91,0,0,0,1.64.81,1.59,1.59,0,0,0,1.24-.47,1.85,1.85,0,0,0,.44-1.34.78.78,0,0,0-.12-.5.51.51,0,0,0-.42-.15h-.48c-.34,0-.51-.11-.51-.35s.15-.37.43-.37l.31,0a8.2,8.2,0,0,0,1.05.09,6,6,0,0,0,1.09-.1l.29,0c.28,0,.42.12.42.35a.34.34,0,0,1-.11.25.37.37,0,0,1-.26.1h-.35c-.3,0-.46.34-.46,1V475c0,.18,0,.34,0,.48a2.44,2.44,0,0,1,0,.35c0,.28-.12.42-.37.42a.32.32,0,0,1-.37-.36l0-.25a2.38,2.38,0,0,0,0-.33,3.13,3.13,0,0,1-.37.45,2.47,2.47,0,0,1-1.69.55,2.69,2.69,0,0,1-2.18-1,4,4,0,0,1-.83-2.63,4.26,4.26,0,0,1,.85-2.77A2.8,2.8,0,0,1,197.14,468.84Z"/>
        <path class="cls-11" d="M215.45,474.67c0,.53.18.79.54.79l.25,0,.25,0a.34.34,0,0,1,.33.33c0,.25-.15.37-.47.37h-.13l-.52-.08a6.15,6.15,0,0,0-.66,0,7,7,0,0,0-.7,0l-.52.08h-.15c-.31,0-.46-.12-.46-.37s.11-.33.34-.33l.25,0,.25,0c.35,0,.52-.26.52-.79v-4.25a.66.66,0,0,0-.76-.74h-.33a.65.65,0,0,0-.75.73,3.14,3.14,0,0,0,0,.36l0,.38a2,2,0,0,1,0,.27c0,.44-.13.66-.41.66s-.38-.16-.38-.49c0-.09,0-.24,0-.47s0-.54,0-.64,0-.35,0-.54c0-.37,0-.53,0-.47,0-.29.13-.44.39-.44l.68,0,.86,0h1.19l1.12,0,.68,0,.67,0c.35,0,.52.14.52.43v0c0,.07,0,.2,0,.39s0,.39-.06.6v.12c0,.1,0,.27,0,.49s0,.48,0,.55a.38.38,0,0,1-.41.43c-.26,0-.4-.18-.4-.53,0-.13,0-.31,0-.56s0-.44,0-.57c0-.48-.28-.72-.83-.72h-.29a.78.78,0,0,0-.56.16.84.84,0,0,0-.19.54l0,.73Z"/>
        <path class="cls-11" d="M225.82,476.29a2.71,2.71,0,0,1-2.21-1,5,5,0,0,1,0-5.45,2.77,2.77,0,0,1,2.25-1,2.73,2.73,0,0,1,2.19,1,4,4,0,0,1,.81,2.61,4.51,4.51,0,0,1-.82,2.83A2.7,2.7,0,0,1,225.82,476.29Zm0-6.7a1.8,1.8,0,0,0-1.56.78,3.7,3.7,0,0,0-.56,2.18,3.74,3.74,0,0,0,.56,2.2,1.9,1.9,0,0,0,3.09,0,4.51,4.51,0,0,0,0-4.37A1.81,1.81,0,0,0,225.84,469.59Z"/>
        <path class="cls-11" d="M236.7,476.29a2.67,2.67,0,0,1-2.2-1,4.94,4.94,0,0,1,0-5.45,2.77,2.77,0,0,1,2.25-1,2.72,2.72,0,0,1,2.19,1,4,4,0,0,1,.81,2.61,4.51,4.51,0,0,1-.82,2.83A2.68,2.68,0,0,1,236.7,476.29Zm0-6.7a1.8,1.8,0,0,0-1.56.78,3.7,3.7,0,0,0-.55,2.18,3.75,3.75,0,0,0,.55,2.2,1.91,1.91,0,0,0,3.1,0,3.78,3.78,0,0,0,.57-2.2,3.64,3.64,0,0,0-.55-2.17A1.81,1.81,0,0,0,236.72,469.59Z"/>
        <path class="cls-11" d="M246.62,474.52c0,.41,0,.65.12.73a.44.44,0,0,0,.25.11,4.69,4.69,0,0,0,.69,0h.92a1.62,1.62,0,0,0,1-.2.93.93,0,0,0,.24-.76c0-.11,0-.23,0-.37s0-.43,0-.48c0-.3.12-.46.37-.46s.44.14.44.42c0,.09,0,.15,0,.2l-.08.54a3.64,3.64,0,0,0,0,.48c0,.1,0,.24,0,.43a4,4,0,0,1,0,.44c0,.31-.17.47-.53.47l-.48,0-.78,0h-2.46c-.17,0-.44,0-.84.05h-.28l-.32,0c-.3,0-.44-.13-.44-.38a.29.29,0,0,1,.32-.33l.25,0,.25,0c.36,0,.54-.26.54-.79v-4.2c0-.51-.18-.77-.54-.77l-.22,0-.28,0a.29.29,0,0,1-.23-.1.36.36,0,0,1-.09-.24c0-.25.15-.37.45-.37H245l.56.06a5.33,5.33,0,0,0,.68,0,4.4,4.4,0,0,0,.67,0l.48-.06h.14c.31,0,.47.12.47.37a.36.36,0,0,1-.09.24.3.3,0,0,1-.23.1l-.29,0-.22,0c-.35,0-.53.26-.53.77Z"/>
        <path class="cls-11" d="M258.08,468.84a2.24,2.24,0,0,1,1.67.66v-.15c0-.27.11-.41.33-.41s.35.16.35.46v.06s0,.12,0,.31,0,.43,0,.7c0,0,0,.15,0,.34l0,.42a.53.53,0,0,1,0,.14q0,.51-.39.51c-.27,0-.4-.14-.4-.42v0l0-.29c0-.09,0-.17,0-.23a1.19,1.19,0,0,0-.43-1,1.73,1.73,0,0,0-1.16-.36,1.62,1.62,0,0,0-1.09.34,1.1,1.1,0,0,0-.4.9,1,1,0,0,0,.6,1,4.43,4.43,0,0,0,1.17.31,4.14,4.14,0,0,1,1.71.54,1.71,1.71,0,0,1,.69,1.46,2,2,0,0,1-.71,1.6,2.68,2.68,0,0,1-1.82.62,2.76,2.76,0,0,1-2-.76v.16a1,1,0,0,1,0,.21c0,.26-.12.39-.38.39s-.42-.15-.42-.44a.12.12,0,0,1,0-.09l0-.54c0-.27,0-.45,0-.53s0-.34,0-.62a4.89,4.89,0,0,1-.06-.63c0-.32.13-.47.4-.47s.4.15.4.47v.43a1.6,1.6,0,0,0,.51,1.25,1.89,1.89,0,0,0,1.35.46,2,2,0,0,0,1.27-.37,1.26,1.26,0,0,0,.47-1c0-.66-.42-1.07-1.26-1.21l-.6-.11a7.06,7.06,0,0,1-1.38-.36,1.69,1.69,0,0,1-.72-.63,1.82,1.82,0,0,1-.26-1,1.86,1.86,0,0,1,.67-1.49A2.52,2.52,0,0,1,258.08,468.84Z"/>
      </g>
    </g>
  </g>
  <path class="cls-7" d="M256.85,323.32a2.93,2.93,0,1,0,2.93,2.93A2.94,2.94,0,0,0,256.85,323.32Z"/>
</svg>
