<svg id="Layer_1" data-name="Layer 1" xmlns="http://www.w3.org/2000/svg" viewBox="0 0 432 432">
  <defs>
    <style>
      .cls-1, .cls-3 {
        fill: #fff;
      }

      .cls-2 {
        fill: #484848;
      }

      .cls-3 {
        opacity: 0.36;
      }
    </style>
  </defs>
  <title>alternatives-3</title>
  <circle class="cls-1" cx="215.82" cy="216" r="206.35"/>
  <g>
    <g>
      <path class="cls-2" d="M346.58,177.8c0-8.42-6.79-20.55-20.56-20.55-3,0-5.81.11-13.91,5.42-29.29,19.24-60.82,29.43-95.26,29.43-52.37,0-88.59-24.56-91.82-26.75-3-2-5.82-4.6-9.1-6.24a20.72,20.72,0,0,0-18.21,0,20.29,20.29,0,0,0-6.14,31.57,46.44,46.44,0,0,0,8.28,7.12,226.68,226.68,0,0,0,26.31,14.86,14.37,14.37,0,0,1,1.84,1.2,5.75,5.75,0,0,1,1.76,2,3.5,3.5,0,0,1-.48,3.83,12.16,12.16,0,0,1-10,4.25c3,1.61,8.75,2,12.59,2.09-3.17,3.4-3.85,8.46-4,13.22,7.53-10.43,21.73-16.94,38.73-12.2,4,1.12,6.89,4.17,9.41,7.33s5.6,6.69,10.2,6.44c-1.2,4-5,6.05-8.9,6.36a14.31,14.31,0,0,1-6.15-.86,30.78,30.78,0,0,0-7.92-2.2,23.82,23.82,0,0,0-15.23,3.6,27.9,27.9,0,0,0-5.63,4.7,32.52,32.52,0,0,0-2.37,2.87,13.26,13.26,0,0,0-.81,1.5s.81.64,1.06.82a30.84,30.84,0,0,0,6.56,3.79,24.09,24.09,0,0,0,8.35,1.64c5.87.12,11.25-2,16.94-3.08s13.19-.6,16.48,2a30.46,30.46,0,0,0,2.65,2.16c.1.06.19.13.29.18a2.43,2.43,0,0,0,.53.25,3.52,3.52,0,0,0,1.78.18,3.57,3.57,0,0,0,2.94-3c0-.06,0-.13,0-.2.51-.92.89-2.1,1.61-3.51,1.2-2.38,3.31-4.21,3.9-6.88.65-2.93-.27-5.88-.79-8.76-.49-2.67-.12-5.1,1.94-7a33.94,33.94,0,0,1,6.25-4.45,14.08,14.08,0,0,1,7.34-2.1,11.34,11.34,0,0,1,6.77,2.82,20.56,20.56,0,0,1,2.55,2.56c.43.5.78.72.46,1.34s-.85,1.28-1.24,1.92a41.46,41.46,0,0,0-3.79,7.85,37.71,37.71,0,0,0-2.16,16.1,24.37,24.37,0,0,0,2.2,8.12c1.22,2.6,2.89,5,3.79,7.72a19.55,19.55,0,0,1,.84,3.86c.15,1.25.08,2.43,1.13,3.31a11.4,11.4,0,0,0,2.76,1.46,35.63,35.63,0,0,1,3.77,1.86c3.61,2.15,8.45,7.46,3.55,11-.71.5-2.92,1.66-3.81,1.54a3.74,3.74,0,0,0-2.78-1.54,3.25,3.25,0,0,0-2.24.68c-1,.7-1.7,2.16-2.44,3.14a14.28,14.28,0,0,1-12.54,6,15.21,15.21,0,0,1-6.28-2,20.23,20.23,0,0,1-4.91-4.46c-1.49-1.67-3.35-3.24-5.74-3-1.11.12-1.91.86-3.05.76a9.24,9.24,0,0,1-3.27-1.1,11.3,11.3,0,0,1-5-5.46c-.17-.39-.15-.65-.59-.73a5.37,5.37,0,0,0-1.67.52c-1.41.48-2.79,1-4.15,1.65a56.26,56.26,0,0,0-14,9.48,39.07,39.07,0,0,0-5.58,6.13c-1.56,2.16-3.06,4.35-4.72,6.43a45.58,45.58,0,0,1-11.25,10.48c-9.56,6-21.1,5.26-31.21,1.09a17.23,17.23,0,0,1-9.39-8.82,18.09,18.09,0,0,1-.52-13.3,20.35,20.35,0,0,1,1.71-3.55,7.06,7.06,0,0,1,1.82-2.37,1.74,1.74,0,0,1,2.35.26c.62.79.41,1.94.46,2.86a12.31,12.31,0,0,0,6.61,10.19c8.46,4.36,18.8-3.08,17.4-12.48a12.16,12.16,0,0,0-8.44-9.84c-5.18-1.51-10.31.3-14.49,3.41a27.53,27.53,0,0,0-9.14,11.81,30.14,30.14,0,0,0-1.29,16.74,40.69,40.69,0,0,0,15,24.68c8.78,6.7,20.1,9.76,31,10,2.5.06,10,0,14.39-1.92a.65.65,0,0,1,.8.93c-2.14,3.56-6.38,5.55-11,5.48,4.32,2.07,9.21,2.07,14.22,1.89,5.2-.19,10.37-1.5,15.39-2.84a68.73,68.73,0,0,0,26.32-13.19,30,30,0,0,0,5.55-5.36,26.91,26.91,0,0,0,2.14-3,5.33,5.33,0,0,1,2.4-2.59,3.83,3.83,0,0,1,5.18,2.73c.74,2.51,3.88,5.84,6.55,7.95,8.36,6.59,17.55,9.68,27.24,12.64A89,89,0,0,0,270,364.07a55.62,55.62,0,0,0,8.84.47c2.67-.1,5.76-.46,8-2a11.76,11.76,0,0,1-11.3-6.25.37.37,0,0,1,.53-.47c4.33,2.63,9.54,3.52,14.55,3.63a59.77,59.77,0,0,0,17-2.07c11.46-3.15,20.38-11.36,25.32-22.07,4.79-10.39,6.24-23.07,0-33.17a26.73,26.73,0,0,0-4.91-5.85,18.74,18.74,0,0,0-6.73-4.24c-5.29-1.51-10.75,3-9.29,8.58a7.11,7.11,0,0,0,13.93-.78,1.68,1.68,0,0,1,2-1.52c1.11.22,2.06,1.66,2.71,2.49a18.35,18.35,0,0,1,3.54,15.38,17.86,17.86,0,0,1-9.51,11.67c-10.34,5.19-23.76,2.9-31.57-5.64-2.12-2.31-3.85-4.92-6-7.21a60.18,60.18,0,0,0-7.15-6.49A36.86,36.86,0,0,0,276.3,306c-1-.62-2.22-1.21-2.69-2.39a2.87,2.87,0,0,1,1.18-3.44A17.51,17.51,0,0,1,278,299c11.52-4.2,21.68-13.25,25.14-25a54.81,54.81,0,0,0,1.69-7.06,17.3,17.3,0,0,1-.05-22.45,10.68,10.68,0,0,1,1.74-2,.61.61,0,0,0,.07-.86,6,6,0,0,1,1-8.95l.54-.39c-3-.79-6.67-2.73-7.91-6.23,3.82,0,10.09-.39,13.29-2.1a12.22,12.22,0,0,1-9.82-4,3.8,3.8,0,0,1,.67-5.56,20.42,20.42,0,0,1,2.11-1.31,246.89,246.89,0,0,0,23.87-13.36C338,194.72,346.58,189.45,346.58,177.8Z"/>
      <path class="cls-2" d="M216.74,186c50.2,0,86.1-23.63,94.16-29.43a4.56,4.56,0,0,0,1.58-3.35c0-4.45-.81-13.62-.81-13.62-3-38.59-40.63-83.92-94.93-83.15-64.74.91-91.06,53.76-94.85,82.65a94.48,94.48,0,0,0-1,13.79,5,5,0,0,0,2.07,3.87C138.49,167.72,172.25,186,216.74,186Z"/>
      <path class="cls-2" d="M323.79,238.34a5.36,5.36,0,0,0-2.3-4.46c-1.23-.84-3.8-.7-4.06-.7h-6a4.58,4.58,0,0,0-4.55,5,4.75,4.75,0,0,0,4.8,4.14H313a1.63,1.63,0,0,1,1.64,1.64v.91a4.74,4.74,0,0,0,4.14,4.8,4.59,4.59,0,0,0,5-4.55Z"/>
      <path class="cls-2" d="M319.92,319.9a3.56,3.56,0,1,0-4.08-4.07A3.57,3.57,0,0,0,319.92,319.9Z"/>
      <path class="cls-2" d="M323.31,255.8a4,4,0,1,0-4.59,4.59A4,4,0,0,0,323.31,255.8Z"/>
      <path class="cls-2" d="M323.31,268.6a4,4,0,1,0-4.59,4.59A4,4,0,0,0,323.31,268.6Z"/>
      <path class="cls-2" d="M320,278.08a4,4,0,1,0,3.32,3.32A4,4,0,0,0,320,278.08Z"/>
    </g>
    <path class="cls-2" d="M319.35,361.1a2.83,2.83,0,1,0,2.83,2.83A2.83,2.83,0,0,0,319.35,361.1Z"/>
    <path class="cls-2" d="M305.61,251.5h0v0Z"/>
    <circle class="cls-1" cx="319.35" cy="340.48" r="2.74"/>
    <path class="cls-3" d="M295,258.69a32,32,0,1,1-61.54-12.47c4.86-11.5,30.71-2.88,50.54-11.69A32,32,0,0,1,295,258.69Z"/>
    <path class="cls-2" d="M230.68,285.54a3.55,3.55,0,1,0-4.07-4.07A3.57,3.57,0,0,0,230.68,285.54Z"/>
    <path class="cls-2" d="M197.75,306.11a3.55,3.55,0,1,0-4.07-4.07A3.58,3.58,0,0,0,197.75,306.11Z"/>
  </g>
</svg>
